%FSLAX45Y45*%
G04 Gerber Fmt 4.5, Leading zero omitted, Abs format (unit mm)*
G04 Created by KiCad (PCBNEW 4.0.6-e0-6349~53~ubuntu16.04.1) date Thu Jun 29 18:49:36 2017*
%MOMM*%
%LPD*%
G01*
G04 APERTURE LIST*
%ADD10C,0.127000*%
%ADD11C,0.100000*%
%ADD12C,0.200000*%
%ADD13C,0.300000*%
G04 APERTURE END LIST*
D10*
D11*
X22275800Y-2127250D02*
X22275800Y-11995150D01*
X12331700Y-2127250D02*
X22275800Y-2127250D01*
X12331700Y-11995150D02*
X12331700Y-2127250D01*
X22275800Y-11995150D02*
X12331700Y-11995150D01*
D12*
X12743500Y-11892600D02*
X12783500Y-11932600D01*
X12783500Y-11892600D02*
X12743500Y-11932600D01*
X12762550Y-4158300D02*
X12802550Y-4198300D01*
X12802550Y-4158300D02*
X12762550Y-4198300D01*
X12781600Y-2685100D02*
X12821600Y-2725100D01*
X12821600Y-2685100D02*
X12781600Y-2725100D01*
X12946700Y-7860350D02*
X12986700Y-7900350D01*
X12986700Y-7860350D02*
X12946700Y-7900350D01*
X12997500Y-3993200D02*
X13037500Y-4033200D01*
X13037500Y-3993200D02*
X12997500Y-4033200D01*
X13124500Y-10267000D02*
X13164500Y-10307000D01*
X13164500Y-10267000D02*
X13124500Y-10307000D01*
X13251500Y-2433640D02*
X13291500Y-2473640D01*
X13291500Y-2433640D02*
X13251500Y-2473640D01*
X13403900Y-11892600D02*
X13443900Y-11932600D01*
X13443900Y-11892600D02*
X13403900Y-11932600D01*
X13619800Y-10248000D02*
X13659800Y-10288000D01*
X13659800Y-10248000D02*
X13619800Y-10288000D01*
X13734100Y-9924100D02*
X13774100Y-9964100D01*
X13774100Y-9924100D02*
X13734100Y-9964100D01*
X13746800Y-4183700D02*
X13786800Y-4223700D01*
X13786800Y-4183700D02*
X13746800Y-4223700D01*
X13791250Y-4367850D02*
X13831250Y-4407850D01*
X13831250Y-4367850D02*
X13791250Y-4407850D01*
X14013500Y-3993200D02*
X14053500Y-4033200D01*
X14053500Y-3993200D02*
X14013500Y-4033200D01*
X14066840Y-2413320D02*
X14106840Y-2453320D01*
X14106840Y-2413320D02*
X14066840Y-2453320D01*
X14362750Y-5060000D02*
X14402750Y-5100000D01*
X14402750Y-5060000D02*
X14362750Y-5100000D01*
X14381800Y-11892600D02*
X14421800Y-11932600D01*
X14421800Y-11892600D02*
X14381800Y-11932600D01*
X14699300Y-9962200D02*
X14739300Y-10002200D01*
X14739300Y-9962200D02*
X14699300Y-10002200D01*
X14762800Y-4164650D02*
X14802800Y-4204650D01*
X14802800Y-4164650D02*
X14762800Y-4204650D01*
X14953300Y-8000050D02*
X14993300Y-8040050D01*
X14993300Y-8000050D02*
X14953300Y-8040050D01*
X14978700Y-9225600D02*
X15018700Y-9265600D01*
X15018700Y-9225600D02*
X14978700Y-9265600D01*
X15005624Y-3966276D02*
X15045624Y-4006276D01*
X15045624Y-3966276D02*
X15005624Y-4006276D01*
X15034580Y-2408240D02*
X15074580Y-2448240D01*
X15074580Y-2408240D02*
X15034580Y-2448240D01*
X15321600Y-11892600D02*
X15361600Y-11932600D01*
X15361600Y-11892600D02*
X15321600Y-11932600D01*
X15575600Y-9231950D02*
X15615600Y-9271950D01*
X15615600Y-9231950D02*
X15575600Y-9271950D01*
X15588300Y-9047800D02*
X15628300Y-9087800D01*
X15628300Y-9047800D02*
X15588300Y-9087800D01*
X15664500Y-9962200D02*
X15704500Y-10002200D01*
X15704500Y-9962200D02*
X15664500Y-10002200D01*
X15747050Y-4171000D02*
X15787050Y-4211000D01*
X15787050Y-4171000D02*
X15747050Y-4211000D01*
X15835950Y-6437950D02*
X15875950Y-6477950D01*
X15875950Y-6437950D02*
X15835950Y-6477950D01*
X15880400Y-5060000D02*
X15920400Y-5100000D01*
X15920400Y-5060000D02*
X15880400Y-5100000D01*
X15982000Y-3980500D02*
X16022000Y-4020500D01*
X16022000Y-3980500D02*
X15982000Y-4020500D01*
X16025180Y-2418400D02*
X16065180Y-2458400D01*
X16065180Y-2418400D02*
X16025180Y-2458400D01*
X16039150Y-5256850D02*
X16079150Y-5296850D01*
X16079150Y-5256850D02*
X16039150Y-5296850D01*
X16089950Y-5136200D02*
X16129950Y-5176200D01*
X16129950Y-5136200D02*
X16089950Y-5176200D01*
X16274100Y-11892600D02*
X16314100Y-11932600D01*
X16314100Y-11892600D02*
X16274100Y-11932600D01*
X16375700Y-9263700D02*
X16415700Y-9303700D01*
X16415700Y-9263700D02*
X16375700Y-9303700D01*
X16629700Y-9949500D02*
X16669700Y-9989500D01*
X16669700Y-9949500D02*
X16629700Y-9989500D01*
X16744000Y-4158300D02*
X16784000Y-4198300D01*
X16784000Y-4158300D02*
X16744000Y-4198300D01*
X16985300Y-2420940D02*
X17025300Y-2460940D01*
X17025300Y-2420940D02*
X16985300Y-2460940D01*
X17010700Y-3980500D02*
X17050700Y-4020500D01*
X17050700Y-3980500D02*
X17010700Y-4020500D01*
X17226600Y-11879900D02*
X17266600Y-11919900D01*
X17266600Y-11879900D02*
X17226600Y-11919900D01*
X17518700Y-6476050D02*
X17558700Y-6516050D01*
X17558700Y-6476050D02*
X17518700Y-6516050D01*
X17607600Y-9898700D02*
X17647600Y-9938700D01*
X17647600Y-9898700D02*
X17607600Y-9938700D01*
X17671100Y-4958400D02*
X17711100Y-4998400D01*
X17711100Y-4958400D02*
X17671100Y-4998400D01*
X17690150Y-5053650D02*
X17730150Y-5093650D01*
X17730150Y-5053650D02*
X17690150Y-5093650D01*
X17734600Y-4164650D02*
X17774600Y-4204650D01*
X17774600Y-4164650D02*
X17734600Y-4204650D01*
X17867950Y-6450650D02*
X17907950Y-6490650D01*
X17907950Y-6450650D02*
X17867950Y-6490650D01*
X17935260Y-2436180D02*
X17975260Y-2476180D01*
X17975260Y-2436180D02*
X17935260Y-2476180D01*
X17988600Y-3993200D02*
X18028600Y-4033200D01*
X18028600Y-3993200D02*
X17988600Y-4033200D01*
X18185450Y-6279200D02*
X18225450Y-6319200D01*
X18225450Y-6279200D02*
X18185450Y-6319200D01*
X18204500Y-11892600D02*
X18244500Y-11932600D01*
X18244500Y-11892600D02*
X18204500Y-11932600D01*
X18261650Y-6825300D02*
X18301650Y-6865300D01*
X18301650Y-6825300D02*
X18261650Y-6865300D01*
X18293400Y-6266500D02*
X18333400Y-6306500D01*
X18333400Y-6266500D02*
X18293400Y-6306500D01*
X18331500Y-6533200D02*
X18371500Y-6573200D01*
X18371500Y-6533200D02*
X18331500Y-6573200D01*
X18331500Y-6939600D02*
X18371500Y-6979600D01*
X18371500Y-6939600D02*
X18331500Y-6979600D01*
X18585500Y-9974900D02*
X18625500Y-10014900D01*
X18625500Y-9974900D02*
X18585500Y-10014900D01*
X18712500Y-4177350D02*
X18752500Y-4217350D01*
X18752500Y-4177350D02*
X18712500Y-4217350D01*
X18922050Y-7326950D02*
X18962050Y-7366950D01*
X18962050Y-7326950D02*
X18922050Y-7366950D01*
X18922050Y-7568250D02*
X18962050Y-7608250D01*
X18962050Y-7568250D02*
X18922050Y-7608250D01*
X18928400Y-5758500D02*
X18968400Y-5798500D01*
X18968400Y-5758500D02*
X18928400Y-5798500D01*
X18928400Y-5987100D02*
X18968400Y-6027100D01*
X18968400Y-5987100D02*
X18928400Y-6027100D01*
X18933480Y-2415860D02*
X18973480Y-2455860D01*
X18973480Y-2415860D02*
X18933480Y-2455860D01*
X18951260Y-8062280D02*
X18991260Y-8102280D01*
X18991260Y-8062280D02*
X18951260Y-8102280D01*
X18966500Y-5434650D02*
X19006500Y-5474650D01*
X19006500Y-5434650D02*
X18966500Y-5474650D01*
X18979200Y-3993200D02*
X19019200Y-4033200D01*
X19019200Y-3993200D02*
X18979200Y-4033200D01*
X19036350Y-6203000D02*
X19076350Y-6243000D01*
X19076350Y-6203000D02*
X19036350Y-6243000D01*
X19055400Y-5072700D02*
X19095400Y-5112700D01*
X19095400Y-5072700D02*
X19055400Y-5112700D01*
X19061750Y-6945950D02*
X19101750Y-6985950D01*
X19101750Y-6945950D02*
X19061750Y-6985950D01*
X19125250Y-6285550D02*
X19165250Y-6325550D01*
X19165250Y-6285550D02*
X19125250Y-6325550D01*
X19125250Y-6825300D02*
X19165250Y-6865300D01*
X19165250Y-6825300D02*
X19125250Y-6865300D01*
X19174780Y-7711760D02*
X19214780Y-7751760D01*
X19214780Y-7711760D02*
X19174780Y-7751760D01*
X19268760Y-8356920D02*
X19308760Y-8396920D01*
X19308760Y-8356920D02*
X19268760Y-8396920D01*
X19268760Y-8743000D02*
X19308760Y-8783000D01*
X19308760Y-8743000D02*
X19268760Y-8783000D01*
X19271300Y-7314250D02*
X19311300Y-7354250D01*
X19311300Y-7314250D02*
X19271300Y-7354250D01*
X19277650Y-6056950D02*
X19317650Y-6096950D01*
X19317650Y-6056950D02*
X19277650Y-6096950D01*
X19398300Y-7307900D02*
X19438300Y-7347900D01*
X19438300Y-7307900D02*
X19398300Y-7347900D01*
X19411000Y-6056950D02*
X19451000Y-6096950D01*
X19451000Y-6056950D02*
X19411000Y-6096950D01*
X19741200Y-5872800D02*
X19781200Y-5912800D01*
X19781200Y-5872800D02*
X19741200Y-5912800D01*
X19741200Y-6431600D02*
X19781200Y-6471600D01*
X19781200Y-6431600D02*
X19741200Y-6471600D01*
X19811050Y-10190800D02*
X19851050Y-10230800D01*
X19851050Y-10190800D02*
X19811050Y-10230800D01*
X19906300Y-10298750D02*
X19946300Y-10338750D01*
X19946300Y-10298750D02*
X19906300Y-10338750D01*
X19912650Y-9739950D02*
X19952650Y-9779950D01*
X19952650Y-9739950D02*
X19912650Y-9779950D01*
X19919000Y-6431600D02*
X19959000Y-6471600D01*
X19959000Y-6431600D02*
X19919000Y-6471600D01*
X19919000Y-6660200D02*
X19959000Y-6700200D01*
X19959000Y-6660200D02*
X19919000Y-6700200D01*
X19925350Y-9079550D02*
X19965350Y-9119550D01*
X19965350Y-9079550D02*
X19925350Y-9119550D01*
X20376200Y-9238300D02*
X20416200Y-9278300D01*
X20416200Y-9238300D02*
X20376200Y-9278300D01*
X20636550Y-9714550D02*
X20676550Y-9754550D01*
X20676550Y-9714550D02*
X20636550Y-9754550D01*
X20649250Y-10546400D02*
X20689250Y-10586400D01*
X20689250Y-10546400D02*
X20649250Y-10586400D01*
X20935000Y-10584500D02*
X20975000Y-10624500D01*
X20975000Y-10584500D02*
X20935000Y-10624500D01*
X20947700Y-7574600D02*
X20987700Y-7614600D01*
X20987700Y-7574600D02*
X20947700Y-7614600D01*
X20985800Y-3929700D02*
X21025800Y-3969700D01*
X21025800Y-3929700D02*
X20985800Y-3969700D01*
X21023900Y-6838000D02*
X21063900Y-6878000D01*
X21063900Y-6838000D02*
X21023900Y-6878000D01*
X21189000Y-9358950D02*
X21229000Y-9398950D01*
X21229000Y-9358950D02*
X21189000Y-9398950D01*
X21252500Y-2570800D02*
X21292500Y-2610800D01*
X21292500Y-2570800D02*
X21252500Y-2610800D01*
X21531900Y-6914200D02*
X21571900Y-6954200D01*
X21571900Y-6914200D02*
X21531900Y-6954200D01*
X21595400Y-2481900D02*
X21635400Y-2521900D01*
X21635400Y-2481900D02*
X21595400Y-2521900D01*
X21620800Y-6164900D02*
X21660800Y-6204900D01*
X21660800Y-6164900D02*
X21620800Y-6204900D01*
X21620800Y-7663500D02*
X21660800Y-7703500D01*
X21660800Y-7663500D02*
X21620800Y-7703500D01*
X21671600Y-10178100D02*
X21711600Y-10218100D01*
X21711600Y-10178100D02*
X21671600Y-10218100D01*
X21697000Y-8870000D02*
X21737000Y-8910000D01*
X21737000Y-8870000D02*
X21697000Y-8910000D01*
X21709700Y-8577900D02*
X21749700Y-8617900D01*
X21749700Y-8577900D02*
X21709700Y-8617900D01*
X21709700Y-9111300D02*
X21749700Y-9151300D01*
X21749700Y-9111300D02*
X21709700Y-9151300D01*
X21714780Y-3487740D02*
X21754780Y-3527740D01*
X21754780Y-3487740D02*
X21714780Y-3527740D01*
X21714780Y-3741740D02*
X21754780Y-3781740D01*
X21754780Y-3741740D02*
X21714780Y-3781740D01*
X21785900Y-9263700D02*
X21825900Y-9303700D01*
X21825900Y-9263700D02*
X21785900Y-9303700D01*
X21925600Y-2558100D02*
X21965600Y-2598100D01*
X21965600Y-2558100D02*
X21925600Y-2598100D01*
X21938300Y-10470200D02*
X21978300Y-10510200D01*
X21978300Y-10470200D02*
X21938300Y-10510200D01*
X12714600Y-10068000D02*
G75*
G03X12714600Y-10068000I-40000J0D01*
G01*
X12714600Y-10268000D02*
G75*
G03X12714600Y-10268000I-40000J0D01*
G01*
X12714600Y-10468000D02*
G75*
G03X12714600Y-10468000I-40000J0D01*
G01*
X12714600Y-10668000D02*
G75*
G03X12714600Y-10668000I-40000J0D01*
G01*
X12740000Y-3454400D02*
G75*
G03X12740000Y-3454400I-40000J0D01*
G01*
X12740000Y-3654400D02*
G75*
G03X12740000Y-3654400I-40000J0D01*
G01*
X12740000Y-3854400D02*
G75*
G03X12740000Y-3854400I-40000J0D01*
G01*
X12740000Y-4054400D02*
G75*
G03X12740000Y-4054400I-40000J0D01*
G01*
X13679800Y-10068000D02*
G75*
G03X13679800Y-10068000I-40000J0D01*
G01*
X13679800Y-10268000D02*
G75*
G03X13679800Y-10268000I-40000J0D01*
G01*
X13679800Y-10468000D02*
G75*
G03X13679800Y-10468000I-40000J0D01*
G01*
X13679800Y-10668000D02*
G75*
G03X13679800Y-10668000I-40000J0D01*
G01*
X13730600Y-3454400D02*
G75*
G03X13730600Y-3454400I-40000J0D01*
G01*
X13730600Y-3654400D02*
G75*
G03X13730600Y-3654400I-40000J0D01*
G01*
X13730600Y-3854400D02*
G75*
G03X13730600Y-3854400I-40000J0D01*
G01*
X13730600Y-4054400D02*
G75*
G03X13730600Y-4054400I-40000J0D01*
G01*
X14670400Y-10093400D02*
G75*
G03X14670400Y-10093400I-40000J0D01*
G01*
X14670400Y-10293400D02*
G75*
G03X14670400Y-10293400I-40000J0D01*
G01*
X14670400Y-10493400D02*
G75*
G03X14670400Y-10493400I-40000J0D01*
G01*
X14670400Y-10693400D02*
G75*
G03X14670400Y-10693400I-40000J0D01*
G01*
X14746600Y-3454400D02*
G75*
G03X14746600Y-3454400I-40000J0D01*
G01*
X14746600Y-3654400D02*
G75*
G03X14746600Y-3654400I-40000J0D01*
G01*
X14746600Y-3854400D02*
G75*
G03X14746600Y-3854400I-40000J0D01*
G01*
X14746600Y-4054400D02*
G75*
G03X14746600Y-4054400I-40000J0D01*
G01*
X15635600Y-10093400D02*
G75*
G03X15635600Y-10093400I-40000J0D01*
G01*
X15635600Y-10293400D02*
G75*
G03X15635600Y-10293400I-40000J0D01*
G01*
X15635600Y-10493400D02*
G75*
G03X15635600Y-10493400I-40000J0D01*
G01*
X15635600Y-10693400D02*
G75*
G03X15635600Y-10693400I-40000J0D01*
G01*
X15737200Y-3454400D02*
G75*
G03X15737200Y-3454400I-40000J0D01*
G01*
X15737200Y-3654400D02*
G75*
G03X15737200Y-3654400I-40000J0D01*
G01*
X15737200Y-3854400D02*
G75*
G03X15737200Y-3854400I-40000J0D01*
G01*
X15737200Y-4054400D02*
G75*
G03X15737200Y-4054400I-40000J0D01*
G01*
X16283300Y-8597900D02*
G75*
G03X16283300Y-8597900I-40000J0D01*
G01*
X16537300Y-8597900D02*
G75*
G03X16537300Y-8597900I-40000J0D01*
G01*
X16600800Y-10093400D02*
G75*
G03X16600800Y-10093400I-40000J0D01*
G01*
X16600800Y-10293400D02*
G75*
G03X16600800Y-10293400I-40000J0D01*
G01*
X16600800Y-10493400D02*
G75*
G03X16600800Y-10493400I-40000J0D01*
G01*
X16600800Y-10693400D02*
G75*
G03X16600800Y-10693400I-40000J0D01*
G01*
X16727800Y-3454400D02*
G75*
G03X16727800Y-3454400I-40000J0D01*
G01*
X16727800Y-3654400D02*
G75*
G03X16727800Y-3654400I-40000J0D01*
G01*
X16727800Y-3854400D02*
G75*
G03X16727800Y-3854400I-40000J0D01*
G01*
X16727800Y-4054400D02*
G75*
G03X16727800Y-4054400I-40000J0D01*
G01*
X16791300Y-8597900D02*
G75*
G03X16791300Y-8597900I-40000J0D01*
G01*
X17045300Y-8597900D02*
G75*
G03X17045300Y-8597900I-40000J0D01*
G01*
X17299300Y-8597900D02*
G75*
G03X17299300Y-8597900I-40000J0D01*
G01*
X17553300Y-8597900D02*
G75*
G03X17553300Y-8597900I-40000J0D01*
G01*
X17566000Y-10093400D02*
G75*
G03X17566000Y-10093400I-40000J0D01*
G01*
X17566000Y-10293400D02*
G75*
G03X17566000Y-10293400I-40000J0D01*
G01*
X17566000Y-10493400D02*
G75*
G03X17566000Y-10493400I-40000J0D01*
G01*
X17566000Y-10693400D02*
G75*
G03X17566000Y-10693400I-40000J0D01*
G01*
X17718400Y-3454400D02*
G75*
G03X17718400Y-3454400I-40000J0D01*
G01*
X17718400Y-3654400D02*
G75*
G03X17718400Y-3654400I-40000J0D01*
G01*
X17718400Y-3854400D02*
G75*
G03X17718400Y-3854400I-40000J0D01*
G01*
X17718400Y-4054400D02*
G75*
G03X17718400Y-4054400I-40000J0D01*
G01*
X17807300Y-8597900D02*
G75*
G03X17807300Y-8597900I-40000J0D01*
G01*
X18061300Y-8597900D02*
G75*
G03X18061300Y-8597900I-40000J0D01*
G01*
X18315300Y-8597900D02*
G75*
G03X18315300Y-8597900I-40000J0D01*
G01*
X18531200Y-10093400D02*
G75*
G03X18531200Y-10093400I-40000J0D01*
G01*
X18531200Y-10293400D02*
G75*
G03X18531200Y-10293400I-40000J0D01*
G01*
X18531200Y-10493400D02*
G75*
G03X18531200Y-10493400I-40000J0D01*
G01*
X18531200Y-10693400D02*
G75*
G03X18531200Y-10693400I-40000J0D01*
G01*
X18709000Y-3454400D02*
G75*
G03X18709000Y-3454400I-40000J0D01*
G01*
X18709000Y-3654400D02*
G75*
G03X18709000Y-3654400I-40000J0D01*
G01*
X18709000Y-3854400D02*
G75*
G03X18709000Y-3854400I-40000J0D01*
G01*
X18709000Y-4054400D02*
G75*
G03X18709000Y-4054400I-40000J0D01*
G01*
X19725000Y-10118800D02*
G75*
G03X19725000Y-10118800I-40000J0D01*
G01*
X19725000Y-10318800D02*
G75*
G03X19725000Y-10318800I-40000J0D01*
G01*
X19725000Y-10518800D02*
G75*
G03X19725000Y-10518800I-40000J0D01*
G01*
X19725000Y-10718800D02*
G75*
G03X19725000Y-10718800I-40000J0D01*
G01*
X19801200Y-3479800D02*
G75*
G03X19801200Y-3479800I-40000J0D01*
G01*
X19801200Y-3679800D02*
G75*
G03X19801200Y-3679800I-40000J0D01*
G01*
X19801200Y-3879800D02*
G75*
G03X19801200Y-3879800I-40000J0D01*
G01*
X19801200Y-4079800D02*
G75*
G03X19801200Y-4079800I-40000J0D01*
G01*
X21020400Y-10934700D02*
G75*
G03X21020400Y-10934700I-40000J0D01*
G01*
X21020400Y-11633200D02*
G75*
G03X21020400Y-11633200I-40000J0D01*
G01*
X21220400Y-10934700D02*
G75*
G03X21220400Y-10934700I-40000J0D01*
G01*
X21220400Y-11633200D02*
G75*
G03X21220400Y-11633200I-40000J0D01*
G01*
X21420400Y-10934700D02*
G75*
G03X21420400Y-10934700I-40000J0D01*
G01*
X21420400Y-11633200D02*
G75*
G03X21420400Y-11633200I-40000J0D01*
G01*
X21620400Y-10934700D02*
G75*
G03X21620400Y-10934700I-40000J0D01*
G01*
X21620400Y-11633200D02*
G75*
G03X21620400Y-11633200I-40000J0D01*
G01*
X22011000Y-4746700D02*
G75*
G03X22011000Y-4746700I-40000J0D01*
G01*
X22011000Y-4946700D02*
G75*
G03X22011000Y-4946700I-40000J0D01*
G01*
X22011000Y-5146700D02*
G75*
G03X22011000Y-5146700I-40000J0D01*
G01*
X22011000Y-5346700D02*
G75*
G03X22011000Y-5346700I-40000J0D01*
G01*
X22011000Y-5864300D02*
G75*
G03X22011000Y-5864300I-40000J0D01*
G01*
X22011000Y-6064300D02*
G75*
G03X22011000Y-6064300I-40000J0D01*
G01*
X22011000Y-6264300D02*
G75*
G03X22011000Y-6264300I-40000J0D01*
G01*
X22011000Y-6464300D02*
G75*
G03X22011000Y-6464300I-40000J0D01*
G01*
X22011000Y-6994600D02*
G75*
G03X22011000Y-6994600I-40000J0D01*
G01*
X22011000Y-7194600D02*
G75*
G03X22011000Y-7194600I-40000J0D01*
G01*
X22011000Y-7394600D02*
G75*
G03X22011000Y-7394600I-40000J0D01*
G01*
X22011000Y-7594600D02*
G75*
G03X22011000Y-7594600I-40000J0D01*
G01*
X22011000Y-8099500D02*
G75*
G03X22011000Y-8099500I-40000J0D01*
G01*
X22011000Y-8299500D02*
G75*
G03X22011000Y-8299500I-40000J0D01*
G01*
X22011000Y-8499500D02*
G75*
G03X22011000Y-8499500I-40000J0D01*
G01*
X22011000Y-8699500D02*
G75*
G03X22011000Y-8699500I-40000J0D01*
G01*
X22011000Y-9204400D02*
G75*
G03X22011000Y-9204400I-40000J0D01*
G01*
X22011000Y-9404400D02*
G75*
G03X22011000Y-9404400I-40000J0D01*
G01*
X22011000Y-9604400D02*
G75*
G03X22011000Y-9604400I-40000J0D01*
G01*
X22011000Y-9804400D02*
G75*
G03X22011000Y-9804400I-40000J0D01*
G01*
X14719300Y-8328660D02*
X14719300Y-8409940D01*
X14678660Y-8369300D02*
X14759940Y-8369300D01*
X15227300Y-8328660D02*
X15227300Y-8409940D01*
X15186660Y-8369300D02*
X15267940Y-8369300D01*
X17526000Y-6664960D02*
X17526000Y-6746240D01*
X17485360Y-6705600D02*
X17566640Y-6705600D01*
X17526000Y-6918960D02*
X17526000Y-7000240D01*
X17485360Y-6959600D02*
X17566640Y-6959600D01*
X17526000Y-7172960D02*
X17526000Y-7254240D01*
X17485360Y-7213600D02*
X17566640Y-7213600D01*
X17780000Y-6664960D02*
X17780000Y-6746240D01*
X17739360Y-6705600D02*
X17820640Y-6705600D01*
X17780000Y-6918960D02*
X17780000Y-7000240D01*
X17739360Y-6959600D02*
X17820640Y-6959600D01*
X17780000Y-7172960D02*
X17780000Y-7254240D01*
X17739360Y-7213600D02*
X17820640Y-7213600D01*
X13011220Y-3384620D02*
X13011220Y-3320980D01*
X12947580Y-3320980D01*
X12947580Y-3384620D01*
X13011220Y-3384620D01*
X13036620Y-10801420D02*
X13036620Y-10737780D01*
X12972980Y-10737780D01*
X12972980Y-10801420D01*
X13036620Y-10801420D01*
X13265220Y-3384620D02*
X13265220Y-3320980D01*
X13201580Y-3320980D01*
X13201580Y-3384620D01*
X13265220Y-3384620D01*
X13290620Y-10801420D02*
X13290620Y-10737780D01*
X13226980Y-10737780D01*
X13226980Y-10801420D01*
X13290620Y-10801420D01*
X14001820Y-3384620D02*
X14001820Y-3320980D01*
X13938180Y-3320980D01*
X13938180Y-3384620D01*
X14001820Y-3384620D01*
X14001820Y-10801420D02*
X14001820Y-10737780D01*
X13938180Y-10737780D01*
X13938180Y-10801420D01*
X14001820Y-10801420D01*
X14255820Y-3384620D02*
X14255820Y-3320980D01*
X14192180Y-3320980D01*
X14192180Y-3384620D01*
X14255820Y-3384620D01*
X14255820Y-10801420D02*
X14255820Y-10737780D01*
X14192180Y-10737780D01*
X14192180Y-10801420D01*
X14255820Y-10801420D01*
X14992420Y-10801420D02*
X14992420Y-10737780D01*
X14928780Y-10737780D01*
X14928780Y-10801420D01*
X14992420Y-10801420D01*
X15017820Y-3384620D02*
X15017820Y-3320980D01*
X14954180Y-3320980D01*
X14954180Y-3384620D01*
X15017820Y-3384620D01*
X15246420Y-10801420D02*
X15246420Y-10737780D01*
X15182780Y-10737780D01*
X15182780Y-10801420D01*
X15246420Y-10801420D01*
X15271820Y-3384620D02*
X15271820Y-3320980D01*
X15208180Y-3320980D01*
X15208180Y-3384620D01*
X15271820Y-3384620D01*
X15957620Y-10801420D02*
X15957620Y-10737780D01*
X15893980Y-10737780D01*
X15893980Y-10801420D01*
X15957620Y-10801420D01*
X16008420Y-3384620D02*
X16008420Y-3320980D01*
X15944780Y-3320980D01*
X15944780Y-3384620D01*
X16008420Y-3384620D01*
X16211620Y-10801420D02*
X16211620Y-10737780D01*
X16147980Y-10737780D01*
X16147980Y-10801420D01*
X16211620Y-10801420D01*
X16262420Y-3384620D02*
X16262420Y-3320980D01*
X16198780Y-3320980D01*
X16198780Y-3384620D01*
X16262420Y-3384620D01*
X16922820Y-10801420D02*
X16922820Y-10737780D01*
X16859180Y-10737780D01*
X16859180Y-10801420D01*
X16922820Y-10801420D01*
X16999020Y-3384620D02*
X16999020Y-3320980D01*
X16935380Y-3320980D01*
X16935380Y-3384620D01*
X16999020Y-3384620D01*
X17176820Y-10801420D02*
X17176820Y-10737780D01*
X17113180Y-10737780D01*
X17113180Y-10801420D01*
X17176820Y-10801420D01*
X17253020Y-3384620D02*
X17253020Y-3320980D01*
X17189380Y-3320980D01*
X17189380Y-3384620D01*
X17253020Y-3384620D01*
X17888020Y-10801420D02*
X17888020Y-10737780D01*
X17824380Y-10737780D01*
X17824380Y-10801420D01*
X17888020Y-10801420D01*
X17989620Y-3384620D02*
X17989620Y-3320980D01*
X17925980Y-3320980D01*
X17925980Y-3384620D01*
X17989620Y-3384620D01*
X18142020Y-10801420D02*
X18142020Y-10737780D01*
X18078380Y-10737780D01*
X18078380Y-10801420D01*
X18142020Y-10801420D01*
X18243620Y-3384620D02*
X18243620Y-3320980D01*
X18179980Y-3320980D01*
X18179980Y-3384620D01*
X18243620Y-3384620D01*
X18853220Y-10801420D02*
X18853220Y-10737780D01*
X18789580Y-10737780D01*
X18789580Y-10801420D01*
X18853220Y-10801420D01*
X18980220Y-3384620D02*
X18980220Y-3320980D01*
X18916580Y-3320980D01*
X18916580Y-3384620D01*
X18980220Y-3384620D01*
X19107220Y-10801420D02*
X19107220Y-10737780D01*
X19043580Y-10737780D01*
X19043580Y-10801420D01*
X19107220Y-10801420D01*
X19234220Y-3384620D02*
X19234220Y-3320980D01*
X19170580Y-3320980D01*
X19170580Y-3384620D01*
X19234220Y-3384620D01*
X20078770Y-10801420D02*
X20078770Y-10737780D01*
X20015130Y-10737780D01*
X20015130Y-10801420D01*
X20078770Y-10801420D01*
X20085120Y-10102920D02*
X20085120Y-10039280D01*
X20021480Y-10039280D01*
X20021480Y-10102920D01*
X20085120Y-10102920D01*
X20097820Y-3378270D02*
X20097820Y-3314630D01*
X20034180Y-3314630D01*
X20034180Y-3378270D01*
X20097820Y-3378270D01*
X20097820Y-4241870D02*
X20097820Y-4178230D01*
X20034180Y-4178230D01*
X20034180Y-4241870D01*
X20097820Y-4241870D01*
X20332770Y-10801420D02*
X20332770Y-10737780D01*
X20269130Y-10737780D01*
X20269130Y-10801420D01*
X20332770Y-10801420D01*
X20339120Y-10102920D02*
X20339120Y-10039280D01*
X20275480Y-10039280D01*
X20275480Y-10102920D01*
X20339120Y-10102920D01*
X20351820Y-3378270D02*
X20351820Y-3314630D01*
X20288180Y-3314630D01*
X20288180Y-3378270D01*
X20351820Y-3378270D01*
X20351820Y-4241870D02*
X20351820Y-4178230D01*
X20288180Y-4178230D01*
X20288180Y-4241870D01*
X20351820Y-4241870D01*
X12623800Y-6577800D02*
X12673800Y-6527800D01*
X12623800Y-6477800D01*
X12573800Y-6527800D01*
X12623800Y-6577800D01*
X12623800Y-6831800D02*
X12673800Y-6781800D01*
X12623800Y-6731800D01*
X12573800Y-6781800D01*
X12623800Y-6831800D01*
X12623800Y-7085800D02*
X12673800Y-7035800D01*
X12623800Y-6985800D01*
X12573800Y-7035800D01*
X12623800Y-7085800D01*
X12636500Y-5333200D02*
X12686500Y-5283200D01*
X12636500Y-5233200D01*
X12586500Y-5283200D01*
X12636500Y-5333200D01*
X12636500Y-5587200D02*
X12686500Y-5537200D01*
X12636500Y-5487200D01*
X12586500Y-5537200D01*
X12636500Y-5587200D01*
X12636500Y-5841200D02*
X12686500Y-5791200D01*
X12636500Y-5741200D01*
X12586500Y-5791200D01*
X12636500Y-5841200D01*
X12636500Y-8165300D02*
X12686500Y-8115300D01*
X12636500Y-8065300D01*
X12586500Y-8115300D01*
X12636500Y-8165300D01*
X12636500Y-8419300D02*
X12686500Y-8369300D01*
X12636500Y-8319300D01*
X12586500Y-8369300D01*
X12636500Y-8419300D01*
X12636500Y-8673300D02*
X12686500Y-8623300D01*
X12636500Y-8573300D01*
X12586500Y-8623300D01*
X12636500Y-8673300D01*
X12636500Y-8927300D02*
X12686500Y-8877300D01*
X12636500Y-8827300D01*
X12586500Y-8877300D01*
X12636500Y-8927300D01*
X13157200Y-6311100D02*
X13207200Y-6261100D01*
X13157200Y-6211100D01*
X13107200Y-6261100D01*
X13157200Y-6311100D01*
X13157200Y-6565100D02*
X13207200Y-6515100D01*
X13157200Y-6465100D01*
X13107200Y-6515100D01*
X13157200Y-6565100D01*
X13157200Y-6819100D02*
X13207200Y-6769100D01*
X13157200Y-6719100D01*
X13107200Y-6769100D01*
X13157200Y-6819100D01*
X13157200Y-7073100D02*
X13207200Y-7023100D01*
X13157200Y-6973100D01*
X13107200Y-7023100D01*
X13157200Y-7073100D01*
X13157200Y-7327100D02*
X13207200Y-7277100D01*
X13157200Y-7227100D01*
X13107200Y-7277100D01*
X13157200Y-7327100D01*
X13157200Y-7581100D02*
X13207200Y-7531100D01*
X13157200Y-7481100D01*
X13107200Y-7531100D01*
X13157200Y-7581100D01*
X20726400Y-2386800D02*
X20776400Y-2336800D01*
X20726400Y-2286800D01*
X20676400Y-2336800D01*
X20726400Y-2386800D01*
X20726400Y-2640800D02*
X20776400Y-2590800D01*
X20726400Y-2540800D01*
X20676400Y-2590800D01*
X20726400Y-2640800D01*
X20726400Y-2894800D02*
X20776400Y-2844800D01*
X20726400Y-2794800D01*
X20676400Y-2844800D01*
X20726400Y-2894800D01*
X20586700Y-3459226D02*
X20686776Y-3559302D01*
X20686776Y-3459226D02*
X20586700Y-3559302D01*
X20686776Y-3509264D02*
G75*
G03X20686776Y-3509264I-50038J0D01*
G01*
X20586700Y-3709162D02*
X20686776Y-3809238D01*
X20686776Y-3709162D02*
X20586700Y-3809238D01*
X20686776Y-3759200D02*
G75*
G03X20686776Y-3759200I-50038J0D01*
G01*
X20586700Y-3959098D02*
X20686776Y-4059174D01*
X20686776Y-3959098D02*
X20586700Y-4059174D01*
X20686776Y-4009136D02*
G75*
G03X20686776Y-4009136I-50038J0D01*
G01*
X22036786Y-3459226D02*
X22136862Y-3559302D01*
X22136862Y-3459226D02*
X22036786Y-3559302D01*
X22136862Y-3509264D02*
G75*
G03X22136862Y-3509264I-50038J0D01*
G01*
X22036786Y-3959098D02*
X22136862Y-4059174D01*
X22136862Y-3959098D02*
X22036786Y-4059174D01*
X22136862Y-4009136D02*
G75*
G03X22136862Y-4009136I-50038J0D01*
G01*
X13004800Y-4622800D02*
X13106400Y-4724400D01*
X13106400Y-4622800D02*
X13004800Y-4724400D01*
X13055600Y-4622800D02*
X13055600Y-4724400D01*
X13004800Y-4673600D02*
X13106400Y-4673600D01*
X13258800Y-4622800D02*
X13360400Y-4724400D01*
X13360400Y-4622800D02*
X13258800Y-4724400D01*
X13309600Y-4622800D02*
X13309600Y-4724400D01*
X13258800Y-4673600D02*
X13360400Y-4673600D01*
X13512800Y-4622800D02*
X13614400Y-4724400D01*
X13614400Y-4622800D02*
X13512800Y-4724400D01*
X13563600Y-4622800D02*
X13563600Y-4724400D01*
X13512800Y-4673600D02*
X13614400Y-4673600D01*
X13766800Y-4622800D02*
X13868400Y-4724400D01*
X13868400Y-4622800D02*
X13766800Y-4724400D01*
X13817600Y-4622800D02*
X13817600Y-4724400D01*
X13766800Y-4673600D02*
X13868400Y-4673600D01*
X13919200Y-9448800D02*
X14020800Y-9550400D01*
X14020800Y-9448800D02*
X13919200Y-9550400D01*
X13970000Y-9448800D02*
X13970000Y-9550400D01*
X13919200Y-9499600D02*
X14020800Y-9499600D01*
X14020800Y-4622800D02*
X14122400Y-4724400D01*
X14122400Y-4622800D02*
X14020800Y-4724400D01*
X14071600Y-4622800D02*
X14071600Y-4724400D01*
X14020800Y-4673600D02*
X14122400Y-4673600D01*
X14173200Y-9448800D02*
X14274800Y-9550400D01*
X14274800Y-9448800D02*
X14173200Y-9550400D01*
X14224000Y-9448800D02*
X14224000Y-9550400D01*
X14173200Y-9499600D02*
X14274800Y-9499600D01*
X14274800Y-4622800D02*
X14376400Y-4724400D01*
X14376400Y-4622800D02*
X14274800Y-4724400D01*
X14325600Y-4622800D02*
X14325600Y-4724400D01*
X14274800Y-4673600D02*
X14376400Y-4673600D01*
X14427200Y-9448800D02*
X14528800Y-9550400D01*
X14528800Y-9448800D02*
X14427200Y-9550400D01*
X14478000Y-9448800D02*
X14478000Y-9550400D01*
X14427200Y-9499600D02*
X14528800Y-9499600D01*
X14528800Y-4622800D02*
X14630400Y-4724400D01*
X14630400Y-4622800D02*
X14528800Y-4724400D01*
X14579600Y-4622800D02*
X14579600Y-4724400D01*
X14528800Y-4673600D02*
X14630400Y-4673600D01*
X14681200Y-9448800D02*
X14782800Y-9550400D01*
X14782800Y-9448800D02*
X14681200Y-9550400D01*
X14732000Y-9448800D02*
X14732000Y-9550400D01*
X14681200Y-9499600D02*
X14782800Y-9499600D01*
X14782800Y-4622800D02*
X14884400Y-4724400D01*
X14884400Y-4622800D02*
X14782800Y-4724400D01*
X14833600Y-4622800D02*
X14833600Y-4724400D01*
X14782800Y-4673600D02*
X14884400Y-4673600D01*
X14935200Y-9448800D02*
X15036800Y-9550400D01*
X15036800Y-9448800D02*
X14935200Y-9550400D01*
X14986000Y-9448800D02*
X14986000Y-9550400D01*
X14935200Y-9499600D02*
X15036800Y-9499600D01*
X15036800Y-4622800D02*
X15138400Y-4724400D01*
X15138400Y-4622800D02*
X15036800Y-4724400D01*
X15087600Y-4622800D02*
X15087600Y-4724400D01*
X15036800Y-4673600D02*
X15138400Y-4673600D01*
X15189200Y-9448800D02*
X15290800Y-9550400D01*
X15290800Y-9448800D02*
X15189200Y-9550400D01*
X15240000Y-9448800D02*
X15240000Y-9550400D01*
X15189200Y-9499600D02*
X15290800Y-9499600D01*
X15290800Y-4622800D02*
X15392400Y-4724400D01*
X15392400Y-4622800D02*
X15290800Y-4724400D01*
X15341600Y-4622800D02*
X15341600Y-4724400D01*
X15290800Y-4673600D02*
X15392400Y-4673600D01*
X15443200Y-9448800D02*
X15544800Y-9550400D01*
X15544800Y-9448800D02*
X15443200Y-9550400D01*
X15494000Y-9448800D02*
X15494000Y-9550400D01*
X15443200Y-9499600D02*
X15544800Y-9499600D01*
X15697200Y-4622800D02*
X15798800Y-4724400D01*
X15798800Y-4622800D02*
X15697200Y-4724400D01*
X15748000Y-4622800D02*
X15748000Y-4724400D01*
X15697200Y-4673600D02*
X15798800Y-4673600D01*
X15697200Y-9448800D02*
X15798800Y-9550400D01*
X15798800Y-9448800D02*
X15697200Y-9550400D01*
X15748000Y-9448800D02*
X15748000Y-9550400D01*
X15697200Y-9499600D02*
X15798800Y-9499600D01*
X15951200Y-4622800D02*
X16052800Y-4724400D01*
X16052800Y-4622800D02*
X15951200Y-4724400D01*
X16002000Y-4622800D02*
X16002000Y-4724400D01*
X15951200Y-4673600D02*
X16052800Y-4673600D01*
X16205200Y-4622800D02*
X16306800Y-4724400D01*
X16306800Y-4622800D02*
X16205200Y-4724400D01*
X16256000Y-4622800D02*
X16256000Y-4724400D01*
X16205200Y-4673600D02*
X16306800Y-4673600D01*
X16205200Y-9448800D02*
X16306800Y-9550400D01*
X16306800Y-9448800D02*
X16205200Y-9550400D01*
X16256000Y-9448800D02*
X16256000Y-9550400D01*
X16205200Y-9499600D02*
X16306800Y-9499600D01*
X16459200Y-4622800D02*
X16560800Y-4724400D01*
X16560800Y-4622800D02*
X16459200Y-4724400D01*
X16510000Y-4622800D02*
X16510000Y-4724400D01*
X16459200Y-4673600D02*
X16560800Y-4673600D01*
X16459200Y-9448800D02*
X16560800Y-9550400D01*
X16560800Y-9448800D02*
X16459200Y-9550400D01*
X16510000Y-9448800D02*
X16510000Y-9550400D01*
X16459200Y-9499600D02*
X16560800Y-9499600D01*
X16713200Y-4622800D02*
X16814800Y-4724400D01*
X16814800Y-4622800D02*
X16713200Y-4724400D01*
X16764000Y-4622800D02*
X16764000Y-4724400D01*
X16713200Y-4673600D02*
X16814800Y-4673600D01*
X16713200Y-9448800D02*
X16814800Y-9550400D01*
X16814800Y-9448800D02*
X16713200Y-9550400D01*
X16764000Y-9448800D02*
X16764000Y-9550400D01*
X16713200Y-9499600D02*
X16814800Y-9499600D01*
X16967200Y-4622800D02*
X17068800Y-4724400D01*
X17068800Y-4622800D02*
X16967200Y-4724400D01*
X17018000Y-4622800D02*
X17018000Y-4724400D01*
X16967200Y-4673600D02*
X17068800Y-4673600D01*
X16967200Y-9448800D02*
X17068800Y-9550400D01*
X17068800Y-9448800D02*
X16967200Y-9550400D01*
X17018000Y-9448800D02*
X17018000Y-9550400D01*
X16967200Y-9499600D02*
X17068800Y-9499600D01*
X17221200Y-4622800D02*
X17322800Y-4724400D01*
X17322800Y-4622800D02*
X17221200Y-4724400D01*
X17272000Y-4622800D02*
X17272000Y-4724400D01*
X17221200Y-4673600D02*
X17322800Y-4673600D01*
X17221200Y-9448800D02*
X17322800Y-9550400D01*
X17322800Y-9448800D02*
X17221200Y-9550400D01*
X17272000Y-9448800D02*
X17272000Y-9550400D01*
X17221200Y-9499600D02*
X17322800Y-9499600D01*
X17475200Y-4622800D02*
X17576800Y-4724400D01*
X17576800Y-4622800D02*
X17475200Y-4724400D01*
X17526000Y-4622800D02*
X17526000Y-4724400D01*
X17475200Y-4673600D02*
X17576800Y-4673600D01*
X17475200Y-9448800D02*
X17576800Y-9550400D01*
X17576800Y-9448800D02*
X17475200Y-9550400D01*
X17526000Y-9448800D02*
X17526000Y-9550400D01*
X17475200Y-9499600D02*
X17576800Y-9499600D01*
X17729200Y-9448800D02*
X17830800Y-9550400D01*
X17830800Y-9448800D02*
X17729200Y-9550400D01*
X17780000Y-9448800D02*
X17780000Y-9550400D01*
X17729200Y-9499600D02*
X17830800Y-9499600D01*
X17983200Y-4622800D02*
X18084800Y-4724400D01*
X18084800Y-4622800D02*
X17983200Y-4724400D01*
X18034000Y-4622800D02*
X18034000Y-4724400D01*
X17983200Y-4673600D02*
X18084800Y-4673600D01*
X17983200Y-9448800D02*
X18084800Y-9550400D01*
X18084800Y-9448800D02*
X17983200Y-9550400D01*
X18034000Y-9448800D02*
X18034000Y-9550400D01*
X17983200Y-9499600D02*
X18084800Y-9499600D01*
X18237200Y-4622800D02*
X18338800Y-4724400D01*
X18338800Y-4622800D02*
X18237200Y-4724400D01*
X18288000Y-4622800D02*
X18288000Y-4724400D01*
X18237200Y-4673600D02*
X18338800Y-4673600D01*
X18491200Y-4622800D02*
X18592800Y-4724400D01*
X18592800Y-4622800D02*
X18491200Y-4724400D01*
X18542000Y-4622800D02*
X18542000Y-4724400D01*
X18491200Y-4673600D02*
X18592800Y-4673600D01*
X18491200Y-9448800D02*
X18592800Y-9550400D01*
X18592800Y-9448800D02*
X18491200Y-9550400D01*
X18542000Y-9448800D02*
X18542000Y-9550400D01*
X18491200Y-9499600D02*
X18592800Y-9499600D01*
X18745200Y-4622800D02*
X18846800Y-4724400D01*
X18846800Y-4622800D02*
X18745200Y-4724400D01*
X18796000Y-4622800D02*
X18796000Y-4724400D01*
X18745200Y-4673600D02*
X18846800Y-4673600D01*
X18745200Y-9448800D02*
X18846800Y-9550400D01*
X18846800Y-9448800D02*
X18745200Y-9550400D01*
X18796000Y-9448800D02*
X18796000Y-9550400D01*
X18745200Y-9499600D02*
X18846800Y-9499600D01*
X18999200Y-4622800D02*
X19100800Y-4724400D01*
X19100800Y-4622800D02*
X18999200Y-4724400D01*
X19050000Y-4622800D02*
X19050000Y-4724400D01*
X18999200Y-4673600D02*
X19100800Y-4673600D01*
X18999200Y-9448800D02*
X19100800Y-9550400D01*
X19100800Y-9448800D02*
X18999200Y-9550400D01*
X19050000Y-9448800D02*
X19050000Y-9550400D01*
X18999200Y-9499600D02*
X19100800Y-9499600D01*
X19253200Y-4622800D02*
X19354800Y-4724400D01*
X19354800Y-4622800D02*
X19253200Y-4724400D01*
X19304000Y-4622800D02*
X19304000Y-4724400D01*
X19253200Y-4673600D02*
X19354800Y-4673600D01*
X19253200Y-9448800D02*
X19354800Y-9550400D01*
X19354800Y-9448800D02*
X19253200Y-9550400D01*
X19304000Y-9448800D02*
X19304000Y-9550400D01*
X19253200Y-9499600D02*
X19354800Y-9499600D01*
X19507200Y-4622800D02*
X19608800Y-4724400D01*
X19608800Y-4622800D02*
X19507200Y-4724400D01*
X19558000Y-4622800D02*
X19558000Y-4724400D01*
X19507200Y-4673600D02*
X19608800Y-4673600D01*
X19507200Y-9448800D02*
X19608800Y-9550400D01*
X19608800Y-9448800D02*
X19507200Y-9550400D01*
X19558000Y-9448800D02*
X19558000Y-9550400D01*
X19507200Y-9499600D02*
X19608800Y-9499600D01*
X19761200Y-4622800D02*
X19862800Y-4724400D01*
X19862800Y-4622800D02*
X19761200Y-4724400D01*
X19812000Y-4622800D02*
X19812000Y-4724400D01*
X19761200Y-4673600D02*
X19862800Y-4673600D01*
X19761200Y-9448800D02*
X19862800Y-9550400D01*
X19862800Y-9448800D02*
X19761200Y-9550400D01*
X19812000Y-9448800D02*
X19812000Y-9550400D01*
X19761200Y-9499600D02*
X19862800Y-9499600D01*
X20015200Y-9448800D02*
X20116800Y-9550400D01*
X20116800Y-9448800D02*
X20015200Y-9550400D01*
X20066000Y-9448800D02*
X20066000Y-9550400D01*
X20015200Y-9499600D02*
X20116800Y-9499600D01*
X20269200Y-9448800D02*
X20370800Y-9550400D01*
X20370800Y-9448800D02*
X20269200Y-9550400D01*
X20320000Y-9448800D02*
X20320000Y-9550400D01*
X20269200Y-9499600D02*
X20370800Y-9499600D01*
X20523200Y-4622800D02*
X20624800Y-4724400D01*
X20624800Y-4622800D02*
X20523200Y-4724400D01*
X20574000Y-4622800D02*
X20574000Y-4724400D01*
X20523200Y-4673600D02*
X20624800Y-4673600D01*
X20523200Y-4876800D02*
X20624800Y-4978400D01*
X20624800Y-4876800D02*
X20523200Y-4978400D01*
X20574000Y-4876800D02*
X20574000Y-4978400D01*
X20523200Y-4927600D02*
X20624800Y-4927600D01*
X20523200Y-5130800D02*
X20624800Y-5232400D01*
X20624800Y-5130800D02*
X20523200Y-5232400D01*
X20574000Y-5130800D02*
X20574000Y-5232400D01*
X20523200Y-5181600D02*
X20624800Y-5181600D01*
X20523200Y-5384800D02*
X20624800Y-5486400D01*
X20624800Y-5384800D02*
X20523200Y-5486400D01*
X20574000Y-5384800D02*
X20574000Y-5486400D01*
X20523200Y-5435600D02*
X20624800Y-5435600D01*
X20523200Y-5638800D02*
X20624800Y-5740400D01*
X20624800Y-5638800D02*
X20523200Y-5740400D01*
X20574000Y-5638800D02*
X20574000Y-5740400D01*
X20523200Y-5689600D02*
X20624800Y-5689600D01*
X20523200Y-5892800D02*
X20624800Y-5994400D01*
X20624800Y-5892800D02*
X20523200Y-5994400D01*
X20574000Y-5892800D02*
X20574000Y-5994400D01*
X20523200Y-5943600D02*
X20624800Y-5943600D01*
X20523200Y-6146800D02*
X20624800Y-6248400D01*
X20624800Y-6146800D02*
X20523200Y-6248400D01*
X20574000Y-6146800D02*
X20574000Y-6248400D01*
X20523200Y-6197600D02*
X20624800Y-6197600D01*
X20523200Y-6400800D02*
X20624800Y-6502400D01*
X20624800Y-6400800D02*
X20523200Y-6502400D01*
X20574000Y-6400800D02*
X20574000Y-6502400D01*
X20523200Y-6451600D02*
X20624800Y-6451600D01*
X20523200Y-6654800D02*
X20624800Y-6756400D01*
X20624800Y-6654800D02*
X20523200Y-6756400D01*
X20574000Y-6654800D02*
X20574000Y-6756400D01*
X20523200Y-6705600D02*
X20624800Y-6705600D01*
X20523200Y-6908800D02*
X20624800Y-7010400D01*
X20624800Y-6908800D02*
X20523200Y-7010400D01*
X20574000Y-6908800D02*
X20574000Y-7010400D01*
X20523200Y-6959600D02*
X20624800Y-6959600D01*
X20523200Y-7162800D02*
X20624800Y-7264400D01*
X20624800Y-7162800D02*
X20523200Y-7264400D01*
X20574000Y-7162800D02*
X20574000Y-7264400D01*
X20523200Y-7213600D02*
X20624800Y-7213600D01*
X20523200Y-7416800D02*
X20624800Y-7518400D01*
X20624800Y-7416800D02*
X20523200Y-7518400D01*
X20574000Y-7416800D02*
X20574000Y-7518400D01*
X20523200Y-7467600D02*
X20624800Y-7467600D01*
X20523200Y-7670800D02*
X20624800Y-7772400D01*
X20624800Y-7670800D02*
X20523200Y-7772400D01*
X20574000Y-7670800D02*
X20574000Y-7772400D01*
X20523200Y-7721600D02*
X20624800Y-7721600D01*
X20523200Y-7924800D02*
X20624800Y-8026400D01*
X20624800Y-7924800D02*
X20523200Y-8026400D01*
X20574000Y-7924800D02*
X20574000Y-8026400D01*
X20523200Y-7975600D02*
X20624800Y-7975600D01*
X20523200Y-8178800D02*
X20624800Y-8280400D01*
X20624800Y-8178800D02*
X20523200Y-8280400D01*
X20574000Y-8178800D02*
X20574000Y-8280400D01*
X20523200Y-8229600D02*
X20624800Y-8229600D01*
X20523200Y-8432800D02*
X20624800Y-8534400D01*
X20624800Y-8432800D02*
X20523200Y-8534400D01*
X20574000Y-8432800D02*
X20574000Y-8534400D01*
X20523200Y-8483600D02*
X20624800Y-8483600D01*
X20523200Y-8686800D02*
X20624800Y-8788400D01*
X20624800Y-8686800D02*
X20523200Y-8788400D01*
X20574000Y-8686800D02*
X20574000Y-8788400D01*
X20523200Y-8737600D02*
X20624800Y-8737600D01*
X20523200Y-8940800D02*
X20624800Y-9042400D01*
X20624800Y-8940800D02*
X20523200Y-9042400D01*
X20574000Y-8940800D02*
X20574000Y-9042400D01*
X20523200Y-8991600D02*
X20624800Y-8991600D01*
X20777200Y-4622800D02*
X20878800Y-4724400D01*
X20878800Y-4622800D02*
X20777200Y-4724400D01*
X20828000Y-4622800D02*
X20828000Y-4724400D01*
X20777200Y-4673600D02*
X20878800Y-4673600D01*
X20777200Y-4876800D02*
X20878800Y-4978400D01*
X20878800Y-4876800D02*
X20777200Y-4978400D01*
X20828000Y-4876800D02*
X20828000Y-4978400D01*
X20777200Y-4927600D02*
X20878800Y-4927600D01*
X20777200Y-5130800D02*
X20878800Y-5232400D01*
X20878800Y-5130800D02*
X20777200Y-5232400D01*
X20828000Y-5130800D02*
X20828000Y-5232400D01*
X20777200Y-5181600D02*
X20878800Y-5181600D01*
X20777200Y-5384800D02*
X20878800Y-5486400D01*
X20878800Y-5384800D02*
X20777200Y-5486400D01*
X20828000Y-5384800D02*
X20828000Y-5486400D01*
X20777200Y-5435600D02*
X20878800Y-5435600D01*
X20777200Y-5638800D02*
X20878800Y-5740400D01*
X20878800Y-5638800D02*
X20777200Y-5740400D01*
X20828000Y-5638800D02*
X20828000Y-5740400D01*
X20777200Y-5689600D02*
X20878800Y-5689600D01*
X20777200Y-5892800D02*
X20878800Y-5994400D01*
X20878800Y-5892800D02*
X20777200Y-5994400D01*
X20828000Y-5892800D02*
X20828000Y-5994400D01*
X20777200Y-5943600D02*
X20878800Y-5943600D01*
X20777200Y-6146800D02*
X20878800Y-6248400D01*
X20878800Y-6146800D02*
X20777200Y-6248400D01*
X20828000Y-6146800D02*
X20828000Y-6248400D01*
X20777200Y-6197600D02*
X20878800Y-6197600D01*
X20777200Y-6400800D02*
X20878800Y-6502400D01*
X20878800Y-6400800D02*
X20777200Y-6502400D01*
X20828000Y-6400800D02*
X20828000Y-6502400D01*
X20777200Y-6451600D02*
X20878800Y-6451600D01*
X20777200Y-6654800D02*
X20878800Y-6756400D01*
X20878800Y-6654800D02*
X20777200Y-6756400D01*
X20828000Y-6654800D02*
X20828000Y-6756400D01*
X20777200Y-6705600D02*
X20878800Y-6705600D01*
X20777200Y-6908800D02*
X20878800Y-7010400D01*
X20878800Y-6908800D02*
X20777200Y-7010400D01*
X20828000Y-6908800D02*
X20828000Y-7010400D01*
X20777200Y-6959600D02*
X20878800Y-6959600D01*
X20777200Y-7162800D02*
X20878800Y-7264400D01*
X20878800Y-7162800D02*
X20777200Y-7264400D01*
X20828000Y-7162800D02*
X20828000Y-7264400D01*
X20777200Y-7213600D02*
X20878800Y-7213600D01*
X20777200Y-7416800D02*
X20878800Y-7518400D01*
X20878800Y-7416800D02*
X20777200Y-7518400D01*
X20828000Y-7416800D02*
X20828000Y-7518400D01*
X20777200Y-7467600D02*
X20878800Y-7467600D01*
X20777200Y-7670800D02*
X20878800Y-7772400D01*
X20878800Y-7670800D02*
X20777200Y-7772400D01*
X20828000Y-7670800D02*
X20828000Y-7772400D01*
X20777200Y-7721600D02*
X20878800Y-7721600D01*
X20777200Y-7924800D02*
X20878800Y-8026400D01*
X20878800Y-7924800D02*
X20777200Y-8026400D01*
X20828000Y-7924800D02*
X20828000Y-8026400D01*
X20777200Y-7975600D02*
X20878800Y-7975600D01*
X20777200Y-8178800D02*
X20878800Y-8280400D01*
X20878800Y-8178800D02*
X20777200Y-8280400D01*
X20828000Y-8178800D02*
X20828000Y-8280400D01*
X20777200Y-8229600D02*
X20878800Y-8229600D01*
X20777200Y-8432800D02*
X20878800Y-8534400D01*
X20878800Y-8432800D02*
X20777200Y-8534400D01*
X20828000Y-8432800D02*
X20828000Y-8534400D01*
X20777200Y-8483600D02*
X20878800Y-8483600D01*
X20777200Y-8686800D02*
X20878800Y-8788400D01*
X20878800Y-8686800D02*
X20777200Y-8788400D01*
X20828000Y-8686800D02*
X20828000Y-8788400D01*
X20777200Y-8737600D02*
X20878800Y-8737600D01*
X20777200Y-8940800D02*
X20878800Y-9042400D01*
X20878800Y-8940800D02*
X20777200Y-9042400D01*
X20828000Y-8940800D02*
X20828000Y-9042400D01*
X20777200Y-8991600D02*
X20878800Y-8991600D01*
X21267100Y-5599750D02*
X21368700Y-5701350D01*
X21368700Y-5599750D02*
X21267100Y-5701350D01*
X21317900Y-5599750D02*
X21317900Y-5701350D01*
X21267100Y-5650550D02*
X21368700Y-5650550D01*
X21267100Y-5853750D02*
X21368700Y-5955350D01*
X21368700Y-5853750D02*
X21267100Y-5955350D01*
X21317900Y-5853750D02*
X21317900Y-5955350D01*
X21267100Y-5904550D02*
X21368700Y-5904550D01*
X21267100Y-6107750D02*
X21368700Y-6209350D01*
X21368700Y-6107750D02*
X21267100Y-6209350D01*
X21317900Y-6107750D02*
X21317900Y-6209350D01*
X21267100Y-6158550D02*
X21368700Y-6158550D01*
X21267100Y-6361750D02*
X21368700Y-6463350D01*
X21368700Y-6361750D02*
X21267100Y-6463350D01*
X21317900Y-6361750D02*
X21317900Y-6463350D01*
X21267100Y-6412550D02*
X21368700Y-6412550D01*
X21267100Y-6615750D02*
X21368700Y-6717350D01*
X21368700Y-6615750D02*
X21267100Y-6717350D01*
X21317900Y-6615750D02*
X21317900Y-6717350D01*
X21267100Y-6666550D02*
X21368700Y-6666550D01*
X21267100Y-6869750D02*
X21368700Y-6971350D01*
X21368700Y-6869750D02*
X21267100Y-6971350D01*
X21317900Y-6869750D02*
X21317900Y-6971350D01*
X21267100Y-6920550D02*
X21368700Y-6920550D01*
X21267100Y-7123750D02*
X21368700Y-7225350D01*
X21368700Y-7123750D02*
X21267100Y-7225350D01*
X21317900Y-7123750D02*
X21317900Y-7225350D01*
X21267100Y-7174550D02*
X21368700Y-7174550D01*
X21267100Y-7377750D02*
X21368700Y-7479350D01*
X21368700Y-7377750D02*
X21267100Y-7479350D01*
X21317900Y-7377750D02*
X21317900Y-7479350D01*
X21267100Y-7428550D02*
X21368700Y-7428550D01*
X21267100Y-7631750D02*
X21368700Y-7733350D01*
X21368700Y-7631750D02*
X21267100Y-7733350D01*
X21317900Y-7631750D02*
X21317900Y-7733350D01*
X21267100Y-7682550D02*
X21368700Y-7682550D01*
X21267100Y-7885750D02*
X21368700Y-7987350D01*
X21368700Y-7885750D02*
X21267100Y-7987350D01*
X21317900Y-7885750D02*
X21317900Y-7987350D01*
X21267100Y-7936550D02*
X21368700Y-7936550D01*
X21267100Y-8139750D02*
X21368700Y-8241350D01*
X21368700Y-8139750D02*
X21267100Y-8241350D01*
X21317900Y-8139750D02*
X21317900Y-8241350D01*
X21267100Y-8190550D02*
X21368700Y-8190550D01*
X21267100Y-8393750D02*
X21368700Y-8495350D01*
X21368700Y-8393750D02*
X21267100Y-8495350D01*
X21317900Y-8393750D02*
X21317900Y-8495350D01*
X21267100Y-8444550D02*
X21368700Y-8444550D01*
X21267100Y-8647750D02*
X21368700Y-8749350D01*
X21368700Y-8647750D02*
X21267100Y-8749350D01*
X21317900Y-8647750D02*
X21317900Y-8749350D01*
X21267100Y-8698550D02*
X21368700Y-8698550D01*
X21267100Y-8901750D02*
X21368700Y-9003350D01*
X21368700Y-8901750D02*
X21267100Y-9003350D01*
X21317900Y-8901750D02*
X21317900Y-9003350D01*
X21267100Y-8952550D02*
X21368700Y-8952550D01*
X21276818Y-3029204D02*
X21496782Y-3249168D01*
X21496782Y-3029204D02*
X21276818Y-3249168D01*
X21464570Y-3216956D02*
X21464570Y-3061416D01*
X21309030Y-3061416D01*
X21309030Y-3216956D01*
X21464570Y-3216956D01*
X21276818Y-4269232D02*
X21496782Y-4489196D01*
X21496782Y-4269232D02*
X21276818Y-4489196D01*
X21464570Y-4456984D02*
X21464570Y-4301444D01*
X21309030Y-4301444D01*
X21309030Y-4456984D01*
X21464570Y-4456984D01*
D13*
X12598128Y-12465864D02*
X12598128Y-12165864D01*
X12669557Y-12165864D01*
X12712414Y-12180150D01*
X12740986Y-12208721D01*
X12755271Y-12237293D01*
X12769557Y-12294436D01*
X12769557Y-12337293D01*
X12755271Y-12394436D01*
X12740986Y-12423007D01*
X12712414Y-12451579D01*
X12669557Y-12465864D01*
X12598128Y-12465864D01*
X12898128Y-12465864D02*
X12898128Y-12265864D01*
X12898128Y-12323007D02*
X12912414Y-12294436D01*
X12926700Y-12280150D01*
X12955271Y-12265864D01*
X12983843Y-12265864D01*
X13083843Y-12465864D02*
X13083843Y-12265864D01*
X13083843Y-12165864D02*
X13069557Y-12180150D01*
X13083843Y-12194436D01*
X13098128Y-12180150D01*
X13083843Y-12165864D01*
X13083843Y-12194436D01*
X13269557Y-12465864D02*
X13240986Y-12451579D01*
X13226700Y-12423007D01*
X13226700Y-12165864D01*
X13426700Y-12465864D02*
X13398128Y-12451579D01*
X13383843Y-12423007D01*
X13383843Y-12165864D01*
X13769557Y-12465864D02*
X13769557Y-12165864D01*
X13869557Y-12380150D01*
X13969557Y-12165864D01*
X13969557Y-12465864D01*
X14240986Y-12465864D02*
X14240986Y-12308721D01*
X14226700Y-12280150D01*
X14198128Y-12265864D01*
X14140986Y-12265864D01*
X14112414Y-12280150D01*
X14240986Y-12451579D02*
X14212414Y-12465864D01*
X14140986Y-12465864D01*
X14112414Y-12451579D01*
X14098128Y-12423007D01*
X14098128Y-12394436D01*
X14112414Y-12365864D01*
X14140986Y-12351579D01*
X14212414Y-12351579D01*
X14240986Y-12337293D01*
X14383843Y-12265864D02*
X14383843Y-12565864D01*
X14383843Y-12280150D02*
X14412414Y-12265864D01*
X14469557Y-12265864D01*
X14498128Y-12280150D01*
X14512414Y-12294436D01*
X14526700Y-12323007D01*
X14526700Y-12408721D01*
X14512414Y-12437293D01*
X14498128Y-12451579D01*
X14469557Y-12465864D01*
X14412414Y-12465864D01*
X14383843Y-12451579D01*
X14655271Y-12437293D02*
X14669557Y-12451579D01*
X14655271Y-12465864D01*
X14640986Y-12451579D01*
X14655271Y-12437293D01*
X14655271Y-12465864D01*
X14655271Y-12280150D02*
X14669557Y-12294436D01*
X14655271Y-12308721D01*
X14640986Y-12294436D01*
X14655271Y-12280150D01*
X14655271Y-12308721D01*
X12286700Y-12940150D02*
X12326700Y-12980150D01*
X12326700Y-12940150D02*
X12286700Y-12980150D01*
X12655271Y-12795864D02*
X12683843Y-12795864D01*
X12712414Y-12810150D01*
X12726700Y-12824436D01*
X12740986Y-12853007D01*
X12755271Y-12910150D01*
X12755271Y-12981579D01*
X12740986Y-13038721D01*
X12726700Y-13067293D01*
X12712414Y-13081579D01*
X12683843Y-13095864D01*
X12655271Y-13095864D01*
X12626700Y-13081579D01*
X12612414Y-13067293D01*
X12598128Y-13038721D01*
X12583843Y-12981579D01*
X12583843Y-12910150D01*
X12598128Y-12853007D01*
X12612414Y-12824436D01*
X12626700Y-12810150D01*
X12655271Y-12795864D01*
X12883843Y-13067293D02*
X12898128Y-13081579D01*
X12883843Y-13095864D01*
X12869557Y-13081579D01*
X12883843Y-13067293D01*
X12883843Y-13095864D01*
X13155271Y-12895864D02*
X13155271Y-13095864D01*
X13083843Y-12781579D02*
X13012414Y-12995864D01*
X13198128Y-12995864D01*
X13369557Y-12795864D02*
X13398128Y-12795864D01*
X13426700Y-12810150D01*
X13440986Y-12824436D01*
X13455271Y-12853007D01*
X13469557Y-12910150D01*
X13469557Y-12981579D01*
X13455271Y-13038721D01*
X13440986Y-13067293D01*
X13426700Y-13081579D01*
X13398128Y-13095864D01*
X13369557Y-13095864D01*
X13340986Y-13081579D01*
X13326700Y-13067293D01*
X13312414Y-13038721D01*
X13298128Y-12981579D01*
X13298128Y-12910150D01*
X13312414Y-12853007D01*
X13326700Y-12824436D01*
X13340986Y-12810150D01*
X13369557Y-12795864D01*
X13598128Y-13095864D02*
X13598128Y-12895864D01*
X13598128Y-12924436D02*
X13612414Y-12910150D01*
X13640986Y-12895864D01*
X13683843Y-12895864D01*
X13712414Y-12910150D01*
X13726700Y-12938721D01*
X13726700Y-13095864D01*
X13726700Y-12938721D02*
X13740986Y-12910150D01*
X13769557Y-12895864D01*
X13812414Y-12895864D01*
X13840986Y-12910150D01*
X13855271Y-12938721D01*
X13855271Y-13095864D01*
X13998128Y-13095864D02*
X13998128Y-12895864D01*
X13998128Y-12924436D02*
X14012414Y-12910150D01*
X14040986Y-12895864D01*
X14083843Y-12895864D01*
X14112414Y-12910150D01*
X14126700Y-12938721D01*
X14126700Y-13095864D01*
X14126700Y-12938721D02*
X14140986Y-12910150D01*
X14169557Y-12895864D01*
X14212414Y-12895864D01*
X14240986Y-12910150D01*
X14255271Y-12938721D01*
X14255271Y-13095864D01*
X14840986Y-12781579D02*
X14583843Y-13167293D01*
X15226700Y-12795864D02*
X15255271Y-12795864D01*
X15283843Y-12810150D01*
X15298128Y-12824436D01*
X15312414Y-12853007D01*
X15326700Y-12910150D01*
X15326700Y-12981579D01*
X15312414Y-13038721D01*
X15298128Y-13067293D01*
X15283843Y-13081579D01*
X15255271Y-13095864D01*
X15226700Y-13095864D01*
X15198128Y-13081579D01*
X15183843Y-13067293D01*
X15169557Y-13038721D01*
X15155271Y-12981579D01*
X15155271Y-12910150D01*
X15169557Y-12853007D01*
X15183843Y-12824436D01*
X15198128Y-12810150D01*
X15226700Y-12795864D01*
X15455271Y-13067293D02*
X15469557Y-13081579D01*
X15455271Y-13095864D01*
X15440986Y-13081579D01*
X15455271Y-13067293D01*
X15455271Y-13095864D01*
X15655271Y-12795864D02*
X15683843Y-12795864D01*
X15712414Y-12810150D01*
X15726700Y-12824436D01*
X15740985Y-12853007D01*
X15755271Y-12910150D01*
X15755271Y-12981579D01*
X15740985Y-13038721D01*
X15726700Y-13067293D01*
X15712414Y-13081579D01*
X15683843Y-13095864D01*
X15655271Y-13095864D01*
X15626700Y-13081579D01*
X15612414Y-13067293D01*
X15598128Y-13038721D01*
X15583843Y-12981579D01*
X15583843Y-12910150D01*
X15598128Y-12853007D01*
X15612414Y-12824436D01*
X15626700Y-12810150D01*
X15655271Y-12795864D01*
X16040985Y-13095864D02*
X15869557Y-13095864D01*
X15955271Y-13095864D02*
X15955271Y-12795864D01*
X15926700Y-12838721D01*
X15898128Y-12867293D01*
X15869557Y-12881579D01*
X16298128Y-12795864D02*
X16240985Y-12795864D01*
X16212414Y-12810150D01*
X16198128Y-12824436D01*
X16169557Y-12867293D01*
X16155271Y-12924436D01*
X16155271Y-13038721D01*
X16169557Y-13067293D01*
X16183843Y-13081579D01*
X16212414Y-13095864D01*
X16269557Y-13095864D01*
X16298128Y-13081579D01*
X16312414Y-13067293D01*
X16326700Y-13038721D01*
X16326700Y-12967293D01*
X16312414Y-12938721D01*
X16298128Y-12924436D01*
X16269557Y-12910150D01*
X16212414Y-12910150D01*
X16183843Y-12924436D01*
X16169557Y-12938721D01*
X16155271Y-12967293D01*
X16440986Y-12795864D02*
X16440986Y-12853007D01*
X16555271Y-12795864D02*
X16555271Y-12853007D01*
X16998128Y-13210150D02*
X16983843Y-13195864D01*
X16955271Y-13153007D01*
X16940986Y-13124436D01*
X16926700Y-13081579D01*
X16912414Y-13010150D01*
X16912414Y-12953007D01*
X16926700Y-12881579D01*
X16940986Y-12838721D01*
X16955271Y-12810150D01*
X16983843Y-12767293D01*
X16998128Y-12753007D01*
X17269557Y-13095864D02*
X17098128Y-13095864D01*
X17183843Y-13095864D02*
X17183843Y-12795864D01*
X17155271Y-12838721D01*
X17126700Y-12867293D01*
X17098128Y-12881579D01*
X17455271Y-12795864D02*
X17483843Y-12795864D01*
X17512414Y-12810150D01*
X17526700Y-12824436D01*
X17540986Y-12853007D01*
X17555271Y-12910150D01*
X17555271Y-12981579D01*
X17540986Y-13038721D01*
X17526700Y-13067293D01*
X17512414Y-13081579D01*
X17483843Y-13095864D01*
X17455271Y-13095864D01*
X17426700Y-13081579D01*
X17412414Y-13067293D01*
X17398128Y-13038721D01*
X17383843Y-12981579D01*
X17383843Y-12910150D01*
X17398128Y-12853007D01*
X17412414Y-12824436D01*
X17426700Y-12810150D01*
X17455271Y-12795864D01*
X17812414Y-12795864D02*
X17755271Y-12795864D01*
X17726700Y-12810150D01*
X17712414Y-12824436D01*
X17683843Y-12867293D01*
X17669557Y-12924436D01*
X17669557Y-13038721D01*
X17683843Y-13067293D01*
X17698128Y-13081579D01*
X17726700Y-13095864D01*
X17783843Y-13095864D01*
X17812414Y-13081579D01*
X17826700Y-13067293D01*
X17840986Y-13038721D01*
X17840986Y-12967293D01*
X17826700Y-12938721D01*
X17812414Y-12924436D01*
X17783843Y-12910150D01*
X17726700Y-12910150D01*
X17698128Y-12924436D01*
X17683843Y-12938721D01*
X17669557Y-12967293D01*
X18198128Y-13095864D02*
X18198128Y-12795864D01*
X18326700Y-13095864D02*
X18326700Y-12938721D01*
X18312414Y-12910150D01*
X18283843Y-12895864D01*
X18240986Y-12895864D01*
X18212414Y-12910150D01*
X18198128Y-12924436D01*
X18512414Y-13095864D02*
X18483843Y-13081579D01*
X18469557Y-13067293D01*
X18455271Y-13038721D01*
X18455271Y-12953007D01*
X18469557Y-12924436D01*
X18483843Y-12910150D01*
X18512414Y-12895864D01*
X18555271Y-12895864D01*
X18583843Y-12910150D01*
X18598128Y-12924436D01*
X18612414Y-12953007D01*
X18612414Y-13038721D01*
X18598128Y-13067293D01*
X18583843Y-13081579D01*
X18555271Y-13095864D01*
X18512414Y-13095864D01*
X18783843Y-13095864D02*
X18755271Y-13081579D01*
X18740986Y-13053007D01*
X18740986Y-12795864D01*
X19012414Y-13081579D02*
X18983843Y-13095864D01*
X18926700Y-13095864D01*
X18898129Y-13081579D01*
X18883843Y-13053007D01*
X18883843Y-12938721D01*
X18898129Y-12910150D01*
X18926700Y-12895864D01*
X18983843Y-12895864D01*
X19012414Y-12910150D01*
X19026700Y-12938721D01*
X19026700Y-12967293D01*
X18883843Y-12995864D01*
X19140986Y-13081579D02*
X19169557Y-13095864D01*
X19226700Y-13095864D01*
X19255271Y-13081579D01*
X19269557Y-13053007D01*
X19269557Y-13038721D01*
X19255271Y-13010150D01*
X19226700Y-12995864D01*
X19183843Y-12995864D01*
X19155271Y-12981579D01*
X19140986Y-12953007D01*
X19140986Y-12938721D01*
X19155271Y-12910150D01*
X19183843Y-12895864D01*
X19226700Y-12895864D01*
X19255271Y-12910150D01*
X19369557Y-13210150D02*
X19383843Y-13195864D01*
X19412414Y-13153007D01*
X19426700Y-13124436D01*
X19440986Y-13081579D01*
X19455271Y-13010150D01*
X19455271Y-12953007D01*
X19440986Y-12881579D01*
X19426700Y-12838721D01*
X19412414Y-12810150D01*
X19383843Y-12767293D01*
X19369557Y-12753007D01*
X12326700Y-13356150D02*
G75*
G03X12326700Y-13356150I-40000J0D01*
G01*
X12655271Y-13191864D02*
X12683843Y-13191864D01*
X12712414Y-13206150D01*
X12726700Y-13220436D01*
X12740986Y-13249007D01*
X12755271Y-13306150D01*
X12755271Y-13377579D01*
X12740986Y-13434721D01*
X12726700Y-13463293D01*
X12712414Y-13477579D01*
X12683843Y-13491864D01*
X12655271Y-13491864D01*
X12626700Y-13477579D01*
X12612414Y-13463293D01*
X12598128Y-13434721D01*
X12583843Y-13377579D01*
X12583843Y-13306150D01*
X12598128Y-13249007D01*
X12612414Y-13220436D01*
X12626700Y-13206150D01*
X12655271Y-13191864D01*
X12883843Y-13463293D02*
X12898128Y-13477579D01*
X12883843Y-13491864D01*
X12869557Y-13477579D01*
X12883843Y-13463293D01*
X12883843Y-13491864D01*
X13069557Y-13320436D02*
X13040986Y-13306150D01*
X13026700Y-13291864D01*
X13012414Y-13263293D01*
X13012414Y-13249007D01*
X13026700Y-13220436D01*
X13040986Y-13206150D01*
X13069557Y-13191864D01*
X13126700Y-13191864D01*
X13155271Y-13206150D01*
X13169557Y-13220436D01*
X13183843Y-13249007D01*
X13183843Y-13263293D01*
X13169557Y-13291864D01*
X13155271Y-13306150D01*
X13126700Y-13320436D01*
X13069557Y-13320436D01*
X13040986Y-13334721D01*
X13026700Y-13349007D01*
X13012414Y-13377579D01*
X13012414Y-13434721D01*
X13026700Y-13463293D01*
X13040986Y-13477579D01*
X13069557Y-13491864D01*
X13126700Y-13491864D01*
X13155271Y-13477579D01*
X13169557Y-13463293D01*
X13183843Y-13434721D01*
X13183843Y-13377579D01*
X13169557Y-13349007D01*
X13155271Y-13334721D01*
X13126700Y-13320436D01*
X13369557Y-13191864D02*
X13398128Y-13191864D01*
X13426700Y-13206150D01*
X13440986Y-13220436D01*
X13455271Y-13249007D01*
X13469557Y-13306150D01*
X13469557Y-13377579D01*
X13455271Y-13434721D01*
X13440986Y-13463293D01*
X13426700Y-13477579D01*
X13398128Y-13491864D01*
X13369557Y-13491864D01*
X13340986Y-13477579D01*
X13326700Y-13463293D01*
X13312414Y-13434721D01*
X13298128Y-13377579D01*
X13298128Y-13306150D01*
X13312414Y-13249007D01*
X13326700Y-13220436D01*
X13340986Y-13206150D01*
X13369557Y-13191864D01*
X13598128Y-13491864D02*
X13598128Y-13291864D01*
X13598128Y-13320436D02*
X13612414Y-13306150D01*
X13640986Y-13291864D01*
X13683843Y-13291864D01*
X13712414Y-13306150D01*
X13726700Y-13334721D01*
X13726700Y-13491864D01*
X13726700Y-13334721D02*
X13740986Y-13306150D01*
X13769557Y-13291864D01*
X13812414Y-13291864D01*
X13840986Y-13306150D01*
X13855271Y-13334721D01*
X13855271Y-13491864D01*
X13998128Y-13491864D02*
X13998128Y-13291864D01*
X13998128Y-13320436D02*
X14012414Y-13306150D01*
X14040986Y-13291864D01*
X14083843Y-13291864D01*
X14112414Y-13306150D01*
X14126700Y-13334721D01*
X14126700Y-13491864D01*
X14126700Y-13334721D02*
X14140986Y-13306150D01*
X14169557Y-13291864D01*
X14212414Y-13291864D01*
X14240986Y-13306150D01*
X14255271Y-13334721D01*
X14255271Y-13491864D01*
X14840986Y-13177579D02*
X14583843Y-13563293D01*
X15226700Y-13191864D02*
X15255271Y-13191864D01*
X15283843Y-13206150D01*
X15298128Y-13220436D01*
X15312414Y-13249007D01*
X15326700Y-13306150D01*
X15326700Y-13377579D01*
X15312414Y-13434721D01*
X15298128Y-13463293D01*
X15283843Y-13477579D01*
X15255271Y-13491864D01*
X15226700Y-13491864D01*
X15198128Y-13477579D01*
X15183843Y-13463293D01*
X15169557Y-13434721D01*
X15155271Y-13377579D01*
X15155271Y-13306150D01*
X15169557Y-13249007D01*
X15183843Y-13220436D01*
X15198128Y-13206150D01*
X15226700Y-13191864D01*
X15455271Y-13463293D02*
X15469557Y-13477579D01*
X15455271Y-13491864D01*
X15440986Y-13477579D01*
X15455271Y-13463293D01*
X15455271Y-13491864D01*
X15655271Y-13191864D02*
X15683843Y-13191864D01*
X15712414Y-13206150D01*
X15726700Y-13220436D01*
X15740985Y-13249007D01*
X15755271Y-13306150D01*
X15755271Y-13377579D01*
X15740985Y-13434721D01*
X15726700Y-13463293D01*
X15712414Y-13477579D01*
X15683843Y-13491864D01*
X15655271Y-13491864D01*
X15626700Y-13477579D01*
X15612414Y-13463293D01*
X15598128Y-13434721D01*
X15583843Y-13377579D01*
X15583843Y-13306150D01*
X15598128Y-13249007D01*
X15612414Y-13220436D01*
X15626700Y-13206150D01*
X15655271Y-13191864D01*
X15855271Y-13191864D02*
X16040985Y-13191864D01*
X15940985Y-13306150D01*
X15983843Y-13306150D01*
X16012414Y-13320436D01*
X16026700Y-13334721D01*
X16040985Y-13363293D01*
X16040985Y-13434721D01*
X16026700Y-13463293D01*
X16012414Y-13477579D01*
X15983843Y-13491864D01*
X15898128Y-13491864D01*
X15869557Y-13477579D01*
X15855271Y-13463293D01*
X16326700Y-13491864D02*
X16155271Y-13491864D01*
X16240985Y-13491864D02*
X16240985Y-13191864D01*
X16212414Y-13234721D01*
X16183843Y-13263293D01*
X16155271Y-13277579D01*
X16440986Y-13191864D02*
X16440986Y-13249007D01*
X16555271Y-13191864D02*
X16555271Y-13249007D01*
X16998128Y-13606150D02*
X16983843Y-13591864D01*
X16955271Y-13549007D01*
X16940986Y-13520436D01*
X16926700Y-13477579D01*
X16912414Y-13406150D01*
X16912414Y-13349007D01*
X16926700Y-13277579D01*
X16940986Y-13234721D01*
X16955271Y-13206150D01*
X16983843Y-13163293D01*
X16998128Y-13149007D01*
X17269557Y-13491864D02*
X17098128Y-13491864D01*
X17183843Y-13491864D02*
X17183843Y-13191864D01*
X17155271Y-13234721D01*
X17126700Y-13263293D01*
X17098128Y-13277579D01*
X17455271Y-13191864D02*
X17483843Y-13191864D01*
X17512414Y-13206150D01*
X17526700Y-13220436D01*
X17540986Y-13249007D01*
X17555271Y-13306150D01*
X17555271Y-13377579D01*
X17540986Y-13434721D01*
X17526700Y-13463293D01*
X17512414Y-13477579D01*
X17483843Y-13491864D01*
X17455271Y-13491864D01*
X17426700Y-13477579D01*
X17412414Y-13463293D01*
X17398128Y-13434721D01*
X17383843Y-13377579D01*
X17383843Y-13306150D01*
X17398128Y-13249007D01*
X17412414Y-13220436D01*
X17426700Y-13206150D01*
X17455271Y-13191864D01*
X17840986Y-13491864D02*
X17669557Y-13491864D01*
X17755271Y-13491864D02*
X17755271Y-13191864D01*
X17726700Y-13234721D01*
X17698128Y-13263293D01*
X17669557Y-13277579D01*
X18198128Y-13491864D02*
X18198128Y-13191864D01*
X18326700Y-13491864D02*
X18326700Y-13334721D01*
X18312414Y-13306150D01*
X18283843Y-13291864D01*
X18240986Y-13291864D01*
X18212414Y-13306150D01*
X18198128Y-13320436D01*
X18512414Y-13491864D02*
X18483843Y-13477579D01*
X18469557Y-13463293D01*
X18455271Y-13434721D01*
X18455271Y-13349007D01*
X18469557Y-13320436D01*
X18483843Y-13306150D01*
X18512414Y-13291864D01*
X18555271Y-13291864D01*
X18583843Y-13306150D01*
X18598128Y-13320436D01*
X18612414Y-13349007D01*
X18612414Y-13434721D01*
X18598128Y-13463293D01*
X18583843Y-13477579D01*
X18555271Y-13491864D01*
X18512414Y-13491864D01*
X18783843Y-13491864D02*
X18755271Y-13477579D01*
X18740986Y-13449007D01*
X18740986Y-13191864D01*
X19012414Y-13477579D02*
X18983843Y-13491864D01*
X18926700Y-13491864D01*
X18898129Y-13477579D01*
X18883843Y-13449007D01*
X18883843Y-13334721D01*
X18898129Y-13306150D01*
X18926700Y-13291864D01*
X18983843Y-13291864D01*
X19012414Y-13306150D01*
X19026700Y-13334721D01*
X19026700Y-13363293D01*
X18883843Y-13391864D01*
X19140986Y-13477579D02*
X19169557Y-13491864D01*
X19226700Y-13491864D01*
X19255271Y-13477579D01*
X19269557Y-13449007D01*
X19269557Y-13434721D01*
X19255271Y-13406150D01*
X19226700Y-13391864D01*
X19183843Y-13391864D01*
X19155271Y-13377579D01*
X19140986Y-13349007D01*
X19140986Y-13334721D01*
X19155271Y-13306150D01*
X19183843Y-13291864D01*
X19226700Y-13291864D01*
X19255271Y-13306150D01*
X19369557Y-13606150D02*
X19383843Y-13591864D01*
X19412414Y-13549007D01*
X19426700Y-13520436D01*
X19440986Y-13477579D01*
X19455271Y-13406150D01*
X19455271Y-13349007D01*
X19440986Y-13277579D01*
X19426700Y-13234721D01*
X19412414Y-13206150D01*
X19383843Y-13163293D01*
X19369557Y-13149007D01*
X12286060Y-13711510D02*
X12286060Y-13792790D01*
X12245420Y-13752150D02*
X12326700Y-13752150D01*
X12655271Y-13587864D02*
X12683843Y-13587864D01*
X12712414Y-13602150D01*
X12726700Y-13616436D01*
X12740986Y-13645007D01*
X12755271Y-13702150D01*
X12755271Y-13773579D01*
X12740986Y-13830721D01*
X12726700Y-13859293D01*
X12712414Y-13873579D01*
X12683843Y-13887864D01*
X12655271Y-13887864D01*
X12626700Y-13873579D01*
X12612414Y-13859293D01*
X12598128Y-13830721D01*
X12583843Y-13773579D01*
X12583843Y-13702150D01*
X12598128Y-13645007D01*
X12612414Y-13616436D01*
X12626700Y-13602150D01*
X12655271Y-13587864D01*
X12883843Y-13859293D02*
X12898128Y-13873579D01*
X12883843Y-13887864D01*
X12869557Y-13873579D01*
X12883843Y-13859293D01*
X12883843Y-13887864D01*
X13069557Y-13716436D02*
X13040986Y-13702150D01*
X13026700Y-13687864D01*
X13012414Y-13659293D01*
X13012414Y-13645007D01*
X13026700Y-13616436D01*
X13040986Y-13602150D01*
X13069557Y-13587864D01*
X13126700Y-13587864D01*
X13155271Y-13602150D01*
X13169557Y-13616436D01*
X13183843Y-13645007D01*
X13183843Y-13659293D01*
X13169557Y-13687864D01*
X13155271Y-13702150D01*
X13126700Y-13716436D01*
X13069557Y-13716436D01*
X13040986Y-13730721D01*
X13026700Y-13745007D01*
X13012414Y-13773579D01*
X13012414Y-13830721D01*
X13026700Y-13859293D01*
X13040986Y-13873579D01*
X13069557Y-13887864D01*
X13126700Y-13887864D01*
X13155271Y-13873579D01*
X13169557Y-13859293D01*
X13183843Y-13830721D01*
X13183843Y-13773579D01*
X13169557Y-13745007D01*
X13155271Y-13730721D01*
X13126700Y-13716436D01*
X13469557Y-13887864D02*
X13298128Y-13887864D01*
X13383843Y-13887864D02*
X13383843Y-13587864D01*
X13355271Y-13630721D01*
X13326700Y-13659293D01*
X13298128Y-13673579D01*
X13598128Y-13887864D02*
X13598128Y-13687864D01*
X13598128Y-13716436D02*
X13612414Y-13702150D01*
X13640986Y-13687864D01*
X13683843Y-13687864D01*
X13712414Y-13702150D01*
X13726700Y-13730721D01*
X13726700Y-13887864D01*
X13726700Y-13730721D02*
X13740986Y-13702150D01*
X13769557Y-13687864D01*
X13812414Y-13687864D01*
X13840986Y-13702150D01*
X13855271Y-13730721D01*
X13855271Y-13887864D01*
X13998128Y-13887864D02*
X13998128Y-13687864D01*
X13998128Y-13716436D02*
X14012414Y-13702150D01*
X14040986Y-13687864D01*
X14083843Y-13687864D01*
X14112414Y-13702150D01*
X14126700Y-13730721D01*
X14126700Y-13887864D01*
X14126700Y-13730721D02*
X14140986Y-13702150D01*
X14169557Y-13687864D01*
X14212414Y-13687864D01*
X14240986Y-13702150D01*
X14255271Y-13730721D01*
X14255271Y-13887864D01*
X14840986Y-13573579D02*
X14583843Y-13959293D01*
X15226700Y-13587864D02*
X15255271Y-13587864D01*
X15283843Y-13602150D01*
X15298128Y-13616436D01*
X15312414Y-13645007D01*
X15326700Y-13702150D01*
X15326700Y-13773579D01*
X15312414Y-13830721D01*
X15298128Y-13859293D01*
X15283843Y-13873579D01*
X15255271Y-13887864D01*
X15226700Y-13887864D01*
X15198128Y-13873579D01*
X15183843Y-13859293D01*
X15169557Y-13830721D01*
X15155271Y-13773579D01*
X15155271Y-13702150D01*
X15169557Y-13645007D01*
X15183843Y-13616436D01*
X15198128Y-13602150D01*
X15226700Y-13587864D01*
X15455271Y-13859293D02*
X15469557Y-13873579D01*
X15455271Y-13887864D01*
X15440986Y-13873579D01*
X15455271Y-13859293D01*
X15455271Y-13887864D01*
X15655271Y-13587864D02*
X15683843Y-13587864D01*
X15712414Y-13602150D01*
X15726700Y-13616436D01*
X15740985Y-13645007D01*
X15755271Y-13702150D01*
X15755271Y-13773579D01*
X15740985Y-13830721D01*
X15726700Y-13859293D01*
X15712414Y-13873579D01*
X15683843Y-13887864D01*
X15655271Y-13887864D01*
X15626700Y-13873579D01*
X15612414Y-13859293D01*
X15598128Y-13830721D01*
X15583843Y-13773579D01*
X15583843Y-13702150D01*
X15598128Y-13645007D01*
X15612414Y-13616436D01*
X15626700Y-13602150D01*
X15655271Y-13587864D01*
X15855271Y-13587864D02*
X16040985Y-13587864D01*
X15940985Y-13702150D01*
X15983843Y-13702150D01*
X16012414Y-13716436D01*
X16026700Y-13730721D01*
X16040985Y-13759293D01*
X16040985Y-13830721D01*
X16026700Y-13859293D01*
X16012414Y-13873579D01*
X15983843Y-13887864D01*
X15898128Y-13887864D01*
X15869557Y-13873579D01*
X15855271Y-13859293D01*
X16155271Y-13616436D02*
X16169557Y-13602150D01*
X16198128Y-13587864D01*
X16269557Y-13587864D01*
X16298128Y-13602150D01*
X16312414Y-13616436D01*
X16326700Y-13645007D01*
X16326700Y-13673579D01*
X16312414Y-13716436D01*
X16140985Y-13887864D01*
X16326700Y-13887864D01*
X16440986Y-13587864D02*
X16440986Y-13645007D01*
X16555271Y-13587864D02*
X16555271Y-13645007D01*
X16998128Y-14002150D02*
X16983843Y-13987864D01*
X16955271Y-13945007D01*
X16940986Y-13916436D01*
X16926700Y-13873579D01*
X16912414Y-13802150D01*
X16912414Y-13745007D01*
X16926700Y-13673579D01*
X16940986Y-13630721D01*
X16955271Y-13602150D01*
X16983843Y-13559293D01*
X16998128Y-13545007D01*
X17155271Y-13716436D02*
X17126700Y-13702150D01*
X17112414Y-13687864D01*
X17098128Y-13659293D01*
X17098128Y-13645007D01*
X17112414Y-13616436D01*
X17126700Y-13602150D01*
X17155271Y-13587864D01*
X17212414Y-13587864D01*
X17240986Y-13602150D01*
X17255271Y-13616436D01*
X17269557Y-13645007D01*
X17269557Y-13659293D01*
X17255271Y-13687864D01*
X17240986Y-13702150D01*
X17212414Y-13716436D01*
X17155271Y-13716436D01*
X17126700Y-13730721D01*
X17112414Y-13745007D01*
X17098128Y-13773579D01*
X17098128Y-13830721D01*
X17112414Y-13859293D01*
X17126700Y-13873579D01*
X17155271Y-13887864D01*
X17212414Y-13887864D01*
X17240986Y-13873579D01*
X17255271Y-13859293D01*
X17269557Y-13830721D01*
X17269557Y-13773579D01*
X17255271Y-13745007D01*
X17240986Y-13730721D01*
X17212414Y-13716436D01*
X17626700Y-13887864D02*
X17626700Y-13587864D01*
X17755271Y-13887864D02*
X17755271Y-13730721D01*
X17740986Y-13702150D01*
X17712414Y-13687864D01*
X17669557Y-13687864D01*
X17640986Y-13702150D01*
X17626700Y-13716436D01*
X17940986Y-13887864D02*
X17912414Y-13873579D01*
X17898128Y-13859293D01*
X17883843Y-13830721D01*
X17883843Y-13745007D01*
X17898128Y-13716436D01*
X17912414Y-13702150D01*
X17940986Y-13687864D01*
X17983843Y-13687864D01*
X18012414Y-13702150D01*
X18026700Y-13716436D01*
X18040986Y-13745007D01*
X18040986Y-13830721D01*
X18026700Y-13859293D01*
X18012414Y-13873579D01*
X17983843Y-13887864D01*
X17940986Y-13887864D01*
X18212414Y-13887864D02*
X18183843Y-13873579D01*
X18169557Y-13845007D01*
X18169557Y-13587864D01*
X18440986Y-13873579D02*
X18412414Y-13887864D01*
X18355271Y-13887864D01*
X18326700Y-13873579D01*
X18312414Y-13845007D01*
X18312414Y-13730721D01*
X18326700Y-13702150D01*
X18355271Y-13687864D01*
X18412414Y-13687864D01*
X18440986Y-13702150D01*
X18455271Y-13730721D01*
X18455271Y-13759293D01*
X18312414Y-13787864D01*
X18569557Y-13873579D02*
X18598129Y-13887864D01*
X18655271Y-13887864D01*
X18683843Y-13873579D01*
X18698129Y-13845007D01*
X18698129Y-13830721D01*
X18683843Y-13802150D01*
X18655271Y-13787864D01*
X18612414Y-13787864D01*
X18583843Y-13773579D01*
X18569557Y-13745007D01*
X18569557Y-13730721D01*
X18583843Y-13702150D01*
X18612414Y-13687864D01*
X18655271Y-13687864D01*
X18683843Y-13702150D01*
X18798128Y-14002150D02*
X18812414Y-13987864D01*
X18840986Y-13945007D01*
X18855271Y-13916436D01*
X18869557Y-13873579D01*
X18883843Y-13802150D01*
X18883843Y-13745007D01*
X18869557Y-13673579D01*
X18855271Y-13630721D01*
X18840986Y-13602150D01*
X18812414Y-13559293D01*
X18798128Y-13545007D01*
X12313520Y-14179970D02*
X12313520Y-14116330D01*
X12249880Y-14116330D01*
X12249880Y-14179970D01*
X12313520Y-14179970D01*
X12655271Y-13983864D02*
X12683843Y-13983864D01*
X12712414Y-13998150D01*
X12726700Y-14012436D01*
X12740986Y-14041007D01*
X12755271Y-14098150D01*
X12755271Y-14169579D01*
X12740986Y-14226721D01*
X12726700Y-14255293D01*
X12712414Y-14269579D01*
X12683843Y-14283864D01*
X12655271Y-14283864D01*
X12626700Y-14269579D01*
X12612414Y-14255293D01*
X12598128Y-14226721D01*
X12583843Y-14169579D01*
X12583843Y-14098150D01*
X12598128Y-14041007D01*
X12612414Y-14012436D01*
X12626700Y-13998150D01*
X12655271Y-13983864D01*
X12883843Y-14255293D02*
X12898128Y-14269579D01*
X12883843Y-14283864D01*
X12869557Y-14269579D01*
X12883843Y-14255293D01*
X12883843Y-14283864D01*
X13040986Y-14283864D02*
X13098128Y-14283864D01*
X13126700Y-14269579D01*
X13140986Y-14255293D01*
X13169557Y-14212436D01*
X13183843Y-14155293D01*
X13183843Y-14041007D01*
X13169557Y-14012436D01*
X13155271Y-13998150D01*
X13126700Y-13983864D01*
X13069557Y-13983864D01*
X13040986Y-13998150D01*
X13026700Y-14012436D01*
X13012414Y-14041007D01*
X13012414Y-14112436D01*
X13026700Y-14141007D01*
X13040986Y-14155293D01*
X13069557Y-14169579D01*
X13126700Y-14169579D01*
X13155271Y-14155293D01*
X13169557Y-14141007D01*
X13183843Y-14112436D01*
X13369557Y-13983864D02*
X13398128Y-13983864D01*
X13426700Y-13998150D01*
X13440986Y-14012436D01*
X13455271Y-14041007D01*
X13469557Y-14098150D01*
X13469557Y-14169579D01*
X13455271Y-14226721D01*
X13440986Y-14255293D01*
X13426700Y-14269579D01*
X13398128Y-14283864D01*
X13369557Y-14283864D01*
X13340986Y-14269579D01*
X13326700Y-14255293D01*
X13312414Y-14226721D01*
X13298128Y-14169579D01*
X13298128Y-14098150D01*
X13312414Y-14041007D01*
X13326700Y-14012436D01*
X13340986Y-13998150D01*
X13369557Y-13983864D01*
X13598128Y-14283864D02*
X13598128Y-14083864D01*
X13598128Y-14112436D02*
X13612414Y-14098150D01*
X13640986Y-14083864D01*
X13683843Y-14083864D01*
X13712414Y-14098150D01*
X13726700Y-14126721D01*
X13726700Y-14283864D01*
X13726700Y-14126721D02*
X13740986Y-14098150D01*
X13769557Y-14083864D01*
X13812414Y-14083864D01*
X13840986Y-14098150D01*
X13855271Y-14126721D01*
X13855271Y-14283864D01*
X13998128Y-14283864D02*
X13998128Y-14083864D01*
X13998128Y-14112436D02*
X14012414Y-14098150D01*
X14040986Y-14083864D01*
X14083843Y-14083864D01*
X14112414Y-14098150D01*
X14126700Y-14126721D01*
X14126700Y-14283864D01*
X14126700Y-14126721D02*
X14140986Y-14098150D01*
X14169557Y-14083864D01*
X14212414Y-14083864D01*
X14240986Y-14098150D01*
X14255271Y-14126721D01*
X14255271Y-14283864D01*
X14840986Y-13969579D02*
X14583843Y-14355293D01*
X15226700Y-13983864D02*
X15255271Y-13983864D01*
X15283843Y-13998150D01*
X15298128Y-14012436D01*
X15312414Y-14041007D01*
X15326700Y-14098150D01*
X15326700Y-14169579D01*
X15312414Y-14226721D01*
X15298128Y-14255293D01*
X15283843Y-14269579D01*
X15255271Y-14283864D01*
X15226700Y-14283864D01*
X15198128Y-14269579D01*
X15183843Y-14255293D01*
X15169557Y-14226721D01*
X15155271Y-14169579D01*
X15155271Y-14098150D01*
X15169557Y-14041007D01*
X15183843Y-14012436D01*
X15198128Y-13998150D01*
X15226700Y-13983864D01*
X15455271Y-14255293D02*
X15469557Y-14269579D01*
X15455271Y-14283864D01*
X15440986Y-14269579D01*
X15455271Y-14255293D01*
X15455271Y-14283864D01*
X15655271Y-13983864D02*
X15683843Y-13983864D01*
X15712414Y-13998150D01*
X15726700Y-14012436D01*
X15740985Y-14041007D01*
X15755271Y-14098150D01*
X15755271Y-14169579D01*
X15740985Y-14226721D01*
X15726700Y-14255293D01*
X15712414Y-14269579D01*
X15683843Y-14283864D01*
X15655271Y-14283864D01*
X15626700Y-14269579D01*
X15612414Y-14255293D01*
X15598128Y-14226721D01*
X15583843Y-14169579D01*
X15583843Y-14098150D01*
X15598128Y-14041007D01*
X15612414Y-14012436D01*
X15626700Y-13998150D01*
X15655271Y-13983864D01*
X15855271Y-13983864D02*
X16040985Y-13983864D01*
X15940985Y-14098150D01*
X15983843Y-14098150D01*
X16012414Y-14112436D01*
X16026700Y-14126721D01*
X16040985Y-14155293D01*
X16040985Y-14226721D01*
X16026700Y-14255293D01*
X16012414Y-14269579D01*
X15983843Y-14283864D01*
X15898128Y-14283864D01*
X15869557Y-14269579D01*
X15855271Y-14255293D01*
X16312414Y-13983864D02*
X16169557Y-13983864D01*
X16155271Y-14126721D01*
X16169557Y-14112436D01*
X16198128Y-14098150D01*
X16269557Y-14098150D01*
X16298128Y-14112436D01*
X16312414Y-14126721D01*
X16326700Y-14155293D01*
X16326700Y-14226721D01*
X16312414Y-14255293D01*
X16298128Y-14269579D01*
X16269557Y-14283864D01*
X16198128Y-14283864D01*
X16169557Y-14269579D01*
X16155271Y-14255293D01*
X16440986Y-13983864D02*
X16440986Y-14041007D01*
X16555271Y-13983864D02*
X16555271Y-14041007D01*
X16998128Y-14398150D02*
X16983843Y-14383864D01*
X16955271Y-14341007D01*
X16940986Y-14312436D01*
X16926700Y-14269579D01*
X16912414Y-14198150D01*
X16912414Y-14141007D01*
X16926700Y-14069579D01*
X16940986Y-14026721D01*
X16955271Y-13998150D01*
X16983843Y-13955293D01*
X16998128Y-13941007D01*
X17083843Y-13983864D02*
X17269557Y-13983864D01*
X17169557Y-14098150D01*
X17212414Y-14098150D01*
X17240986Y-14112436D01*
X17255271Y-14126721D01*
X17269557Y-14155293D01*
X17269557Y-14226721D01*
X17255271Y-14255293D01*
X17240986Y-14269579D01*
X17212414Y-14283864D01*
X17126700Y-14283864D01*
X17098128Y-14269579D01*
X17083843Y-14255293D01*
X17526700Y-13983864D02*
X17469557Y-13983864D01*
X17440986Y-13998150D01*
X17426700Y-14012436D01*
X17398128Y-14055293D01*
X17383843Y-14112436D01*
X17383843Y-14226721D01*
X17398128Y-14255293D01*
X17412414Y-14269579D01*
X17440986Y-14283864D01*
X17498128Y-14283864D01*
X17526700Y-14269579D01*
X17540986Y-14255293D01*
X17555271Y-14226721D01*
X17555271Y-14155293D01*
X17540986Y-14126721D01*
X17526700Y-14112436D01*
X17498128Y-14098150D01*
X17440986Y-14098150D01*
X17412414Y-14112436D01*
X17398128Y-14126721D01*
X17383843Y-14155293D01*
X17912414Y-14283864D02*
X17912414Y-13983864D01*
X18040986Y-14283864D02*
X18040986Y-14126721D01*
X18026700Y-14098150D01*
X17998128Y-14083864D01*
X17955271Y-14083864D01*
X17926700Y-14098150D01*
X17912414Y-14112436D01*
X18226700Y-14283864D02*
X18198128Y-14269579D01*
X18183843Y-14255293D01*
X18169557Y-14226721D01*
X18169557Y-14141007D01*
X18183843Y-14112436D01*
X18198128Y-14098150D01*
X18226700Y-14083864D01*
X18269557Y-14083864D01*
X18298128Y-14098150D01*
X18312414Y-14112436D01*
X18326700Y-14141007D01*
X18326700Y-14226721D01*
X18312414Y-14255293D01*
X18298128Y-14269579D01*
X18269557Y-14283864D01*
X18226700Y-14283864D01*
X18498128Y-14283864D02*
X18469557Y-14269579D01*
X18455271Y-14241007D01*
X18455271Y-13983864D01*
X18726700Y-14269579D02*
X18698129Y-14283864D01*
X18640986Y-14283864D01*
X18612414Y-14269579D01*
X18598129Y-14241007D01*
X18598129Y-14126721D01*
X18612414Y-14098150D01*
X18640986Y-14083864D01*
X18698129Y-14083864D01*
X18726700Y-14098150D01*
X18740986Y-14126721D01*
X18740986Y-14155293D01*
X18598129Y-14183864D01*
X18855271Y-14269579D02*
X18883843Y-14283864D01*
X18940986Y-14283864D01*
X18969557Y-14269579D01*
X18983843Y-14241007D01*
X18983843Y-14226721D01*
X18969557Y-14198150D01*
X18940986Y-14183864D01*
X18898129Y-14183864D01*
X18869557Y-14169579D01*
X18855271Y-14141007D01*
X18855271Y-14126721D01*
X18869557Y-14098150D01*
X18898129Y-14083864D01*
X18940986Y-14083864D01*
X18969557Y-14098150D01*
X19083843Y-14398150D02*
X19098129Y-14383864D01*
X19126700Y-14341007D01*
X19140986Y-14312436D01*
X19155271Y-14269579D01*
X19169557Y-14198150D01*
X19169557Y-14141007D01*
X19155271Y-14069579D01*
X19140986Y-14026721D01*
X19126700Y-13998150D01*
X19098129Y-13955293D01*
X19083843Y-13941007D01*
X12276700Y-14594150D02*
X12326700Y-14544150D01*
X12276700Y-14494150D01*
X12226700Y-14544150D01*
X12276700Y-14594150D01*
X12755271Y-14679864D02*
X12583843Y-14679864D01*
X12669557Y-14679864D02*
X12669557Y-14379864D01*
X12640986Y-14422721D01*
X12612414Y-14451293D01*
X12583843Y-14465579D01*
X12883843Y-14651293D02*
X12898128Y-14665579D01*
X12883843Y-14679864D01*
X12869557Y-14665579D01*
X12883843Y-14651293D01*
X12883843Y-14679864D01*
X13083843Y-14379864D02*
X13112414Y-14379864D01*
X13140986Y-14394150D01*
X13155271Y-14408436D01*
X13169557Y-14437007D01*
X13183843Y-14494150D01*
X13183843Y-14565579D01*
X13169557Y-14622721D01*
X13155271Y-14651293D01*
X13140986Y-14665579D01*
X13112414Y-14679864D01*
X13083843Y-14679864D01*
X13055271Y-14665579D01*
X13040986Y-14651293D01*
X13026700Y-14622721D01*
X13012414Y-14565579D01*
X13012414Y-14494150D01*
X13026700Y-14437007D01*
X13040986Y-14408436D01*
X13055271Y-14394150D01*
X13083843Y-14379864D01*
X13369557Y-14379864D02*
X13398128Y-14379864D01*
X13426700Y-14394150D01*
X13440986Y-14408436D01*
X13455271Y-14437007D01*
X13469557Y-14494150D01*
X13469557Y-14565579D01*
X13455271Y-14622721D01*
X13440986Y-14651293D01*
X13426700Y-14665579D01*
X13398128Y-14679864D01*
X13369557Y-14679864D01*
X13340986Y-14665579D01*
X13326700Y-14651293D01*
X13312414Y-14622721D01*
X13298128Y-14565579D01*
X13298128Y-14494150D01*
X13312414Y-14437007D01*
X13326700Y-14408436D01*
X13340986Y-14394150D01*
X13369557Y-14379864D01*
X13598128Y-14679864D02*
X13598128Y-14479864D01*
X13598128Y-14508436D02*
X13612414Y-14494150D01*
X13640986Y-14479864D01*
X13683843Y-14479864D01*
X13712414Y-14494150D01*
X13726700Y-14522721D01*
X13726700Y-14679864D01*
X13726700Y-14522721D02*
X13740986Y-14494150D01*
X13769557Y-14479864D01*
X13812414Y-14479864D01*
X13840986Y-14494150D01*
X13855271Y-14522721D01*
X13855271Y-14679864D01*
X13998128Y-14679864D02*
X13998128Y-14479864D01*
X13998128Y-14508436D02*
X14012414Y-14494150D01*
X14040986Y-14479864D01*
X14083843Y-14479864D01*
X14112414Y-14494150D01*
X14126700Y-14522721D01*
X14126700Y-14679864D01*
X14126700Y-14522721D02*
X14140986Y-14494150D01*
X14169557Y-14479864D01*
X14212414Y-14479864D01*
X14240986Y-14494150D01*
X14255271Y-14522721D01*
X14255271Y-14679864D01*
X14840986Y-14365579D02*
X14583843Y-14751293D01*
X15226700Y-14379864D02*
X15255271Y-14379864D01*
X15283843Y-14394150D01*
X15298128Y-14408436D01*
X15312414Y-14437007D01*
X15326700Y-14494150D01*
X15326700Y-14565579D01*
X15312414Y-14622721D01*
X15298128Y-14651293D01*
X15283843Y-14665579D01*
X15255271Y-14679864D01*
X15226700Y-14679864D01*
X15198128Y-14665579D01*
X15183843Y-14651293D01*
X15169557Y-14622721D01*
X15155271Y-14565579D01*
X15155271Y-14494150D01*
X15169557Y-14437007D01*
X15183843Y-14408436D01*
X15198128Y-14394150D01*
X15226700Y-14379864D01*
X15455271Y-14651293D02*
X15469557Y-14665579D01*
X15455271Y-14679864D01*
X15440986Y-14665579D01*
X15455271Y-14651293D01*
X15455271Y-14679864D01*
X15655271Y-14379864D02*
X15683843Y-14379864D01*
X15712414Y-14394150D01*
X15726700Y-14408436D01*
X15740985Y-14437007D01*
X15755271Y-14494150D01*
X15755271Y-14565579D01*
X15740985Y-14622721D01*
X15726700Y-14651293D01*
X15712414Y-14665579D01*
X15683843Y-14679864D01*
X15655271Y-14679864D01*
X15626700Y-14665579D01*
X15612414Y-14651293D01*
X15598128Y-14622721D01*
X15583843Y-14565579D01*
X15583843Y-14494150D01*
X15598128Y-14437007D01*
X15612414Y-14408436D01*
X15626700Y-14394150D01*
X15655271Y-14379864D01*
X15855271Y-14379864D02*
X16040985Y-14379864D01*
X15940985Y-14494150D01*
X15983843Y-14494150D01*
X16012414Y-14508436D01*
X16026700Y-14522721D01*
X16040985Y-14551293D01*
X16040985Y-14622721D01*
X16026700Y-14651293D01*
X16012414Y-14665579D01*
X15983843Y-14679864D01*
X15898128Y-14679864D01*
X15869557Y-14665579D01*
X15855271Y-14651293D01*
X16183843Y-14679864D02*
X16240985Y-14679864D01*
X16269557Y-14665579D01*
X16283843Y-14651293D01*
X16312414Y-14608436D01*
X16326700Y-14551293D01*
X16326700Y-14437007D01*
X16312414Y-14408436D01*
X16298128Y-14394150D01*
X16269557Y-14379864D01*
X16212414Y-14379864D01*
X16183843Y-14394150D01*
X16169557Y-14408436D01*
X16155271Y-14437007D01*
X16155271Y-14508436D01*
X16169557Y-14537007D01*
X16183843Y-14551293D01*
X16212414Y-14565579D01*
X16269557Y-14565579D01*
X16298128Y-14551293D01*
X16312414Y-14537007D01*
X16326700Y-14508436D01*
X16440986Y-14379864D02*
X16440986Y-14437007D01*
X16555271Y-14379864D02*
X16555271Y-14437007D01*
X16998128Y-14794150D02*
X16983843Y-14779864D01*
X16955271Y-14737007D01*
X16940986Y-14708436D01*
X16926700Y-14665579D01*
X16912414Y-14594150D01*
X16912414Y-14537007D01*
X16926700Y-14465579D01*
X16940986Y-14422721D01*
X16955271Y-14394150D01*
X16983843Y-14351293D01*
X16998128Y-14337007D01*
X17269557Y-14679864D02*
X17098128Y-14679864D01*
X17183843Y-14679864D02*
X17183843Y-14379864D01*
X17155271Y-14422721D01*
X17126700Y-14451293D01*
X17098128Y-14465579D01*
X17412414Y-14679864D02*
X17469557Y-14679864D01*
X17498128Y-14665579D01*
X17512414Y-14651293D01*
X17540986Y-14608436D01*
X17555271Y-14551293D01*
X17555271Y-14437007D01*
X17540986Y-14408436D01*
X17526700Y-14394150D01*
X17498128Y-14379864D01*
X17440986Y-14379864D01*
X17412414Y-14394150D01*
X17398128Y-14408436D01*
X17383843Y-14437007D01*
X17383843Y-14508436D01*
X17398128Y-14537007D01*
X17412414Y-14551293D01*
X17440986Y-14565579D01*
X17498128Y-14565579D01*
X17526700Y-14551293D01*
X17540986Y-14537007D01*
X17555271Y-14508436D01*
X17912414Y-14679864D02*
X17912414Y-14379864D01*
X18040986Y-14679864D02*
X18040986Y-14522721D01*
X18026700Y-14494150D01*
X17998128Y-14479864D01*
X17955271Y-14479864D01*
X17926700Y-14494150D01*
X17912414Y-14508436D01*
X18226700Y-14679864D02*
X18198128Y-14665579D01*
X18183843Y-14651293D01*
X18169557Y-14622721D01*
X18169557Y-14537007D01*
X18183843Y-14508436D01*
X18198128Y-14494150D01*
X18226700Y-14479864D01*
X18269557Y-14479864D01*
X18298128Y-14494150D01*
X18312414Y-14508436D01*
X18326700Y-14537007D01*
X18326700Y-14622721D01*
X18312414Y-14651293D01*
X18298128Y-14665579D01*
X18269557Y-14679864D01*
X18226700Y-14679864D01*
X18498128Y-14679864D02*
X18469557Y-14665579D01*
X18455271Y-14637007D01*
X18455271Y-14379864D01*
X18726700Y-14665579D02*
X18698129Y-14679864D01*
X18640986Y-14679864D01*
X18612414Y-14665579D01*
X18598129Y-14637007D01*
X18598129Y-14522721D01*
X18612414Y-14494150D01*
X18640986Y-14479864D01*
X18698129Y-14479864D01*
X18726700Y-14494150D01*
X18740986Y-14522721D01*
X18740986Y-14551293D01*
X18598129Y-14579864D01*
X18855271Y-14665579D02*
X18883843Y-14679864D01*
X18940986Y-14679864D01*
X18969557Y-14665579D01*
X18983843Y-14637007D01*
X18983843Y-14622721D01*
X18969557Y-14594150D01*
X18940986Y-14579864D01*
X18898129Y-14579864D01*
X18869557Y-14565579D01*
X18855271Y-14537007D01*
X18855271Y-14522721D01*
X18869557Y-14494150D01*
X18898129Y-14479864D01*
X18940986Y-14479864D01*
X18969557Y-14494150D01*
X19083843Y-14794150D02*
X19098129Y-14779864D01*
X19126700Y-14737007D01*
X19140986Y-14708436D01*
X19155271Y-14665579D01*
X19169557Y-14594150D01*
X19169557Y-14537007D01*
X19155271Y-14465579D01*
X19140986Y-14422721D01*
X19126700Y-14394150D01*
X19098129Y-14351293D01*
X19083843Y-14337007D01*
X12226624Y-14890112D02*
X12326700Y-14990188D01*
X12326700Y-14890112D02*
X12226624Y-14990188D01*
X12326700Y-14940150D02*
G75*
G03X12326700Y-14940150I-50038J0D01*
G01*
X12755271Y-15075864D02*
X12583843Y-15075864D01*
X12669557Y-15075864D02*
X12669557Y-14775864D01*
X12640986Y-14818721D01*
X12612414Y-14847293D01*
X12583843Y-14861579D01*
X12883843Y-15047293D02*
X12898128Y-15061579D01*
X12883843Y-15075864D01*
X12869557Y-15061579D01*
X12883843Y-15047293D01*
X12883843Y-15075864D01*
X13083843Y-14775864D02*
X13112414Y-14775864D01*
X13140986Y-14790150D01*
X13155271Y-14804436D01*
X13169557Y-14833007D01*
X13183843Y-14890150D01*
X13183843Y-14961579D01*
X13169557Y-15018721D01*
X13155271Y-15047293D01*
X13140986Y-15061579D01*
X13112414Y-15075864D01*
X13083843Y-15075864D01*
X13055271Y-15061579D01*
X13040986Y-15047293D01*
X13026700Y-15018721D01*
X13012414Y-14961579D01*
X13012414Y-14890150D01*
X13026700Y-14833007D01*
X13040986Y-14804436D01*
X13055271Y-14790150D01*
X13083843Y-14775864D01*
X13369557Y-14775864D02*
X13398128Y-14775864D01*
X13426700Y-14790150D01*
X13440986Y-14804436D01*
X13455271Y-14833007D01*
X13469557Y-14890150D01*
X13469557Y-14961579D01*
X13455271Y-15018721D01*
X13440986Y-15047293D01*
X13426700Y-15061579D01*
X13398128Y-15075864D01*
X13369557Y-15075864D01*
X13340986Y-15061579D01*
X13326700Y-15047293D01*
X13312414Y-15018721D01*
X13298128Y-14961579D01*
X13298128Y-14890150D01*
X13312414Y-14833007D01*
X13326700Y-14804436D01*
X13340986Y-14790150D01*
X13369557Y-14775864D01*
X13598128Y-15075864D02*
X13598128Y-14875864D01*
X13598128Y-14904436D02*
X13612414Y-14890150D01*
X13640986Y-14875864D01*
X13683843Y-14875864D01*
X13712414Y-14890150D01*
X13726700Y-14918721D01*
X13726700Y-15075864D01*
X13726700Y-14918721D02*
X13740986Y-14890150D01*
X13769557Y-14875864D01*
X13812414Y-14875864D01*
X13840986Y-14890150D01*
X13855271Y-14918721D01*
X13855271Y-15075864D01*
X13998128Y-15075864D02*
X13998128Y-14875864D01*
X13998128Y-14904436D02*
X14012414Y-14890150D01*
X14040986Y-14875864D01*
X14083843Y-14875864D01*
X14112414Y-14890150D01*
X14126700Y-14918721D01*
X14126700Y-15075864D01*
X14126700Y-14918721D02*
X14140986Y-14890150D01*
X14169557Y-14875864D01*
X14212414Y-14875864D01*
X14240986Y-14890150D01*
X14255271Y-14918721D01*
X14255271Y-15075864D01*
X14840986Y-14761579D02*
X14583843Y-15147293D01*
X15226700Y-14775864D02*
X15255271Y-14775864D01*
X15283843Y-14790150D01*
X15298128Y-14804436D01*
X15312414Y-14833007D01*
X15326700Y-14890150D01*
X15326700Y-14961579D01*
X15312414Y-15018721D01*
X15298128Y-15047293D01*
X15283843Y-15061579D01*
X15255271Y-15075864D01*
X15226700Y-15075864D01*
X15198128Y-15061579D01*
X15183843Y-15047293D01*
X15169557Y-15018721D01*
X15155271Y-14961579D01*
X15155271Y-14890150D01*
X15169557Y-14833007D01*
X15183843Y-14804436D01*
X15198128Y-14790150D01*
X15226700Y-14775864D01*
X15455271Y-15047293D02*
X15469557Y-15061579D01*
X15455271Y-15075864D01*
X15440986Y-15061579D01*
X15455271Y-15047293D01*
X15455271Y-15075864D01*
X15655271Y-14775864D02*
X15683843Y-14775864D01*
X15712414Y-14790150D01*
X15726700Y-14804436D01*
X15740985Y-14833007D01*
X15755271Y-14890150D01*
X15755271Y-14961579D01*
X15740985Y-15018721D01*
X15726700Y-15047293D01*
X15712414Y-15061579D01*
X15683843Y-15075864D01*
X15655271Y-15075864D01*
X15626700Y-15061579D01*
X15612414Y-15047293D01*
X15598128Y-15018721D01*
X15583843Y-14961579D01*
X15583843Y-14890150D01*
X15598128Y-14833007D01*
X15612414Y-14804436D01*
X15626700Y-14790150D01*
X15655271Y-14775864D01*
X15855271Y-14775864D02*
X16040985Y-14775864D01*
X15940985Y-14890150D01*
X15983843Y-14890150D01*
X16012414Y-14904436D01*
X16026700Y-14918721D01*
X16040985Y-14947293D01*
X16040985Y-15018721D01*
X16026700Y-15047293D01*
X16012414Y-15061579D01*
X15983843Y-15075864D01*
X15898128Y-15075864D01*
X15869557Y-15061579D01*
X15855271Y-15047293D01*
X16183843Y-15075864D02*
X16240985Y-15075864D01*
X16269557Y-15061579D01*
X16283843Y-15047293D01*
X16312414Y-15004436D01*
X16326700Y-14947293D01*
X16326700Y-14833007D01*
X16312414Y-14804436D01*
X16298128Y-14790150D01*
X16269557Y-14775864D01*
X16212414Y-14775864D01*
X16183843Y-14790150D01*
X16169557Y-14804436D01*
X16155271Y-14833007D01*
X16155271Y-14904436D01*
X16169557Y-14933007D01*
X16183843Y-14947293D01*
X16212414Y-14961579D01*
X16269557Y-14961579D01*
X16298128Y-14947293D01*
X16312414Y-14933007D01*
X16326700Y-14904436D01*
X16440986Y-14775864D02*
X16440986Y-14833007D01*
X16555271Y-14775864D02*
X16555271Y-14833007D01*
X16998128Y-15190150D02*
X16983843Y-15175864D01*
X16955271Y-15133007D01*
X16940986Y-15104436D01*
X16926700Y-15061579D01*
X16912414Y-14990150D01*
X16912414Y-14933007D01*
X16926700Y-14861579D01*
X16940986Y-14818721D01*
X16955271Y-14790150D01*
X16983843Y-14747293D01*
X16998128Y-14733007D01*
X17255271Y-14775864D02*
X17112414Y-14775864D01*
X17098128Y-14918721D01*
X17112414Y-14904436D01*
X17140986Y-14890150D01*
X17212414Y-14890150D01*
X17240986Y-14904436D01*
X17255271Y-14918721D01*
X17269557Y-14947293D01*
X17269557Y-15018721D01*
X17255271Y-15047293D01*
X17240986Y-15061579D01*
X17212414Y-15075864D01*
X17140986Y-15075864D01*
X17112414Y-15061579D01*
X17098128Y-15047293D01*
X17626700Y-15075864D02*
X17626700Y-14775864D01*
X17755271Y-15075864D02*
X17755271Y-14918721D01*
X17740986Y-14890150D01*
X17712414Y-14875864D01*
X17669557Y-14875864D01*
X17640986Y-14890150D01*
X17626700Y-14904436D01*
X17940986Y-15075864D02*
X17912414Y-15061579D01*
X17898128Y-15047293D01*
X17883843Y-15018721D01*
X17883843Y-14933007D01*
X17898128Y-14904436D01*
X17912414Y-14890150D01*
X17940986Y-14875864D01*
X17983843Y-14875864D01*
X18012414Y-14890150D01*
X18026700Y-14904436D01*
X18040986Y-14933007D01*
X18040986Y-15018721D01*
X18026700Y-15047293D01*
X18012414Y-15061579D01*
X17983843Y-15075864D01*
X17940986Y-15075864D01*
X18212414Y-15075864D02*
X18183843Y-15061579D01*
X18169557Y-15033007D01*
X18169557Y-14775864D01*
X18440986Y-15061579D02*
X18412414Y-15075864D01*
X18355271Y-15075864D01*
X18326700Y-15061579D01*
X18312414Y-15033007D01*
X18312414Y-14918721D01*
X18326700Y-14890150D01*
X18355271Y-14875864D01*
X18412414Y-14875864D01*
X18440986Y-14890150D01*
X18455271Y-14918721D01*
X18455271Y-14947293D01*
X18312414Y-14975864D01*
X18569557Y-15061579D02*
X18598129Y-15075864D01*
X18655271Y-15075864D01*
X18683843Y-15061579D01*
X18698129Y-15033007D01*
X18698129Y-15018721D01*
X18683843Y-14990150D01*
X18655271Y-14975864D01*
X18612414Y-14975864D01*
X18583843Y-14961579D01*
X18569557Y-14933007D01*
X18569557Y-14918721D01*
X18583843Y-14890150D01*
X18612414Y-14875864D01*
X18655271Y-14875864D01*
X18683843Y-14890150D01*
X18798128Y-15190150D02*
X18812414Y-15175864D01*
X18840986Y-15133007D01*
X18855271Y-15104436D01*
X18869557Y-15061579D01*
X18883843Y-14990150D01*
X18883843Y-14933007D01*
X18869557Y-14861579D01*
X18855271Y-14818721D01*
X18840986Y-14790150D01*
X18812414Y-14747293D01*
X18798128Y-14733007D01*
X12225100Y-15285350D02*
X12326700Y-15386950D01*
X12326700Y-15285350D02*
X12225100Y-15386950D01*
X12275900Y-15285350D02*
X12275900Y-15386950D01*
X12225100Y-15336150D02*
X12326700Y-15336150D01*
X12755271Y-15471864D02*
X12583843Y-15471864D01*
X12669557Y-15471864D02*
X12669557Y-15171864D01*
X12640986Y-15214721D01*
X12612414Y-15243293D01*
X12583843Y-15257579D01*
X12883843Y-15443293D02*
X12898128Y-15457579D01*
X12883843Y-15471864D01*
X12869557Y-15457579D01*
X12883843Y-15443293D01*
X12883843Y-15471864D01*
X13083843Y-15171864D02*
X13112414Y-15171864D01*
X13140986Y-15186150D01*
X13155271Y-15200436D01*
X13169557Y-15229007D01*
X13183843Y-15286150D01*
X13183843Y-15357579D01*
X13169557Y-15414721D01*
X13155271Y-15443293D01*
X13140986Y-15457579D01*
X13112414Y-15471864D01*
X13083843Y-15471864D01*
X13055271Y-15457579D01*
X13040986Y-15443293D01*
X13026700Y-15414721D01*
X13012414Y-15357579D01*
X13012414Y-15286150D01*
X13026700Y-15229007D01*
X13040986Y-15200436D01*
X13055271Y-15186150D01*
X13083843Y-15171864D01*
X13298128Y-15200436D02*
X13312414Y-15186150D01*
X13340986Y-15171864D01*
X13412414Y-15171864D01*
X13440986Y-15186150D01*
X13455271Y-15200436D01*
X13469557Y-15229007D01*
X13469557Y-15257579D01*
X13455271Y-15300436D01*
X13283843Y-15471864D01*
X13469557Y-15471864D01*
X13598128Y-15471864D02*
X13598128Y-15271864D01*
X13598128Y-15300436D02*
X13612414Y-15286150D01*
X13640986Y-15271864D01*
X13683843Y-15271864D01*
X13712414Y-15286150D01*
X13726700Y-15314721D01*
X13726700Y-15471864D01*
X13726700Y-15314721D02*
X13740986Y-15286150D01*
X13769557Y-15271864D01*
X13812414Y-15271864D01*
X13840986Y-15286150D01*
X13855271Y-15314721D01*
X13855271Y-15471864D01*
X13998128Y-15471864D02*
X13998128Y-15271864D01*
X13998128Y-15300436D02*
X14012414Y-15286150D01*
X14040986Y-15271864D01*
X14083843Y-15271864D01*
X14112414Y-15286150D01*
X14126700Y-15314721D01*
X14126700Y-15471864D01*
X14126700Y-15314721D02*
X14140986Y-15286150D01*
X14169557Y-15271864D01*
X14212414Y-15271864D01*
X14240986Y-15286150D01*
X14255271Y-15314721D01*
X14255271Y-15471864D01*
X14840986Y-15157579D02*
X14583843Y-15543293D01*
X15226700Y-15171864D02*
X15255271Y-15171864D01*
X15283843Y-15186150D01*
X15298128Y-15200436D01*
X15312414Y-15229007D01*
X15326700Y-15286150D01*
X15326700Y-15357579D01*
X15312414Y-15414721D01*
X15298128Y-15443293D01*
X15283843Y-15457579D01*
X15255271Y-15471864D01*
X15226700Y-15471864D01*
X15198128Y-15457579D01*
X15183843Y-15443293D01*
X15169557Y-15414721D01*
X15155271Y-15357579D01*
X15155271Y-15286150D01*
X15169557Y-15229007D01*
X15183843Y-15200436D01*
X15198128Y-15186150D01*
X15226700Y-15171864D01*
X15455271Y-15443293D02*
X15469557Y-15457579D01*
X15455271Y-15471864D01*
X15440986Y-15457579D01*
X15455271Y-15443293D01*
X15455271Y-15471864D01*
X15655271Y-15171864D02*
X15683843Y-15171864D01*
X15712414Y-15186150D01*
X15726700Y-15200436D01*
X15740985Y-15229007D01*
X15755271Y-15286150D01*
X15755271Y-15357579D01*
X15740985Y-15414721D01*
X15726700Y-15443293D01*
X15712414Y-15457579D01*
X15683843Y-15471864D01*
X15655271Y-15471864D01*
X15626700Y-15457579D01*
X15612414Y-15443293D01*
X15598128Y-15414721D01*
X15583843Y-15357579D01*
X15583843Y-15286150D01*
X15598128Y-15229007D01*
X15612414Y-15200436D01*
X15626700Y-15186150D01*
X15655271Y-15171864D01*
X16012414Y-15271864D02*
X16012414Y-15471864D01*
X15940985Y-15157579D02*
X15869557Y-15371864D01*
X16055271Y-15371864D01*
X16226700Y-15171864D02*
X16255271Y-15171864D01*
X16283843Y-15186150D01*
X16298128Y-15200436D01*
X16312414Y-15229007D01*
X16326700Y-15286150D01*
X16326700Y-15357579D01*
X16312414Y-15414721D01*
X16298128Y-15443293D01*
X16283843Y-15457579D01*
X16255271Y-15471864D01*
X16226700Y-15471864D01*
X16198128Y-15457579D01*
X16183843Y-15443293D01*
X16169557Y-15414721D01*
X16155271Y-15357579D01*
X16155271Y-15286150D01*
X16169557Y-15229007D01*
X16183843Y-15200436D01*
X16198128Y-15186150D01*
X16226700Y-15171864D01*
X16440986Y-15171864D02*
X16440986Y-15229007D01*
X16555271Y-15171864D02*
X16555271Y-15229007D01*
X16998128Y-15586150D02*
X16983843Y-15571864D01*
X16955271Y-15529007D01*
X16940986Y-15500436D01*
X16926700Y-15457579D01*
X16912414Y-15386150D01*
X16912414Y-15329007D01*
X16926700Y-15257579D01*
X16940986Y-15214721D01*
X16955271Y-15186150D01*
X16983843Y-15143293D01*
X16998128Y-15129007D01*
X17269557Y-15471864D02*
X17098128Y-15471864D01*
X17183843Y-15471864D02*
X17183843Y-15171864D01*
X17155271Y-15214721D01*
X17126700Y-15243293D01*
X17098128Y-15257579D01*
X17455271Y-15171864D02*
X17483843Y-15171864D01*
X17512414Y-15186150D01*
X17526700Y-15200436D01*
X17540986Y-15229007D01*
X17555271Y-15286150D01*
X17555271Y-15357579D01*
X17540986Y-15414721D01*
X17526700Y-15443293D01*
X17512414Y-15457579D01*
X17483843Y-15471864D01*
X17455271Y-15471864D01*
X17426700Y-15457579D01*
X17412414Y-15443293D01*
X17398128Y-15414721D01*
X17383843Y-15357579D01*
X17383843Y-15286150D01*
X17398128Y-15229007D01*
X17412414Y-15200436D01*
X17426700Y-15186150D01*
X17455271Y-15171864D01*
X17740986Y-15171864D02*
X17769557Y-15171864D01*
X17798128Y-15186150D01*
X17812414Y-15200436D01*
X17826700Y-15229007D01*
X17840986Y-15286150D01*
X17840986Y-15357579D01*
X17826700Y-15414721D01*
X17812414Y-15443293D01*
X17798128Y-15457579D01*
X17769557Y-15471864D01*
X17740986Y-15471864D01*
X17712414Y-15457579D01*
X17698128Y-15443293D01*
X17683843Y-15414721D01*
X17669557Y-15357579D01*
X17669557Y-15286150D01*
X17683843Y-15229007D01*
X17698128Y-15200436D01*
X17712414Y-15186150D01*
X17740986Y-15171864D01*
X18198128Y-15471864D02*
X18198128Y-15171864D01*
X18326700Y-15471864D02*
X18326700Y-15314721D01*
X18312414Y-15286150D01*
X18283843Y-15271864D01*
X18240986Y-15271864D01*
X18212414Y-15286150D01*
X18198128Y-15300436D01*
X18512414Y-15471864D02*
X18483843Y-15457579D01*
X18469557Y-15443293D01*
X18455271Y-15414721D01*
X18455271Y-15329007D01*
X18469557Y-15300436D01*
X18483843Y-15286150D01*
X18512414Y-15271864D01*
X18555271Y-15271864D01*
X18583843Y-15286150D01*
X18598128Y-15300436D01*
X18612414Y-15329007D01*
X18612414Y-15414721D01*
X18598128Y-15443293D01*
X18583843Y-15457579D01*
X18555271Y-15471864D01*
X18512414Y-15471864D01*
X18783843Y-15471864D02*
X18755271Y-15457579D01*
X18740986Y-15429007D01*
X18740986Y-15171864D01*
X19012414Y-15457579D02*
X18983843Y-15471864D01*
X18926700Y-15471864D01*
X18898129Y-15457579D01*
X18883843Y-15429007D01*
X18883843Y-15314721D01*
X18898129Y-15286150D01*
X18926700Y-15271864D01*
X18983843Y-15271864D01*
X19012414Y-15286150D01*
X19026700Y-15314721D01*
X19026700Y-15343293D01*
X18883843Y-15371864D01*
X19140986Y-15457579D02*
X19169557Y-15471864D01*
X19226700Y-15471864D01*
X19255271Y-15457579D01*
X19269557Y-15429007D01*
X19269557Y-15414721D01*
X19255271Y-15386150D01*
X19226700Y-15371864D01*
X19183843Y-15371864D01*
X19155271Y-15357579D01*
X19140986Y-15329007D01*
X19140986Y-15314721D01*
X19155271Y-15286150D01*
X19183843Y-15271864D01*
X19226700Y-15271864D01*
X19255271Y-15286150D01*
X19369557Y-15586150D02*
X19383843Y-15571864D01*
X19412414Y-15529007D01*
X19426700Y-15500436D01*
X19440986Y-15457579D01*
X19455271Y-15386150D01*
X19455271Y-15329007D01*
X19440986Y-15257579D01*
X19426700Y-15214721D01*
X19412414Y-15186150D01*
X19383843Y-15143293D01*
X19369557Y-15129007D01*
X12106736Y-15622168D02*
X12326700Y-15842132D01*
X12326700Y-15622168D02*
X12106736Y-15842132D01*
X12294488Y-15809920D02*
X12294488Y-15654380D01*
X12138948Y-15654380D01*
X12138948Y-15809920D01*
X12294488Y-15809920D01*
X12583843Y-15596436D02*
X12598128Y-15582150D01*
X12626700Y-15567864D01*
X12698128Y-15567864D01*
X12726700Y-15582150D01*
X12740986Y-15596436D01*
X12755271Y-15625007D01*
X12755271Y-15653579D01*
X12740986Y-15696436D01*
X12569557Y-15867864D01*
X12755271Y-15867864D01*
X12883843Y-15839293D02*
X12898128Y-15853579D01*
X12883843Y-15867864D01*
X12869557Y-15853579D01*
X12883843Y-15839293D01*
X12883843Y-15867864D01*
X13012414Y-15596436D02*
X13026700Y-15582150D01*
X13055271Y-15567864D01*
X13126700Y-15567864D01*
X13155271Y-15582150D01*
X13169557Y-15596436D01*
X13183843Y-15625007D01*
X13183843Y-15653579D01*
X13169557Y-15696436D01*
X12998128Y-15867864D01*
X13183843Y-15867864D01*
X13369557Y-15567864D02*
X13398128Y-15567864D01*
X13426700Y-15582150D01*
X13440986Y-15596436D01*
X13455271Y-15625007D01*
X13469557Y-15682150D01*
X13469557Y-15753579D01*
X13455271Y-15810721D01*
X13440986Y-15839293D01*
X13426700Y-15853579D01*
X13398128Y-15867864D01*
X13369557Y-15867864D01*
X13340986Y-15853579D01*
X13326700Y-15839293D01*
X13312414Y-15810721D01*
X13298128Y-15753579D01*
X13298128Y-15682150D01*
X13312414Y-15625007D01*
X13326700Y-15596436D01*
X13340986Y-15582150D01*
X13369557Y-15567864D01*
X13598128Y-15867864D02*
X13598128Y-15667864D01*
X13598128Y-15696436D02*
X13612414Y-15682150D01*
X13640986Y-15667864D01*
X13683843Y-15667864D01*
X13712414Y-15682150D01*
X13726700Y-15710721D01*
X13726700Y-15867864D01*
X13726700Y-15710721D02*
X13740986Y-15682150D01*
X13769557Y-15667864D01*
X13812414Y-15667864D01*
X13840986Y-15682150D01*
X13855271Y-15710721D01*
X13855271Y-15867864D01*
X13998128Y-15867864D02*
X13998128Y-15667864D01*
X13998128Y-15696436D02*
X14012414Y-15682150D01*
X14040986Y-15667864D01*
X14083843Y-15667864D01*
X14112414Y-15682150D01*
X14126700Y-15710721D01*
X14126700Y-15867864D01*
X14126700Y-15710721D02*
X14140986Y-15682150D01*
X14169557Y-15667864D01*
X14212414Y-15667864D01*
X14240986Y-15682150D01*
X14255271Y-15710721D01*
X14255271Y-15867864D01*
X14840986Y-15553579D02*
X14583843Y-15939293D01*
X15226700Y-15567864D02*
X15255271Y-15567864D01*
X15283843Y-15582150D01*
X15298128Y-15596436D01*
X15312414Y-15625007D01*
X15326700Y-15682150D01*
X15326700Y-15753579D01*
X15312414Y-15810721D01*
X15298128Y-15839293D01*
X15283843Y-15853579D01*
X15255271Y-15867864D01*
X15226700Y-15867864D01*
X15198128Y-15853579D01*
X15183843Y-15839293D01*
X15169557Y-15810721D01*
X15155271Y-15753579D01*
X15155271Y-15682150D01*
X15169557Y-15625007D01*
X15183843Y-15596436D01*
X15198128Y-15582150D01*
X15226700Y-15567864D01*
X15455271Y-15839293D02*
X15469557Y-15853579D01*
X15455271Y-15867864D01*
X15440986Y-15853579D01*
X15455271Y-15839293D01*
X15455271Y-15867864D01*
X15655271Y-15567864D02*
X15683843Y-15567864D01*
X15712414Y-15582150D01*
X15726700Y-15596436D01*
X15740985Y-15625007D01*
X15755271Y-15682150D01*
X15755271Y-15753579D01*
X15740985Y-15810721D01*
X15726700Y-15839293D01*
X15712414Y-15853579D01*
X15683843Y-15867864D01*
X15655271Y-15867864D01*
X15626700Y-15853579D01*
X15612414Y-15839293D01*
X15598128Y-15810721D01*
X15583843Y-15753579D01*
X15583843Y-15682150D01*
X15598128Y-15625007D01*
X15612414Y-15596436D01*
X15626700Y-15582150D01*
X15655271Y-15567864D01*
X15926700Y-15696436D02*
X15898128Y-15682150D01*
X15883843Y-15667864D01*
X15869557Y-15639293D01*
X15869557Y-15625007D01*
X15883843Y-15596436D01*
X15898128Y-15582150D01*
X15926700Y-15567864D01*
X15983843Y-15567864D01*
X16012414Y-15582150D01*
X16026700Y-15596436D01*
X16040985Y-15625007D01*
X16040985Y-15639293D01*
X16026700Y-15667864D01*
X16012414Y-15682150D01*
X15983843Y-15696436D01*
X15926700Y-15696436D01*
X15898128Y-15710721D01*
X15883843Y-15725007D01*
X15869557Y-15753579D01*
X15869557Y-15810721D01*
X15883843Y-15839293D01*
X15898128Y-15853579D01*
X15926700Y-15867864D01*
X15983843Y-15867864D01*
X16012414Y-15853579D01*
X16026700Y-15839293D01*
X16040985Y-15810721D01*
X16040985Y-15753579D01*
X16026700Y-15725007D01*
X16012414Y-15710721D01*
X15983843Y-15696436D01*
X16140985Y-15567864D02*
X16340985Y-15567864D01*
X16212414Y-15867864D01*
X16440986Y-15567864D02*
X16440986Y-15625007D01*
X16555271Y-15567864D02*
X16555271Y-15625007D01*
X16998128Y-15982150D02*
X16983843Y-15967864D01*
X16955271Y-15925007D01*
X16940986Y-15896436D01*
X16926700Y-15853579D01*
X16912414Y-15782150D01*
X16912414Y-15725007D01*
X16926700Y-15653579D01*
X16940986Y-15610721D01*
X16955271Y-15582150D01*
X16983843Y-15539293D01*
X16998128Y-15525007D01*
X17098128Y-15596436D02*
X17112414Y-15582150D01*
X17140986Y-15567864D01*
X17212414Y-15567864D01*
X17240986Y-15582150D01*
X17255271Y-15596436D01*
X17269557Y-15625007D01*
X17269557Y-15653579D01*
X17255271Y-15696436D01*
X17083843Y-15867864D01*
X17269557Y-15867864D01*
X17626700Y-15867864D02*
X17626700Y-15567864D01*
X17755271Y-15867864D02*
X17755271Y-15710721D01*
X17740986Y-15682150D01*
X17712414Y-15667864D01*
X17669557Y-15667864D01*
X17640986Y-15682150D01*
X17626700Y-15696436D01*
X17940986Y-15867864D02*
X17912414Y-15853579D01*
X17898128Y-15839293D01*
X17883843Y-15810721D01*
X17883843Y-15725007D01*
X17898128Y-15696436D01*
X17912414Y-15682150D01*
X17940986Y-15667864D01*
X17983843Y-15667864D01*
X18012414Y-15682150D01*
X18026700Y-15696436D01*
X18040986Y-15725007D01*
X18040986Y-15810721D01*
X18026700Y-15839293D01*
X18012414Y-15853579D01*
X17983843Y-15867864D01*
X17940986Y-15867864D01*
X18212414Y-15867864D02*
X18183843Y-15853579D01*
X18169557Y-15825007D01*
X18169557Y-15567864D01*
X18440986Y-15853579D02*
X18412414Y-15867864D01*
X18355271Y-15867864D01*
X18326700Y-15853579D01*
X18312414Y-15825007D01*
X18312414Y-15710721D01*
X18326700Y-15682150D01*
X18355271Y-15667864D01*
X18412414Y-15667864D01*
X18440986Y-15682150D01*
X18455271Y-15710721D01*
X18455271Y-15739293D01*
X18312414Y-15767864D01*
X18569557Y-15853579D02*
X18598129Y-15867864D01*
X18655271Y-15867864D01*
X18683843Y-15853579D01*
X18698129Y-15825007D01*
X18698129Y-15810721D01*
X18683843Y-15782150D01*
X18655271Y-15767864D01*
X18612414Y-15767864D01*
X18583843Y-15753579D01*
X18569557Y-15725007D01*
X18569557Y-15710721D01*
X18583843Y-15682150D01*
X18612414Y-15667864D01*
X18655271Y-15667864D01*
X18683843Y-15682150D01*
X18798128Y-15982150D02*
X18812414Y-15967864D01*
X18840986Y-15925007D01*
X18855271Y-15896436D01*
X18869557Y-15853579D01*
X18883843Y-15782150D01*
X18883843Y-15725007D01*
X18869557Y-15653579D01*
X18855271Y-15610721D01*
X18840986Y-15582150D01*
X18812414Y-15539293D01*
X18798128Y-15525007D01*
M02*
