G04 #@! TF.FileFunction,Soldermask,Bot*
%FSLAX46Y46*%
G04 Gerber Fmt 4.6, Leading zero omitted, Abs format (unit mm)*
G04 Created by KiCad (PCBNEW 4.0.6-e0-6349~53~ubuntu16.04.1) date Thu Jun 29 18:49:34 2017*
%MOMM*%
%LPD*%
G01*
G04 APERTURE LIST*
%ADD10C,0.100000*%
%ADD11R,4.000000X2.500000*%
%ADD12R,2.500000X4.000000*%
%ADD13R,1.250000X1.500000*%
%ADD14R,1.800000X1.800000*%
%ADD15C,1.800000*%
%ADD16O,1.998980X1.501140*%
%ADD17C,3.500120*%
%ADD18R,1.905000X1.905000*%
%ADD19C,1.905000*%
%ADD20R,1.700000X1.700000*%
%ADD21O,1.700000X1.700000*%
%ADD22R,1.500000X1.500000*%
%ADD23C,1.500000*%
%ADD24R,1.300000X1.500000*%
%ADD25R,1.500000X1.300000*%
%ADD26R,1.600000X1.600000*%
%ADD27O,1.600000X1.600000*%
%ADD28R,1.560000X0.650000*%
%ADD29R,0.600000X1.550000*%
%ADD30O,1.524000X1.524000*%
%ADD31R,2.000000X1.500000*%
%ADD32R,0.800100X0.899160*%
%ADD33O,1.524000X2.540000*%
%ADD34C,3.175000*%
%ADD35C,1.524000*%
%ADD36R,1.700000X3.300000*%
%ADD37C,3.200000*%
G04 APERTURE END LIST*
D10*
D11*
X145603500Y-66230500D03*
X151703500Y-66230500D03*
D12*
X163957000Y-76964000D03*
X163957000Y-70864000D03*
X184721500Y-52703000D03*
X184721500Y-58803000D03*
X189712600Y-90375200D03*
X189712600Y-84275200D03*
D13*
X217678000Y-105771000D03*
X217678000Y-103271000D03*
X217678000Y-24150000D03*
X217678000Y-26650000D03*
D14*
X132588000Y-107696000D03*
D15*
X130048000Y-107696000D03*
D14*
X142240000Y-107696000D03*
D15*
X139700000Y-107696000D03*
D14*
X152146000Y-107696000D03*
D15*
X149606000Y-107696000D03*
D14*
X161798000Y-107696000D03*
D15*
X159258000Y-107696000D03*
D14*
X171450000Y-107696000D03*
D15*
X168910000Y-107696000D03*
D14*
X181102000Y-107696000D03*
D15*
X178562000Y-107696000D03*
D14*
X190754000Y-107696000D03*
D15*
X188214000Y-107696000D03*
D14*
X132334000Y-33528000D03*
D15*
X129794000Y-33528000D03*
D14*
X142240000Y-33528000D03*
D15*
X139700000Y-33528000D03*
D14*
X152400000Y-33528000D03*
D15*
X149860000Y-33528000D03*
D14*
X162306000Y-33528000D03*
D15*
X159766000Y-33528000D03*
D14*
X172212000Y-33528000D03*
D15*
X169672000Y-33528000D03*
D14*
X182118000Y-33528000D03*
D15*
X179578000Y-33528000D03*
D14*
X192024000Y-33528000D03*
D15*
X189484000Y-33528000D03*
D14*
X203009500Y-107696000D03*
D15*
X200469500Y-107696000D03*
D14*
X203073000Y-100711000D03*
D15*
X200533000Y-100711000D03*
D14*
X203200000Y-33464500D03*
D15*
X200660000Y-33464500D03*
D14*
X203200000Y-42100500D03*
D15*
X200660000Y-42100500D03*
D16*
X206367380Y-35092640D03*
X206367380Y-37592000D03*
X206367380Y-40091360D03*
D17*
X213868000Y-31391860D03*
X213868000Y-43792140D03*
D16*
X220868240Y-35092640D03*
X220868240Y-40091360D03*
D18*
X152273000Y-83693000D03*
D19*
X147193000Y-83693000D03*
D20*
X126365000Y-81153000D03*
D21*
X126365000Y-83693000D03*
D20*
X126365000Y-86233000D03*
D21*
X126365000Y-88773000D03*
D22*
X126746000Y-106680000D03*
D23*
X126746000Y-104680000D03*
X126746000Y-102680000D03*
X126746000Y-100680000D03*
D22*
X136398000Y-106680000D03*
D23*
X136398000Y-104680000D03*
X136398000Y-102680000D03*
X136398000Y-100680000D03*
D22*
X146304000Y-106934000D03*
D23*
X146304000Y-104934000D03*
X146304000Y-102934000D03*
X146304000Y-100934000D03*
D22*
X155956000Y-106934000D03*
D23*
X155956000Y-104934000D03*
X155956000Y-102934000D03*
X155956000Y-100934000D03*
D22*
X165608000Y-106934000D03*
D23*
X165608000Y-104934000D03*
X165608000Y-102934000D03*
X165608000Y-100934000D03*
D22*
X175260000Y-106934000D03*
D23*
X175260000Y-104934000D03*
X175260000Y-102934000D03*
X175260000Y-100934000D03*
D22*
X184912000Y-106934000D03*
D23*
X184912000Y-104934000D03*
X184912000Y-102934000D03*
X184912000Y-100934000D03*
D22*
X127000000Y-34544000D03*
D23*
X127000000Y-36544000D03*
X127000000Y-38544000D03*
X127000000Y-40544000D03*
D22*
X136906000Y-34544000D03*
D23*
X136906000Y-36544000D03*
X136906000Y-38544000D03*
X136906000Y-40544000D03*
D22*
X147066000Y-34544000D03*
D23*
X147066000Y-36544000D03*
X147066000Y-38544000D03*
X147066000Y-40544000D03*
D22*
X156972000Y-34544000D03*
D23*
X156972000Y-36544000D03*
X156972000Y-38544000D03*
X156972000Y-40544000D03*
D22*
X166878000Y-34544000D03*
D23*
X166878000Y-36544000D03*
X166878000Y-38544000D03*
X166878000Y-40544000D03*
D22*
X176784000Y-34544000D03*
D23*
X176784000Y-36544000D03*
X176784000Y-38544000D03*
X176784000Y-40544000D03*
D22*
X186690000Y-34544000D03*
D23*
X186690000Y-36544000D03*
X186690000Y-38544000D03*
X186690000Y-40544000D03*
D22*
X196850000Y-107188000D03*
D23*
X196850000Y-105188000D03*
X196850000Y-103188000D03*
X196850000Y-101188000D03*
D22*
X197612000Y-34798000D03*
D23*
X197612000Y-36798000D03*
X197612000Y-38798000D03*
X197612000Y-40798000D03*
D20*
X126365000Y-57912000D03*
D21*
X126365000Y-55372000D03*
X126365000Y-52832000D03*
D20*
X126238000Y-70358000D03*
D21*
X126238000Y-67818000D03*
X126238000Y-65278000D03*
D20*
X207264000Y-23368000D03*
D21*
X207264000Y-25908000D03*
X207264000Y-28448000D03*
D24*
X129032000Y-99234000D03*
X129032000Y-101934000D03*
D25*
X133938000Y-99060000D03*
X131238000Y-99060000D03*
X130476000Y-105156000D03*
X133176000Y-105156000D03*
D24*
X138684000Y-99234000D03*
X138684000Y-101934000D03*
D25*
X143844000Y-99060000D03*
X141144000Y-99060000D03*
X140128000Y-105156000D03*
X142828000Y-105156000D03*
D24*
X148590000Y-99234000D03*
X148590000Y-101934000D03*
D25*
X153496000Y-99060000D03*
X150796000Y-99060000D03*
X150034000Y-105156000D03*
X152734000Y-105156000D03*
D24*
X158242000Y-99234000D03*
X158242000Y-101934000D03*
D25*
X163148000Y-99060000D03*
X160448000Y-99060000D03*
X159686000Y-105156000D03*
X162386000Y-105156000D03*
D24*
X167894000Y-99234000D03*
X167894000Y-101934000D03*
D25*
X172800000Y-99060000D03*
X170100000Y-99060000D03*
X169338000Y-105156000D03*
X172038000Y-105156000D03*
D24*
X177546000Y-99234000D03*
X177546000Y-101934000D03*
D25*
X182452000Y-99060000D03*
X179752000Y-99060000D03*
X178990000Y-105156000D03*
X181690000Y-105156000D03*
D24*
X187198000Y-99234000D03*
X187198000Y-101934000D03*
D25*
X192104000Y-99060000D03*
X189404000Y-99060000D03*
X188642000Y-105156000D03*
X191342000Y-105156000D03*
X147875000Y-73279000D03*
X150575000Y-73279000D03*
D24*
X155067000Y-78947000D03*
X155067000Y-76247000D03*
X129032000Y-41482000D03*
X129032000Y-38782000D03*
D25*
X133938000Y-41656000D03*
X131238000Y-41656000D03*
X130222000Y-35814000D03*
X132922000Y-35814000D03*
D24*
X138938000Y-41482000D03*
X138938000Y-38782000D03*
D25*
X144098000Y-41656000D03*
X141398000Y-41656000D03*
X140128000Y-35814000D03*
X142828000Y-35814000D03*
D24*
X149098000Y-41482000D03*
X149098000Y-38782000D03*
D25*
X154004000Y-41656000D03*
X151304000Y-41656000D03*
X150288000Y-35814000D03*
X152988000Y-35814000D03*
D24*
X159004000Y-41482000D03*
X159004000Y-38782000D03*
D25*
X163910000Y-41656000D03*
X161210000Y-41656000D03*
X160194000Y-35814000D03*
X162894000Y-35814000D03*
D24*
X168910000Y-41482000D03*
X168910000Y-38782000D03*
D25*
X173816000Y-41656000D03*
X171116000Y-41656000D03*
X170100000Y-35814000D03*
X172800000Y-35814000D03*
D24*
X178816000Y-41482000D03*
X178816000Y-38782000D03*
D25*
X183722000Y-41656000D03*
X181022000Y-41656000D03*
X180006000Y-35814000D03*
X182706000Y-35814000D03*
D24*
X188722000Y-41482000D03*
X188722000Y-38782000D03*
D25*
X193628000Y-41656000D03*
X190928000Y-41656000D03*
X189912000Y-35814000D03*
X192612000Y-35814000D03*
D24*
X200914000Y-83074500D03*
X200914000Y-80374500D03*
X198310500Y-80374500D03*
X198310500Y-83074500D03*
D26*
X162433000Y-85979000D03*
D27*
X164973000Y-85979000D03*
X167513000Y-85979000D03*
X170053000Y-85979000D03*
X172593000Y-85979000D03*
X175133000Y-85979000D03*
X177673000Y-85979000D03*
X180213000Y-85979000D03*
X182753000Y-85979000D03*
D24*
X200660000Y-53641000D03*
X200660000Y-56341000D03*
X202946000Y-56277500D03*
X202946000Y-53577500D03*
X209550000Y-104474000D03*
X209550000Y-101774000D03*
X211328000Y-24050000D03*
X211328000Y-26750000D03*
D28*
X148383000Y-78674000D03*
X148383000Y-77724000D03*
X148383000Y-76774000D03*
X151083000Y-76774000D03*
X151083000Y-78674000D03*
X151083000Y-77724000D03*
D29*
X195453000Y-80297000D03*
X194183000Y-80297000D03*
X192913000Y-80297000D03*
X191643000Y-80297000D03*
X191643000Y-74897000D03*
X192913000Y-74897000D03*
X194183000Y-74897000D03*
X195453000Y-74897000D03*
X191706500Y-53497500D03*
X192976500Y-53497500D03*
X194246500Y-53497500D03*
X195516500Y-53497500D03*
X195516500Y-58897500D03*
X194246500Y-58897500D03*
X192976500Y-58897500D03*
X191706500Y-58897500D03*
D30*
X213179000Y-89525500D03*
X213179000Y-86985500D03*
X213179000Y-84445500D03*
X213179000Y-81905500D03*
X213179000Y-79365500D03*
X213179000Y-76825500D03*
X213179000Y-74285500D03*
X213179000Y-71745500D03*
X213179000Y-69205500D03*
X213179000Y-66665500D03*
X213179000Y-64125500D03*
X213179000Y-61585500D03*
X213179000Y-59045500D03*
X213179000Y-56505500D03*
D20*
X131572000Y-62611000D03*
D21*
X131572000Y-65151000D03*
X131572000Y-67691000D03*
X131572000Y-70231000D03*
X131572000Y-72771000D03*
X131572000Y-75311000D03*
D22*
X219710000Y-64643000D03*
D23*
X219710000Y-62643000D03*
X219710000Y-60643000D03*
X219710000Y-58643000D03*
D22*
X219710000Y-75946000D03*
D23*
X219710000Y-73946000D03*
X219710000Y-71946000D03*
X219710000Y-69946000D03*
D22*
X219710000Y-86995000D03*
D23*
X219710000Y-84995000D03*
X219710000Y-82995000D03*
X219710000Y-80995000D03*
D22*
X209804000Y-116332000D03*
D23*
X211804000Y-116332000D03*
X213804000Y-116332000D03*
X215804000Y-116332000D03*
D31*
X131778000Y-111664000D03*
X125778000Y-111664000D03*
X125778000Y-115164000D03*
X131778000Y-118364000D03*
D15*
X128778000Y-111664000D03*
D31*
X131778000Y-115164000D03*
X125778000Y-118364000D03*
D15*
X128778000Y-117664000D03*
D31*
X141684000Y-111664000D03*
X135684000Y-111664000D03*
X135684000Y-115164000D03*
X141684000Y-118364000D03*
D15*
X138684000Y-111664000D03*
D31*
X141684000Y-115164000D03*
X135684000Y-118364000D03*
D15*
X138684000Y-117664000D03*
D31*
X151336000Y-111664000D03*
X145336000Y-111664000D03*
X145336000Y-115164000D03*
X151336000Y-118364000D03*
D15*
X148336000Y-111664000D03*
D31*
X151336000Y-115164000D03*
X145336000Y-118364000D03*
D15*
X148336000Y-117664000D03*
D31*
X160988000Y-111664000D03*
X154988000Y-111664000D03*
X154988000Y-115164000D03*
X160988000Y-118364000D03*
D15*
X157988000Y-111664000D03*
D31*
X160988000Y-115164000D03*
X154988000Y-118364000D03*
D15*
X157988000Y-117664000D03*
D31*
X170640000Y-111664000D03*
X164640000Y-111664000D03*
X164640000Y-115164000D03*
X170640000Y-118364000D03*
D15*
X167640000Y-111664000D03*
D31*
X170640000Y-115164000D03*
X164640000Y-118364000D03*
D15*
X167640000Y-117664000D03*
D31*
X180292000Y-111664000D03*
X174292000Y-111664000D03*
X174292000Y-115164000D03*
X180292000Y-118364000D03*
D15*
X177292000Y-111664000D03*
D31*
X180292000Y-115164000D03*
X174292000Y-118364000D03*
D15*
X177292000Y-117664000D03*
D31*
X189918600Y-111587800D03*
X183918600Y-111587800D03*
X183918600Y-115087800D03*
X189918600Y-118287800D03*
D15*
X186918600Y-111587800D03*
D31*
X189918600Y-115087800D03*
X183918600Y-118287800D03*
D15*
X186918600Y-117587800D03*
D31*
X125524000Y-29560000D03*
X131524000Y-29560000D03*
X131524000Y-26060000D03*
X125524000Y-22860000D03*
D15*
X128524000Y-29560000D03*
D31*
X125524000Y-26060000D03*
X131524000Y-22860000D03*
D15*
X128524000Y-23560000D03*
D31*
X135684000Y-29560000D03*
X141684000Y-29560000D03*
X141684000Y-26060000D03*
X135684000Y-22860000D03*
D15*
X138684000Y-29560000D03*
D31*
X135684000Y-26060000D03*
X141684000Y-22860000D03*
D15*
X138684000Y-23560000D03*
D31*
X145336000Y-29560000D03*
X151336000Y-29560000D03*
X151336000Y-26060000D03*
X145336000Y-22860000D03*
D15*
X148336000Y-29560000D03*
D31*
X145336000Y-26060000D03*
X151336000Y-22860000D03*
D15*
X148336000Y-23560000D03*
D31*
X154988000Y-29560000D03*
X160988000Y-29560000D03*
X160988000Y-26060000D03*
X154988000Y-22860000D03*
D15*
X157988000Y-29560000D03*
D31*
X154988000Y-26060000D03*
X160988000Y-22860000D03*
D15*
X157988000Y-23560000D03*
D31*
X164640000Y-29560000D03*
X170640000Y-29560000D03*
X170640000Y-26060000D03*
X164640000Y-22860000D03*
D15*
X167640000Y-29560000D03*
D31*
X164640000Y-26060000D03*
X170640000Y-22860000D03*
D15*
X167640000Y-23560000D03*
D31*
X174292000Y-29560000D03*
X180292000Y-29560000D03*
X180292000Y-26060000D03*
X174292000Y-22860000D03*
D15*
X177292000Y-29560000D03*
D31*
X174292000Y-26060000D03*
X180292000Y-22860000D03*
D15*
X177292000Y-23560000D03*
D31*
X183944000Y-29560000D03*
X189944000Y-29560000D03*
X189944000Y-26060000D03*
X183944000Y-22860000D03*
D15*
X186944000Y-29560000D03*
D31*
X183944000Y-26060000D03*
X189944000Y-22860000D03*
D15*
X186944000Y-23560000D03*
D31*
X202390000Y-111562400D03*
X196390000Y-111562400D03*
X196390000Y-115062400D03*
X202390000Y-118262400D03*
D15*
X199390000Y-111562400D03*
D31*
X202390000Y-115062400D03*
X196390000Y-118262400D03*
D15*
X199390000Y-117562400D03*
D31*
X196390000Y-29560000D03*
X202390000Y-29560000D03*
X202390000Y-26060000D03*
X196390000Y-22860000D03*
D15*
X199390000Y-29560000D03*
D31*
X196390000Y-26060000D03*
X202390000Y-22860000D03*
D15*
X199390000Y-23560000D03*
D32*
X133096000Y-103207820D03*
X132146040Y-101107240D03*
X134045960Y-101107240D03*
X143002000Y-103207820D03*
X142052040Y-101107240D03*
X143951960Y-101107240D03*
X152654000Y-103207820D03*
X151704040Y-101107240D03*
X153603960Y-101107240D03*
X162306000Y-103207820D03*
X161356040Y-101107240D03*
X163255960Y-101107240D03*
X171958000Y-103207820D03*
X171008040Y-101107240D03*
X172907960Y-101107240D03*
X181610000Y-103207820D03*
X180660040Y-101107240D03*
X182559960Y-101107240D03*
X191262000Y-103461820D03*
X190312040Y-101361240D03*
X192211960Y-101361240D03*
X132080000Y-37762180D03*
X133029960Y-39862760D03*
X131130040Y-39862760D03*
X142240000Y-37762180D03*
X143189960Y-39862760D03*
X141290040Y-39862760D03*
X152146000Y-37762180D03*
X153095960Y-39862760D03*
X151196040Y-39862760D03*
X162052000Y-37762180D03*
X163001960Y-39862760D03*
X161102040Y-39862760D03*
X171958000Y-37508180D03*
X172907960Y-39608760D03*
X171008040Y-39608760D03*
X181864000Y-37508180D03*
X182813960Y-39608760D03*
X180914040Y-39608760D03*
X192024000Y-37508180D03*
X192973960Y-39608760D03*
X191074040Y-39608760D03*
D33*
X180340000Y-46736000D03*
X182880000Y-46736000D03*
X185420000Y-46736000D03*
X187960000Y-46736000D03*
X190500000Y-46736000D03*
X193040000Y-46736000D03*
X195580000Y-46736000D03*
X198120000Y-46736000D03*
X203200000Y-94996000D03*
X200660000Y-94996000D03*
X198120000Y-94996000D03*
X195580000Y-94996000D03*
X185420000Y-94996000D03*
X180340000Y-94996000D03*
X177800000Y-94996000D03*
X187960000Y-94996000D03*
X190500000Y-94996000D03*
X193040000Y-94996000D03*
X175260000Y-94996000D03*
X172720000Y-94996000D03*
X170180000Y-94996000D03*
X162560000Y-94996000D03*
X165100000Y-94996000D03*
X167640000Y-94996000D03*
X157480000Y-94996000D03*
X154940000Y-94996000D03*
X152400000Y-94996000D03*
X147320000Y-94996000D03*
X144780000Y-94996000D03*
X175260000Y-46736000D03*
X172720000Y-46736000D03*
X170180000Y-46736000D03*
X167640000Y-46736000D03*
X165100000Y-46736000D03*
X162560000Y-46736000D03*
X160020000Y-46736000D03*
X157480000Y-46736000D03*
X153416000Y-46736000D03*
X150876000Y-46736000D03*
X148336000Y-46736000D03*
X145796000Y-46736000D03*
X143256000Y-46736000D03*
X140716000Y-46736000D03*
X138176000Y-46736000D03*
X135636000Y-46736000D03*
X149860000Y-94996000D03*
D34*
X208280000Y-94996000D03*
X201930000Y-46736000D03*
X127000000Y-46736000D03*
X125730000Y-94996000D03*
D35*
X205740000Y-49276000D03*
X208280000Y-49276000D03*
X205740000Y-51816000D03*
X208280000Y-51816000D03*
X205740000Y-54356000D03*
X208280000Y-54356000D03*
X205740000Y-56896000D03*
X208280000Y-56896000D03*
X205740000Y-46736000D03*
X208280000Y-46736000D03*
X208280000Y-59436000D03*
X205740000Y-59436000D03*
X205740000Y-61976000D03*
X208280000Y-61976000D03*
X205740000Y-64516000D03*
X208280000Y-64516000D03*
X205740000Y-67056000D03*
X208280000Y-67056000D03*
X205740000Y-69596000D03*
X208280000Y-69596000D03*
X205740000Y-72136000D03*
X208280000Y-72136000D03*
X205740000Y-74676000D03*
X208280000Y-74676000D03*
X205740000Y-77216000D03*
X208280000Y-77216000D03*
X205740000Y-79756000D03*
X208280000Y-79756000D03*
X205740000Y-82296000D03*
X208280000Y-82296000D03*
X205740000Y-84836000D03*
X208280000Y-84836000D03*
X205740000Y-87376000D03*
X208280000Y-87376000D03*
X205740000Y-89916000D03*
X208280000Y-89916000D03*
X175260000Y-67056000D03*
X177800000Y-67056000D03*
X175260000Y-69596000D03*
X177800000Y-69596000D03*
X175260000Y-72136000D03*
X177800000Y-72136000D03*
D34*
X177546000Y-61976000D03*
X177800000Y-89916000D03*
D33*
X142240000Y-94996000D03*
X139700000Y-94996000D03*
X133096000Y-46736000D03*
X130556000Y-46736000D03*
D36*
X142494000Y-83776000D03*
X142494000Y-78276000D03*
D22*
X219710000Y-53467000D03*
D23*
X219710000Y-51467000D03*
X219710000Y-49467000D03*
X219710000Y-47467000D03*
D22*
X219710000Y-98044000D03*
D23*
X219710000Y-96044000D03*
X219710000Y-94044000D03*
X219710000Y-92044000D03*
D22*
X209804000Y-109347000D03*
D23*
X211804000Y-109347000D03*
X213804000Y-109347000D03*
X215804000Y-109347000D03*
D25*
X215218000Y-37592000D03*
X212518000Y-37592000D03*
X215218000Y-35052000D03*
X212518000Y-35052000D03*
X212518000Y-40005000D03*
X215218000Y-40005000D03*
D37*
X132334000Y-51054000D03*
X132207000Y-95123000D03*
D24*
X141732000Y-54182000D03*
X141732000Y-51482000D03*
X138811000Y-54182000D03*
X138811000Y-51482000D03*
M02*
