M48
;DRILL file {KiCad 4.0.6-e0-6349~53~ubuntu16.04.1} date Thu Jun 29 18:49:35 2017
;FORMAT={-:-/ absolute / metric / decimal}
FMAT,2
METRIC,TZ
T1C0.400
T2C0.800
T3C0.813
T4C0.900
T5C1.000
T6C1.001
T7C1.016
T8C2.200
%
G90
G05
M71
T1
X127.635Y-119.126
X127.825Y-41.783
X128.016Y-27.051
X129.667Y-78.803
X130.175Y-40.132
X131.445Y-102.87
X132.715Y-24.536
X134.239Y-119.126
X136.398Y-102.68
X137.541Y-99.441
X137.668Y-42.037
X138.112Y-43.878
X140.335Y-40.132
X140.868Y-24.333
X143.827Y-50.8
X144.018Y-119.126
X147.193Y-99.822
X147.828Y-41.846
X149.733Y-80.2
X149.987Y-92.456
X150.256Y-39.863
X150.546Y-24.282
X153.416Y-119.126
X155.956Y-92.519
X156.083Y-90.678
X156.845Y-99.822
X157.671Y-41.91
X158.559Y-64.579
X159.004Y-50.8
X160.02Y-40.005
X160.452Y-24.384
X160.591Y-52.768
X161.1Y-51.562
X162.941Y-119.126
X163.957Y-92.837
X166.497Y-99.695
X167.64Y-41.783
X170.053Y-24.409
X170.307Y-40.005
X172.466Y-118.999
X175.387Y-64.96
X176.276Y-99.187
X176.911Y-49.784
X177.101Y-50.736
X177.546Y-41.846
X178.879Y-64.706
X179.553Y-24.562
X180.086Y-40.132
X182.054Y-62.992
X182.245Y-119.126
X182.816Y-68.453
X183.134Y-62.865
X183.515Y-65.532
X183.515Y-69.596
X186.055Y-99.949
X187.325Y-41.974
X189.421Y-73.469
X189.421Y-75.882
X189.484Y-57.785
X189.484Y-60.071
X189.535Y-24.359
X189.713Y-80.823
X189.865Y-54.546
X189.992Y-40.132
X190.564Y-62.23
X190.754Y-50.927
X190.817Y-69.659
X191.452Y-63.055
X191.452Y-68.453
X191.948Y-77.318
X192.888Y-83.769
X192.888Y-87.63
X192.913Y-73.343
X192.976Y-60.77
X194.183Y-73.279
X194.31Y-60.77
X197.612Y-58.928
X197.612Y-64.516
X198.31Y-102.108
X199.263Y-103.188
X199.326Y-97.599
X199.39Y-64.516
X199.39Y-66.802
X199.453Y-90.995
X203.962Y-92.583
X206.565Y-97.346
X206.692Y-105.664
X209.55Y-106.045
X209.677Y-75.946
X210.058Y-39.497
X210.439Y-68.58
X212.09Y-93.789
X212.725Y-25.908
X215.519Y-69.342
X216.154Y-25.019
X216.408Y-61.849
X216.408Y-76.835
X216.916Y-101.981
X217.17Y-88.9
X217.297Y-85.979
X217.297Y-91.313
X217.348Y-35.077
X217.348Y-37.617
X218.059Y-92.837
X219.456Y-25.781
X219.583Y-104.902
T2
X126.746Y-100.68
X126.746Y-102.68
X126.746Y-104.68
X126.746Y-106.68
X127.Y-34.544
X127.Y-36.544
X127.Y-38.544
X127.Y-40.544
X136.398Y-100.68
X136.398Y-102.68
X136.398Y-104.68
X136.398Y-106.68
X136.906Y-34.544
X136.906Y-36.544
X136.906Y-38.544
X136.906Y-40.544
X146.304Y-100.934
X146.304Y-102.934
X146.304Y-104.934
X146.304Y-106.934
X147.066Y-34.544
X147.066Y-36.544
X147.066Y-38.544
X147.066Y-40.544
X155.956Y-100.934
X155.956Y-102.934
X155.956Y-104.934
X155.956Y-106.934
X156.972Y-34.544
X156.972Y-36.544
X156.972Y-38.544
X156.972Y-40.544
X162.433Y-85.979
X164.973Y-85.979
X165.608Y-100.934
X165.608Y-102.934
X165.608Y-104.934
X165.608Y-106.934
X166.878Y-34.544
X166.878Y-36.544
X166.878Y-38.544
X166.878Y-40.544
X167.513Y-85.979
X170.053Y-85.979
X172.593Y-85.979
X175.133Y-85.979
X175.26Y-100.934
X175.26Y-102.934
X175.26Y-104.934
X175.26Y-106.934
X176.784Y-34.544
X176.784Y-36.544
X176.784Y-38.544
X176.784Y-40.544
X177.673Y-85.979
X180.213Y-85.979
X182.753Y-85.979
X184.912Y-100.934
X184.912Y-102.934
X184.912Y-104.934
X184.912Y-106.934
X186.69Y-34.544
X186.69Y-36.544
X186.69Y-38.544
X186.69Y-40.544
X196.85Y-101.188
X196.85Y-103.188
X196.85Y-105.188
X196.85Y-107.188
X197.612Y-34.798
X197.612Y-36.798
X197.612Y-38.798
X197.612Y-40.798
X209.804Y-109.347
X209.804Y-116.332
X211.804Y-109.347
X211.804Y-116.332
X213.804Y-109.347
X213.804Y-116.332
X215.804Y-109.347
X215.804Y-116.332
X219.71Y-47.467
X219.71Y-49.467
X219.71Y-51.467
X219.71Y-53.467
X219.71Y-58.643
X219.71Y-60.643
X219.71Y-62.643
X219.71Y-64.643
X219.71Y-69.946
X219.71Y-71.946
X219.71Y-73.946
X219.71Y-75.946
X219.71Y-80.995
X219.71Y-82.995
X219.71Y-84.995
X219.71Y-86.995
X219.71Y-92.044
X219.71Y-94.044
X219.71Y-96.044
X219.71Y-98.044
T3
X147.193Y-83.693
X152.273Y-83.693
X175.26Y-67.056
X175.26Y-69.596
X175.26Y-72.136
X177.8Y-67.056
X177.8Y-69.596
X177.8Y-72.136
T4
X129.794Y-33.528
X130.048Y-107.696
X132.334Y-33.528
X132.588Y-107.696
X139.7Y-33.528
X139.7Y-107.696
X142.24Y-33.528
X142.24Y-107.696
X149.606Y-107.696
X149.86Y-33.528
X152.146Y-107.696
X152.4Y-33.528
X159.258Y-107.696
X159.766Y-33.528
X161.798Y-107.696
X162.306Y-33.528
X168.91Y-107.696
X169.672Y-33.528
X171.45Y-107.696
X172.212Y-33.528
X178.562Y-107.696
X179.578Y-33.528
X181.102Y-107.696
X182.118Y-33.528
X188.214Y-107.696
X189.484Y-33.528
X190.754Y-107.696
X192.024Y-33.528
X200.469Y-107.696
X200.533Y-100.711
X200.66Y-33.465
X200.66Y-42.1
X203.01Y-107.696
X203.073Y-100.711
X203.2Y-33.465
X203.2Y-42.1
T5
X126.238Y-65.278
X126.238Y-67.818
X126.238Y-70.358
X126.365Y-52.832
X126.365Y-55.372
X126.365Y-57.912
X126.365Y-81.153
X126.365Y-83.693
X126.365Y-86.233
X126.365Y-88.773
X131.572Y-62.611
X131.572Y-65.151
X131.572Y-67.691
X131.572Y-70.231
X131.572Y-72.771
X131.572Y-75.311
X207.264Y-23.368
X207.264Y-25.908
X207.264Y-28.448
T6
X206.367Y-35.093
X206.367Y-37.592
X206.367Y-40.091
X220.868Y-35.093
X220.868Y-40.091
T7
X130.556Y-46.736
X133.096Y-46.736
X135.636Y-46.736
X138.176Y-46.736
X139.7Y-94.996
X140.716Y-46.736
X142.24Y-94.996
X143.256Y-46.736
X144.78Y-94.996
X145.796Y-46.736
X147.32Y-94.996
X148.336Y-46.736
X149.86Y-94.996
X150.876Y-46.736
X152.4Y-94.996
X153.416Y-46.736
X154.94Y-94.996
X157.48Y-46.736
X157.48Y-94.996
X160.02Y-46.736
X162.56Y-46.736
X162.56Y-94.996
X165.1Y-46.736
X165.1Y-94.996
X167.64Y-46.736
X167.64Y-94.996
X170.18Y-46.736
X170.18Y-94.996
X172.72Y-46.736
X172.72Y-94.996
X175.26Y-46.736
X175.26Y-94.996
X177.8Y-94.996
X180.34Y-46.736
X180.34Y-94.996
X182.88Y-46.736
X185.42Y-46.736
X185.42Y-94.996
X187.96Y-46.736
X187.96Y-94.996
X190.5Y-46.736
X190.5Y-94.996
X193.04Y-46.736
X193.04Y-94.996
X195.58Y-46.736
X195.58Y-94.996
X198.12Y-46.736
X198.12Y-94.996
X200.66Y-94.996
X203.2Y-94.996
X205.74Y-46.736
X205.74Y-49.276
X205.74Y-51.816
X205.74Y-54.356
X205.74Y-56.896
X205.74Y-59.436
X205.74Y-61.976
X205.74Y-64.516
X205.74Y-67.056
X205.74Y-69.596
X205.74Y-72.136
X205.74Y-74.676
X205.74Y-77.216
X205.74Y-79.756
X205.74Y-82.296
X205.74Y-84.836
X205.74Y-87.376
X205.74Y-89.916
X208.28Y-46.736
X208.28Y-49.276
X208.28Y-51.816
X208.28Y-54.356
X208.28Y-56.896
X208.28Y-59.436
X208.28Y-61.976
X208.28Y-64.516
X208.28Y-67.056
X208.28Y-69.596
X208.28Y-72.136
X208.28Y-74.676
X208.28Y-77.216
X208.28Y-79.756
X208.28Y-82.296
X208.28Y-84.836
X208.28Y-87.376
X208.28Y-89.916
X213.179Y-56.505
X213.179Y-59.045
X213.179Y-61.585
X213.179Y-64.126
X213.179Y-66.665
X213.179Y-69.206
X213.179Y-71.745
X213.179Y-74.285
X213.179Y-76.825
X213.179Y-79.365
X213.179Y-81.905
X213.179Y-84.445
X213.179Y-86.986
X213.179Y-89.525
T8
X213.868Y-31.392
X213.868Y-43.792
T0
M30
