M48
;DRILL file {KiCad 4.0.6-e0-6349~53~ubuntu16.04.1} date Thu Jun 29 18:49:35 2017
;FORMAT={-:-/ absolute / metric / decimal}
FMAT,2
METRIC,TZ
T1C1.600
T2C3.175
T3C3.200
%
G90
G05
M71
T1
X128.524Y-23.56
X128.524Y-29.56
X128.778Y-111.664
X128.778Y-117.664
X138.684Y-23.56
X138.684Y-29.56
X138.684Y-111.664
X138.684Y-117.664
X148.336Y-23.56
X148.336Y-29.56
X148.336Y-111.664
X148.336Y-117.664
X157.988Y-23.56
X157.988Y-29.56
X157.988Y-111.664
X157.988Y-117.664
X167.64Y-23.56
X167.64Y-29.56
X167.64Y-111.664
X167.64Y-117.664
X177.292Y-23.56
X177.292Y-29.56
X177.292Y-111.664
X177.292Y-117.664
X186.919Y-111.588
X186.919Y-117.588
X186.944Y-23.56
X186.944Y-29.56
X199.39Y-23.56
X199.39Y-29.56
X199.39Y-111.562
X199.39Y-117.562
T2
X125.73Y-94.996
X127.Y-46.736
X177.546Y-61.976
X177.8Y-89.916
X201.93Y-46.736
X208.28Y-94.996
T3
X132.207Y-95.123
X132.334Y-51.054
T0
M30
