G04 #@! TF.FileFunction,Other,Fab,Bot*
%FSLAX46Y46*%
G04 Gerber Fmt 4.6, Leading zero omitted, Abs format (unit mm)*
G04 Created by KiCad (PCBNEW 4.0.6-e0-6349~53~ubuntu16.04.1) date Thu Jun 29 18:49:34 2017*
%MOMM*%
%LPD*%
G01*
G04 APERTURE LIST*
%ADD10C,0.100000*%
%ADD11C,0.150000*%
%ADD12C,0.075000*%
G04 APERTURE END LIST*
D10*
X152599384Y-66230500D02*
G75*
G03X152599384Y-66230500I-3945884J0D01*
G01*
X152693500Y-62190500D02*
X152693500Y-70270500D01*
X145283500Y-62190500D02*
X152693500Y-62190500D01*
X144613500Y-62860500D02*
X145283500Y-62190500D01*
X144613500Y-69600500D02*
X144613500Y-62860500D01*
X145283500Y-70270500D02*
X144613500Y-69600500D01*
X152693500Y-70270500D02*
X145283500Y-70270500D01*
X167902884Y-73914000D02*
G75*
G03X167902884Y-73914000I-3945884J0D01*
G01*
X159917000Y-69874000D02*
X167997000Y-69874000D01*
X159917000Y-77284000D02*
X159917000Y-69874000D01*
X160587000Y-77954000D02*
X159917000Y-77284000D01*
X167327000Y-77954000D02*
X160587000Y-77954000D01*
X167997000Y-77284000D02*
X167327000Y-77954000D01*
X167997000Y-69874000D02*
X167997000Y-77284000D01*
X188667384Y-55753000D02*
G75*
G03X188667384Y-55753000I-3945884J0D01*
G01*
X188761500Y-59793000D02*
X180681500Y-59793000D01*
X188761500Y-52383000D02*
X188761500Y-59793000D01*
X188091500Y-51713000D02*
X188761500Y-52383000D01*
X181351500Y-51713000D02*
X188091500Y-51713000D01*
X180681500Y-52383000D02*
X181351500Y-51713000D01*
X180681500Y-59793000D02*
X180681500Y-52383000D01*
X193658484Y-87325200D02*
G75*
G03X193658484Y-87325200I-3945884J0D01*
G01*
X185672600Y-83285200D02*
X193752600Y-83285200D01*
X185672600Y-90695200D02*
X185672600Y-83285200D01*
X186342600Y-91365200D02*
X185672600Y-90695200D01*
X193082600Y-91365200D02*
X186342600Y-91365200D01*
X193752600Y-90695200D02*
X193082600Y-91365200D01*
X193752600Y-83285200D02*
X193752600Y-90695200D01*
X217058000Y-105521000D02*
X218298000Y-105521000D01*
X217058000Y-103521000D02*
X217058000Y-105521000D01*
X218298000Y-103521000D02*
X217058000Y-103521000D01*
X218298000Y-105521000D02*
X218298000Y-103521000D01*
X218298000Y-24400000D02*
X217058000Y-24400000D01*
X218298000Y-26400000D02*
X218298000Y-24400000D01*
X217058000Y-26400000D02*
X218298000Y-26400000D01*
X217058000Y-24400000D02*
X217058000Y-26400000D01*
X129652000Y-99584000D02*
X128412000Y-99584000D01*
X129652000Y-101584000D02*
X129652000Y-99584000D01*
X128412000Y-101584000D02*
X129652000Y-101584000D01*
X128412000Y-99584000D02*
X128412000Y-101584000D01*
X133588000Y-99680000D02*
X133588000Y-98440000D01*
X131588000Y-99680000D02*
X133588000Y-99680000D01*
X131588000Y-98440000D02*
X131588000Y-99680000D01*
X133588000Y-98440000D02*
X131588000Y-98440000D01*
X130826000Y-104536000D02*
X130826000Y-105776000D01*
X132826000Y-104536000D02*
X130826000Y-104536000D01*
X132826000Y-105776000D02*
X132826000Y-104536000D01*
X130826000Y-105776000D02*
X132826000Y-105776000D01*
X139304000Y-99584000D02*
X138064000Y-99584000D01*
X139304000Y-101584000D02*
X139304000Y-99584000D01*
X138064000Y-101584000D02*
X139304000Y-101584000D01*
X138064000Y-99584000D02*
X138064000Y-101584000D01*
X143494000Y-99680000D02*
X143494000Y-98440000D01*
X141494000Y-99680000D02*
X143494000Y-99680000D01*
X141494000Y-98440000D02*
X141494000Y-99680000D01*
X143494000Y-98440000D02*
X141494000Y-98440000D01*
X140478000Y-104536000D02*
X140478000Y-105776000D01*
X142478000Y-104536000D02*
X140478000Y-104536000D01*
X142478000Y-105776000D02*
X142478000Y-104536000D01*
X140478000Y-105776000D02*
X142478000Y-105776000D01*
X149210000Y-99584000D02*
X147970000Y-99584000D01*
X149210000Y-101584000D02*
X149210000Y-99584000D01*
X147970000Y-101584000D02*
X149210000Y-101584000D01*
X147970000Y-99584000D02*
X147970000Y-101584000D01*
X153146000Y-99680000D02*
X153146000Y-98440000D01*
X151146000Y-99680000D02*
X153146000Y-99680000D01*
X151146000Y-98440000D02*
X151146000Y-99680000D01*
X153146000Y-98440000D02*
X151146000Y-98440000D01*
X150384000Y-104536000D02*
X150384000Y-105776000D01*
X152384000Y-104536000D02*
X150384000Y-104536000D01*
X152384000Y-105776000D02*
X152384000Y-104536000D01*
X150384000Y-105776000D02*
X152384000Y-105776000D01*
X158862000Y-99584000D02*
X157622000Y-99584000D01*
X158862000Y-101584000D02*
X158862000Y-99584000D01*
X157622000Y-101584000D02*
X158862000Y-101584000D01*
X157622000Y-99584000D02*
X157622000Y-101584000D01*
X162798000Y-99680000D02*
X162798000Y-98440000D01*
X160798000Y-99680000D02*
X162798000Y-99680000D01*
X160798000Y-98440000D02*
X160798000Y-99680000D01*
X162798000Y-98440000D02*
X160798000Y-98440000D01*
X160036000Y-104536000D02*
X160036000Y-105776000D01*
X162036000Y-104536000D02*
X160036000Y-104536000D01*
X162036000Y-105776000D02*
X162036000Y-104536000D01*
X160036000Y-105776000D02*
X162036000Y-105776000D01*
X168514000Y-99584000D02*
X167274000Y-99584000D01*
X168514000Y-101584000D02*
X168514000Y-99584000D01*
X167274000Y-101584000D02*
X168514000Y-101584000D01*
X167274000Y-99584000D02*
X167274000Y-101584000D01*
X172450000Y-99680000D02*
X172450000Y-98440000D01*
X170450000Y-99680000D02*
X172450000Y-99680000D01*
X170450000Y-98440000D02*
X170450000Y-99680000D01*
X172450000Y-98440000D02*
X170450000Y-98440000D01*
X169688000Y-104536000D02*
X169688000Y-105776000D01*
X171688000Y-104536000D02*
X169688000Y-104536000D01*
X171688000Y-105776000D02*
X171688000Y-104536000D01*
X169688000Y-105776000D02*
X171688000Y-105776000D01*
X178166000Y-99584000D02*
X176926000Y-99584000D01*
X178166000Y-101584000D02*
X178166000Y-99584000D01*
X176926000Y-101584000D02*
X178166000Y-101584000D01*
X176926000Y-99584000D02*
X176926000Y-101584000D01*
X182102000Y-99680000D02*
X182102000Y-98440000D01*
X180102000Y-99680000D02*
X182102000Y-99680000D01*
X180102000Y-98440000D02*
X180102000Y-99680000D01*
X182102000Y-98440000D02*
X180102000Y-98440000D01*
X179340000Y-104536000D02*
X179340000Y-105776000D01*
X181340000Y-104536000D02*
X179340000Y-104536000D01*
X181340000Y-105776000D02*
X181340000Y-104536000D01*
X179340000Y-105776000D02*
X181340000Y-105776000D01*
X187818000Y-99584000D02*
X186578000Y-99584000D01*
X187818000Y-101584000D02*
X187818000Y-99584000D01*
X186578000Y-101584000D02*
X187818000Y-101584000D01*
X186578000Y-99584000D02*
X186578000Y-101584000D01*
X191754000Y-99680000D02*
X191754000Y-98440000D01*
X189754000Y-99680000D02*
X191754000Y-99680000D01*
X189754000Y-98440000D02*
X189754000Y-99680000D01*
X191754000Y-98440000D02*
X189754000Y-98440000D01*
X188992000Y-104536000D02*
X188992000Y-105776000D01*
X190992000Y-104536000D02*
X188992000Y-104536000D01*
X190992000Y-105776000D02*
X190992000Y-104536000D01*
X188992000Y-105776000D02*
X190992000Y-105776000D01*
X148225000Y-72659000D02*
X148225000Y-73899000D01*
X150225000Y-72659000D02*
X148225000Y-72659000D01*
X150225000Y-73899000D02*
X150225000Y-72659000D01*
X148225000Y-73899000D02*
X150225000Y-73899000D01*
X154447000Y-78597000D02*
X155687000Y-78597000D01*
X154447000Y-76597000D02*
X154447000Y-78597000D01*
X155687000Y-76597000D02*
X154447000Y-76597000D01*
X155687000Y-78597000D02*
X155687000Y-76597000D01*
X128412000Y-41132000D02*
X129652000Y-41132000D01*
X128412000Y-39132000D02*
X128412000Y-41132000D01*
X129652000Y-39132000D02*
X128412000Y-39132000D01*
X129652000Y-41132000D02*
X129652000Y-39132000D01*
X133588000Y-42276000D02*
X133588000Y-41036000D01*
X131588000Y-42276000D02*
X133588000Y-42276000D01*
X131588000Y-41036000D02*
X131588000Y-42276000D01*
X133588000Y-41036000D02*
X131588000Y-41036000D01*
X130572000Y-35194000D02*
X130572000Y-36434000D01*
X132572000Y-35194000D02*
X130572000Y-35194000D01*
X132572000Y-36434000D02*
X132572000Y-35194000D01*
X130572000Y-36434000D02*
X132572000Y-36434000D01*
X138318000Y-41132000D02*
X139558000Y-41132000D01*
X138318000Y-39132000D02*
X138318000Y-41132000D01*
X139558000Y-39132000D02*
X138318000Y-39132000D01*
X139558000Y-41132000D02*
X139558000Y-39132000D01*
X143748000Y-42276000D02*
X143748000Y-41036000D01*
X141748000Y-42276000D02*
X143748000Y-42276000D01*
X141748000Y-41036000D02*
X141748000Y-42276000D01*
X143748000Y-41036000D02*
X141748000Y-41036000D01*
X140478000Y-35194000D02*
X140478000Y-36434000D01*
X142478000Y-35194000D02*
X140478000Y-35194000D01*
X142478000Y-36434000D02*
X142478000Y-35194000D01*
X140478000Y-36434000D02*
X142478000Y-36434000D01*
X148478000Y-41132000D02*
X149718000Y-41132000D01*
X148478000Y-39132000D02*
X148478000Y-41132000D01*
X149718000Y-39132000D02*
X148478000Y-39132000D01*
X149718000Y-41132000D02*
X149718000Y-39132000D01*
X153654000Y-42276000D02*
X153654000Y-41036000D01*
X151654000Y-42276000D02*
X153654000Y-42276000D01*
X151654000Y-41036000D02*
X151654000Y-42276000D01*
X153654000Y-41036000D02*
X151654000Y-41036000D01*
X150638000Y-35194000D02*
X150638000Y-36434000D01*
X152638000Y-35194000D02*
X150638000Y-35194000D01*
X152638000Y-36434000D02*
X152638000Y-35194000D01*
X150638000Y-36434000D02*
X152638000Y-36434000D01*
X158384000Y-41132000D02*
X159624000Y-41132000D01*
X158384000Y-39132000D02*
X158384000Y-41132000D01*
X159624000Y-39132000D02*
X158384000Y-39132000D01*
X159624000Y-41132000D02*
X159624000Y-39132000D01*
X163560000Y-42276000D02*
X163560000Y-41036000D01*
X161560000Y-42276000D02*
X163560000Y-42276000D01*
X161560000Y-41036000D02*
X161560000Y-42276000D01*
X163560000Y-41036000D02*
X161560000Y-41036000D01*
X160544000Y-35194000D02*
X160544000Y-36434000D01*
X162544000Y-35194000D02*
X160544000Y-35194000D01*
X162544000Y-36434000D02*
X162544000Y-35194000D01*
X160544000Y-36434000D02*
X162544000Y-36434000D01*
X168290000Y-41132000D02*
X169530000Y-41132000D01*
X168290000Y-39132000D02*
X168290000Y-41132000D01*
X169530000Y-39132000D02*
X168290000Y-39132000D01*
X169530000Y-41132000D02*
X169530000Y-39132000D01*
X173466000Y-42276000D02*
X173466000Y-41036000D01*
X171466000Y-42276000D02*
X173466000Y-42276000D01*
X171466000Y-41036000D02*
X171466000Y-42276000D01*
X173466000Y-41036000D02*
X171466000Y-41036000D01*
X170450000Y-35194000D02*
X170450000Y-36434000D01*
X172450000Y-35194000D02*
X170450000Y-35194000D01*
X172450000Y-36434000D02*
X172450000Y-35194000D01*
X170450000Y-36434000D02*
X172450000Y-36434000D01*
X178196000Y-41132000D02*
X179436000Y-41132000D01*
X178196000Y-39132000D02*
X178196000Y-41132000D01*
X179436000Y-39132000D02*
X178196000Y-39132000D01*
X179436000Y-41132000D02*
X179436000Y-39132000D01*
X183372000Y-42276000D02*
X183372000Y-41036000D01*
X181372000Y-42276000D02*
X183372000Y-42276000D01*
X181372000Y-41036000D02*
X181372000Y-42276000D01*
X183372000Y-41036000D02*
X181372000Y-41036000D01*
X180356000Y-35194000D02*
X180356000Y-36434000D01*
X182356000Y-35194000D02*
X180356000Y-35194000D01*
X182356000Y-36434000D02*
X182356000Y-35194000D01*
X180356000Y-36434000D02*
X182356000Y-36434000D01*
X188102000Y-41132000D02*
X189342000Y-41132000D01*
X188102000Y-39132000D02*
X188102000Y-41132000D01*
X189342000Y-39132000D02*
X188102000Y-39132000D01*
X189342000Y-41132000D02*
X189342000Y-39132000D01*
X193278000Y-42276000D02*
X193278000Y-41036000D01*
X191278000Y-42276000D02*
X193278000Y-42276000D01*
X191278000Y-41036000D02*
X191278000Y-42276000D01*
X193278000Y-41036000D02*
X191278000Y-41036000D01*
X190262000Y-35194000D02*
X190262000Y-36434000D01*
X192262000Y-35194000D02*
X190262000Y-35194000D01*
X192262000Y-36434000D02*
X192262000Y-35194000D01*
X190262000Y-36434000D02*
X192262000Y-36434000D01*
X200294000Y-82724500D02*
X201534000Y-82724500D01*
X200294000Y-80724500D02*
X200294000Y-82724500D01*
X201534000Y-80724500D02*
X200294000Y-80724500D01*
X201534000Y-82724500D02*
X201534000Y-80724500D01*
X198930500Y-80724500D02*
X197690500Y-80724500D01*
X198930500Y-82724500D02*
X198930500Y-80724500D01*
X197690500Y-82724500D02*
X198930500Y-82724500D01*
X197690500Y-80724500D02*
X197690500Y-82724500D01*
X201280000Y-53991000D02*
X200040000Y-53991000D01*
X201280000Y-55991000D02*
X201280000Y-53991000D01*
X200040000Y-55991000D02*
X201280000Y-55991000D01*
X200040000Y-53991000D02*
X200040000Y-55991000D01*
X202326000Y-55927500D02*
X203566000Y-55927500D01*
X202326000Y-53927500D02*
X202326000Y-55927500D01*
X203566000Y-53927500D02*
X202326000Y-53927500D01*
X203566000Y-55927500D02*
X203566000Y-53927500D01*
X208930000Y-104124000D02*
X210170000Y-104124000D01*
X208930000Y-102124000D02*
X208930000Y-104124000D01*
X210170000Y-102124000D02*
X208930000Y-102124000D01*
X210170000Y-104124000D02*
X210170000Y-102124000D01*
X211948000Y-24400000D02*
X210708000Y-24400000D01*
X211948000Y-26400000D02*
X211948000Y-24400000D01*
X210708000Y-26400000D02*
X211948000Y-26400000D01*
X210708000Y-24400000D02*
X210708000Y-26400000D01*
X148833000Y-78624000D02*
X149483000Y-79274000D01*
X150633000Y-79274000D02*
X149483000Y-79274000D01*
X148833000Y-78624000D02*
X148833000Y-76174000D01*
X150633000Y-76174000D02*
X148833000Y-76174000D01*
X150633000Y-79274000D02*
X150633000Y-76174000D01*
X195998000Y-78547000D02*
X195998000Y-75647000D01*
X195998000Y-75647000D02*
X191098000Y-75647000D01*
X191098000Y-75647000D02*
X191098000Y-79547000D01*
X191098000Y-79547000D02*
X194998000Y-79547000D01*
X194998000Y-79547000D02*
X195998000Y-78547000D01*
X191161500Y-55247500D02*
X191161500Y-58147500D01*
X191161500Y-58147500D02*
X196061500Y-58147500D01*
X196061500Y-58147500D02*
X196061500Y-54247500D01*
X196061500Y-54247500D02*
X192161500Y-54247500D01*
X192161500Y-54247500D02*
X191161500Y-55247500D01*
X143294000Y-79376000D02*
X141694000Y-79376000D01*
X141694000Y-79376000D02*
X141694000Y-82676000D01*
X141694000Y-82676000D02*
X143294000Y-82676000D01*
X143294000Y-82676000D02*
X143294000Y-79376000D01*
X142494000Y-80776000D02*
X142494000Y-80276000D01*
X142094000Y-80776000D02*
X142494000Y-81376000D01*
X142894000Y-80776000D02*
X142094000Y-80776000D01*
X142494000Y-81376000D02*
X142894000Y-80776000D01*
X142494000Y-81376000D02*
X141944000Y-81376000D01*
X142494000Y-81376000D02*
X143044000Y-81376000D01*
X142494000Y-81776000D02*
X142494000Y-81376000D01*
X214868000Y-38212000D02*
X214868000Y-36972000D01*
X212868000Y-38212000D02*
X214868000Y-38212000D01*
X212868000Y-36972000D02*
X212868000Y-38212000D01*
X214868000Y-36972000D02*
X212868000Y-36972000D01*
X214868000Y-35672000D02*
X214868000Y-34432000D01*
X212868000Y-35672000D02*
X214868000Y-35672000D01*
X212868000Y-34432000D02*
X212868000Y-35672000D01*
X214868000Y-34432000D02*
X212868000Y-34432000D01*
X212868000Y-39385000D02*
X212868000Y-40625000D01*
X214868000Y-39385000D02*
X212868000Y-39385000D01*
X214868000Y-40625000D02*
X214868000Y-39385000D01*
X212868000Y-40625000D02*
X214868000Y-40625000D01*
X141112000Y-53832000D02*
X142352000Y-53832000D01*
X141112000Y-51832000D02*
X141112000Y-53832000D01*
X142352000Y-51832000D02*
X141112000Y-51832000D01*
X142352000Y-53832000D02*
X142352000Y-51832000D01*
X138191000Y-53832000D02*
X139431000Y-53832000D01*
X138191000Y-51832000D02*
X138191000Y-53832000D01*
X139431000Y-51832000D02*
X138191000Y-51832000D01*
X139431000Y-53832000D02*
X139431000Y-51832000D01*
D11*
X152867810Y-60507619D02*
X152820191Y-60460000D01*
X152724953Y-60412381D01*
X152486857Y-60412381D01*
X152391619Y-60460000D01*
X152344000Y-60507619D01*
X152296381Y-60602857D01*
X152296381Y-60698095D01*
X152344000Y-60840952D01*
X152915429Y-61412381D01*
X152296381Y-61412381D01*
X151915429Y-60507619D02*
X151867810Y-60460000D01*
X151772572Y-60412381D01*
X151534476Y-60412381D01*
X151439238Y-60460000D01*
X151391619Y-60507619D01*
X151344000Y-60602857D01*
X151344000Y-60698095D01*
X151391619Y-60840952D01*
X151963048Y-61412381D01*
X151344000Y-61412381D01*
X150724953Y-60412381D02*
X150629714Y-60412381D01*
X150534476Y-60460000D01*
X150486857Y-60507619D01*
X150439238Y-60602857D01*
X150391619Y-60793333D01*
X150391619Y-61031429D01*
X150439238Y-61221905D01*
X150486857Y-61317143D01*
X150534476Y-61364762D01*
X150629714Y-61412381D01*
X150724953Y-61412381D01*
X150820191Y-61364762D01*
X150867810Y-61317143D01*
X150915429Y-61221905D01*
X150963048Y-61031429D01*
X150963048Y-60793333D01*
X150915429Y-60602857D01*
X150867810Y-60507619D01*
X150820191Y-60460000D01*
X150724953Y-60412381D01*
X149534476Y-60745714D02*
X149534476Y-61412381D01*
X149963048Y-60745714D02*
X149963048Y-61269524D01*
X149915429Y-61364762D01*
X149820191Y-61412381D01*
X149677333Y-61412381D01*
X149582095Y-61364762D01*
X149534476Y-61317143D01*
X148724952Y-60888571D02*
X149058286Y-60888571D01*
X149058286Y-61412381D02*
X149058286Y-60412381D01*
X148582095Y-60412381D01*
X147486857Y-60364762D02*
X148344000Y-61650476D01*
X146629714Y-61412381D02*
X147201143Y-61412381D01*
X146915429Y-61412381D02*
X146915429Y-60412381D01*
X147010667Y-60555238D01*
X147105905Y-60650476D01*
X147201143Y-60698095D01*
X145772571Y-60412381D02*
X145963048Y-60412381D01*
X146058286Y-60460000D01*
X146105905Y-60507619D01*
X146201143Y-60650476D01*
X146248762Y-60840952D01*
X146248762Y-61221905D01*
X146201143Y-61317143D01*
X146153524Y-61364762D01*
X146058286Y-61412381D01*
X145867809Y-61412381D01*
X145772571Y-61364762D01*
X145724952Y-61317143D01*
X145677333Y-61221905D01*
X145677333Y-60983810D01*
X145724952Y-60888571D01*
X145772571Y-60840952D01*
X145867809Y-60793333D01*
X146058286Y-60793333D01*
X146153524Y-60840952D01*
X146201143Y-60888571D01*
X146248762Y-60983810D01*
X145391619Y-60412381D02*
X145058286Y-61412381D01*
X144724952Y-60412381D01*
X146724452Y-66381929D02*
X145962547Y-66381929D01*
X146343499Y-66762881D02*
X146343499Y-66000976D01*
X148820166Y-61137643D02*
X148867785Y-61185262D01*
X149010642Y-61232881D01*
X149105880Y-61232881D01*
X149248738Y-61185262D01*
X149343976Y-61090024D01*
X149391595Y-60994786D01*
X149439214Y-60804310D01*
X149439214Y-60661452D01*
X149391595Y-60470976D01*
X149343976Y-60375738D01*
X149248738Y-60280500D01*
X149105880Y-60232881D01*
X149010642Y-60232881D01*
X148867785Y-60280500D01*
X148820166Y-60328119D01*
X147867785Y-61232881D02*
X148439214Y-61232881D01*
X148153500Y-61232881D02*
X148153500Y-60232881D01*
X148248738Y-60375738D01*
X148343976Y-60470976D01*
X148439214Y-60518595D01*
X167599810Y-67365619D02*
X167552191Y-67318000D01*
X167456953Y-67270381D01*
X167218857Y-67270381D01*
X167123619Y-67318000D01*
X167076000Y-67365619D01*
X167028381Y-67460857D01*
X167028381Y-67556095D01*
X167076000Y-67698952D01*
X167647429Y-68270381D01*
X167028381Y-68270381D01*
X166647429Y-67365619D02*
X166599810Y-67318000D01*
X166504572Y-67270381D01*
X166266476Y-67270381D01*
X166171238Y-67318000D01*
X166123619Y-67365619D01*
X166076000Y-67460857D01*
X166076000Y-67556095D01*
X166123619Y-67698952D01*
X166695048Y-68270381D01*
X166076000Y-68270381D01*
X165456953Y-67270381D02*
X165361714Y-67270381D01*
X165266476Y-67318000D01*
X165218857Y-67365619D01*
X165171238Y-67460857D01*
X165123619Y-67651333D01*
X165123619Y-67889429D01*
X165171238Y-68079905D01*
X165218857Y-68175143D01*
X165266476Y-68222762D01*
X165361714Y-68270381D01*
X165456953Y-68270381D01*
X165552191Y-68222762D01*
X165599810Y-68175143D01*
X165647429Y-68079905D01*
X165695048Y-67889429D01*
X165695048Y-67651333D01*
X165647429Y-67460857D01*
X165599810Y-67365619D01*
X165552191Y-67318000D01*
X165456953Y-67270381D01*
X164266476Y-67603714D02*
X164266476Y-68270381D01*
X164695048Y-67603714D02*
X164695048Y-68127524D01*
X164647429Y-68222762D01*
X164552191Y-68270381D01*
X164409333Y-68270381D01*
X164314095Y-68222762D01*
X164266476Y-68175143D01*
X163456952Y-67746571D02*
X163790286Y-67746571D01*
X163790286Y-68270381D02*
X163790286Y-67270381D01*
X163314095Y-67270381D01*
X162218857Y-67222762D02*
X163076000Y-68508476D01*
X161361714Y-68270381D02*
X161933143Y-68270381D01*
X161647429Y-68270381D02*
X161647429Y-67270381D01*
X161742667Y-67413238D01*
X161837905Y-67508476D01*
X161933143Y-67556095D01*
X160504571Y-67270381D02*
X160695048Y-67270381D01*
X160790286Y-67318000D01*
X160837905Y-67365619D01*
X160933143Y-67508476D01*
X160980762Y-67698952D01*
X160980762Y-68079905D01*
X160933143Y-68175143D01*
X160885524Y-68222762D01*
X160790286Y-68270381D01*
X160599809Y-68270381D01*
X160504571Y-68222762D01*
X160456952Y-68175143D01*
X160409333Y-68079905D01*
X160409333Y-67841810D01*
X160456952Y-67746571D01*
X160504571Y-67698952D01*
X160599809Y-67651333D01*
X160790286Y-67651333D01*
X160885524Y-67698952D01*
X160933143Y-67746571D01*
X160980762Y-67841810D01*
X160123619Y-67270381D02*
X159790286Y-68270381D01*
X159456952Y-67270381D01*
X164108429Y-75843048D02*
X164108429Y-76604953D01*
X164489381Y-76224001D02*
X163727476Y-76224001D01*
X158864143Y-73747334D02*
X158911762Y-73699715D01*
X158959381Y-73556858D01*
X158959381Y-73461620D01*
X158911762Y-73318762D01*
X158816524Y-73223524D01*
X158721286Y-73175905D01*
X158530810Y-73128286D01*
X158387952Y-73128286D01*
X158197476Y-73175905D01*
X158102238Y-73223524D01*
X158007000Y-73318762D01*
X157959381Y-73461620D01*
X157959381Y-73556858D01*
X158007000Y-73699715D01*
X158054619Y-73747334D01*
X158054619Y-74128286D02*
X158007000Y-74175905D01*
X157959381Y-74271143D01*
X157959381Y-74509239D01*
X158007000Y-74604477D01*
X158054619Y-74652096D01*
X158149857Y-74699715D01*
X158245095Y-74699715D01*
X158387952Y-74652096D01*
X158959381Y-74080667D01*
X158959381Y-74699715D01*
X178819119Y-51729190D02*
X178771500Y-51776809D01*
X178723881Y-51872047D01*
X178723881Y-52110143D01*
X178771500Y-52205381D01*
X178819119Y-52253000D01*
X178914357Y-52300619D01*
X179009595Y-52300619D01*
X179152452Y-52253000D01*
X179723881Y-51681571D01*
X179723881Y-52300619D01*
X178819119Y-52681571D02*
X178771500Y-52729190D01*
X178723881Y-52824428D01*
X178723881Y-53062524D01*
X178771500Y-53157762D01*
X178819119Y-53205381D01*
X178914357Y-53253000D01*
X179009595Y-53253000D01*
X179152452Y-53205381D01*
X179723881Y-52633952D01*
X179723881Y-53253000D01*
X178723881Y-53872047D02*
X178723881Y-53967286D01*
X178771500Y-54062524D01*
X178819119Y-54110143D01*
X178914357Y-54157762D01*
X179104833Y-54205381D01*
X179342929Y-54205381D01*
X179533405Y-54157762D01*
X179628643Y-54110143D01*
X179676262Y-54062524D01*
X179723881Y-53967286D01*
X179723881Y-53872047D01*
X179676262Y-53776809D01*
X179628643Y-53729190D01*
X179533405Y-53681571D01*
X179342929Y-53633952D01*
X179104833Y-53633952D01*
X178914357Y-53681571D01*
X178819119Y-53729190D01*
X178771500Y-53776809D01*
X178723881Y-53872047D01*
X179057214Y-55062524D02*
X179723881Y-55062524D01*
X179057214Y-54633952D02*
X179581024Y-54633952D01*
X179676262Y-54681571D01*
X179723881Y-54776809D01*
X179723881Y-54919667D01*
X179676262Y-55014905D01*
X179628643Y-55062524D01*
X179200071Y-55872048D02*
X179200071Y-55538714D01*
X179723881Y-55538714D02*
X178723881Y-55538714D01*
X178723881Y-56014905D01*
X178676262Y-57110143D02*
X179961976Y-56253000D01*
X179723881Y-57967286D02*
X179723881Y-57395857D01*
X179723881Y-57681571D02*
X178723881Y-57681571D01*
X178866738Y-57586333D01*
X178961976Y-57491095D01*
X179009595Y-57395857D01*
X178723881Y-58824429D02*
X178723881Y-58633952D01*
X178771500Y-58538714D01*
X178819119Y-58491095D01*
X178961976Y-58395857D01*
X179152452Y-58348238D01*
X179533405Y-58348238D01*
X179628643Y-58395857D01*
X179676262Y-58443476D01*
X179723881Y-58538714D01*
X179723881Y-58729191D01*
X179676262Y-58824429D01*
X179628643Y-58872048D01*
X179533405Y-58919667D01*
X179295310Y-58919667D01*
X179200071Y-58872048D01*
X179152452Y-58824429D01*
X179104833Y-58729191D01*
X179104833Y-58538714D01*
X179152452Y-58443476D01*
X179200071Y-58395857D01*
X179295310Y-58348238D01*
X178723881Y-59205381D02*
X179723881Y-59538714D01*
X178723881Y-59872048D01*
X184712929Y-53062048D02*
X184712929Y-53823953D01*
X185093881Y-53443001D02*
X184331976Y-53443001D01*
X190528643Y-55586334D02*
X190576262Y-55538715D01*
X190623881Y-55395858D01*
X190623881Y-55300620D01*
X190576262Y-55157762D01*
X190481024Y-55062524D01*
X190385786Y-55014905D01*
X190195310Y-54967286D01*
X190052452Y-54967286D01*
X189861976Y-55014905D01*
X189766738Y-55062524D01*
X189671500Y-55157762D01*
X189623881Y-55300620D01*
X189623881Y-55395858D01*
X189671500Y-55538715D01*
X189719119Y-55586334D01*
X189623881Y-55919667D02*
X189623881Y-56538715D01*
X190004833Y-56205381D01*
X190004833Y-56348239D01*
X190052452Y-56443477D01*
X190100071Y-56491096D01*
X190195310Y-56538715D01*
X190433405Y-56538715D01*
X190528643Y-56491096D01*
X190576262Y-56443477D01*
X190623881Y-56348239D01*
X190623881Y-56062524D01*
X190576262Y-55967286D01*
X190528643Y-55919667D01*
X193736410Y-92968819D02*
X193688791Y-92921200D01*
X193593553Y-92873581D01*
X193355457Y-92873581D01*
X193260219Y-92921200D01*
X193212600Y-92968819D01*
X193164981Y-93064057D01*
X193164981Y-93159295D01*
X193212600Y-93302152D01*
X193784029Y-93873581D01*
X193164981Y-93873581D01*
X192784029Y-92968819D02*
X192736410Y-92921200D01*
X192641172Y-92873581D01*
X192403076Y-92873581D01*
X192307838Y-92921200D01*
X192260219Y-92968819D01*
X192212600Y-93064057D01*
X192212600Y-93159295D01*
X192260219Y-93302152D01*
X192831648Y-93873581D01*
X192212600Y-93873581D01*
X191593553Y-92873581D02*
X191498314Y-92873581D01*
X191403076Y-92921200D01*
X191355457Y-92968819D01*
X191307838Y-93064057D01*
X191260219Y-93254533D01*
X191260219Y-93492629D01*
X191307838Y-93683105D01*
X191355457Y-93778343D01*
X191403076Y-93825962D01*
X191498314Y-93873581D01*
X191593553Y-93873581D01*
X191688791Y-93825962D01*
X191736410Y-93778343D01*
X191784029Y-93683105D01*
X191831648Y-93492629D01*
X191831648Y-93254533D01*
X191784029Y-93064057D01*
X191736410Y-92968819D01*
X191688791Y-92921200D01*
X191593553Y-92873581D01*
X190403076Y-93206914D02*
X190403076Y-93873581D01*
X190831648Y-93206914D02*
X190831648Y-93730724D01*
X190784029Y-93825962D01*
X190688791Y-93873581D01*
X190545933Y-93873581D01*
X190450695Y-93825962D01*
X190403076Y-93778343D01*
X189593552Y-93349771D02*
X189926886Y-93349771D01*
X189926886Y-93873581D02*
X189926886Y-92873581D01*
X189450695Y-92873581D01*
X188355457Y-92825962D02*
X189212600Y-94111676D01*
X187498314Y-93873581D02*
X188069743Y-93873581D01*
X187784029Y-93873581D02*
X187784029Y-92873581D01*
X187879267Y-93016438D01*
X187974505Y-93111676D01*
X188069743Y-93159295D01*
X186641171Y-92873581D02*
X186831648Y-92873581D01*
X186926886Y-92921200D01*
X186974505Y-92968819D01*
X187069743Y-93111676D01*
X187117362Y-93302152D01*
X187117362Y-93683105D01*
X187069743Y-93778343D01*
X187022124Y-93825962D01*
X186926886Y-93873581D01*
X186736409Y-93873581D01*
X186641171Y-93825962D01*
X186593552Y-93778343D01*
X186545933Y-93683105D01*
X186545933Y-93445010D01*
X186593552Y-93349771D01*
X186641171Y-93302152D01*
X186736409Y-93254533D01*
X186926886Y-93254533D01*
X187022124Y-93302152D01*
X187069743Y-93349771D01*
X187117362Y-93445010D01*
X186260219Y-92873581D02*
X185926886Y-93873581D01*
X185593552Y-92873581D01*
X189864029Y-89254248D02*
X189864029Y-90016153D01*
X190244981Y-89635201D02*
X189483076Y-89635201D01*
X184619743Y-87158534D02*
X184667362Y-87110915D01*
X184714981Y-86968058D01*
X184714981Y-86872820D01*
X184667362Y-86729962D01*
X184572124Y-86634724D01*
X184476886Y-86587105D01*
X184286410Y-86539486D01*
X184143552Y-86539486D01*
X183953076Y-86587105D01*
X183857838Y-86634724D01*
X183762600Y-86729962D01*
X183714981Y-86872820D01*
X183714981Y-86968058D01*
X183762600Y-87110915D01*
X183810219Y-87158534D01*
X184048314Y-88015677D02*
X184714981Y-88015677D01*
X183667362Y-87777581D02*
X184381648Y-87539486D01*
X184381648Y-88158534D01*
X218130381Y-107592953D02*
X218130381Y-107021524D01*
X218130381Y-107307238D02*
X217130381Y-107307238D01*
X217273238Y-107212000D01*
X217368476Y-107116762D01*
X217416095Y-107021524D01*
X217130381Y-108212000D02*
X217130381Y-108307239D01*
X217178000Y-108402477D01*
X217225619Y-108450096D01*
X217320857Y-108497715D01*
X217511333Y-108545334D01*
X217749429Y-108545334D01*
X217939905Y-108497715D01*
X218035143Y-108450096D01*
X218082762Y-108402477D01*
X218130381Y-108307239D01*
X218130381Y-108212000D01*
X218082762Y-108116762D01*
X218035143Y-108069143D01*
X217939905Y-108021524D01*
X217749429Y-107973905D01*
X217511333Y-107973905D01*
X217320857Y-108021524D01*
X217225619Y-108069143D01*
X217178000Y-108116762D01*
X217130381Y-108212000D01*
X217130381Y-109164381D02*
X217130381Y-109259620D01*
X217178000Y-109354858D01*
X217225619Y-109402477D01*
X217320857Y-109450096D01*
X217511333Y-109497715D01*
X217749429Y-109497715D01*
X217939905Y-109450096D01*
X218035143Y-109402477D01*
X218082762Y-109354858D01*
X218130381Y-109259620D01*
X218130381Y-109164381D01*
X218082762Y-109069143D01*
X218035143Y-109021524D01*
X217939905Y-108973905D01*
X217749429Y-108926286D01*
X217511333Y-108926286D01*
X217320857Y-108973905D01*
X217225619Y-109021524D01*
X217178000Y-109069143D01*
X217130381Y-109164381D01*
X217463714Y-109926286D02*
X218130381Y-109926286D01*
X217558952Y-109926286D02*
X217511333Y-109973905D01*
X217463714Y-110069143D01*
X217463714Y-110212001D01*
X217511333Y-110307239D01*
X217606571Y-110354858D01*
X218130381Y-110354858D01*
X219785143Y-104354334D02*
X219832762Y-104306715D01*
X219880381Y-104163858D01*
X219880381Y-104068620D01*
X219832762Y-103925762D01*
X219737524Y-103830524D01*
X219642286Y-103782905D01*
X219451810Y-103735286D01*
X219308952Y-103735286D01*
X219118476Y-103782905D01*
X219023238Y-103830524D01*
X218928000Y-103925762D01*
X218880381Y-104068620D01*
X218880381Y-104163858D01*
X218928000Y-104306715D01*
X218975619Y-104354334D01*
X218880381Y-105259096D02*
X218880381Y-104782905D01*
X219356571Y-104735286D01*
X219308952Y-104782905D01*
X219261333Y-104878143D01*
X219261333Y-105116239D01*
X219308952Y-105211477D01*
X219356571Y-105259096D01*
X219451810Y-105306715D01*
X219689905Y-105306715D01*
X219785143Y-105259096D01*
X219832762Y-105211477D01*
X219880381Y-105116239D01*
X219880381Y-104878143D01*
X219832762Y-104782905D01*
X219785143Y-104735286D01*
X218130381Y-24534953D02*
X218130381Y-23963524D01*
X218130381Y-24249238D02*
X217130381Y-24249238D01*
X217273238Y-24154000D01*
X217368476Y-24058762D01*
X217416095Y-23963524D01*
X217130381Y-25154000D02*
X217130381Y-25249239D01*
X217178000Y-25344477D01*
X217225619Y-25392096D01*
X217320857Y-25439715D01*
X217511333Y-25487334D01*
X217749429Y-25487334D01*
X217939905Y-25439715D01*
X218035143Y-25392096D01*
X218082762Y-25344477D01*
X218130381Y-25249239D01*
X218130381Y-25154000D01*
X218082762Y-25058762D01*
X218035143Y-25011143D01*
X217939905Y-24963524D01*
X217749429Y-24915905D01*
X217511333Y-24915905D01*
X217320857Y-24963524D01*
X217225619Y-25011143D01*
X217178000Y-25058762D01*
X217130381Y-25154000D01*
X217130381Y-26106381D02*
X217130381Y-26201620D01*
X217178000Y-26296858D01*
X217225619Y-26344477D01*
X217320857Y-26392096D01*
X217511333Y-26439715D01*
X217749429Y-26439715D01*
X217939905Y-26392096D01*
X218035143Y-26344477D01*
X218082762Y-26296858D01*
X218130381Y-26201620D01*
X218130381Y-26106381D01*
X218082762Y-26011143D01*
X218035143Y-25963524D01*
X217939905Y-25915905D01*
X217749429Y-25868286D01*
X217511333Y-25868286D01*
X217320857Y-25915905D01*
X217225619Y-25963524D01*
X217178000Y-26011143D01*
X217130381Y-26106381D01*
X217463714Y-26868286D02*
X218130381Y-26868286D01*
X217558952Y-26868286D02*
X217511333Y-26915905D01*
X217463714Y-27011143D01*
X217463714Y-27154001D01*
X217511333Y-27249239D01*
X217606571Y-27296858D01*
X218130381Y-27296858D01*
X216285143Y-25233334D02*
X216332762Y-25185715D01*
X216380381Y-25042858D01*
X216380381Y-24947620D01*
X216332762Y-24804762D01*
X216237524Y-24709524D01*
X216142286Y-24661905D01*
X215951810Y-24614286D01*
X215808952Y-24614286D01*
X215618476Y-24661905D01*
X215523238Y-24709524D01*
X215428000Y-24804762D01*
X215380381Y-24947620D01*
X215380381Y-25042858D01*
X215428000Y-25185715D01*
X215475619Y-25233334D01*
X215380381Y-26090477D02*
X215380381Y-25900000D01*
X215428000Y-25804762D01*
X215475619Y-25757143D01*
X215618476Y-25661905D01*
X215808952Y-25614286D01*
X216189905Y-25614286D01*
X216285143Y-25661905D01*
X216332762Y-25709524D01*
X216380381Y-25804762D01*
X216380381Y-25995239D01*
X216332762Y-26090477D01*
X216285143Y-26138096D01*
X216189905Y-26185715D01*
X215951810Y-26185715D01*
X215856571Y-26138096D01*
X215808952Y-26090477D01*
X215761333Y-25995239D01*
X215761333Y-25804762D01*
X215808952Y-25709524D01*
X215856571Y-25661905D01*
X215951810Y-25614286D01*
X128579619Y-98845905D02*
X128532000Y-98893524D01*
X128484381Y-98988762D01*
X128484381Y-99226858D01*
X128532000Y-99322096D01*
X128579619Y-99369715D01*
X128674857Y-99417334D01*
X128770095Y-99417334D01*
X128912952Y-99369715D01*
X129484381Y-98798286D01*
X129484381Y-99417334D01*
X128579619Y-99798286D02*
X128532000Y-99845905D01*
X128484381Y-99941143D01*
X128484381Y-100179239D01*
X128532000Y-100274477D01*
X128579619Y-100322096D01*
X128674857Y-100369715D01*
X128770095Y-100369715D01*
X128912952Y-100322096D01*
X129484381Y-99750667D01*
X129484381Y-100369715D01*
X128484381Y-100988762D02*
X128484381Y-101084001D01*
X128532000Y-101179239D01*
X128579619Y-101226858D01*
X128674857Y-101274477D01*
X128865333Y-101322096D01*
X129103429Y-101322096D01*
X129293905Y-101274477D01*
X129389143Y-101226858D01*
X129436762Y-101179239D01*
X129484381Y-101084001D01*
X129484381Y-100988762D01*
X129436762Y-100893524D01*
X129389143Y-100845905D01*
X129293905Y-100798286D01*
X129103429Y-100750667D01*
X128865333Y-100750667D01*
X128674857Y-100798286D01*
X128579619Y-100845905D01*
X128532000Y-100893524D01*
X128484381Y-100988762D01*
X129484381Y-102322096D02*
X129008190Y-101988762D01*
X129484381Y-101750667D02*
X128484381Y-101750667D01*
X128484381Y-102131620D01*
X128532000Y-102226858D01*
X128579619Y-102274477D01*
X128674857Y-102322096D01*
X128817714Y-102322096D01*
X128912952Y-102274477D01*
X128960571Y-102226858D01*
X129008190Y-102131620D01*
X129008190Y-101750667D01*
D12*
X129258190Y-100500667D02*
X129020095Y-100334000D01*
X129258190Y-100214953D02*
X128758190Y-100214953D01*
X128758190Y-100405429D01*
X128782000Y-100453048D01*
X128805810Y-100476857D01*
X128853429Y-100500667D01*
X128924857Y-100500667D01*
X128972476Y-100476857D01*
X128996286Y-100453048D01*
X129020095Y-100405429D01*
X129020095Y-100214953D01*
X129258190Y-100976857D02*
X129258190Y-100691143D01*
X129258190Y-100834000D02*
X128758190Y-100834000D01*
X128829619Y-100786381D01*
X128877238Y-100738762D01*
X128901048Y-100691143D01*
D11*
X134326095Y-98607619D02*
X134278476Y-98560000D01*
X134183238Y-98512381D01*
X133945142Y-98512381D01*
X133849904Y-98560000D01*
X133802285Y-98607619D01*
X133754666Y-98702857D01*
X133754666Y-98798095D01*
X133802285Y-98940952D01*
X134373714Y-99512381D01*
X133754666Y-99512381D01*
X133373714Y-98607619D02*
X133326095Y-98560000D01*
X133230857Y-98512381D01*
X132992761Y-98512381D01*
X132897523Y-98560000D01*
X132849904Y-98607619D01*
X132802285Y-98702857D01*
X132802285Y-98798095D01*
X132849904Y-98940952D01*
X133421333Y-99512381D01*
X132802285Y-99512381D01*
X132183238Y-98512381D02*
X132087999Y-98512381D01*
X131992761Y-98560000D01*
X131945142Y-98607619D01*
X131897523Y-98702857D01*
X131849904Y-98893333D01*
X131849904Y-99131429D01*
X131897523Y-99321905D01*
X131945142Y-99417143D01*
X131992761Y-99464762D01*
X132087999Y-99512381D01*
X132183238Y-99512381D01*
X132278476Y-99464762D01*
X132326095Y-99417143D01*
X132373714Y-99321905D01*
X132421333Y-99131429D01*
X132421333Y-98893333D01*
X132373714Y-98702857D01*
X132326095Y-98607619D01*
X132278476Y-98560000D01*
X132183238Y-98512381D01*
X130849904Y-99512381D02*
X131183238Y-99036190D01*
X131421333Y-99512381D02*
X131421333Y-98512381D01*
X131040380Y-98512381D01*
X130945142Y-98560000D01*
X130897523Y-98607619D01*
X130849904Y-98702857D01*
X130849904Y-98845714D01*
X130897523Y-98940952D01*
X130945142Y-98988571D01*
X131040380Y-99036190D01*
X131421333Y-99036190D01*
D12*
X132671333Y-99286190D02*
X132838000Y-99048095D01*
X132957047Y-99286190D02*
X132957047Y-98786190D01*
X132766571Y-98786190D01*
X132718952Y-98810000D01*
X132695143Y-98833810D01*
X132671333Y-98881429D01*
X132671333Y-98952857D01*
X132695143Y-99000476D01*
X132718952Y-99024286D01*
X132766571Y-99048095D01*
X132957047Y-99048095D01*
X132480857Y-98833810D02*
X132457047Y-98810000D01*
X132409428Y-98786190D01*
X132290381Y-98786190D01*
X132242762Y-98810000D01*
X132218952Y-98833810D01*
X132195143Y-98881429D01*
X132195143Y-98929048D01*
X132218952Y-99000476D01*
X132504666Y-99286190D01*
X132195143Y-99286190D01*
D11*
X133087904Y-104941714D02*
X133087904Y-105608381D01*
X133326000Y-104560762D02*
X133564095Y-105275048D01*
X132945047Y-105275048D01*
X132659333Y-104608381D02*
X131992666Y-104608381D01*
X132421238Y-105608381D01*
X131421238Y-104608381D02*
X131325999Y-104608381D01*
X131230761Y-104656000D01*
X131183142Y-104703619D01*
X131135523Y-104798857D01*
X131087904Y-104989333D01*
X131087904Y-105227429D01*
X131135523Y-105417905D01*
X131183142Y-105513143D01*
X131230761Y-105560762D01*
X131325999Y-105608381D01*
X131421238Y-105608381D01*
X131516476Y-105560762D01*
X131564095Y-105513143D01*
X131611714Y-105417905D01*
X131659333Y-105227429D01*
X131659333Y-104989333D01*
X131611714Y-104798857D01*
X131564095Y-104703619D01*
X131516476Y-104656000D01*
X131421238Y-104608381D01*
X130087904Y-105608381D02*
X130421238Y-105132190D01*
X130659333Y-105608381D02*
X130659333Y-104608381D01*
X130278380Y-104608381D01*
X130183142Y-104656000D01*
X130135523Y-104703619D01*
X130087904Y-104798857D01*
X130087904Y-104941714D01*
X130135523Y-105036952D01*
X130183142Y-105084571D01*
X130278380Y-105132190D01*
X130659333Y-105132190D01*
D12*
X131909333Y-105382190D02*
X132076000Y-105144095D01*
X132195047Y-105382190D02*
X132195047Y-104882190D01*
X132004571Y-104882190D01*
X131956952Y-104906000D01*
X131933143Y-104929810D01*
X131909333Y-104977429D01*
X131909333Y-105048857D01*
X131933143Y-105096476D01*
X131956952Y-105120286D01*
X132004571Y-105144095D01*
X132195047Y-105144095D01*
X131742666Y-104882190D02*
X131433143Y-104882190D01*
X131599809Y-105072667D01*
X131528381Y-105072667D01*
X131480762Y-105096476D01*
X131456952Y-105120286D01*
X131433143Y-105167905D01*
X131433143Y-105286952D01*
X131456952Y-105334571D01*
X131480762Y-105358381D01*
X131528381Y-105382190D01*
X131671238Y-105382190D01*
X131718857Y-105358381D01*
X131742666Y-105334571D01*
D11*
X138231619Y-98845905D02*
X138184000Y-98893524D01*
X138136381Y-98988762D01*
X138136381Y-99226858D01*
X138184000Y-99322096D01*
X138231619Y-99369715D01*
X138326857Y-99417334D01*
X138422095Y-99417334D01*
X138564952Y-99369715D01*
X139136381Y-98798286D01*
X139136381Y-99417334D01*
X138231619Y-99798286D02*
X138184000Y-99845905D01*
X138136381Y-99941143D01*
X138136381Y-100179239D01*
X138184000Y-100274477D01*
X138231619Y-100322096D01*
X138326857Y-100369715D01*
X138422095Y-100369715D01*
X138564952Y-100322096D01*
X139136381Y-99750667D01*
X139136381Y-100369715D01*
X138136381Y-100988762D02*
X138136381Y-101084001D01*
X138184000Y-101179239D01*
X138231619Y-101226858D01*
X138326857Y-101274477D01*
X138517333Y-101322096D01*
X138755429Y-101322096D01*
X138945905Y-101274477D01*
X139041143Y-101226858D01*
X139088762Y-101179239D01*
X139136381Y-101084001D01*
X139136381Y-100988762D01*
X139088762Y-100893524D01*
X139041143Y-100845905D01*
X138945905Y-100798286D01*
X138755429Y-100750667D01*
X138517333Y-100750667D01*
X138326857Y-100798286D01*
X138231619Y-100845905D01*
X138184000Y-100893524D01*
X138136381Y-100988762D01*
X139136381Y-102322096D02*
X138660190Y-101988762D01*
X139136381Y-101750667D02*
X138136381Y-101750667D01*
X138136381Y-102131620D01*
X138184000Y-102226858D01*
X138231619Y-102274477D01*
X138326857Y-102322096D01*
X138469714Y-102322096D01*
X138564952Y-102274477D01*
X138612571Y-102226858D01*
X138660190Y-102131620D01*
X138660190Y-101750667D01*
D12*
X138910190Y-100500667D02*
X138672095Y-100334000D01*
X138910190Y-100214953D02*
X138410190Y-100214953D01*
X138410190Y-100405429D01*
X138434000Y-100453048D01*
X138457810Y-100476857D01*
X138505429Y-100500667D01*
X138576857Y-100500667D01*
X138624476Y-100476857D01*
X138648286Y-100453048D01*
X138672095Y-100405429D01*
X138672095Y-100214953D01*
X138576857Y-100929238D02*
X138910190Y-100929238D01*
X138386381Y-100810191D02*
X138743524Y-100691143D01*
X138743524Y-101000667D01*
D11*
X144486095Y-98607619D02*
X144438476Y-98560000D01*
X144343238Y-98512381D01*
X144105142Y-98512381D01*
X144009904Y-98560000D01*
X143962285Y-98607619D01*
X143914666Y-98702857D01*
X143914666Y-98798095D01*
X143962285Y-98940952D01*
X144533714Y-99512381D01*
X143914666Y-99512381D01*
X143533714Y-98607619D02*
X143486095Y-98560000D01*
X143390857Y-98512381D01*
X143152761Y-98512381D01*
X143057523Y-98560000D01*
X143009904Y-98607619D01*
X142962285Y-98702857D01*
X142962285Y-98798095D01*
X143009904Y-98940952D01*
X143581333Y-99512381D01*
X142962285Y-99512381D01*
X142343238Y-98512381D02*
X142247999Y-98512381D01*
X142152761Y-98560000D01*
X142105142Y-98607619D01*
X142057523Y-98702857D01*
X142009904Y-98893333D01*
X142009904Y-99131429D01*
X142057523Y-99321905D01*
X142105142Y-99417143D01*
X142152761Y-99464762D01*
X142247999Y-99512381D01*
X142343238Y-99512381D01*
X142438476Y-99464762D01*
X142486095Y-99417143D01*
X142533714Y-99321905D01*
X142581333Y-99131429D01*
X142581333Y-98893333D01*
X142533714Y-98702857D01*
X142486095Y-98607619D01*
X142438476Y-98560000D01*
X142343238Y-98512381D01*
X141009904Y-99512381D02*
X141343238Y-99036190D01*
X141581333Y-99512381D02*
X141581333Y-98512381D01*
X141200380Y-98512381D01*
X141105142Y-98560000D01*
X141057523Y-98607619D01*
X141009904Y-98702857D01*
X141009904Y-98845714D01*
X141057523Y-98940952D01*
X141105142Y-98988571D01*
X141200380Y-99036190D01*
X141581333Y-99036190D01*
D12*
X142577333Y-99286190D02*
X142744000Y-99048095D01*
X142863047Y-99286190D02*
X142863047Y-98786190D01*
X142672571Y-98786190D01*
X142624952Y-98810000D01*
X142601143Y-98833810D01*
X142577333Y-98881429D01*
X142577333Y-98952857D01*
X142601143Y-99000476D01*
X142624952Y-99024286D01*
X142672571Y-99048095D01*
X142863047Y-99048095D01*
X142124952Y-98786190D02*
X142363047Y-98786190D01*
X142386857Y-99024286D01*
X142363047Y-99000476D01*
X142315428Y-98976667D01*
X142196381Y-98976667D01*
X142148762Y-99000476D01*
X142124952Y-99024286D01*
X142101143Y-99071905D01*
X142101143Y-99190952D01*
X142124952Y-99238571D01*
X142148762Y-99262381D01*
X142196381Y-99286190D01*
X142315428Y-99286190D01*
X142363047Y-99262381D01*
X142386857Y-99238571D01*
D11*
X142739904Y-104941714D02*
X142739904Y-105608381D01*
X142978000Y-104560762D02*
X143216095Y-105275048D01*
X142597047Y-105275048D01*
X142311333Y-104608381D02*
X141644666Y-104608381D01*
X142073238Y-105608381D01*
X141073238Y-104608381D02*
X140977999Y-104608381D01*
X140882761Y-104656000D01*
X140835142Y-104703619D01*
X140787523Y-104798857D01*
X140739904Y-104989333D01*
X140739904Y-105227429D01*
X140787523Y-105417905D01*
X140835142Y-105513143D01*
X140882761Y-105560762D01*
X140977999Y-105608381D01*
X141073238Y-105608381D01*
X141168476Y-105560762D01*
X141216095Y-105513143D01*
X141263714Y-105417905D01*
X141311333Y-105227429D01*
X141311333Y-104989333D01*
X141263714Y-104798857D01*
X141216095Y-104703619D01*
X141168476Y-104656000D01*
X141073238Y-104608381D01*
X139739904Y-105608381D02*
X140073238Y-105132190D01*
X140311333Y-105608381D02*
X140311333Y-104608381D01*
X139930380Y-104608381D01*
X139835142Y-104656000D01*
X139787523Y-104703619D01*
X139739904Y-104798857D01*
X139739904Y-104941714D01*
X139787523Y-105036952D01*
X139835142Y-105084571D01*
X139930380Y-105132190D01*
X140311333Y-105132190D01*
D12*
X141561333Y-105382190D02*
X141728000Y-105144095D01*
X141847047Y-105382190D02*
X141847047Y-104882190D01*
X141656571Y-104882190D01*
X141608952Y-104906000D01*
X141585143Y-104929810D01*
X141561333Y-104977429D01*
X141561333Y-105048857D01*
X141585143Y-105096476D01*
X141608952Y-105120286D01*
X141656571Y-105144095D01*
X141847047Y-105144095D01*
X141132762Y-104882190D02*
X141228000Y-104882190D01*
X141275619Y-104906000D01*
X141299428Y-104929810D01*
X141347047Y-105001238D01*
X141370857Y-105096476D01*
X141370857Y-105286952D01*
X141347047Y-105334571D01*
X141323238Y-105358381D01*
X141275619Y-105382190D01*
X141180381Y-105382190D01*
X141132762Y-105358381D01*
X141108952Y-105334571D01*
X141085143Y-105286952D01*
X141085143Y-105167905D01*
X141108952Y-105120286D01*
X141132762Y-105096476D01*
X141180381Y-105072667D01*
X141275619Y-105072667D01*
X141323238Y-105096476D01*
X141347047Y-105120286D01*
X141370857Y-105167905D01*
D11*
X148137619Y-98845905D02*
X148090000Y-98893524D01*
X148042381Y-98988762D01*
X148042381Y-99226858D01*
X148090000Y-99322096D01*
X148137619Y-99369715D01*
X148232857Y-99417334D01*
X148328095Y-99417334D01*
X148470952Y-99369715D01*
X149042381Y-98798286D01*
X149042381Y-99417334D01*
X148137619Y-99798286D02*
X148090000Y-99845905D01*
X148042381Y-99941143D01*
X148042381Y-100179239D01*
X148090000Y-100274477D01*
X148137619Y-100322096D01*
X148232857Y-100369715D01*
X148328095Y-100369715D01*
X148470952Y-100322096D01*
X149042381Y-99750667D01*
X149042381Y-100369715D01*
X148042381Y-100988762D02*
X148042381Y-101084001D01*
X148090000Y-101179239D01*
X148137619Y-101226858D01*
X148232857Y-101274477D01*
X148423333Y-101322096D01*
X148661429Y-101322096D01*
X148851905Y-101274477D01*
X148947143Y-101226858D01*
X148994762Y-101179239D01*
X149042381Y-101084001D01*
X149042381Y-100988762D01*
X148994762Y-100893524D01*
X148947143Y-100845905D01*
X148851905Y-100798286D01*
X148661429Y-100750667D01*
X148423333Y-100750667D01*
X148232857Y-100798286D01*
X148137619Y-100845905D01*
X148090000Y-100893524D01*
X148042381Y-100988762D01*
X149042381Y-102322096D02*
X148566190Y-101988762D01*
X149042381Y-101750667D02*
X148042381Y-101750667D01*
X148042381Y-102131620D01*
X148090000Y-102226858D01*
X148137619Y-102274477D01*
X148232857Y-102322096D01*
X148375714Y-102322096D01*
X148470952Y-102274477D01*
X148518571Y-102226858D01*
X148566190Y-102131620D01*
X148566190Y-101750667D01*
D12*
X148816190Y-100500667D02*
X148578095Y-100334000D01*
X148816190Y-100214953D02*
X148316190Y-100214953D01*
X148316190Y-100405429D01*
X148340000Y-100453048D01*
X148363810Y-100476857D01*
X148411429Y-100500667D01*
X148482857Y-100500667D01*
X148530476Y-100476857D01*
X148554286Y-100453048D01*
X148578095Y-100405429D01*
X148578095Y-100214953D01*
X148316190Y-100667334D02*
X148316190Y-101000667D01*
X148816190Y-100786381D01*
D11*
X153884095Y-98607619D02*
X153836476Y-98560000D01*
X153741238Y-98512381D01*
X153503142Y-98512381D01*
X153407904Y-98560000D01*
X153360285Y-98607619D01*
X153312666Y-98702857D01*
X153312666Y-98798095D01*
X153360285Y-98940952D01*
X153931714Y-99512381D01*
X153312666Y-99512381D01*
X152931714Y-98607619D02*
X152884095Y-98560000D01*
X152788857Y-98512381D01*
X152550761Y-98512381D01*
X152455523Y-98560000D01*
X152407904Y-98607619D01*
X152360285Y-98702857D01*
X152360285Y-98798095D01*
X152407904Y-98940952D01*
X152979333Y-99512381D01*
X152360285Y-99512381D01*
X151741238Y-98512381D02*
X151645999Y-98512381D01*
X151550761Y-98560000D01*
X151503142Y-98607619D01*
X151455523Y-98702857D01*
X151407904Y-98893333D01*
X151407904Y-99131429D01*
X151455523Y-99321905D01*
X151503142Y-99417143D01*
X151550761Y-99464762D01*
X151645999Y-99512381D01*
X151741238Y-99512381D01*
X151836476Y-99464762D01*
X151884095Y-99417143D01*
X151931714Y-99321905D01*
X151979333Y-99131429D01*
X151979333Y-98893333D01*
X151931714Y-98702857D01*
X151884095Y-98607619D01*
X151836476Y-98560000D01*
X151741238Y-98512381D01*
X150407904Y-99512381D02*
X150741238Y-99036190D01*
X150979333Y-99512381D02*
X150979333Y-98512381D01*
X150598380Y-98512381D01*
X150503142Y-98560000D01*
X150455523Y-98607619D01*
X150407904Y-98702857D01*
X150407904Y-98845714D01*
X150455523Y-98940952D01*
X150503142Y-98988571D01*
X150598380Y-99036190D01*
X150979333Y-99036190D01*
D12*
X152229333Y-99286190D02*
X152396000Y-99048095D01*
X152515047Y-99286190D02*
X152515047Y-98786190D01*
X152324571Y-98786190D01*
X152276952Y-98810000D01*
X152253143Y-98833810D01*
X152229333Y-98881429D01*
X152229333Y-98952857D01*
X152253143Y-99000476D01*
X152276952Y-99024286D01*
X152324571Y-99048095D01*
X152515047Y-99048095D01*
X151943619Y-99000476D02*
X151991238Y-98976667D01*
X152015047Y-98952857D01*
X152038857Y-98905238D01*
X152038857Y-98881429D01*
X152015047Y-98833810D01*
X151991238Y-98810000D01*
X151943619Y-98786190D01*
X151848381Y-98786190D01*
X151800762Y-98810000D01*
X151776952Y-98833810D01*
X151753143Y-98881429D01*
X151753143Y-98905238D01*
X151776952Y-98952857D01*
X151800762Y-98976667D01*
X151848381Y-99000476D01*
X151943619Y-99000476D01*
X151991238Y-99024286D01*
X152015047Y-99048095D01*
X152038857Y-99095714D01*
X152038857Y-99190952D01*
X152015047Y-99238571D01*
X151991238Y-99262381D01*
X151943619Y-99286190D01*
X151848381Y-99286190D01*
X151800762Y-99262381D01*
X151776952Y-99238571D01*
X151753143Y-99190952D01*
X151753143Y-99095714D01*
X151776952Y-99048095D01*
X151800762Y-99024286D01*
X151848381Y-99000476D01*
D11*
X152645904Y-104941714D02*
X152645904Y-105608381D01*
X152884000Y-104560762D02*
X153122095Y-105275048D01*
X152503047Y-105275048D01*
X152217333Y-104608381D02*
X151550666Y-104608381D01*
X151979238Y-105608381D01*
X150979238Y-104608381D02*
X150883999Y-104608381D01*
X150788761Y-104656000D01*
X150741142Y-104703619D01*
X150693523Y-104798857D01*
X150645904Y-104989333D01*
X150645904Y-105227429D01*
X150693523Y-105417905D01*
X150741142Y-105513143D01*
X150788761Y-105560762D01*
X150883999Y-105608381D01*
X150979238Y-105608381D01*
X151074476Y-105560762D01*
X151122095Y-105513143D01*
X151169714Y-105417905D01*
X151217333Y-105227429D01*
X151217333Y-104989333D01*
X151169714Y-104798857D01*
X151122095Y-104703619D01*
X151074476Y-104656000D01*
X150979238Y-104608381D01*
X149645904Y-105608381D02*
X149979238Y-105132190D01*
X150217333Y-105608381D02*
X150217333Y-104608381D01*
X149836380Y-104608381D01*
X149741142Y-104656000D01*
X149693523Y-104703619D01*
X149645904Y-104798857D01*
X149645904Y-104941714D01*
X149693523Y-105036952D01*
X149741142Y-105084571D01*
X149836380Y-105132190D01*
X150217333Y-105132190D01*
D12*
X151467333Y-105382190D02*
X151634000Y-105144095D01*
X151753047Y-105382190D02*
X151753047Y-104882190D01*
X151562571Y-104882190D01*
X151514952Y-104906000D01*
X151491143Y-104929810D01*
X151467333Y-104977429D01*
X151467333Y-105048857D01*
X151491143Y-105096476D01*
X151514952Y-105120286D01*
X151562571Y-105144095D01*
X151753047Y-105144095D01*
X151229238Y-105382190D02*
X151134000Y-105382190D01*
X151086381Y-105358381D01*
X151062571Y-105334571D01*
X151014952Y-105263143D01*
X150991143Y-105167905D01*
X150991143Y-104977429D01*
X151014952Y-104929810D01*
X151038762Y-104906000D01*
X151086381Y-104882190D01*
X151181619Y-104882190D01*
X151229238Y-104906000D01*
X151253047Y-104929810D01*
X151276857Y-104977429D01*
X151276857Y-105096476D01*
X151253047Y-105144095D01*
X151229238Y-105167905D01*
X151181619Y-105191714D01*
X151086381Y-105191714D01*
X151038762Y-105167905D01*
X151014952Y-105144095D01*
X150991143Y-105096476D01*
D11*
X157789619Y-98845905D02*
X157742000Y-98893524D01*
X157694381Y-98988762D01*
X157694381Y-99226858D01*
X157742000Y-99322096D01*
X157789619Y-99369715D01*
X157884857Y-99417334D01*
X157980095Y-99417334D01*
X158122952Y-99369715D01*
X158694381Y-98798286D01*
X158694381Y-99417334D01*
X157789619Y-99798286D02*
X157742000Y-99845905D01*
X157694381Y-99941143D01*
X157694381Y-100179239D01*
X157742000Y-100274477D01*
X157789619Y-100322096D01*
X157884857Y-100369715D01*
X157980095Y-100369715D01*
X158122952Y-100322096D01*
X158694381Y-99750667D01*
X158694381Y-100369715D01*
X157694381Y-100988762D02*
X157694381Y-101084001D01*
X157742000Y-101179239D01*
X157789619Y-101226858D01*
X157884857Y-101274477D01*
X158075333Y-101322096D01*
X158313429Y-101322096D01*
X158503905Y-101274477D01*
X158599143Y-101226858D01*
X158646762Y-101179239D01*
X158694381Y-101084001D01*
X158694381Y-100988762D01*
X158646762Y-100893524D01*
X158599143Y-100845905D01*
X158503905Y-100798286D01*
X158313429Y-100750667D01*
X158075333Y-100750667D01*
X157884857Y-100798286D01*
X157789619Y-100845905D01*
X157742000Y-100893524D01*
X157694381Y-100988762D01*
X158694381Y-102322096D02*
X158218190Y-101988762D01*
X158694381Y-101750667D02*
X157694381Y-101750667D01*
X157694381Y-102131620D01*
X157742000Y-102226858D01*
X157789619Y-102274477D01*
X157884857Y-102322096D01*
X158027714Y-102322096D01*
X158122952Y-102274477D01*
X158170571Y-102226858D01*
X158218190Y-102131620D01*
X158218190Y-101750667D01*
D12*
X158468190Y-100262572D02*
X158230095Y-100095905D01*
X158468190Y-99976858D02*
X157968190Y-99976858D01*
X157968190Y-100167334D01*
X157992000Y-100214953D01*
X158015810Y-100238762D01*
X158063429Y-100262572D01*
X158134857Y-100262572D01*
X158182476Y-100238762D01*
X158206286Y-100214953D01*
X158230095Y-100167334D01*
X158230095Y-99976858D01*
X158468190Y-100738762D02*
X158468190Y-100453048D01*
X158468190Y-100595905D02*
X157968190Y-100595905D01*
X158039619Y-100548286D01*
X158087238Y-100500667D01*
X158111048Y-100453048D01*
X157968190Y-101048286D02*
X157968190Y-101095905D01*
X157992000Y-101143524D01*
X158015810Y-101167333D01*
X158063429Y-101191143D01*
X158158667Y-101214952D01*
X158277714Y-101214952D01*
X158372952Y-101191143D01*
X158420571Y-101167333D01*
X158444381Y-101143524D01*
X158468190Y-101095905D01*
X158468190Y-101048286D01*
X158444381Y-101000667D01*
X158420571Y-100976857D01*
X158372952Y-100953048D01*
X158277714Y-100929238D01*
X158158667Y-100929238D01*
X158063429Y-100953048D01*
X158015810Y-100976857D01*
X157992000Y-101000667D01*
X157968190Y-101048286D01*
D11*
X163790095Y-98607619D02*
X163742476Y-98560000D01*
X163647238Y-98512381D01*
X163409142Y-98512381D01*
X163313904Y-98560000D01*
X163266285Y-98607619D01*
X163218666Y-98702857D01*
X163218666Y-98798095D01*
X163266285Y-98940952D01*
X163837714Y-99512381D01*
X163218666Y-99512381D01*
X162837714Y-98607619D02*
X162790095Y-98560000D01*
X162694857Y-98512381D01*
X162456761Y-98512381D01*
X162361523Y-98560000D01*
X162313904Y-98607619D01*
X162266285Y-98702857D01*
X162266285Y-98798095D01*
X162313904Y-98940952D01*
X162885333Y-99512381D01*
X162266285Y-99512381D01*
X161647238Y-98512381D02*
X161551999Y-98512381D01*
X161456761Y-98560000D01*
X161409142Y-98607619D01*
X161361523Y-98702857D01*
X161313904Y-98893333D01*
X161313904Y-99131429D01*
X161361523Y-99321905D01*
X161409142Y-99417143D01*
X161456761Y-99464762D01*
X161551999Y-99512381D01*
X161647238Y-99512381D01*
X161742476Y-99464762D01*
X161790095Y-99417143D01*
X161837714Y-99321905D01*
X161885333Y-99131429D01*
X161885333Y-98893333D01*
X161837714Y-98702857D01*
X161790095Y-98607619D01*
X161742476Y-98560000D01*
X161647238Y-98512381D01*
X160313904Y-99512381D02*
X160647238Y-99036190D01*
X160885333Y-99512381D02*
X160885333Y-98512381D01*
X160504380Y-98512381D01*
X160409142Y-98560000D01*
X160361523Y-98607619D01*
X160313904Y-98702857D01*
X160313904Y-98845714D01*
X160361523Y-98940952D01*
X160409142Y-98988571D01*
X160504380Y-99036190D01*
X160885333Y-99036190D01*
D12*
X162119428Y-99286190D02*
X162286095Y-99048095D01*
X162405142Y-99286190D02*
X162405142Y-98786190D01*
X162214666Y-98786190D01*
X162167047Y-98810000D01*
X162143238Y-98833810D01*
X162119428Y-98881429D01*
X162119428Y-98952857D01*
X162143238Y-99000476D01*
X162167047Y-99024286D01*
X162214666Y-99048095D01*
X162405142Y-99048095D01*
X161643238Y-99286190D02*
X161928952Y-99286190D01*
X161786095Y-99286190D02*
X161786095Y-98786190D01*
X161833714Y-98857619D01*
X161881333Y-98905238D01*
X161928952Y-98929048D01*
X161167048Y-99286190D02*
X161452762Y-99286190D01*
X161309905Y-99286190D02*
X161309905Y-98786190D01*
X161357524Y-98857619D01*
X161405143Y-98905238D01*
X161452762Y-98929048D01*
D11*
X162551904Y-104941714D02*
X162551904Y-105608381D01*
X162790000Y-104560762D02*
X163028095Y-105275048D01*
X162409047Y-105275048D01*
X162123333Y-104608381D02*
X161456666Y-104608381D01*
X161885238Y-105608381D01*
X160885238Y-104608381D02*
X160789999Y-104608381D01*
X160694761Y-104656000D01*
X160647142Y-104703619D01*
X160599523Y-104798857D01*
X160551904Y-104989333D01*
X160551904Y-105227429D01*
X160599523Y-105417905D01*
X160647142Y-105513143D01*
X160694761Y-105560762D01*
X160789999Y-105608381D01*
X160885238Y-105608381D01*
X160980476Y-105560762D01*
X161028095Y-105513143D01*
X161075714Y-105417905D01*
X161123333Y-105227429D01*
X161123333Y-104989333D01*
X161075714Y-104798857D01*
X161028095Y-104703619D01*
X160980476Y-104656000D01*
X160885238Y-104608381D01*
X159551904Y-105608381D02*
X159885238Y-105132190D01*
X160123333Y-105608381D02*
X160123333Y-104608381D01*
X159742380Y-104608381D01*
X159647142Y-104656000D01*
X159599523Y-104703619D01*
X159551904Y-104798857D01*
X159551904Y-104941714D01*
X159599523Y-105036952D01*
X159647142Y-105084571D01*
X159742380Y-105132190D01*
X160123333Y-105132190D01*
D12*
X161357428Y-105382190D02*
X161524095Y-105144095D01*
X161643142Y-105382190D02*
X161643142Y-104882190D01*
X161452666Y-104882190D01*
X161405047Y-104906000D01*
X161381238Y-104929810D01*
X161357428Y-104977429D01*
X161357428Y-105048857D01*
X161381238Y-105096476D01*
X161405047Y-105120286D01*
X161452666Y-105144095D01*
X161643142Y-105144095D01*
X160881238Y-105382190D02*
X161166952Y-105382190D01*
X161024095Y-105382190D02*
X161024095Y-104882190D01*
X161071714Y-104953619D01*
X161119333Y-105001238D01*
X161166952Y-105025048D01*
X160690762Y-104929810D02*
X160666952Y-104906000D01*
X160619333Y-104882190D01*
X160500286Y-104882190D01*
X160452667Y-104906000D01*
X160428857Y-104929810D01*
X160405048Y-104977429D01*
X160405048Y-105025048D01*
X160428857Y-105096476D01*
X160714571Y-105382190D01*
X160405048Y-105382190D01*
D11*
X167441619Y-98845905D02*
X167394000Y-98893524D01*
X167346381Y-98988762D01*
X167346381Y-99226858D01*
X167394000Y-99322096D01*
X167441619Y-99369715D01*
X167536857Y-99417334D01*
X167632095Y-99417334D01*
X167774952Y-99369715D01*
X168346381Y-98798286D01*
X168346381Y-99417334D01*
X167441619Y-99798286D02*
X167394000Y-99845905D01*
X167346381Y-99941143D01*
X167346381Y-100179239D01*
X167394000Y-100274477D01*
X167441619Y-100322096D01*
X167536857Y-100369715D01*
X167632095Y-100369715D01*
X167774952Y-100322096D01*
X168346381Y-99750667D01*
X168346381Y-100369715D01*
X167346381Y-100988762D02*
X167346381Y-101084001D01*
X167394000Y-101179239D01*
X167441619Y-101226858D01*
X167536857Y-101274477D01*
X167727333Y-101322096D01*
X167965429Y-101322096D01*
X168155905Y-101274477D01*
X168251143Y-101226858D01*
X168298762Y-101179239D01*
X168346381Y-101084001D01*
X168346381Y-100988762D01*
X168298762Y-100893524D01*
X168251143Y-100845905D01*
X168155905Y-100798286D01*
X167965429Y-100750667D01*
X167727333Y-100750667D01*
X167536857Y-100798286D01*
X167441619Y-100845905D01*
X167394000Y-100893524D01*
X167346381Y-100988762D01*
X168346381Y-102322096D02*
X167870190Y-101988762D01*
X168346381Y-101750667D02*
X167346381Y-101750667D01*
X167346381Y-102131620D01*
X167394000Y-102226858D01*
X167441619Y-102274477D01*
X167536857Y-102322096D01*
X167679714Y-102322096D01*
X167774952Y-102274477D01*
X167822571Y-102226858D01*
X167870190Y-102131620D01*
X167870190Y-101750667D01*
D12*
X168120190Y-100262572D02*
X167882095Y-100095905D01*
X168120190Y-99976858D02*
X167620190Y-99976858D01*
X167620190Y-100167334D01*
X167644000Y-100214953D01*
X167667810Y-100238762D01*
X167715429Y-100262572D01*
X167786857Y-100262572D01*
X167834476Y-100238762D01*
X167858286Y-100214953D01*
X167882095Y-100167334D01*
X167882095Y-99976858D01*
X168120190Y-100738762D02*
X168120190Y-100453048D01*
X168120190Y-100595905D02*
X167620190Y-100595905D01*
X167691619Y-100548286D01*
X167739238Y-100500667D01*
X167763048Y-100453048D01*
X167620190Y-100905429D02*
X167620190Y-101214952D01*
X167810667Y-101048286D01*
X167810667Y-101119714D01*
X167834476Y-101167333D01*
X167858286Y-101191143D01*
X167905905Y-101214952D01*
X168024952Y-101214952D01*
X168072571Y-101191143D01*
X168096381Y-101167333D01*
X168120190Y-101119714D01*
X168120190Y-100976857D01*
X168096381Y-100929238D01*
X168072571Y-100905429D01*
D11*
X173188095Y-98607619D02*
X173140476Y-98560000D01*
X173045238Y-98512381D01*
X172807142Y-98512381D01*
X172711904Y-98560000D01*
X172664285Y-98607619D01*
X172616666Y-98702857D01*
X172616666Y-98798095D01*
X172664285Y-98940952D01*
X173235714Y-99512381D01*
X172616666Y-99512381D01*
X172235714Y-98607619D02*
X172188095Y-98560000D01*
X172092857Y-98512381D01*
X171854761Y-98512381D01*
X171759523Y-98560000D01*
X171711904Y-98607619D01*
X171664285Y-98702857D01*
X171664285Y-98798095D01*
X171711904Y-98940952D01*
X172283333Y-99512381D01*
X171664285Y-99512381D01*
X171045238Y-98512381D02*
X170949999Y-98512381D01*
X170854761Y-98560000D01*
X170807142Y-98607619D01*
X170759523Y-98702857D01*
X170711904Y-98893333D01*
X170711904Y-99131429D01*
X170759523Y-99321905D01*
X170807142Y-99417143D01*
X170854761Y-99464762D01*
X170949999Y-99512381D01*
X171045238Y-99512381D01*
X171140476Y-99464762D01*
X171188095Y-99417143D01*
X171235714Y-99321905D01*
X171283333Y-99131429D01*
X171283333Y-98893333D01*
X171235714Y-98702857D01*
X171188095Y-98607619D01*
X171140476Y-98560000D01*
X171045238Y-98512381D01*
X169711904Y-99512381D02*
X170045238Y-99036190D01*
X170283333Y-99512381D02*
X170283333Y-98512381D01*
X169902380Y-98512381D01*
X169807142Y-98560000D01*
X169759523Y-98607619D01*
X169711904Y-98702857D01*
X169711904Y-98845714D01*
X169759523Y-98940952D01*
X169807142Y-98988571D01*
X169902380Y-99036190D01*
X170283333Y-99036190D01*
D12*
X171771428Y-99286190D02*
X171938095Y-99048095D01*
X172057142Y-99286190D02*
X172057142Y-98786190D01*
X171866666Y-98786190D01*
X171819047Y-98810000D01*
X171795238Y-98833810D01*
X171771428Y-98881429D01*
X171771428Y-98952857D01*
X171795238Y-99000476D01*
X171819047Y-99024286D01*
X171866666Y-99048095D01*
X172057142Y-99048095D01*
X171295238Y-99286190D02*
X171580952Y-99286190D01*
X171438095Y-99286190D02*
X171438095Y-98786190D01*
X171485714Y-98857619D01*
X171533333Y-98905238D01*
X171580952Y-98929048D01*
X170866667Y-98952857D02*
X170866667Y-99286190D01*
X170985714Y-98762381D02*
X171104762Y-99119524D01*
X170795238Y-99119524D01*
D11*
X172203904Y-104941714D02*
X172203904Y-105608381D01*
X172442000Y-104560762D02*
X172680095Y-105275048D01*
X172061047Y-105275048D01*
X171775333Y-104608381D02*
X171108666Y-104608381D01*
X171537238Y-105608381D01*
X170537238Y-104608381D02*
X170441999Y-104608381D01*
X170346761Y-104656000D01*
X170299142Y-104703619D01*
X170251523Y-104798857D01*
X170203904Y-104989333D01*
X170203904Y-105227429D01*
X170251523Y-105417905D01*
X170299142Y-105513143D01*
X170346761Y-105560762D01*
X170441999Y-105608381D01*
X170537238Y-105608381D01*
X170632476Y-105560762D01*
X170680095Y-105513143D01*
X170727714Y-105417905D01*
X170775333Y-105227429D01*
X170775333Y-104989333D01*
X170727714Y-104798857D01*
X170680095Y-104703619D01*
X170632476Y-104656000D01*
X170537238Y-104608381D01*
X169203904Y-105608381D02*
X169537238Y-105132190D01*
X169775333Y-105608381D02*
X169775333Y-104608381D01*
X169394380Y-104608381D01*
X169299142Y-104656000D01*
X169251523Y-104703619D01*
X169203904Y-104798857D01*
X169203904Y-104941714D01*
X169251523Y-105036952D01*
X169299142Y-105084571D01*
X169394380Y-105132190D01*
X169775333Y-105132190D01*
D12*
X171009428Y-105382190D02*
X171176095Y-105144095D01*
X171295142Y-105382190D02*
X171295142Y-104882190D01*
X171104666Y-104882190D01*
X171057047Y-104906000D01*
X171033238Y-104929810D01*
X171009428Y-104977429D01*
X171009428Y-105048857D01*
X171033238Y-105096476D01*
X171057047Y-105120286D01*
X171104666Y-105144095D01*
X171295142Y-105144095D01*
X170533238Y-105382190D02*
X170818952Y-105382190D01*
X170676095Y-105382190D02*
X170676095Y-104882190D01*
X170723714Y-104953619D01*
X170771333Y-105001238D01*
X170818952Y-105025048D01*
X170080857Y-104882190D02*
X170318952Y-104882190D01*
X170342762Y-105120286D01*
X170318952Y-105096476D01*
X170271333Y-105072667D01*
X170152286Y-105072667D01*
X170104667Y-105096476D01*
X170080857Y-105120286D01*
X170057048Y-105167905D01*
X170057048Y-105286952D01*
X170080857Y-105334571D01*
X170104667Y-105358381D01*
X170152286Y-105382190D01*
X170271333Y-105382190D01*
X170318952Y-105358381D01*
X170342762Y-105334571D01*
D11*
X177093619Y-98845905D02*
X177046000Y-98893524D01*
X176998381Y-98988762D01*
X176998381Y-99226858D01*
X177046000Y-99322096D01*
X177093619Y-99369715D01*
X177188857Y-99417334D01*
X177284095Y-99417334D01*
X177426952Y-99369715D01*
X177998381Y-98798286D01*
X177998381Y-99417334D01*
X177093619Y-99798286D02*
X177046000Y-99845905D01*
X176998381Y-99941143D01*
X176998381Y-100179239D01*
X177046000Y-100274477D01*
X177093619Y-100322096D01*
X177188857Y-100369715D01*
X177284095Y-100369715D01*
X177426952Y-100322096D01*
X177998381Y-99750667D01*
X177998381Y-100369715D01*
X176998381Y-100988762D02*
X176998381Y-101084001D01*
X177046000Y-101179239D01*
X177093619Y-101226858D01*
X177188857Y-101274477D01*
X177379333Y-101322096D01*
X177617429Y-101322096D01*
X177807905Y-101274477D01*
X177903143Y-101226858D01*
X177950762Y-101179239D01*
X177998381Y-101084001D01*
X177998381Y-100988762D01*
X177950762Y-100893524D01*
X177903143Y-100845905D01*
X177807905Y-100798286D01*
X177617429Y-100750667D01*
X177379333Y-100750667D01*
X177188857Y-100798286D01*
X177093619Y-100845905D01*
X177046000Y-100893524D01*
X176998381Y-100988762D01*
X177998381Y-102322096D02*
X177522190Y-101988762D01*
X177998381Y-101750667D02*
X176998381Y-101750667D01*
X176998381Y-102131620D01*
X177046000Y-102226858D01*
X177093619Y-102274477D01*
X177188857Y-102322096D01*
X177331714Y-102322096D01*
X177426952Y-102274477D01*
X177474571Y-102226858D01*
X177522190Y-102131620D01*
X177522190Y-101750667D01*
D12*
X177772190Y-100262572D02*
X177534095Y-100095905D01*
X177772190Y-99976858D02*
X177272190Y-99976858D01*
X177272190Y-100167334D01*
X177296000Y-100214953D01*
X177319810Y-100238762D01*
X177367429Y-100262572D01*
X177438857Y-100262572D01*
X177486476Y-100238762D01*
X177510286Y-100214953D01*
X177534095Y-100167334D01*
X177534095Y-99976858D01*
X177772190Y-100738762D02*
X177772190Y-100453048D01*
X177772190Y-100595905D02*
X177272190Y-100595905D01*
X177343619Y-100548286D01*
X177391238Y-100500667D01*
X177415048Y-100453048D01*
X177272190Y-101167333D02*
X177272190Y-101072095D01*
X177296000Y-101024476D01*
X177319810Y-101000667D01*
X177391238Y-100953048D01*
X177486476Y-100929238D01*
X177676952Y-100929238D01*
X177724571Y-100953048D01*
X177748381Y-100976857D01*
X177772190Y-101024476D01*
X177772190Y-101119714D01*
X177748381Y-101167333D01*
X177724571Y-101191143D01*
X177676952Y-101214952D01*
X177557905Y-101214952D01*
X177510286Y-101191143D01*
X177486476Y-101167333D01*
X177462667Y-101119714D01*
X177462667Y-101024476D01*
X177486476Y-100976857D01*
X177510286Y-100953048D01*
X177557905Y-100929238D01*
D11*
X182840095Y-98607619D02*
X182792476Y-98560000D01*
X182697238Y-98512381D01*
X182459142Y-98512381D01*
X182363904Y-98560000D01*
X182316285Y-98607619D01*
X182268666Y-98702857D01*
X182268666Y-98798095D01*
X182316285Y-98940952D01*
X182887714Y-99512381D01*
X182268666Y-99512381D01*
X181887714Y-98607619D02*
X181840095Y-98560000D01*
X181744857Y-98512381D01*
X181506761Y-98512381D01*
X181411523Y-98560000D01*
X181363904Y-98607619D01*
X181316285Y-98702857D01*
X181316285Y-98798095D01*
X181363904Y-98940952D01*
X181935333Y-99512381D01*
X181316285Y-99512381D01*
X180697238Y-98512381D02*
X180601999Y-98512381D01*
X180506761Y-98560000D01*
X180459142Y-98607619D01*
X180411523Y-98702857D01*
X180363904Y-98893333D01*
X180363904Y-99131429D01*
X180411523Y-99321905D01*
X180459142Y-99417143D01*
X180506761Y-99464762D01*
X180601999Y-99512381D01*
X180697238Y-99512381D01*
X180792476Y-99464762D01*
X180840095Y-99417143D01*
X180887714Y-99321905D01*
X180935333Y-99131429D01*
X180935333Y-98893333D01*
X180887714Y-98702857D01*
X180840095Y-98607619D01*
X180792476Y-98560000D01*
X180697238Y-98512381D01*
X179363904Y-99512381D02*
X179697238Y-99036190D01*
X179935333Y-99512381D02*
X179935333Y-98512381D01*
X179554380Y-98512381D01*
X179459142Y-98560000D01*
X179411523Y-98607619D01*
X179363904Y-98702857D01*
X179363904Y-98845714D01*
X179411523Y-98940952D01*
X179459142Y-98988571D01*
X179554380Y-99036190D01*
X179935333Y-99036190D01*
D12*
X181423428Y-99286190D02*
X181590095Y-99048095D01*
X181709142Y-99286190D02*
X181709142Y-98786190D01*
X181518666Y-98786190D01*
X181471047Y-98810000D01*
X181447238Y-98833810D01*
X181423428Y-98881429D01*
X181423428Y-98952857D01*
X181447238Y-99000476D01*
X181471047Y-99024286D01*
X181518666Y-99048095D01*
X181709142Y-99048095D01*
X180947238Y-99286190D02*
X181232952Y-99286190D01*
X181090095Y-99286190D02*
X181090095Y-98786190D01*
X181137714Y-98857619D01*
X181185333Y-98905238D01*
X181232952Y-98929048D01*
X180780571Y-98786190D02*
X180447238Y-98786190D01*
X180661524Y-99286190D01*
D11*
X181601904Y-104941714D02*
X181601904Y-105608381D01*
X181840000Y-104560762D02*
X182078095Y-105275048D01*
X181459047Y-105275048D01*
X181173333Y-104608381D02*
X180506666Y-104608381D01*
X180935238Y-105608381D01*
X179935238Y-104608381D02*
X179839999Y-104608381D01*
X179744761Y-104656000D01*
X179697142Y-104703619D01*
X179649523Y-104798857D01*
X179601904Y-104989333D01*
X179601904Y-105227429D01*
X179649523Y-105417905D01*
X179697142Y-105513143D01*
X179744761Y-105560762D01*
X179839999Y-105608381D01*
X179935238Y-105608381D01*
X180030476Y-105560762D01*
X180078095Y-105513143D01*
X180125714Y-105417905D01*
X180173333Y-105227429D01*
X180173333Y-104989333D01*
X180125714Y-104798857D01*
X180078095Y-104703619D01*
X180030476Y-104656000D01*
X179935238Y-104608381D01*
X178601904Y-105608381D02*
X178935238Y-105132190D01*
X179173333Y-105608381D02*
X179173333Y-104608381D01*
X178792380Y-104608381D01*
X178697142Y-104656000D01*
X178649523Y-104703619D01*
X178601904Y-104798857D01*
X178601904Y-104941714D01*
X178649523Y-105036952D01*
X178697142Y-105084571D01*
X178792380Y-105132190D01*
X179173333Y-105132190D01*
D12*
X180661428Y-105382190D02*
X180828095Y-105144095D01*
X180947142Y-105382190D02*
X180947142Y-104882190D01*
X180756666Y-104882190D01*
X180709047Y-104906000D01*
X180685238Y-104929810D01*
X180661428Y-104977429D01*
X180661428Y-105048857D01*
X180685238Y-105096476D01*
X180709047Y-105120286D01*
X180756666Y-105144095D01*
X180947142Y-105144095D01*
X180185238Y-105382190D02*
X180470952Y-105382190D01*
X180328095Y-105382190D02*
X180328095Y-104882190D01*
X180375714Y-104953619D01*
X180423333Y-105001238D01*
X180470952Y-105025048D01*
X179899524Y-105096476D02*
X179947143Y-105072667D01*
X179970952Y-105048857D01*
X179994762Y-105001238D01*
X179994762Y-104977429D01*
X179970952Y-104929810D01*
X179947143Y-104906000D01*
X179899524Y-104882190D01*
X179804286Y-104882190D01*
X179756667Y-104906000D01*
X179732857Y-104929810D01*
X179709048Y-104977429D01*
X179709048Y-105001238D01*
X179732857Y-105048857D01*
X179756667Y-105072667D01*
X179804286Y-105096476D01*
X179899524Y-105096476D01*
X179947143Y-105120286D01*
X179970952Y-105144095D01*
X179994762Y-105191714D01*
X179994762Y-105286952D01*
X179970952Y-105334571D01*
X179947143Y-105358381D01*
X179899524Y-105382190D01*
X179804286Y-105382190D01*
X179756667Y-105358381D01*
X179732857Y-105334571D01*
X179709048Y-105286952D01*
X179709048Y-105191714D01*
X179732857Y-105144095D01*
X179756667Y-105120286D01*
X179804286Y-105096476D01*
D11*
X186745619Y-98845905D02*
X186698000Y-98893524D01*
X186650381Y-98988762D01*
X186650381Y-99226858D01*
X186698000Y-99322096D01*
X186745619Y-99369715D01*
X186840857Y-99417334D01*
X186936095Y-99417334D01*
X187078952Y-99369715D01*
X187650381Y-98798286D01*
X187650381Y-99417334D01*
X186745619Y-99798286D02*
X186698000Y-99845905D01*
X186650381Y-99941143D01*
X186650381Y-100179239D01*
X186698000Y-100274477D01*
X186745619Y-100322096D01*
X186840857Y-100369715D01*
X186936095Y-100369715D01*
X187078952Y-100322096D01*
X187650381Y-99750667D01*
X187650381Y-100369715D01*
X186650381Y-100988762D02*
X186650381Y-101084001D01*
X186698000Y-101179239D01*
X186745619Y-101226858D01*
X186840857Y-101274477D01*
X187031333Y-101322096D01*
X187269429Y-101322096D01*
X187459905Y-101274477D01*
X187555143Y-101226858D01*
X187602762Y-101179239D01*
X187650381Y-101084001D01*
X187650381Y-100988762D01*
X187602762Y-100893524D01*
X187555143Y-100845905D01*
X187459905Y-100798286D01*
X187269429Y-100750667D01*
X187031333Y-100750667D01*
X186840857Y-100798286D01*
X186745619Y-100845905D01*
X186698000Y-100893524D01*
X186650381Y-100988762D01*
X187650381Y-102322096D02*
X187174190Y-101988762D01*
X187650381Y-101750667D02*
X186650381Y-101750667D01*
X186650381Y-102131620D01*
X186698000Y-102226858D01*
X186745619Y-102274477D01*
X186840857Y-102322096D01*
X186983714Y-102322096D01*
X187078952Y-102274477D01*
X187126571Y-102226858D01*
X187174190Y-102131620D01*
X187174190Y-101750667D01*
D12*
X187424190Y-100262572D02*
X187186095Y-100095905D01*
X187424190Y-99976858D02*
X186924190Y-99976858D01*
X186924190Y-100167334D01*
X186948000Y-100214953D01*
X186971810Y-100238762D01*
X187019429Y-100262572D01*
X187090857Y-100262572D01*
X187138476Y-100238762D01*
X187162286Y-100214953D01*
X187186095Y-100167334D01*
X187186095Y-99976858D01*
X187424190Y-100738762D02*
X187424190Y-100453048D01*
X187424190Y-100595905D02*
X186924190Y-100595905D01*
X186995619Y-100548286D01*
X187043238Y-100500667D01*
X187067048Y-100453048D01*
X187424190Y-100976857D02*
X187424190Y-101072095D01*
X187400381Y-101119714D01*
X187376571Y-101143524D01*
X187305143Y-101191143D01*
X187209905Y-101214952D01*
X187019429Y-101214952D01*
X186971810Y-101191143D01*
X186948000Y-101167333D01*
X186924190Y-101119714D01*
X186924190Y-101024476D01*
X186948000Y-100976857D01*
X186971810Y-100953048D01*
X187019429Y-100929238D01*
X187138476Y-100929238D01*
X187186095Y-100953048D01*
X187209905Y-100976857D01*
X187233714Y-101024476D01*
X187233714Y-101119714D01*
X187209905Y-101167333D01*
X187186095Y-101191143D01*
X187138476Y-101214952D01*
D11*
X192492095Y-98607619D02*
X192444476Y-98560000D01*
X192349238Y-98512381D01*
X192111142Y-98512381D01*
X192015904Y-98560000D01*
X191968285Y-98607619D01*
X191920666Y-98702857D01*
X191920666Y-98798095D01*
X191968285Y-98940952D01*
X192539714Y-99512381D01*
X191920666Y-99512381D01*
X191539714Y-98607619D02*
X191492095Y-98560000D01*
X191396857Y-98512381D01*
X191158761Y-98512381D01*
X191063523Y-98560000D01*
X191015904Y-98607619D01*
X190968285Y-98702857D01*
X190968285Y-98798095D01*
X191015904Y-98940952D01*
X191587333Y-99512381D01*
X190968285Y-99512381D01*
X190349238Y-98512381D02*
X190253999Y-98512381D01*
X190158761Y-98560000D01*
X190111142Y-98607619D01*
X190063523Y-98702857D01*
X190015904Y-98893333D01*
X190015904Y-99131429D01*
X190063523Y-99321905D01*
X190111142Y-99417143D01*
X190158761Y-99464762D01*
X190253999Y-99512381D01*
X190349238Y-99512381D01*
X190444476Y-99464762D01*
X190492095Y-99417143D01*
X190539714Y-99321905D01*
X190587333Y-99131429D01*
X190587333Y-98893333D01*
X190539714Y-98702857D01*
X190492095Y-98607619D01*
X190444476Y-98560000D01*
X190349238Y-98512381D01*
X189015904Y-99512381D02*
X189349238Y-99036190D01*
X189587333Y-99512381D02*
X189587333Y-98512381D01*
X189206380Y-98512381D01*
X189111142Y-98560000D01*
X189063523Y-98607619D01*
X189015904Y-98702857D01*
X189015904Y-98845714D01*
X189063523Y-98940952D01*
X189111142Y-98988571D01*
X189206380Y-99036190D01*
X189587333Y-99036190D01*
D12*
X191075428Y-99286190D02*
X191242095Y-99048095D01*
X191361142Y-99286190D02*
X191361142Y-98786190D01*
X191170666Y-98786190D01*
X191123047Y-98810000D01*
X191099238Y-98833810D01*
X191075428Y-98881429D01*
X191075428Y-98952857D01*
X191099238Y-99000476D01*
X191123047Y-99024286D01*
X191170666Y-99048095D01*
X191361142Y-99048095D01*
X190884952Y-98833810D02*
X190861142Y-98810000D01*
X190813523Y-98786190D01*
X190694476Y-98786190D01*
X190646857Y-98810000D01*
X190623047Y-98833810D01*
X190599238Y-98881429D01*
X190599238Y-98929048D01*
X190623047Y-99000476D01*
X190908761Y-99286190D01*
X190599238Y-99286190D01*
X190289714Y-98786190D02*
X190242095Y-98786190D01*
X190194476Y-98810000D01*
X190170667Y-98833810D01*
X190146857Y-98881429D01*
X190123048Y-98976667D01*
X190123048Y-99095714D01*
X190146857Y-99190952D01*
X190170667Y-99238571D01*
X190194476Y-99262381D01*
X190242095Y-99286190D01*
X190289714Y-99286190D01*
X190337333Y-99262381D01*
X190361143Y-99238571D01*
X190384952Y-99190952D01*
X190408762Y-99095714D01*
X190408762Y-98976667D01*
X190384952Y-98881429D01*
X190361143Y-98833810D01*
X190337333Y-98810000D01*
X190289714Y-98786190D01*
D11*
X191507904Y-104941714D02*
X191507904Y-105608381D01*
X191746000Y-104560762D02*
X191984095Y-105275048D01*
X191365047Y-105275048D01*
X191079333Y-104608381D02*
X190412666Y-104608381D01*
X190841238Y-105608381D01*
X189841238Y-104608381D02*
X189745999Y-104608381D01*
X189650761Y-104656000D01*
X189603142Y-104703619D01*
X189555523Y-104798857D01*
X189507904Y-104989333D01*
X189507904Y-105227429D01*
X189555523Y-105417905D01*
X189603142Y-105513143D01*
X189650761Y-105560762D01*
X189745999Y-105608381D01*
X189841238Y-105608381D01*
X189936476Y-105560762D01*
X189984095Y-105513143D01*
X190031714Y-105417905D01*
X190079333Y-105227429D01*
X190079333Y-104989333D01*
X190031714Y-104798857D01*
X189984095Y-104703619D01*
X189936476Y-104656000D01*
X189841238Y-104608381D01*
X188507904Y-105608381D02*
X188841238Y-105132190D01*
X189079333Y-105608381D02*
X189079333Y-104608381D01*
X188698380Y-104608381D01*
X188603142Y-104656000D01*
X188555523Y-104703619D01*
X188507904Y-104798857D01*
X188507904Y-104941714D01*
X188555523Y-105036952D01*
X188603142Y-105084571D01*
X188698380Y-105132190D01*
X189079333Y-105132190D01*
D12*
X190313428Y-105382190D02*
X190480095Y-105144095D01*
X190599142Y-105382190D02*
X190599142Y-104882190D01*
X190408666Y-104882190D01*
X190361047Y-104906000D01*
X190337238Y-104929810D01*
X190313428Y-104977429D01*
X190313428Y-105048857D01*
X190337238Y-105096476D01*
X190361047Y-105120286D01*
X190408666Y-105144095D01*
X190599142Y-105144095D01*
X190122952Y-104929810D02*
X190099142Y-104906000D01*
X190051523Y-104882190D01*
X189932476Y-104882190D01*
X189884857Y-104906000D01*
X189861047Y-104929810D01*
X189837238Y-104977429D01*
X189837238Y-105025048D01*
X189861047Y-105096476D01*
X190146761Y-105382190D01*
X189837238Y-105382190D01*
X189361048Y-105382190D02*
X189646762Y-105382190D01*
X189503905Y-105382190D02*
X189503905Y-104882190D01*
X189551524Y-104953619D01*
X189599143Y-105001238D01*
X189646762Y-105025048D01*
D11*
X151963048Y-71080381D02*
X151344000Y-71080381D01*
X151677334Y-71461333D01*
X151534476Y-71461333D01*
X151439238Y-71508952D01*
X151391619Y-71556571D01*
X151344000Y-71651810D01*
X151344000Y-71889905D01*
X151391619Y-71985143D01*
X151439238Y-72032762D01*
X151534476Y-72080381D01*
X151820191Y-72080381D01*
X151915429Y-72032762D01*
X151963048Y-71985143D01*
X150724953Y-71080381D02*
X150629714Y-71080381D01*
X150534476Y-71128000D01*
X150486857Y-71175619D01*
X150439238Y-71270857D01*
X150391619Y-71461333D01*
X150391619Y-71699429D01*
X150439238Y-71889905D01*
X150486857Y-71985143D01*
X150534476Y-72032762D01*
X150629714Y-72080381D01*
X150724953Y-72080381D01*
X150820191Y-72032762D01*
X150867810Y-71985143D01*
X150915429Y-71889905D01*
X150963048Y-71699429D01*
X150963048Y-71461333D01*
X150915429Y-71270857D01*
X150867810Y-71175619D01*
X150820191Y-71128000D01*
X150724953Y-71080381D01*
X149915429Y-72080381D02*
X149724953Y-72080381D01*
X149629714Y-72032762D01*
X149582095Y-71985143D01*
X149486857Y-71842286D01*
X149439238Y-71651810D01*
X149439238Y-71270857D01*
X149486857Y-71175619D01*
X149534476Y-71128000D01*
X149629714Y-71080381D01*
X149820191Y-71080381D01*
X149915429Y-71128000D01*
X149963048Y-71175619D01*
X150010667Y-71270857D01*
X150010667Y-71508952D01*
X149963048Y-71604190D01*
X149915429Y-71651810D01*
X149820191Y-71699429D01*
X149629714Y-71699429D01*
X149534476Y-71651810D01*
X149486857Y-71604190D01*
X149439238Y-71508952D01*
X149010667Y-72080381D02*
X149010667Y-71080381D01*
X148915429Y-71699429D02*
X148629714Y-72080381D01*
X148629714Y-71413714D02*
X149010667Y-71794667D01*
X146915428Y-72080381D02*
X147486857Y-72080381D01*
X147201143Y-72080381D02*
X147201143Y-71080381D01*
X147296381Y-71223238D01*
X147391619Y-71318476D01*
X147486857Y-71366095D01*
X146534476Y-72080381D02*
X145772571Y-71080381D01*
X146391619Y-71080381D02*
X146296381Y-71128000D01*
X146248762Y-71223238D01*
X146296381Y-71318476D01*
X146391619Y-71366095D01*
X146486857Y-71318476D01*
X146534476Y-71223238D01*
X146486857Y-71128000D01*
X146391619Y-71080381D01*
X145820190Y-72032762D02*
X145772571Y-71937524D01*
X145820190Y-71842286D01*
X145915428Y-71794667D01*
X146010666Y-71842286D01*
X146058285Y-71937524D01*
X146010666Y-72032762D01*
X145915428Y-72080381D01*
X145820190Y-72032762D01*
D12*
X149546428Y-73505190D02*
X149713095Y-73267095D01*
X149832142Y-73505190D02*
X149832142Y-73005190D01*
X149641666Y-73005190D01*
X149594047Y-73029000D01*
X149570238Y-73052810D01*
X149546428Y-73100429D01*
X149546428Y-73171857D01*
X149570238Y-73219476D01*
X149594047Y-73243286D01*
X149641666Y-73267095D01*
X149832142Y-73267095D01*
X149355952Y-73052810D02*
X149332142Y-73029000D01*
X149284523Y-73005190D01*
X149165476Y-73005190D01*
X149117857Y-73029000D01*
X149094047Y-73052810D01*
X149070238Y-73100429D01*
X149070238Y-73148048D01*
X149094047Y-73219476D01*
X149379761Y-73505190D01*
X149070238Y-73505190D01*
X148879762Y-73052810D02*
X148855952Y-73029000D01*
X148808333Y-73005190D01*
X148689286Y-73005190D01*
X148641667Y-73029000D01*
X148617857Y-73052810D01*
X148594048Y-73100429D01*
X148594048Y-73148048D01*
X148617857Y-73219476D01*
X148903571Y-73505190D01*
X148594048Y-73505190D01*
D11*
X157424381Y-75001809D02*
X157424381Y-75192285D01*
X157376762Y-75287524D01*
X157329143Y-75335143D01*
X157186286Y-75430381D01*
X156995810Y-75478000D01*
X156614857Y-75478000D01*
X156519619Y-75430381D01*
X156472000Y-75382762D01*
X156424381Y-75287524D01*
X156424381Y-75097047D01*
X156472000Y-75001809D01*
X156519619Y-74954190D01*
X156614857Y-74906571D01*
X156852952Y-74906571D01*
X156948190Y-74954190D01*
X156995810Y-75001809D01*
X157043429Y-75097047D01*
X157043429Y-75287524D01*
X156995810Y-75382762D01*
X156948190Y-75430381D01*
X156852952Y-75478000D01*
X156424381Y-75811333D02*
X156424381Y-76478000D01*
X157424381Y-76049428D01*
X156424381Y-77287524D02*
X156424381Y-77097047D01*
X156472000Y-77001809D01*
X156519619Y-76954190D01*
X156662476Y-76858952D01*
X156852952Y-76811333D01*
X157233905Y-76811333D01*
X157329143Y-76858952D01*
X157376762Y-76906571D01*
X157424381Y-77001809D01*
X157424381Y-77192286D01*
X157376762Y-77287524D01*
X157329143Y-77335143D01*
X157233905Y-77382762D01*
X156995810Y-77382762D01*
X156900571Y-77335143D01*
X156852952Y-77287524D01*
X156805333Y-77192286D01*
X156805333Y-77001809D01*
X156852952Y-76906571D01*
X156900571Y-76858952D01*
X156995810Y-76811333D01*
X157424381Y-77811333D02*
X156424381Y-77811333D01*
X157043429Y-77906571D02*
X157424381Y-78192286D01*
X156757714Y-78192286D02*
X157138667Y-77811333D01*
X157424381Y-79906572D02*
X157424381Y-79335143D01*
X157424381Y-79620857D02*
X156424381Y-79620857D01*
X156567238Y-79525619D01*
X156662476Y-79430381D01*
X156710095Y-79335143D01*
X157424381Y-80287524D02*
X156424381Y-81049429D01*
X156424381Y-80430381D02*
X156472000Y-80525619D01*
X156567238Y-80573238D01*
X156662476Y-80525619D01*
X156710095Y-80430381D01*
X156662476Y-80335143D01*
X156567238Y-80287524D01*
X156472000Y-80335143D01*
X156424381Y-80430381D01*
X157376762Y-81001810D02*
X157281524Y-81049429D01*
X157186286Y-81001810D01*
X157138667Y-80906572D01*
X157186286Y-80811334D01*
X157281524Y-80763715D01*
X157376762Y-80811334D01*
X157424381Y-80906572D01*
X157376762Y-81001810D01*
D12*
X155293190Y-77275572D02*
X155055095Y-77108905D01*
X155293190Y-76989858D02*
X154793190Y-76989858D01*
X154793190Y-77180334D01*
X154817000Y-77227953D01*
X154840810Y-77251762D01*
X154888429Y-77275572D01*
X154959857Y-77275572D01*
X155007476Y-77251762D01*
X155031286Y-77227953D01*
X155055095Y-77180334D01*
X155055095Y-76989858D01*
X154840810Y-77466048D02*
X154817000Y-77489858D01*
X154793190Y-77537477D01*
X154793190Y-77656524D01*
X154817000Y-77704143D01*
X154840810Y-77727953D01*
X154888429Y-77751762D01*
X154936048Y-77751762D01*
X155007476Y-77727953D01*
X155293190Y-77442239D01*
X155293190Y-77751762D01*
X154793190Y-77918429D02*
X154793190Y-78227952D01*
X154983667Y-78061286D01*
X154983667Y-78132714D01*
X155007476Y-78180333D01*
X155031286Y-78204143D01*
X155078905Y-78227952D01*
X155197952Y-78227952D01*
X155245571Y-78204143D01*
X155269381Y-78180333D01*
X155293190Y-78132714D01*
X155293190Y-77989857D01*
X155269381Y-77942238D01*
X155245571Y-77918429D01*
D11*
X128579619Y-38393905D02*
X128532000Y-38441524D01*
X128484381Y-38536762D01*
X128484381Y-38774858D01*
X128532000Y-38870096D01*
X128579619Y-38917715D01*
X128674857Y-38965334D01*
X128770095Y-38965334D01*
X128912952Y-38917715D01*
X129484381Y-38346286D01*
X129484381Y-38965334D01*
X128579619Y-39346286D02*
X128532000Y-39393905D01*
X128484381Y-39489143D01*
X128484381Y-39727239D01*
X128532000Y-39822477D01*
X128579619Y-39870096D01*
X128674857Y-39917715D01*
X128770095Y-39917715D01*
X128912952Y-39870096D01*
X129484381Y-39298667D01*
X129484381Y-39917715D01*
X128484381Y-40536762D02*
X128484381Y-40632001D01*
X128532000Y-40727239D01*
X128579619Y-40774858D01*
X128674857Y-40822477D01*
X128865333Y-40870096D01*
X129103429Y-40870096D01*
X129293905Y-40822477D01*
X129389143Y-40774858D01*
X129436762Y-40727239D01*
X129484381Y-40632001D01*
X129484381Y-40536762D01*
X129436762Y-40441524D01*
X129389143Y-40393905D01*
X129293905Y-40346286D01*
X129103429Y-40298667D01*
X128865333Y-40298667D01*
X128674857Y-40346286D01*
X128579619Y-40393905D01*
X128532000Y-40441524D01*
X128484381Y-40536762D01*
X129484381Y-41870096D02*
X129008190Y-41536762D01*
X129484381Y-41298667D02*
X128484381Y-41298667D01*
X128484381Y-41679620D01*
X128532000Y-41774858D01*
X128579619Y-41822477D01*
X128674857Y-41870096D01*
X128817714Y-41870096D01*
X128912952Y-41822477D01*
X128960571Y-41774858D01*
X129008190Y-41679620D01*
X129008190Y-41298667D01*
D12*
X129258190Y-39810572D02*
X129020095Y-39643905D01*
X129258190Y-39524858D02*
X128758190Y-39524858D01*
X128758190Y-39715334D01*
X128782000Y-39762953D01*
X128805810Y-39786762D01*
X128853429Y-39810572D01*
X128924857Y-39810572D01*
X128972476Y-39786762D01*
X128996286Y-39762953D01*
X129020095Y-39715334D01*
X129020095Y-39524858D01*
X128805810Y-40001048D02*
X128782000Y-40024858D01*
X128758190Y-40072477D01*
X128758190Y-40191524D01*
X128782000Y-40239143D01*
X128805810Y-40262953D01*
X128853429Y-40286762D01*
X128901048Y-40286762D01*
X128972476Y-40262953D01*
X129258190Y-39977239D01*
X129258190Y-40286762D01*
X128924857Y-40715333D02*
X129258190Y-40715333D01*
X128734381Y-40596286D02*
X129091524Y-40477238D01*
X129091524Y-40786762D01*
D11*
X134326095Y-41203619D02*
X134278476Y-41156000D01*
X134183238Y-41108381D01*
X133945142Y-41108381D01*
X133849904Y-41156000D01*
X133802285Y-41203619D01*
X133754666Y-41298857D01*
X133754666Y-41394095D01*
X133802285Y-41536952D01*
X134373714Y-42108381D01*
X133754666Y-42108381D01*
X133373714Y-41203619D02*
X133326095Y-41156000D01*
X133230857Y-41108381D01*
X132992761Y-41108381D01*
X132897523Y-41156000D01*
X132849904Y-41203619D01*
X132802285Y-41298857D01*
X132802285Y-41394095D01*
X132849904Y-41536952D01*
X133421333Y-42108381D01*
X132802285Y-42108381D01*
X132183238Y-41108381D02*
X132087999Y-41108381D01*
X131992761Y-41156000D01*
X131945142Y-41203619D01*
X131897523Y-41298857D01*
X131849904Y-41489333D01*
X131849904Y-41727429D01*
X131897523Y-41917905D01*
X131945142Y-42013143D01*
X131992761Y-42060762D01*
X132087999Y-42108381D01*
X132183238Y-42108381D01*
X132278476Y-42060762D01*
X132326095Y-42013143D01*
X132373714Y-41917905D01*
X132421333Y-41727429D01*
X132421333Y-41489333D01*
X132373714Y-41298857D01*
X132326095Y-41203619D01*
X132278476Y-41156000D01*
X132183238Y-41108381D01*
X130849904Y-42108381D02*
X131183238Y-41632190D01*
X131421333Y-42108381D02*
X131421333Y-41108381D01*
X131040380Y-41108381D01*
X130945142Y-41156000D01*
X130897523Y-41203619D01*
X130849904Y-41298857D01*
X130849904Y-41441714D01*
X130897523Y-41536952D01*
X130945142Y-41584571D01*
X131040380Y-41632190D01*
X131421333Y-41632190D01*
D12*
X132909428Y-41882190D02*
X133076095Y-41644095D01*
X133195142Y-41882190D02*
X133195142Y-41382190D01*
X133004666Y-41382190D01*
X132957047Y-41406000D01*
X132933238Y-41429810D01*
X132909428Y-41477429D01*
X132909428Y-41548857D01*
X132933238Y-41596476D01*
X132957047Y-41620286D01*
X133004666Y-41644095D01*
X133195142Y-41644095D01*
X132718952Y-41429810D02*
X132695142Y-41406000D01*
X132647523Y-41382190D01*
X132528476Y-41382190D01*
X132480857Y-41406000D01*
X132457047Y-41429810D01*
X132433238Y-41477429D01*
X132433238Y-41525048D01*
X132457047Y-41596476D01*
X132742761Y-41882190D01*
X132433238Y-41882190D01*
X131980857Y-41382190D02*
X132218952Y-41382190D01*
X132242762Y-41620286D01*
X132218952Y-41596476D01*
X132171333Y-41572667D01*
X132052286Y-41572667D01*
X132004667Y-41596476D01*
X131980857Y-41620286D01*
X131957048Y-41667905D01*
X131957048Y-41786952D01*
X131980857Y-41834571D01*
X132004667Y-41858381D01*
X132052286Y-41882190D01*
X132171333Y-41882190D01*
X132218952Y-41858381D01*
X132242762Y-41834571D01*
D11*
X132833904Y-35599714D02*
X132833904Y-36266381D01*
X133072000Y-35218762D02*
X133310095Y-35933048D01*
X132691047Y-35933048D01*
X132405333Y-35266381D02*
X131738666Y-35266381D01*
X132167238Y-36266381D01*
X131167238Y-35266381D02*
X131071999Y-35266381D01*
X130976761Y-35314000D01*
X130929142Y-35361619D01*
X130881523Y-35456857D01*
X130833904Y-35647333D01*
X130833904Y-35885429D01*
X130881523Y-36075905D01*
X130929142Y-36171143D01*
X130976761Y-36218762D01*
X131071999Y-36266381D01*
X131167238Y-36266381D01*
X131262476Y-36218762D01*
X131310095Y-36171143D01*
X131357714Y-36075905D01*
X131405333Y-35885429D01*
X131405333Y-35647333D01*
X131357714Y-35456857D01*
X131310095Y-35361619D01*
X131262476Y-35314000D01*
X131167238Y-35266381D01*
X129833904Y-36266381D02*
X130167238Y-35790190D01*
X130405333Y-36266381D02*
X130405333Y-35266381D01*
X130024380Y-35266381D01*
X129929142Y-35314000D01*
X129881523Y-35361619D01*
X129833904Y-35456857D01*
X129833904Y-35599714D01*
X129881523Y-35694952D01*
X129929142Y-35742571D01*
X130024380Y-35790190D01*
X130405333Y-35790190D01*
D12*
X131893428Y-36040190D02*
X132060095Y-35802095D01*
X132179142Y-36040190D02*
X132179142Y-35540190D01*
X131988666Y-35540190D01*
X131941047Y-35564000D01*
X131917238Y-35587810D01*
X131893428Y-35635429D01*
X131893428Y-35706857D01*
X131917238Y-35754476D01*
X131941047Y-35778286D01*
X131988666Y-35802095D01*
X132179142Y-35802095D01*
X131702952Y-35587810D02*
X131679142Y-35564000D01*
X131631523Y-35540190D01*
X131512476Y-35540190D01*
X131464857Y-35564000D01*
X131441047Y-35587810D01*
X131417238Y-35635429D01*
X131417238Y-35683048D01*
X131441047Y-35754476D01*
X131726761Y-36040190D01*
X131417238Y-36040190D01*
X130988667Y-35540190D02*
X131083905Y-35540190D01*
X131131524Y-35564000D01*
X131155333Y-35587810D01*
X131202952Y-35659238D01*
X131226762Y-35754476D01*
X131226762Y-35944952D01*
X131202952Y-35992571D01*
X131179143Y-36016381D01*
X131131524Y-36040190D01*
X131036286Y-36040190D01*
X130988667Y-36016381D01*
X130964857Y-35992571D01*
X130941048Y-35944952D01*
X130941048Y-35825905D01*
X130964857Y-35778286D01*
X130988667Y-35754476D01*
X131036286Y-35730667D01*
X131131524Y-35730667D01*
X131179143Y-35754476D01*
X131202952Y-35778286D01*
X131226762Y-35825905D01*
D11*
X138485619Y-38393905D02*
X138438000Y-38441524D01*
X138390381Y-38536762D01*
X138390381Y-38774858D01*
X138438000Y-38870096D01*
X138485619Y-38917715D01*
X138580857Y-38965334D01*
X138676095Y-38965334D01*
X138818952Y-38917715D01*
X139390381Y-38346286D01*
X139390381Y-38965334D01*
X138485619Y-39346286D02*
X138438000Y-39393905D01*
X138390381Y-39489143D01*
X138390381Y-39727239D01*
X138438000Y-39822477D01*
X138485619Y-39870096D01*
X138580857Y-39917715D01*
X138676095Y-39917715D01*
X138818952Y-39870096D01*
X139390381Y-39298667D01*
X139390381Y-39917715D01*
X138390381Y-40536762D02*
X138390381Y-40632001D01*
X138438000Y-40727239D01*
X138485619Y-40774858D01*
X138580857Y-40822477D01*
X138771333Y-40870096D01*
X139009429Y-40870096D01*
X139199905Y-40822477D01*
X139295143Y-40774858D01*
X139342762Y-40727239D01*
X139390381Y-40632001D01*
X139390381Y-40536762D01*
X139342762Y-40441524D01*
X139295143Y-40393905D01*
X139199905Y-40346286D01*
X139009429Y-40298667D01*
X138771333Y-40298667D01*
X138580857Y-40346286D01*
X138485619Y-40393905D01*
X138438000Y-40441524D01*
X138390381Y-40536762D01*
X139390381Y-41870096D02*
X138914190Y-41536762D01*
X139390381Y-41298667D02*
X138390381Y-41298667D01*
X138390381Y-41679620D01*
X138438000Y-41774858D01*
X138485619Y-41822477D01*
X138580857Y-41870096D01*
X138723714Y-41870096D01*
X138818952Y-41822477D01*
X138866571Y-41774858D01*
X138914190Y-41679620D01*
X138914190Y-41298667D01*
D12*
X139164190Y-39810572D02*
X138926095Y-39643905D01*
X139164190Y-39524858D02*
X138664190Y-39524858D01*
X138664190Y-39715334D01*
X138688000Y-39762953D01*
X138711810Y-39786762D01*
X138759429Y-39810572D01*
X138830857Y-39810572D01*
X138878476Y-39786762D01*
X138902286Y-39762953D01*
X138926095Y-39715334D01*
X138926095Y-39524858D01*
X138711810Y-40001048D02*
X138688000Y-40024858D01*
X138664190Y-40072477D01*
X138664190Y-40191524D01*
X138688000Y-40239143D01*
X138711810Y-40262953D01*
X138759429Y-40286762D01*
X138807048Y-40286762D01*
X138878476Y-40262953D01*
X139164190Y-39977239D01*
X139164190Y-40286762D01*
X138664190Y-40453429D02*
X138664190Y-40786762D01*
X139164190Y-40572476D01*
D11*
X144486095Y-41203619D02*
X144438476Y-41156000D01*
X144343238Y-41108381D01*
X144105142Y-41108381D01*
X144009904Y-41156000D01*
X143962285Y-41203619D01*
X143914666Y-41298857D01*
X143914666Y-41394095D01*
X143962285Y-41536952D01*
X144533714Y-42108381D01*
X143914666Y-42108381D01*
X143533714Y-41203619D02*
X143486095Y-41156000D01*
X143390857Y-41108381D01*
X143152761Y-41108381D01*
X143057523Y-41156000D01*
X143009904Y-41203619D01*
X142962285Y-41298857D01*
X142962285Y-41394095D01*
X143009904Y-41536952D01*
X143581333Y-42108381D01*
X142962285Y-42108381D01*
X142343238Y-41108381D02*
X142247999Y-41108381D01*
X142152761Y-41156000D01*
X142105142Y-41203619D01*
X142057523Y-41298857D01*
X142009904Y-41489333D01*
X142009904Y-41727429D01*
X142057523Y-41917905D01*
X142105142Y-42013143D01*
X142152761Y-42060762D01*
X142247999Y-42108381D01*
X142343238Y-42108381D01*
X142438476Y-42060762D01*
X142486095Y-42013143D01*
X142533714Y-41917905D01*
X142581333Y-41727429D01*
X142581333Y-41489333D01*
X142533714Y-41298857D01*
X142486095Y-41203619D01*
X142438476Y-41156000D01*
X142343238Y-41108381D01*
X141009904Y-42108381D02*
X141343238Y-41632190D01*
X141581333Y-42108381D02*
X141581333Y-41108381D01*
X141200380Y-41108381D01*
X141105142Y-41156000D01*
X141057523Y-41203619D01*
X141009904Y-41298857D01*
X141009904Y-41441714D01*
X141057523Y-41536952D01*
X141105142Y-41584571D01*
X141200380Y-41632190D01*
X141581333Y-41632190D01*
D12*
X143069428Y-41882190D02*
X143236095Y-41644095D01*
X143355142Y-41882190D02*
X143355142Y-41382190D01*
X143164666Y-41382190D01*
X143117047Y-41406000D01*
X143093238Y-41429810D01*
X143069428Y-41477429D01*
X143069428Y-41548857D01*
X143093238Y-41596476D01*
X143117047Y-41620286D01*
X143164666Y-41644095D01*
X143355142Y-41644095D01*
X142878952Y-41429810D02*
X142855142Y-41406000D01*
X142807523Y-41382190D01*
X142688476Y-41382190D01*
X142640857Y-41406000D01*
X142617047Y-41429810D01*
X142593238Y-41477429D01*
X142593238Y-41525048D01*
X142617047Y-41596476D01*
X142902761Y-41882190D01*
X142593238Y-41882190D01*
X142307524Y-41596476D02*
X142355143Y-41572667D01*
X142378952Y-41548857D01*
X142402762Y-41501238D01*
X142402762Y-41477429D01*
X142378952Y-41429810D01*
X142355143Y-41406000D01*
X142307524Y-41382190D01*
X142212286Y-41382190D01*
X142164667Y-41406000D01*
X142140857Y-41429810D01*
X142117048Y-41477429D01*
X142117048Y-41501238D01*
X142140857Y-41548857D01*
X142164667Y-41572667D01*
X142212286Y-41596476D01*
X142307524Y-41596476D01*
X142355143Y-41620286D01*
X142378952Y-41644095D01*
X142402762Y-41691714D01*
X142402762Y-41786952D01*
X142378952Y-41834571D01*
X142355143Y-41858381D01*
X142307524Y-41882190D01*
X142212286Y-41882190D01*
X142164667Y-41858381D01*
X142140857Y-41834571D01*
X142117048Y-41786952D01*
X142117048Y-41691714D01*
X142140857Y-41644095D01*
X142164667Y-41620286D01*
X142212286Y-41596476D01*
D11*
X142739904Y-35599714D02*
X142739904Y-36266381D01*
X142978000Y-35218762D02*
X143216095Y-35933048D01*
X142597047Y-35933048D01*
X142311333Y-35266381D02*
X141644666Y-35266381D01*
X142073238Y-36266381D01*
X141073238Y-35266381D02*
X140977999Y-35266381D01*
X140882761Y-35314000D01*
X140835142Y-35361619D01*
X140787523Y-35456857D01*
X140739904Y-35647333D01*
X140739904Y-35885429D01*
X140787523Y-36075905D01*
X140835142Y-36171143D01*
X140882761Y-36218762D01*
X140977999Y-36266381D01*
X141073238Y-36266381D01*
X141168476Y-36218762D01*
X141216095Y-36171143D01*
X141263714Y-36075905D01*
X141311333Y-35885429D01*
X141311333Y-35647333D01*
X141263714Y-35456857D01*
X141216095Y-35361619D01*
X141168476Y-35314000D01*
X141073238Y-35266381D01*
X139739904Y-36266381D02*
X140073238Y-35790190D01*
X140311333Y-36266381D02*
X140311333Y-35266381D01*
X139930380Y-35266381D01*
X139835142Y-35314000D01*
X139787523Y-35361619D01*
X139739904Y-35456857D01*
X139739904Y-35599714D01*
X139787523Y-35694952D01*
X139835142Y-35742571D01*
X139930380Y-35790190D01*
X140311333Y-35790190D01*
D12*
X141799428Y-36040190D02*
X141966095Y-35802095D01*
X142085142Y-36040190D02*
X142085142Y-35540190D01*
X141894666Y-35540190D01*
X141847047Y-35564000D01*
X141823238Y-35587810D01*
X141799428Y-35635429D01*
X141799428Y-35706857D01*
X141823238Y-35754476D01*
X141847047Y-35778286D01*
X141894666Y-35802095D01*
X142085142Y-35802095D01*
X141608952Y-35587810D02*
X141585142Y-35564000D01*
X141537523Y-35540190D01*
X141418476Y-35540190D01*
X141370857Y-35564000D01*
X141347047Y-35587810D01*
X141323238Y-35635429D01*
X141323238Y-35683048D01*
X141347047Y-35754476D01*
X141632761Y-36040190D01*
X141323238Y-36040190D01*
X141085143Y-36040190D02*
X140989905Y-36040190D01*
X140942286Y-36016381D01*
X140918476Y-35992571D01*
X140870857Y-35921143D01*
X140847048Y-35825905D01*
X140847048Y-35635429D01*
X140870857Y-35587810D01*
X140894667Y-35564000D01*
X140942286Y-35540190D01*
X141037524Y-35540190D01*
X141085143Y-35564000D01*
X141108952Y-35587810D01*
X141132762Y-35635429D01*
X141132762Y-35754476D01*
X141108952Y-35802095D01*
X141085143Y-35825905D01*
X141037524Y-35849714D01*
X140942286Y-35849714D01*
X140894667Y-35825905D01*
X140870857Y-35802095D01*
X140847048Y-35754476D01*
D11*
X148645619Y-38647905D02*
X148598000Y-38695524D01*
X148550381Y-38790762D01*
X148550381Y-39028858D01*
X148598000Y-39124096D01*
X148645619Y-39171715D01*
X148740857Y-39219334D01*
X148836095Y-39219334D01*
X148978952Y-39171715D01*
X149550381Y-38600286D01*
X149550381Y-39219334D01*
X148645619Y-39600286D02*
X148598000Y-39647905D01*
X148550381Y-39743143D01*
X148550381Y-39981239D01*
X148598000Y-40076477D01*
X148645619Y-40124096D01*
X148740857Y-40171715D01*
X148836095Y-40171715D01*
X148978952Y-40124096D01*
X149550381Y-39552667D01*
X149550381Y-40171715D01*
X148550381Y-40790762D02*
X148550381Y-40886001D01*
X148598000Y-40981239D01*
X148645619Y-41028858D01*
X148740857Y-41076477D01*
X148931333Y-41124096D01*
X149169429Y-41124096D01*
X149359905Y-41076477D01*
X149455143Y-41028858D01*
X149502762Y-40981239D01*
X149550381Y-40886001D01*
X149550381Y-40790762D01*
X149502762Y-40695524D01*
X149455143Y-40647905D01*
X149359905Y-40600286D01*
X149169429Y-40552667D01*
X148931333Y-40552667D01*
X148740857Y-40600286D01*
X148645619Y-40647905D01*
X148598000Y-40695524D01*
X148550381Y-40790762D01*
X149550381Y-42124096D02*
X149074190Y-41790762D01*
X149550381Y-41552667D02*
X148550381Y-41552667D01*
X148550381Y-41933620D01*
X148598000Y-42028858D01*
X148645619Y-42076477D01*
X148740857Y-42124096D01*
X148883714Y-42124096D01*
X148978952Y-42076477D01*
X149026571Y-42028858D01*
X149074190Y-41933620D01*
X149074190Y-41552667D01*
D12*
X149324190Y-39810572D02*
X149086095Y-39643905D01*
X149324190Y-39524858D02*
X148824190Y-39524858D01*
X148824190Y-39715334D01*
X148848000Y-39762953D01*
X148871810Y-39786762D01*
X148919429Y-39810572D01*
X148990857Y-39810572D01*
X149038476Y-39786762D01*
X149062286Y-39762953D01*
X149086095Y-39715334D01*
X149086095Y-39524858D01*
X148824190Y-39977239D02*
X148824190Y-40286762D01*
X149014667Y-40120096D01*
X149014667Y-40191524D01*
X149038476Y-40239143D01*
X149062286Y-40262953D01*
X149109905Y-40286762D01*
X149228952Y-40286762D01*
X149276571Y-40262953D01*
X149300381Y-40239143D01*
X149324190Y-40191524D01*
X149324190Y-40048667D01*
X149300381Y-40001048D01*
X149276571Y-39977239D01*
X148824190Y-40596286D02*
X148824190Y-40643905D01*
X148848000Y-40691524D01*
X148871810Y-40715333D01*
X148919429Y-40739143D01*
X149014667Y-40762952D01*
X149133714Y-40762952D01*
X149228952Y-40739143D01*
X149276571Y-40715333D01*
X149300381Y-40691524D01*
X149324190Y-40643905D01*
X149324190Y-40596286D01*
X149300381Y-40548667D01*
X149276571Y-40524857D01*
X149228952Y-40501048D01*
X149133714Y-40477238D01*
X149014667Y-40477238D01*
X148919429Y-40501048D01*
X148871810Y-40524857D01*
X148848000Y-40548667D01*
X148824190Y-40596286D01*
D11*
X154138095Y-41203619D02*
X154090476Y-41156000D01*
X153995238Y-41108381D01*
X153757142Y-41108381D01*
X153661904Y-41156000D01*
X153614285Y-41203619D01*
X153566666Y-41298857D01*
X153566666Y-41394095D01*
X153614285Y-41536952D01*
X154185714Y-42108381D01*
X153566666Y-42108381D01*
X153185714Y-41203619D02*
X153138095Y-41156000D01*
X153042857Y-41108381D01*
X152804761Y-41108381D01*
X152709523Y-41156000D01*
X152661904Y-41203619D01*
X152614285Y-41298857D01*
X152614285Y-41394095D01*
X152661904Y-41536952D01*
X153233333Y-42108381D01*
X152614285Y-42108381D01*
X151995238Y-41108381D02*
X151899999Y-41108381D01*
X151804761Y-41156000D01*
X151757142Y-41203619D01*
X151709523Y-41298857D01*
X151661904Y-41489333D01*
X151661904Y-41727429D01*
X151709523Y-41917905D01*
X151757142Y-42013143D01*
X151804761Y-42060762D01*
X151899999Y-42108381D01*
X151995238Y-42108381D01*
X152090476Y-42060762D01*
X152138095Y-42013143D01*
X152185714Y-41917905D01*
X152233333Y-41727429D01*
X152233333Y-41489333D01*
X152185714Y-41298857D01*
X152138095Y-41203619D01*
X152090476Y-41156000D01*
X151995238Y-41108381D01*
X150661904Y-42108381D02*
X150995238Y-41632190D01*
X151233333Y-42108381D02*
X151233333Y-41108381D01*
X150852380Y-41108381D01*
X150757142Y-41156000D01*
X150709523Y-41203619D01*
X150661904Y-41298857D01*
X150661904Y-41441714D01*
X150709523Y-41536952D01*
X150757142Y-41584571D01*
X150852380Y-41632190D01*
X151233333Y-41632190D01*
D12*
X152975428Y-41882190D02*
X153142095Y-41644095D01*
X153261142Y-41882190D02*
X153261142Y-41382190D01*
X153070666Y-41382190D01*
X153023047Y-41406000D01*
X152999238Y-41429810D01*
X152975428Y-41477429D01*
X152975428Y-41548857D01*
X152999238Y-41596476D01*
X153023047Y-41620286D01*
X153070666Y-41644095D01*
X153261142Y-41644095D01*
X152808761Y-41382190D02*
X152499238Y-41382190D01*
X152665904Y-41572667D01*
X152594476Y-41572667D01*
X152546857Y-41596476D01*
X152523047Y-41620286D01*
X152499238Y-41667905D01*
X152499238Y-41786952D01*
X152523047Y-41834571D01*
X152546857Y-41858381D01*
X152594476Y-41882190D01*
X152737333Y-41882190D01*
X152784952Y-41858381D01*
X152808761Y-41834571D01*
X152023048Y-41882190D02*
X152308762Y-41882190D01*
X152165905Y-41882190D02*
X152165905Y-41382190D01*
X152213524Y-41453619D01*
X152261143Y-41501238D01*
X152308762Y-41525048D01*
D11*
X152899904Y-35853714D02*
X152899904Y-36520381D01*
X153138000Y-35472762D02*
X153376095Y-36187048D01*
X152757047Y-36187048D01*
X152471333Y-35520381D02*
X151804666Y-35520381D01*
X152233238Y-36520381D01*
X151233238Y-35520381D02*
X151137999Y-35520381D01*
X151042761Y-35568000D01*
X150995142Y-35615619D01*
X150947523Y-35710857D01*
X150899904Y-35901333D01*
X150899904Y-36139429D01*
X150947523Y-36329905D01*
X150995142Y-36425143D01*
X151042761Y-36472762D01*
X151137999Y-36520381D01*
X151233238Y-36520381D01*
X151328476Y-36472762D01*
X151376095Y-36425143D01*
X151423714Y-36329905D01*
X151471333Y-36139429D01*
X151471333Y-35901333D01*
X151423714Y-35710857D01*
X151376095Y-35615619D01*
X151328476Y-35568000D01*
X151233238Y-35520381D01*
X149899904Y-36520381D02*
X150233238Y-36044190D01*
X150471333Y-36520381D02*
X150471333Y-35520381D01*
X150090380Y-35520381D01*
X149995142Y-35568000D01*
X149947523Y-35615619D01*
X149899904Y-35710857D01*
X149899904Y-35853714D01*
X149947523Y-35948952D01*
X149995142Y-35996571D01*
X150090380Y-36044190D01*
X150471333Y-36044190D01*
D12*
X151959428Y-36040190D02*
X152126095Y-35802095D01*
X152245142Y-36040190D02*
X152245142Y-35540190D01*
X152054666Y-35540190D01*
X152007047Y-35564000D01*
X151983238Y-35587810D01*
X151959428Y-35635429D01*
X151959428Y-35706857D01*
X151983238Y-35754476D01*
X152007047Y-35778286D01*
X152054666Y-35802095D01*
X152245142Y-35802095D01*
X151792761Y-35540190D02*
X151483238Y-35540190D01*
X151649904Y-35730667D01*
X151578476Y-35730667D01*
X151530857Y-35754476D01*
X151507047Y-35778286D01*
X151483238Y-35825905D01*
X151483238Y-35944952D01*
X151507047Y-35992571D01*
X151530857Y-36016381D01*
X151578476Y-36040190D01*
X151721333Y-36040190D01*
X151768952Y-36016381D01*
X151792761Y-35992571D01*
X151292762Y-35587810D02*
X151268952Y-35564000D01*
X151221333Y-35540190D01*
X151102286Y-35540190D01*
X151054667Y-35564000D01*
X151030857Y-35587810D01*
X151007048Y-35635429D01*
X151007048Y-35683048D01*
X151030857Y-35754476D01*
X151316571Y-36040190D01*
X151007048Y-36040190D01*
D11*
X158551619Y-38393905D02*
X158504000Y-38441524D01*
X158456381Y-38536762D01*
X158456381Y-38774858D01*
X158504000Y-38870096D01*
X158551619Y-38917715D01*
X158646857Y-38965334D01*
X158742095Y-38965334D01*
X158884952Y-38917715D01*
X159456381Y-38346286D01*
X159456381Y-38965334D01*
X158551619Y-39346286D02*
X158504000Y-39393905D01*
X158456381Y-39489143D01*
X158456381Y-39727239D01*
X158504000Y-39822477D01*
X158551619Y-39870096D01*
X158646857Y-39917715D01*
X158742095Y-39917715D01*
X158884952Y-39870096D01*
X159456381Y-39298667D01*
X159456381Y-39917715D01*
X158456381Y-40536762D02*
X158456381Y-40632001D01*
X158504000Y-40727239D01*
X158551619Y-40774858D01*
X158646857Y-40822477D01*
X158837333Y-40870096D01*
X159075429Y-40870096D01*
X159265905Y-40822477D01*
X159361143Y-40774858D01*
X159408762Y-40727239D01*
X159456381Y-40632001D01*
X159456381Y-40536762D01*
X159408762Y-40441524D01*
X159361143Y-40393905D01*
X159265905Y-40346286D01*
X159075429Y-40298667D01*
X158837333Y-40298667D01*
X158646857Y-40346286D01*
X158551619Y-40393905D01*
X158504000Y-40441524D01*
X158456381Y-40536762D01*
X159456381Y-41870096D02*
X158980190Y-41536762D01*
X159456381Y-41298667D02*
X158456381Y-41298667D01*
X158456381Y-41679620D01*
X158504000Y-41774858D01*
X158551619Y-41822477D01*
X158646857Y-41870096D01*
X158789714Y-41870096D01*
X158884952Y-41822477D01*
X158932571Y-41774858D01*
X158980190Y-41679620D01*
X158980190Y-41298667D01*
D12*
X159230190Y-39810572D02*
X158992095Y-39643905D01*
X159230190Y-39524858D02*
X158730190Y-39524858D01*
X158730190Y-39715334D01*
X158754000Y-39762953D01*
X158777810Y-39786762D01*
X158825429Y-39810572D01*
X158896857Y-39810572D01*
X158944476Y-39786762D01*
X158968286Y-39762953D01*
X158992095Y-39715334D01*
X158992095Y-39524858D01*
X158730190Y-39977239D02*
X158730190Y-40286762D01*
X158920667Y-40120096D01*
X158920667Y-40191524D01*
X158944476Y-40239143D01*
X158968286Y-40262953D01*
X159015905Y-40286762D01*
X159134952Y-40286762D01*
X159182571Y-40262953D01*
X159206381Y-40239143D01*
X159230190Y-40191524D01*
X159230190Y-40048667D01*
X159206381Y-40001048D01*
X159182571Y-39977239D01*
X158730190Y-40453429D02*
X158730190Y-40762952D01*
X158920667Y-40596286D01*
X158920667Y-40667714D01*
X158944476Y-40715333D01*
X158968286Y-40739143D01*
X159015905Y-40762952D01*
X159134952Y-40762952D01*
X159182571Y-40739143D01*
X159206381Y-40715333D01*
X159230190Y-40667714D01*
X159230190Y-40524857D01*
X159206381Y-40477238D01*
X159182571Y-40453429D01*
D11*
X164298095Y-41203619D02*
X164250476Y-41156000D01*
X164155238Y-41108381D01*
X163917142Y-41108381D01*
X163821904Y-41156000D01*
X163774285Y-41203619D01*
X163726666Y-41298857D01*
X163726666Y-41394095D01*
X163774285Y-41536952D01*
X164345714Y-42108381D01*
X163726666Y-42108381D01*
X163345714Y-41203619D02*
X163298095Y-41156000D01*
X163202857Y-41108381D01*
X162964761Y-41108381D01*
X162869523Y-41156000D01*
X162821904Y-41203619D01*
X162774285Y-41298857D01*
X162774285Y-41394095D01*
X162821904Y-41536952D01*
X163393333Y-42108381D01*
X162774285Y-42108381D01*
X162155238Y-41108381D02*
X162059999Y-41108381D01*
X161964761Y-41156000D01*
X161917142Y-41203619D01*
X161869523Y-41298857D01*
X161821904Y-41489333D01*
X161821904Y-41727429D01*
X161869523Y-41917905D01*
X161917142Y-42013143D01*
X161964761Y-42060762D01*
X162059999Y-42108381D01*
X162155238Y-42108381D01*
X162250476Y-42060762D01*
X162298095Y-42013143D01*
X162345714Y-41917905D01*
X162393333Y-41727429D01*
X162393333Y-41489333D01*
X162345714Y-41298857D01*
X162298095Y-41203619D01*
X162250476Y-41156000D01*
X162155238Y-41108381D01*
X160821904Y-42108381D02*
X161155238Y-41632190D01*
X161393333Y-42108381D02*
X161393333Y-41108381D01*
X161012380Y-41108381D01*
X160917142Y-41156000D01*
X160869523Y-41203619D01*
X160821904Y-41298857D01*
X160821904Y-41441714D01*
X160869523Y-41536952D01*
X160917142Y-41584571D01*
X161012380Y-41632190D01*
X161393333Y-41632190D01*
D12*
X162881428Y-41882190D02*
X163048095Y-41644095D01*
X163167142Y-41882190D02*
X163167142Y-41382190D01*
X162976666Y-41382190D01*
X162929047Y-41406000D01*
X162905238Y-41429810D01*
X162881428Y-41477429D01*
X162881428Y-41548857D01*
X162905238Y-41596476D01*
X162929047Y-41620286D01*
X162976666Y-41644095D01*
X163167142Y-41644095D01*
X162714761Y-41382190D02*
X162405238Y-41382190D01*
X162571904Y-41572667D01*
X162500476Y-41572667D01*
X162452857Y-41596476D01*
X162429047Y-41620286D01*
X162405238Y-41667905D01*
X162405238Y-41786952D01*
X162429047Y-41834571D01*
X162452857Y-41858381D01*
X162500476Y-41882190D01*
X162643333Y-41882190D01*
X162690952Y-41858381D01*
X162714761Y-41834571D01*
X161976667Y-41548857D02*
X161976667Y-41882190D01*
X162095714Y-41358381D02*
X162214762Y-41715524D01*
X161905238Y-41715524D01*
D11*
X162805904Y-35599714D02*
X162805904Y-36266381D01*
X163044000Y-35218762D02*
X163282095Y-35933048D01*
X162663047Y-35933048D01*
X162377333Y-35266381D02*
X161710666Y-35266381D01*
X162139238Y-36266381D01*
X161139238Y-35266381D02*
X161043999Y-35266381D01*
X160948761Y-35314000D01*
X160901142Y-35361619D01*
X160853523Y-35456857D01*
X160805904Y-35647333D01*
X160805904Y-35885429D01*
X160853523Y-36075905D01*
X160901142Y-36171143D01*
X160948761Y-36218762D01*
X161043999Y-36266381D01*
X161139238Y-36266381D01*
X161234476Y-36218762D01*
X161282095Y-36171143D01*
X161329714Y-36075905D01*
X161377333Y-35885429D01*
X161377333Y-35647333D01*
X161329714Y-35456857D01*
X161282095Y-35361619D01*
X161234476Y-35314000D01*
X161139238Y-35266381D01*
X159805904Y-36266381D02*
X160139238Y-35790190D01*
X160377333Y-36266381D02*
X160377333Y-35266381D01*
X159996380Y-35266381D01*
X159901142Y-35314000D01*
X159853523Y-35361619D01*
X159805904Y-35456857D01*
X159805904Y-35599714D01*
X159853523Y-35694952D01*
X159901142Y-35742571D01*
X159996380Y-35790190D01*
X160377333Y-35790190D01*
D12*
X161865428Y-36040190D02*
X162032095Y-35802095D01*
X162151142Y-36040190D02*
X162151142Y-35540190D01*
X161960666Y-35540190D01*
X161913047Y-35564000D01*
X161889238Y-35587810D01*
X161865428Y-35635429D01*
X161865428Y-35706857D01*
X161889238Y-35754476D01*
X161913047Y-35778286D01*
X161960666Y-35802095D01*
X162151142Y-35802095D01*
X161698761Y-35540190D02*
X161389238Y-35540190D01*
X161555904Y-35730667D01*
X161484476Y-35730667D01*
X161436857Y-35754476D01*
X161413047Y-35778286D01*
X161389238Y-35825905D01*
X161389238Y-35944952D01*
X161413047Y-35992571D01*
X161436857Y-36016381D01*
X161484476Y-36040190D01*
X161627333Y-36040190D01*
X161674952Y-36016381D01*
X161698761Y-35992571D01*
X160936857Y-35540190D02*
X161174952Y-35540190D01*
X161198762Y-35778286D01*
X161174952Y-35754476D01*
X161127333Y-35730667D01*
X161008286Y-35730667D01*
X160960667Y-35754476D01*
X160936857Y-35778286D01*
X160913048Y-35825905D01*
X160913048Y-35944952D01*
X160936857Y-35992571D01*
X160960667Y-36016381D01*
X161008286Y-36040190D01*
X161127333Y-36040190D01*
X161174952Y-36016381D01*
X161198762Y-35992571D01*
D11*
X168457619Y-38393905D02*
X168410000Y-38441524D01*
X168362381Y-38536762D01*
X168362381Y-38774858D01*
X168410000Y-38870096D01*
X168457619Y-38917715D01*
X168552857Y-38965334D01*
X168648095Y-38965334D01*
X168790952Y-38917715D01*
X169362381Y-38346286D01*
X169362381Y-38965334D01*
X168457619Y-39346286D02*
X168410000Y-39393905D01*
X168362381Y-39489143D01*
X168362381Y-39727239D01*
X168410000Y-39822477D01*
X168457619Y-39870096D01*
X168552857Y-39917715D01*
X168648095Y-39917715D01*
X168790952Y-39870096D01*
X169362381Y-39298667D01*
X169362381Y-39917715D01*
X168362381Y-40536762D02*
X168362381Y-40632001D01*
X168410000Y-40727239D01*
X168457619Y-40774858D01*
X168552857Y-40822477D01*
X168743333Y-40870096D01*
X168981429Y-40870096D01*
X169171905Y-40822477D01*
X169267143Y-40774858D01*
X169314762Y-40727239D01*
X169362381Y-40632001D01*
X169362381Y-40536762D01*
X169314762Y-40441524D01*
X169267143Y-40393905D01*
X169171905Y-40346286D01*
X168981429Y-40298667D01*
X168743333Y-40298667D01*
X168552857Y-40346286D01*
X168457619Y-40393905D01*
X168410000Y-40441524D01*
X168362381Y-40536762D01*
X169362381Y-41870096D02*
X168886190Y-41536762D01*
X169362381Y-41298667D02*
X168362381Y-41298667D01*
X168362381Y-41679620D01*
X168410000Y-41774858D01*
X168457619Y-41822477D01*
X168552857Y-41870096D01*
X168695714Y-41870096D01*
X168790952Y-41822477D01*
X168838571Y-41774858D01*
X168886190Y-41679620D01*
X168886190Y-41298667D01*
D12*
X169136190Y-39810572D02*
X168898095Y-39643905D01*
X169136190Y-39524858D02*
X168636190Y-39524858D01*
X168636190Y-39715334D01*
X168660000Y-39762953D01*
X168683810Y-39786762D01*
X168731429Y-39810572D01*
X168802857Y-39810572D01*
X168850476Y-39786762D01*
X168874286Y-39762953D01*
X168898095Y-39715334D01*
X168898095Y-39524858D01*
X168636190Y-39977239D02*
X168636190Y-40286762D01*
X168826667Y-40120096D01*
X168826667Y-40191524D01*
X168850476Y-40239143D01*
X168874286Y-40262953D01*
X168921905Y-40286762D01*
X169040952Y-40286762D01*
X169088571Y-40262953D01*
X169112381Y-40239143D01*
X169136190Y-40191524D01*
X169136190Y-40048667D01*
X169112381Y-40001048D01*
X169088571Y-39977239D01*
X168636190Y-40715333D02*
X168636190Y-40620095D01*
X168660000Y-40572476D01*
X168683810Y-40548667D01*
X168755238Y-40501048D01*
X168850476Y-40477238D01*
X169040952Y-40477238D01*
X169088571Y-40501048D01*
X169112381Y-40524857D01*
X169136190Y-40572476D01*
X169136190Y-40667714D01*
X169112381Y-40715333D01*
X169088571Y-40739143D01*
X169040952Y-40762952D01*
X168921905Y-40762952D01*
X168874286Y-40739143D01*
X168850476Y-40715333D01*
X168826667Y-40667714D01*
X168826667Y-40572476D01*
X168850476Y-40524857D01*
X168874286Y-40501048D01*
X168921905Y-40477238D01*
D11*
X174204095Y-41203619D02*
X174156476Y-41156000D01*
X174061238Y-41108381D01*
X173823142Y-41108381D01*
X173727904Y-41156000D01*
X173680285Y-41203619D01*
X173632666Y-41298857D01*
X173632666Y-41394095D01*
X173680285Y-41536952D01*
X174251714Y-42108381D01*
X173632666Y-42108381D01*
X173251714Y-41203619D02*
X173204095Y-41156000D01*
X173108857Y-41108381D01*
X172870761Y-41108381D01*
X172775523Y-41156000D01*
X172727904Y-41203619D01*
X172680285Y-41298857D01*
X172680285Y-41394095D01*
X172727904Y-41536952D01*
X173299333Y-42108381D01*
X172680285Y-42108381D01*
X172061238Y-41108381D02*
X171965999Y-41108381D01*
X171870761Y-41156000D01*
X171823142Y-41203619D01*
X171775523Y-41298857D01*
X171727904Y-41489333D01*
X171727904Y-41727429D01*
X171775523Y-41917905D01*
X171823142Y-42013143D01*
X171870761Y-42060762D01*
X171965999Y-42108381D01*
X172061238Y-42108381D01*
X172156476Y-42060762D01*
X172204095Y-42013143D01*
X172251714Y-41917905D01*
X172299333Y-41727429D01*
X172299333Y-41489333D01*
X172251714Y-41298857D01*
X172204095Y-41203619D01*
X172156476Y-41156000D01*
X172061238Y-41108381D01*
X170727904Y-42108381D02*
X171061238Y-41632190D01*
X171299333Y-42108381D02*
X171299333Y-41108381D01*
X170918380Y-41108381D01*
X170823142Y-41156000D01*
X170775523Y-41203619D01*
X170727904Y-41298857D01*
X170727904Y-41441714D01*
X170775523Y-41536952D01*
X170823142Y-41584571D01*
X170918380Y-41632190D01*
X171299333Y-41632190D01*
D12*
X172787428Y-41882190D02*
X172954095Y-41644095D01*
X173073142Y-41882190D02*
X173073142Y-41382190D01*
X172882666Y-41382190D01*
X172835047Y-41406000D01*
X172811238Y-41429810D01*
X172787428Y-41477429D01*
X172787428Y-41548857D01*
X172811238Y-41596476D01*
X172835047Y-41620286D01*
X172882666Y-41644095D01*
X173073142Y-41644095D01*
X172620761Y-41382190D02*
X172311238Y-41382190D01*
X172477904Y-41572667D01*
X172406476Y-41572667D01*
X172358857Y-41596476D01*
X172335047Y-41620286D01*
X172311238Y-41667905D01*
X172311238Y-41786952D01*
X172335047Y-41834571D01*
X172358857Y-41858381D01*
X172406476Y-41882190D01*
X172549333Y-41882190D01*
X172596952Y-41858381D01*
X172620761Y-41834571D01*
X172144571Y-41382190D02*
X171811238Y-41382190D01*
X172025524Y-41882190D01*
D11*
X172711904Y-35853714D02*
X172711904Y-36520381D01*
X172950000Y-35472762D02*
X173188095Y-36187048D01*
X172569047Y-36187048D01*
X172283333Y-35520381D02*
X171616666Y-35520381D01*
X172045238Y-36520381D01*
X171045238Y-35520381D02*
X170949999Y-35520381D01*
X170854761Y-35568000D01*
X170807142Y-35615619D01*
X170759523Y-35710857D01*
X170711904Y-35901333D01*
X170711904Y-36139429D01*
X170759523Y-36329905D01*
X170807142Y-36425143D01*
X170854761Y-36472762D01*
X170949999Y-36520381D01*
X171045238Y-36520381D01*
X171140476Y-36472762D01*
X171188095Y-36425143D01*
X171235714Y-36329905D01*
X171283333Y-36139429D01*
X171283333Y-35901333D01*
X171235714Y-35710857D01*
X171188095Y-35615619D01*
X171140476Y-35568000D01*
X171045238Y-35520381D01*
X169711904Y-36520381D02*
X170045238Y-36044190D01*
X170283333Y-36520381D02*
X170283333Y-35520381D01*
X169902380Y-35520381D01*
X169807142Y-35568000D01*
X169759523Y-35615619D01*
X169711904Y-35710857D01*
X169711904Y-35853714D01*
X169759523Y-35948952D01*
X169807142Y-35996571D01*
X169902380Y-36044190D01*
X170283333Y-36044190D01*
D12*
X171771428Y-36040190D02*
X171938095Y-35802095D01*
X172057142Y-36040190D02*
X172057142Y-35540190D01*
X171866666Y-35540190D01*
X171819047Y-35564000D01*
X171795238Y-35587810D01*
X171771428Y-35635429D01*
X171771428Y-35706857D01*
X171795238Y-35754476D01*
X171819047Y-35778286D01*
X171866666Y-35802095D01*
X172057142Y-35802095D01*
X171604761Y-35540190D02*
X171295238Y-35540190D01*
X171461904Y-35730667D01*
X171390476Y-35730667D01*
X171342857Y-35754476D01*
X171319047Y-35778286D01*
X171295238Y-35825905D01*
X171295238Y-35944952D01*
X171319047Y-35992571D01*
X171342857Y-36016381D01*
X171390476Y-36040190D01*
X171533333Y-36040190D01*
X171580952Y-36016381D01*
X171604761Y-35992571D01*
X171009524Y-35754476D02*
X171057143Y-35730667D01*
X171080952Y-35706857D01*
X171104762Y-35659238D01*
X171104762Y-35635429D01*
X171080952Y-35587810D01*
X171057143Y-35564000D01*
X171009524Y-35540190D01*
X170914286Y-35540190D01*
X170866667Y-35564000D01*
X170842857Y-35587810D01*
X170819048Y-35635429D01*
X170819048Y-35659238D01*
X170842857Y-35706857D01*
X170866667Y-35730667D01*
X170914286Y-35754476D01*
X171009524Y-35754476D01*
X171057143Y-35778286D01*
X171080952Y-35802095D01*
X171104762Y-35849714D01*
X171104762Y-35944952D01*
X171080952Y-35992571D01*
X171057143Y-36016381D01*
X171009524Y-36040190D01*
X170914286Y-36040190D01*
X170866667Y-36016381D01*
X170842857Y-35992571D01*
X170819048Y-35944952D01*
X170819048Y-35849714D01*
X170842857Y-35802095D01*
X170866667Y-35778286D01*
X170914286Y-35754476D01*
D11*
X178363619Y-38139905D02*
X178316000Y-38187524D01*
X178268381Y-38282762D01*
X178268381Y-38520858D01*
X178316000Y-38616096D01*
X178363619Y-38663715D01*
X178458857Y-38711334D01*
X178554095Y-38711334D01*
X178696952Y-38663715D01*
X179268381Y-38092286D01*
X179268381Y-38711334D01*
X178363619Y-39092286D02*
X178316000Y-39139905D01*
X178268381Y-39235143D01*
X178268381Y-39473239D01*
X178316000Y-39568477D01*
X178363619Y-39616096D01*
X178458857Y-39663715D01*
X178554095Y-39663715D01*
X178696952Y-39616096D01*
X179268381Y-39044667D01*
X179268381Y-39663715D01*
X178268381Y-40282762D02*
X178268381Y-40378001D01*
X178316000Y-40473239D01*
X178363619Y-40520858D01*
X178458857Y-40568477D01*
X178649333Y-40616096D01*
X178887429Y-40616096D01*
X179077905Y-40568477D01*
X179173143Y-40520858D01*
X179220762Y-40473239D01*
X179268381Y-40378001D01*
X179268381Y-40282762D01*
X179220762Y-40187524D01*
X179173143Y-40139905D01*
X179077905Y-40092286D01*
X178887429Y-40044667D01*
X178649333Y-40044667D01*
X178458857Y-40092286D01*
X178363619Y-40139905D01*
X178316000Y-40187524D01*
X178268381Y-40282762D01*
X179268381Y-41616096D02*
X178792190Y-41282762D01*
X179268381Y-41044667D02*
X178268381Y-41044667D01*
X178268381Y-41425620D01*
X178316000Y-41520858D01*
X178363619Y-41568477D01*
X178458857Y-41616096D01*
X178601714Y-41616096D01*
X178696952Y-41568477D01*
X178744571Y-41520858D01*
X178792190Y-41425620D01*
X178792190Y-41044667D01*
D12*
X179042190Y-39810572D02*
X178804095Y-39643905D01*
X179042190Y-39524858D02*
X178542190Y-39524858D01*
X178542190Y-39715334D01*
X178566000Y-39762953D01*
X178589810Y-39786762D01*
X178637429Y-39810572D01*
X178708857Y-39810572D01*
X178756476Y-39786762D01*
X178780286Y-39762953D01*
X178804095Y-39715334D01*
X178804095Y-39524858D01*
X178542190Y-39977239D02*
X178542190Y-40286762D01*
X178732667Y-40120096D01*
X178732667Y-40191524D01*
X178756476Y-40239143D01*
X178780286Y-40262953D01*
X178827905Y-40286762D01*
X178946952Y-40286762D01*
X178994571Y-40262953D01*
X179018381Y-40239143D01*
X179042190Y-40191524D01*
X179042190Y-40048667D01*
X179018381Y-40001048D01*
X178994571Y-39977239D01*
X179042190Y-40524857D02*
X179042190Y-40620095D01*
X179018381Y-40667714D01*
X178994571Y-40691524D01*
X178923143Y-40739143D01*
X178827905Y-40762952D01*
X178637429Y-40762952D01*
X178589810Y-40739143D01*
X178566000Y-40715333D01*
X178542190Y-40667714D01*
X178542190Y-40572476D01*
X178566000Y-40524857D01*
X178589810Y-40501048D01*
X178637429Y-40477238D01*
X178756476Y-40477238D01*
X178804095Y-40501048D01*
X178827905Y-40524857D01*
X178851714Y-40572476D01*
X178851714Y-40667714D01*
X178827905Y-40715333D01*
X178804095Y-40739143D01*
X178756476Y-40762952D01*
D11*
X184364095Y-41203619D02*
X184316476Y-41156000D01*
X184221238Y-41108381D01*
X183983142Y-41108381D01*
X183887904Y-41156000D01*
X183840285Y-41203619D01*
X183792666Y-41298857D01*
X183792666Y-41394095D01*
X183840285Y-41536952D01*
X184411714Y-42108381D01*
X183792666Y-42108381D01*
X183411714Y-41203619D02*
X183364095Y-41156000D01*
X183268857Y-41108381D01*
X183030761Y-41108381D01*
X182935523Y-41156000D01*
X182887904Y-41203619D01*
X182840285Y-41298857D01*
X182840285Y-41394095D01*
X182887904Y-41536952D01*
X183459333Y-42108381D01*
X182840285Y-42108381D01*
X182221238Y-41108381D02*
X182125999Y-41108381D01*
X182030761Y-41156000D01*
X181983142Y-41203619D01*
X181935523Y-41298857D01*
X181887904Y-41489333D01*
X181887904Y-41727429D01*
X181935523Y-41917905D01*
X181983142Y-42013143D01*
X182030761Y-42060762D01*
X182125999Y-42108381D01*
X182221238Y-42108381D01*
X182316476Y-42060762D01*
X182364095Y-42013143D01*
X182411714Y-41917905D01*
X182459333Y-41727429D01*
X182459333Y-41489333D01*
X182411714Y-41298857D01*
X182364095Y-41203619D01*
X182316476Y-41156000D01*
X182221238Y-41108381D01*
X180887904Y-42108381D02*
X181221238Y-41632190D01*
X181459333Y-42108381D02*
X181459333Y-41108381D01*
X181078380Y-41108381D01*
X180983142Y-41156000D01*
X180935523Y-41203619D01*
X180887904Y-41298857D01*
X180887904Y-41441714D01*
X180935523Y-41536952D01*
X180983142Y-41584571D01*
X181078380Y-41632190D01*
X181459333Y-41632190D01*
D12*
X182693428Y-41882190D02*
X182860095Y-41644095D01*
X182979142Y-41882190D02*
X182979142Y-41382190D01*
X182788666Y-41382190D01*
X182741047Y-41406000D01*
X182717238Y-41429810D01*
X182693428Y-41477429D01*
X182693428Y-41548857D01*
X182717238Y-41596476D01*
X182741047Y-41620286D01*
X182788666Y-41644095D01*
X182979142Y-41644095D01*
X182264857Y-41548857D02*
X182264857Y-41882190D01*
X182383904Y-41358381D02*
X182502952Y-41715524D01*
X182193428Y-41715524D01*
X181907714Y-41382190D02*
X181860095Y-41382190D01*
X181812476Y-41406000D01*
X181788667Y-41429810D01*
X181764857Y-41477429D01*
X181741048Y-41572667D01*
X181741048Y-41691714D01*
X181764857Y-41786952D01*
X181788667Y-41834571D01*
X181812476Y-41858381D01*
X181860095Y-41882190D01*
X181907714Y-41882190D01*
X181955333Y-41858381D01*
X181979143Y-41834571D01*
X182002952Y-41786952D01*
X182026762Y-41691714D01*
X182026762Y-41572667D01*
X182002952Y-41477429D01*
X181979143Y-41429810D01*
X181955333Y-41406000D01*
X181907714Y-41382190D01*
D11*
X182617904Y-35853714D02*
X182617904Y-36520381D01*
X182856000Y-35472762D02*
X183094095Y-36187048D01*
X182475047Y-36187048D01*
X182189333Y-35520381D02*
X181522666Y-35520381D01*
X181951238Y-36520381D01*
X180951238Y-35520381D02*
X180855999Y-35520381D01*
X180760761Y-35568000D01*
X180713142Y-35615619D01*
X180665523Y-35710857D01*
X180617904Y-35901333D01*
X180617904Y-36139429D01*
X180665523Y-36329905D01*
X180713142Y-36425143D01*
X180760761Y-36472762D01*
X180855999Y-36520381D01*
X180951238Y-36520381D01*
X181046476Y-36472762D01*
X181094095Y-36425143D01*
X181141714Y-36329905D01*
X181189333Y-36139429D01*
X181189333Y-35901333D01*
X181141714Y-35710857D01*
X181094095Y-35615619D01*
X181046476Y-35568000D01*
X180951238Y-35520381D01*
X179617904Y-36520381D02*
X179951238Y-36044190D01*
X180189333Y-36520381D02*
X180189333Y-35520381D01*
X179808380Y-35520381D01*
X179713142Y-35568000D01*
X179665523Y-35615619D01*
X179617904Y-35710857D01*
X179617904Y-35853714D01*
X179665523Y-35948952D01*
X179713142Y-35996571D01*
X179808380Y-36044190D01*
X180189333Y-36044190D01*
D12*
X181677428Y-36040190D02*
X181844095Y-35802095D01*
X181963142Y-36040190D02*
X181963142Y-35540190D01*
X181772666Y-35540190D01*
X181725047Y-35564000D01*
X181701238Y-35587810D01*
X181677428Y-35635429D01*
X181677428Y-35706857D01*
X181701238Y-35754476D01*
X181725047Y-35778286D01*
X181772666Y-35802095D01*
X181963142Y-35802095D01*
X181248857Y-35706857D02*
X181248857Y-36040190D01*
X181367904Y-35516381D02*
X181486952Y-35873524D01*
X181177428Y-35873524D01*
X180725048Y-36040190D02*
X181010762Y-36040190D01*
X180867905Y-36040190D02*
X180867905Y-35540190D01*
X180915524Y-35611619D01*
X180963143Y-35659238D01*
X181010762Y-35683048D01*
D11*
X188269619Y-38647905D02*
X188222000Y-38695524D01*
X188174381Y-38790762D01*
X188174381Y-39028858D01*
X188222000Y-39124096D01*
X188269619Y-39171715D01*
X188364857Y-39219334D01*
X188460095Y-39219334D01*
X188602952Y-39171715D01*
X189174381Y-38600286D01*
X189174381Y-39219334D01*
X188269619Y-39600286D02*
X188222000Y-39647905D01*
X188174381Y-39743143D01*
X188174381Y-39981239D01*
X188222000Y-40076477D01*
X188269619Y-40124096D01*
X188364857Y-40171715D01*
X188460095Y-40171715D01*
X188602952Y-40124096D01*
X189174381Y-39552667D01*
X189174381Y-40171715D01*
X188174381Y-40790762D02*
X188174381Y-40886001D01*
X188222000Y-40981239D01*
X188269619Y-41028858D01*
X188364857Y-41076477D01*
X188555333Y-41124096D01*
X188793429Y-41124096D01*
X188983905Y-41076477D01*
X189079143Y-41028858D01*
X189126762Y-40981239D01*
X189174381Y-40886001D01*
X189174381Y-40790762D01*
X189126762Y-40695524D01*
X189079143Y-40647905D01*
X188983905Y-40600286D01*
X188793429Y-40552667D01*
X188555333Y-40552667D01*
X188364857Y-40600286D01*
X188269619Y-40647905D01*
X188222000Y-40695524D01*
X188174381Y-40790762D01*
X189174381Y-42124096D02*
X188698190Y-41790762D01*
X189174381Y-41552667D02*
X188174381Y-41552667D01*
X188174381Y-41933620D01*
X188222000Y-42028858D01*
X188269619Y-42076477D01*
X188364857Y-42124096D01*
X188507714Y-42124096D01*
X188602952Y-42076477D01*
X188650571Y-42028858D01*
X188698190Y-41933620D01*
X188698190Y-41552667D01*
D12*
X188948190Y-39810572D02*
X188710095Y-39643905D01*
X188948190Y-39524858D02*
X188448190Y-39524858D01*
X188448190Y-39715334D01*
X188472000Y-39762953D01*
X188495810Y-39786762D01*
X188543429Y-39810572D01*
X188614857Y-39810572D01*
X188662476Y-39786762D01*
X188686286Y-39762953D01*
X188710095Y-39715334D01*
X188710095Y-39524858D01*
X188614857Y-40239143D02*
X188948190Y-40239143D01*
X188424381Y-40120096D02*
X188781524Y-40001048D01*
X188781524Y-40310572D01*
X188495810Y-40477238D02*
X188472000Y-40501048D01*
X188448190Y-40548667D01*
X188448190Y-40667714D01*
X188472000Y-40715333D01*
X188495810Y-40739143D01*
X188543429Y-40762952D01*
X188591048Y-40762952D01*
X188662476Y-40739143D01*
X188948190Y-40453429D01*
X188948190Y-40762952D01*
D11*
X194016095Y-41203619D02*
X193968476Y-41156000D01*
X193873238Y-41108381D01*
X193635142Y-41108381D01*
X193539904Y-41156000D01*
X193492285Y-41203619D01*
X193444666Y-41298857D01*
X193444666Y-41394095D01*
X193492285Y-41536952D01*
X194063714Y-42108381D01*
X193444666Y-42108381D01*
X193063714Y-41203619D02*
X193016095Y-41156000D01*
X192920857Y-41108381D01*
X192682761Y-41108381D01*
X192587523Y-41156000D01*
X192539904Y-41203619D01*
X192492285Y-41298857D01*
X192492285Y-41394095D01*
X192539904Y-41536952D01*
X193111333Y-42108381D01*
X192492285Y-42108381D01*
X191873238Y-41108381D02*
X191777999Y-41108381D01*
X191682761Y-41156000D01*
X191635142Y-41203619D01*
X191587523Y-41298857D01*
X191539904Y-41489333D01*
X191539904Y-41727429D01*
X191587523Y-41917905D01*
X191635142Y-42013143D01*
X191682761Y-42060762D01*
X191777999Y-42108381D01*
X191873238Y-42108381D01*
X191968476Y-42060762D01*
X192016095Y-42013143D01*
X192063714Y-41917905D01*
X192111333Y-41727429D01*
X192111333Y-41489333D01*
X192063714Y-41298857D01*
X192016095Y-41203619D01*
X191968476Y-41156000D01*
X191873238Y-41108381D01*
X190539904Y-42108381D02*
X190873238Y-41632190D01*
X191111333Y-42108381D02*
X191111333Y-41108381D01*
X190730380Y-41108381D01*
X190635142Y-41156000D01*
X190587523Y-41203619D01*
X190539904Y-41298857D01*
X190539904Y-41441714D01*
X190587523Y-41536952D01*
X190635142Y-41584571D01*
X190730380Y-41632190D01*
X191111333Y-41632190D01*
D12*
X192599428Y-41882190D02*
X192766095Y-41644095D01*
X192885142Y-41882190D02*
X192885142Y-41382190D01*
X192694666Y-41382190D01*
X192647047Y-41406000D01*
X192623238Y-41429810D01*
X192599428Y-41477429D01*
X192599428Y-41548857D01*
X192623238Y-41596476D01*
X192647047Y-41620286D01*
X192694666Y-41644095D01*
X192885142Y-41644095D01*
X192170857Y-41548857D02*
X192170857Y-41882190D01*
X192289904Y-41358381D02*
X192408952Y-41715524D01*
X192099428Y-41715524D01*
X191956571Y-41382190D02*
X191647048Y-41382190D01*
X191813714Y-41572667D01*
X191742286Y-41572667D01*
X191694667Y-41596476D01*
X191670857Y-41620286D01*
X191647048Y-41667905D01*
X191647048Y-41786952D01*
X191670857Y-41834571D01*
X191694667Y-41858381D01*
X191742286Y-41882190D01*
X191885143Y-41882190D01*
X191932762Y-41858381D01*
X191956571Y-41834571D01*
D11*
X192523904Y-35853714D02*
X192523904Y-36520381D01*
X192762000Y-35472762D02*
X193000095Y-36187048D01*
X192381047Y-36187048D01*
X192095333Y-35520381D02*
X191428666Y-35520381D01*
X191857238Y-36520381D01*
X190857238Y-35520381D02*
X190761999Y-35520381D01*
X190666761Y-35568000D01*
X190619142Y-35615619D01*
X190571523Y-35710857D01*
X190523904Y-35901333D01*
X190523904Y-36139429D01*
X190571523Y-36329905D01*
X190619142Y-36425143D01*
X190666761Y-36472762D01*
X190761999Y-36520381D01*
X190857238Y-36520381D01*
X190952476Y-36472762D01*
X191000095Y-36425143D01*
X191047714Y-36329905D01*
X191095333Y-36139429D01*
X191095333Y-35901333D01*
X191047714Y-35710857D01*
X191000095Y-35615619D01*
X190952476Y-35568000D01*
X190857238Y-35520381D01*
X189523904Y-36520381D02*
X189857238Y-36044190D01*
X190095333Y-36520381D02*
X190095333Y-35520381D01*
X189714380Y-35520381D01*
X189619142Y-35568000D01*
X189571523Y-35615619D01*
X189523904Y-35710857D01*
X189523904Y-35853714D01*
X189571523Y-35948952D01*
X189619142Y-35996571D01*
X189714380Y-36044190D01*
X190095333Y-36044190D01*
D12*
X191583428Y-36040190D02*
X191750095Y-35802095D01*
X191869142Y-36040190D02*
X191869142Y-35540190D01*
X191678666Y-35540190D01*
X191631047Y-35564000D01*
X191607238Y-35587810D01*
X191583428Y-35635429D01*
X191583428Y-35706857D01*
X191607238Y-35754476D01*
X191631047Y-35778286D01*
X191678666Y-35802095D01*
X191869142Y-35802095D01*
X191154857Y-35706857D02*
X191154857Y-36040190D01*
X191273904Y-35516381D02*
X191392952Y-35873524D01*
X191083428Y-35873524D01*
X190678667Y-35706857D02*
X190678667Y-36040190D01*
X190797714Y-35516381D02*
X190916762Y-35873524D01*
X190607238Y-35873524D01*
D11*
X203747714Y-80780096D02*
X204414381Y-80780096D01*
X203366762Y-80542000D02*
X204081048Y-80303905D01*
X204081048Y-80922953D01*
X203414381Y-81208667D02*
X203414381Y-81875334D01*
X204414381Y-81446762D01*
X203414381Y-82446762D02*
X203414381Y-82542001D01*
X203462000Y-82637239D01*
X203509619Y-82684858D01*
X203604857Y-82732477D01*
X203795333Y-82780096D01*
X204033429Y-82780096D01*
X204223905Y-82732477D01*
X204319143Y-82684858D01*
X204366762Y-82637239D01*
X204414381Y-82542001D01*
X204414381Y-82446762D01*
X204366762Y-82351524D01*
X204319143Y-82303905D01*
X204223905Y-82256286D01*
X204033429Y-82208667D01*
X203795333Y-82208667D01*
X203604857Y-82256286D01*
X203509619Y-82303905D01*
X203462000Y-82351524D01*
X203414381Y-82446762D01*
X204414381Y-83780096D02*
X203938190Y-83446762D01*
X204414381Y-83208667D02*
X203414381Y-83208667D01*
X203414381Y-83589620D01*
X203462000Y-83684858D01*
X203509619Y-83732477D01*
X203604857Y-83780096D01*
X203747714Y-83780096D01*
X203842952Y-83732477D01*
X203890571Y-83684858D01*
X203938190Y-83589620D01*
X203938190Y-83208667D01*
D12*
X201140190Y-81403072D02*
X200902095Y-81236405D01*
X201140190Y-81117358D02*
X200640190Y-81117358D01*
X200640190Y-81307834D01*
X200664000Y-81355453D01*
X200687810Y-81379262D01*
X200735429Y-81403072D01*
X200806857Y-81403072D01*
X200854476Y-81379262D01*
X200878286Y-81355453D01*
X200902095Y-81307834D01*
X200902095Y-81117358D01*
X200806857Y-81831643D02*
X201140190Y-81831643D01*
X200616381Y-81712596D02*
X200973524Y-81593548D01*
X200973524Y-81903072D01*
X200640190Y-82307833D02*
X200640190Y-82212595D01*
X200664000Y-82164976D01*
X200687810Y-82141167D01*
X200759238Y-82093548D01*
X200854476Y-82069738D01*
X201044952Y-82069738D01*
X201092571Y-82093548D01*
X201116381Y-82117357D01*
X201140190Y-82164976D01*
X201140190Y-82260214D01*
X201116381Y-82307833D01*
X201092571Y-82331643D01*
X201044952Y-82355452D01*
X200925905Y-82355452D01*
X200878286Y-82331643D01*
X200854476Y-82307833D01*
X200830667Y-82260214D01*
X200830667Y-82164976D01*
X200854476Y-82117357D01*
X200878286Y-82093548D01*
X200925905Y-82069738D01*
D11*
X202477714Y-80780096D02*
X203144381Y-80780096D01*
X202096762Y-80542000D02*
X202811048Y-80303905D01*
X202811048Y-80922953D01*
X202144381Y-81208667D02*
X202144381Y-81875334D01*
X203144381Y-81446762D01*
X202144381Y-82446762D02*
X202144381Y-82542001D01*
X202192000Y-82637239D01*
X202239619Y-82684858D01*
X202334857Y-82732477D01*
X202525333Y-82780096D01*
X202763429Y-82780096D01*
X202953905Y-82732477D01*
X203049143Y-82684858D01*
X203096762Y-82637239D01*
X203144381Y-82542001D01*
X203144381Y-82446762D01*
X203096762Y-82351524D01*
X203049143Y-82303905D01*
X202953905Y-82256286D01*
X202763429Y-82208667D01*
X202525333Y-82208667D01*
X202334857Y-82256286D01*
X202239619Y-82303905D01*
X202192000Y-82351524D01*
X202144381Y-82446762D01*
X203144381Y-83780096D02*
X202668190Y-83446762D01*
X203144381Y-83208667D02*
X202144381Y-83208667D01*
X202144381Y-83589620D01*
X202192000Y-83684858D01*
X202239619Y-83732477D01*
X202334857Y-83780096D01*
X202477714Y-83780096D01*
X202572952Y-83732477D01*
X202620571Y-83684858D01*
X202668190Y-83589620D01*
X202668190Y-83208667D01*
D12*
X198536690Y-81403072D02*
X198298595Y-81236405D01*
X198536690Y-81117358D02*
X198036690Y-81117358D01*
X198036690Y-81307834D01*
X198060500Y-81355453D01*
X198084310Y-81379262D01*
X198131929Y-81403072D01*
X198203357Y-81403072D01*
X198250976Y-81379262D01*
X198274786Y-81355453D01*
X198298595Y-81307834D01*
X198298595Y-81117358D01*
X198203357Y-81831643D02*
X198536690Y-81831643D01*
X198012881Y-81712596D02*
X198370024Y-81593548D01*
X198370024Y-81903072D01*
X198250976Y-82164976D02*
X198227167Y-82117357D01*
X198203357Y-82093548D01*
X198155738Y-82069738D01*
X198131929Y-82069738D01*
X198084310Y-82093548D01*
X198060500Y-82117357D01*
X198036690Y-82164976D01*
X198036690Y-82260214D01*
X198060500Y-82307833D01*
X198084310Y-82331643D01*
X198131929Y-82355452D01*
X198155738Y-82355452D01*
X198203357Y-82331643D01*
X198227167Y-82307833D01*
X198250976Y-82260214D01*
X198250976Y-82164976D01*
X198274786Y-82117357D01*
X198298595Y-82093548D01*
X198346214Y-82069738D01*
X198441452Y-82069738D01*
X198489071Y-82093548D01*
X198512881Y-82117357D01*
X198536690Y-82164976D01*
X198536690Y-82260214D01*
X198512881Y-82307833D01*
X198489071Y-82331643D01*
X198441452Y-82355452D01*
X198346214Y-82355452D01*
X198298595Y-82331643D01*
X198274786Y-82307833D01*
X198250976Y-82260214D01*
D11*
X202985714Y-58174096D02*
X203652381Y-58174096D01*
X202604762Y-57936000D02*
X203319048Y-57697905D01*
X203319048Y-58316953D01*
X202652381Y-58602667D02*
X202652381Y-59269334D01*
X203652381Y-58840762D01*
X202652381Y-59840762D02*
X202652381Y-59936001D01*
X202700000Y-60031239D01*
X202747619Y-60078858D01*
X202842857Y-60126477D01*
X203033333Y-60174096D01*
X203271429Y-60174096D01*
X203461905Y-60126477D01*
X203557143Y-60078858D01*
X203604762Y-60031239D01*
X203652381Y-59936001D01*
X203652381Y-59840762D01*
X203604762Y-59745524D01*
X203557143Y-59697905D01*
X203461905Y-59650286D01*
X203271429Y-59602667D01*
X203033333Y-59602667D01*
X202842857Y-59650286D01*
X202747619Y-59697905D01*
X202700000Y-59745524D01*
X202652381Y-59840762D01*
X203652381Y-61174096D02*
X203176190Y-60840762D01*
X203652381Y-60602667D02*
X202652381Y-60602667D01*
X202652381Y-60983620D01*
X202700000Y-61078858D01*
X202747619Y-61126477D01*
X202842857Y-61174096D01*
X202985714Y-61174096D01*
X203080952Y-61126477D01*
X203128571Y-61078858D01*
X203176190Y-60983620D01*
X203176190Y-60602667D01*
D12*
X200886190Y-54669572D02*
X200648095Y-54502905D01*
X200886190Y-54383858D02*
X200386190Y-54383858D01*
X200386190Y-54574334D01*
X200410000Y-54621953D01*
X200433810Y-54645762D01*
X200481429Y-54669572D01*
X200552857Y-54669572D01*
X200600476Y-54645762D01*
X200624286Y-54621953D01*
X200648095Y-54574334D01*
X200648095Y-54383858D01*
X200552857Y-55098143D02*
X200886190Y-55098143D01*
X200362381Y-54979096D02*
X200719524Y-54860048D01*
X200719524Y-55169572D01*
X200386190Y-55312429D02*
X200386190Y-55645762D01*
X200886190Y-55431476D01*
D11*
X200445714Y-58174096D02*
X201112381Y-58174096D01*
X200064762Y-57936000D02*
X200779048Y-57697905D01*
X200779048Y-58316953D01*
X200112381Y-58602667D02*
X200112381Y-59269334D01*
X201112381Y-58840762D01*
X200112381Y-59840762D02*
X200112381Y-59936001D01*
X200160000Y-60031239D01*
X200207619Y-60078858D01*
X200302857Y-60126477D01*
X200493333Y-60174096D01*
X200731429Y-60174096D01*
X200921905Y-60126477D01*
X201017143Y-60078858D01*
X201064762Y-60031239D01*
X201112381Y-59936001D01*
X201112381Y-59840762D01*
X201064762Y-59745524D01*
X201017143Y-59697905D01*
X200921905Y-59650286D01*
X200731429Y-59602667D01*
X200493333Y-59602667D01*
X200302857Y-59650286D01*
X200207619Y-59697905D01*
X200160000Y-59745524D01*
X200112381Y-59840762D01*
X201112381Y-61174096D02*
X200636190Y-60840762D01*
X201112381Y-60602667D02*
X200112381Y-60602667D01*
X200112381Y-60983620D01*
X200160000Y-61078858D01*
X200207619Y-61126477D01*
X200302857Y-61174096D01*
X200445714Y-61174096D01*
X200540952Y-61126477D01*
X200588571Y-61078858D01*
X200636190Y-60983620D01*
X200636190Y-60602667D01*
D12*
X203172190Y-54606072D02*
X202934095Y-54439405D01*
X203172190Y-54320358D02*
X202672190Y-54320358D01*
X202672190Y-54510834D01*
X202696000Y-54558453D01*
X202719810Y-54582262D01*
X202767429Y-54606072D01*
X202838857Y-54606072D01*
X202886476Y-54582262D01*
X202910286Y-54558453D01*
X202934095Y-54510834D01*
X202934095Y-54320358D01*
X202838857Y-55034643D02*
X203172190Y-55034643D01*
X202648381Y-54915596D02*
X203005524Y-54796548D01*
X203005524Y-55106072D01*
X203172190Y-55320357D02*
X203172190Y-55415595D01*
X203148381Y-55463214D01*
X203124571Y-55487024D01*
X203053143Y-55534643D01*
X202957905Y-55558452D01*
X202767429Y-55558452D01*
X202719810Y-55534643D01*
X202696000Y-55510833D01*
X202672190Y-55463214D01*
X202672190Y-55367976D01*
X202696000Y-55320357D01*
X202719810Y-55296548D01*
X202767429Y-55272738D01*
X202886476Y-55272738D01*
X202934095Y-55296548D01*
X202957905Y-55320357D01*
X202981714Y-55367976D01*
X202981714Y-55463214D01*
X202957905Y-55510833D01*
X202934095Y-55534643D01*
X202886476Y-55558452D01*
D11*
X209097619Y-101385905D02*
X209050000Y-101433524D01*
X209002381Y-101528762D01*
X209002381Y-101766858D01*
X209050000Y-101862096D01*
X209097619Y-101909715D01*
X209192857Y-101957334D01*
X209288095Y-101957334D01*
X209430952Y-101909715D01*
X210002381Y-101338286D01*
X210002381Y-101957334D01*
X209097619Y-102338286D02*
X209050000Y-102385905D01*
X209002381Y-102481143D01*
X209002381Y-102719239D01*
X209050000Y-102814477D01*
X209097619Y-102862096D01*
X209192857Y-102909715D01*
X209288095Y-102909715D01*
X209430952Y-102862096D01*
X210002381Y-102290667D01*
X210002381Y-102909715D01*
X209002381Y-103528762D02*
X209002381Y-103624001D01*
X209050000Y-103719239D01*
X209097619Y-103766858D01*
X209192857Y-103814477D01*
X209383333Y-103862096D01*
X209621429Y-103862096D01*
X209811905Y-103814477D01*
X209907143Y-103766858D01*
X209954762Y-103719239D01*
X210002381Y-103624001D01*
X210002381Y-103528762D01*
X209954762Y-103433524D01*
X209907143Y-103385905D01*
X209811905Y-103338286D01*
X209621429Y-103290667D01*
X209383333Y-103290667D01*
X209192857Y-103338286D01*
X209097619Y-103385905D01*
X209050000Y-103433524D01*
X209002381Y-103528762D01*
X210002381Y-104862096D02*
X209526190Y-104528762D01*
X210002381Y-104290667D02*
X209002381Y-104290667D01*
X209002381Y-104671620D01*
X209050000Y-104766858D01*
X209097619Y-104814477D01*
X209192857Y-104862096D01*
X209335714Y-104862096D01*
X209430952Y-104814477D01*
X209478571Y-104766858D01*
X209526190Y-104671620D01*
X209526190Y-104290667D01*
D12*
X209776190Y-102802572D02*
X209538095Y-102635905D01*
X209776190Y-102516858D02*
X209276190Y-102516858D01*
X209276190Y-102707334D01*
X209300000Y-102754953D01*
X209323810Y-102778762D01*
X209371429Y-102802572D01*
X209442857Y-102802572D01*
X209490476Y-102778762D01*
X209514286Y-102754953D01*
X209538095Y-102707334D01*
X209538095Y-102516858D01*
X209276190Y-103254953D02*
X209276190Y-103016858D01*
X209514286Y-102993048D01*
X209490476Y-103016858D01*
X209466667Y-103064477D01*
X209466667Y-103183524D01*
X209490476Y-103231143D01*
X209514286Y-103254953D01*
X209561905Y-103278762D01*
X209680952Y-103278762D01*
X209728571Y-103254953D01*
X209752381Y-103231143D01*
X209776190Y-103183524D01*
X209776190Y-103064477D01*
X209752381Y-103016858D01*
X209728571Y-102993048D01*
X209276190Y-103588286D02*
X209276190Y-103635905D01*
X209300000Y-103683524D01*
X209323810Y-103707333D01*
X209371429Y-103731143D01*
X209466667Y-103754952D01*
X209585714Y-103754952D01*
X209680952Y-103731143D01*
X209728571Y-103707333D01*
X209752381Y-103683524D01*
X209776190Y-103635905D01*
X209776190Y-103588286D01*
X209752381Y-103540667D01*
X209728571Y-103516857D01*
X209680952Y-103493048D01*
X209585714Y-103469238D01*
X209466667Y-103469238D01*
X209371429Y-103493048D01*
X209323810Y-103516857D01*
X209300000Y-103540667D01*
X209276190Y-103588286D01*
D11*
X210875619Y-23661905D02*
X210828000Y-23709524D01*
X210780381Y-23804762D01*
X210780381Y-24042858D01*
X210828000Y-24138096D01*
X210875619Y-24185715D01*
X210970857Y-24233334D01*
X211066095Y-24233334D01*
X211208952Y-24185715D01*
X211780381Y-23614286D01*
X211780381Y-24233334D01*
X210875619Y-24614286D02*
X210828000Y-24661905D01*
X210780381Y-24757143D01*
X210780381Y-24995239D01*
X210828000Y-25090477D01*
X210875619Y-25138096D01*
X210970857Y-25185715D01*
X211066095Y-25185715D01*
X211208952Y-25138096D01*
X211780381Y-24566667D01*
X211780381Y-25185715D01*
X210780381Y-25804762D02*
X210780381Y-25900001D01*
X210828000Y-25995239D01*
X210875619Y-26042858D01*
X210970857Y-26090477D01*
X211161333Y-26138096D01*
X211399429Y-26138096D01*
X211589905Y-26090477D01*
X211685143Y-26042858D01*
X211732762Y-25995239D01*
X211780381Y-25900001D01*
X211780381Y-25804762D01*
X211732762Y-25709524D01*
X211685143Y-25661905D01*
X211589905Y-25614286D01*
X211399429Y-25566667D01*
X211161333Y-25566667D01*
X210970857Y-25614286D01*
X210875619Y-25661905D01*
X210828000Y-25709524D01*
X210780381Y-25804762D01*
X211780381Y-27138096D02*
X211304190Y-26804762D01*
X211780381Y-26566667D02*
X210780381Y-26566667D01*
X210780381Y-26947620D01*
X210828000Y-27042858D01*
X210875619Y-27090477D01*
X210970857Y-27138096D01*
X211113714Y-27138096D01*
X211208952Y-27090477D01*
X211256571Y-27042858D01*
X211304190Y-26947620D01*
X211304190Y-26566667D01*
D12*
X211554190Y-25078572D02*
X211316095Y-24911905D01*
X211554190Y-24792858D02*
X211054190Y-24792858D01*
X211054190Y-24983334D01*
X211078000Y-25030953D01*
X211101810Y-25054762D01*
X211149429Y-25078572D01*
X211220857Y-25078572D01*
X211268476Y-25054762D01*
X211292286Y-25030953D01*
X211316095Y-24983334D01*
X211316095Y-24792858D01*
X211054190Y-25530953D02*
X211054190Y-25292858D01*
X211292286Y-25269048D01*
X211268476Y-25292858D01*
X211244667Y-25340477D01*
X211244667Y-25459524D01*
X211268476Y-25507143D01*
X211292286Y-25530953D01*
X211339905Y-25554762D01*
X211458952Y-25554762D01*
X211506571Y-25530953D01*
X211530381Y-25507143D01*
X211554190Y-25459524D01*
X211554190Y-25340477D01*
X211530381Y-25292858D01*
X211506571Y-25269048D01*
X211554190Y-26030952D02*
X211554190Y-25745238D01*
X211554190Y-25888095D02*
X211054190Y-25888095D01*
X211125619Y-25840476D01*
X211173238Y-25792857D01*
X211197048Y-25745238D01*
D11*
X147010381Y-75875333D02*
X146010381Y-75875333D01*
X146724667Y-76208667D01*
X146010381Y-76542000D01*
X147010381Y-76542000D01*
X146915143Y-77589619D02*
X146962762Y-77542000D01*
X147010381Y-77399143D01*
X147010381Y-77303905D01*
X146962762Y-77161047D01*
X146867524Y-77065809D01*
X146772286Y-77018190D01*
X146581810Y-76970571D01*
X146438952Y-76970571D01*
X146248476Y-77018190D01*
X146153238Y-77065809D01*
X146058000Y-77161047D01*
X146010381Y-77303905D01*
X146010381Y-77399143D01*
X146058000Y-77542000D01*
X146105619Y-77589619D01*
X147010381Y-78018190D02*
X146010381Y-78018190D01*
X146010381Y-78399143D01*
X146058000Y-78494381D01*
X146105619Y-78542000D01*
X146200857Y-78589619D01*
X146343714Y-78589619D01*
X146438952Y-78542000D01*
X146486571Y-78494381D01*
X146534190Y-78399143D01*
X146534190Y-78018190D01*
X147010381Y-79542000D02*
X147010381Y-78970571D01*
X147010381Y-79256285D02*
X146010381Y-79256285D01*
X146153238Y-79161047D01*
X146248476Y-79065809D01*
X146296095Y-78970571D01*
X146010381Y-80399143D02*
X146010381Y-80208666D01*
X146058000Y-80113428D01*
X146105619Y-80065809D01*
X146248476Y-79970571D01*
X146438952Y-79922952D01*
X146819905Y-79922952D01*
X146915143Y-79970571D01*
X146962762Y-80018190D01*
X147010381Y-80113428D01*
X147010381Y-80303905D01*
X146962762Y-80399143D01*
X146915143Y-80446762D01*
X146819905Y-80494381D01*
X146581810Y-80494381D01*
X146486571Y-80446762D01*
X146438952Y-80399143D01*
X146391333Y-80303905D01*
X146391333Y-80113428D01*
X146438952Y-80018190D01*
X146486571Y-79970571D01*
X146581810Y-79922952D01*
X146343714Y-81351524D02*
X147010381Y-81351524D01*
X145962762Y-81113428D02*
X146677048Y-80875333D01*
X146677048Y-81494381D01*
X146010381Y-82065809D02*
X146010381Y-82161048D01*
X146058000Y-82256286D01*
X146105619Y-82303905D01*
X146200857Y-82351524D01*
X146391333Y-82399143D01*
X146629429Y-82399143D01*
X146819905Y-82351524D01*
X146915143Y-82303905D01*
X146962762Y-82256286D01*
X147010381Y-82161048D01*
X147010381Y-82065809D01*
X146962762Y-81970571D01*
X146915143Y-81922952D01*
X146819905Y-81875333D01*
X146629429Y-81827714D01*
X146391333Y-81827714D01*
X146200857Y-81875333D01*
X146105619Y-81922952D01*
X146058000Y-81970571D01*
X146010381Y-82065809D01*
X146343714Y-82684857D02*
X146343714Y-83065809D01*
X146010381Y-82827714D02*
X146867524Y-82827714D01*
X146962762Y-82875333D01*
X147010381Y-82970571D01*
X147010381Y-83065809D01*
X146629429Y-83399143D02*
X146629429Y-84161048D01*
X147010381Y-84637238D02*
X146343714Y-84637238D01*
X146010381Y-84637238D02*
X146058000Y-84589619D01*
X146105619Y-84637238D01*
X146058000Y-84684857D01*
X146010381Y-84637238D01*
X146105619Y-84637238D01*
X145962762Y-85827714D02*
X147248476Y-84970571D01*
X146962762Y-86589619D02*
X147010381Y-86494381D01*
X147010381Y-86303904D01*
X146962762Y-86208666D01*
X146915143Y-86161047D01*
X146819905Y-86113428D01*
X146534190Y-86113428D01*
X146438952Y-86161047D01*
X146391333Y-86208666D01*
X146343714Y-86303904D01*
X146343714Y-86494381D01*
X146391333Y-86589619D01*
X147010381Y-87018190D02*
X146010381Y-87018190D01*
X147010381Y-87446762D02*
X146486571Y-87446762D01*
X146391333Y-87399143D01*
X146343714Y-87303905D01*
X146343714Y-87161047D01*
X146391333Y-87065809D01*
X146438952Y-87018190D01*
X146343714Y-87827714D02*
X147010381Y-88065809D01*
X146343714Y-88303905D02*
X147010381Y-88065809D01*
X147248476Y-87970571D01*
X147296095Y-87922952D01*
X147343714Y-87827714D01*
D12*
X150113952Y-77450190D02*
X150113952Y-77854952D01*
X150090143Y-77902571D01*
X150066333Y-77926381D01*
X150018714Y-77950190D01*
X149923476Y-77950190D01*
X149875857Y-77926381D01*
X149852048Y-77902571D01*
X149828238Y-77854952D01*
X149828238Y-77450190D01*
X149328238Y-77950190D02*
X149613952Y-77950190D01*
X149471095Y-77950190D02*
X149471095Y-77450190D01*
X149518714Y-77521619D01*
X149566333Y-77569238D01*
X149613952Y-77593048D01*
D11*
X194889238Y-73604381D02*
X195365429Y-73604381D01*
X195365429Y-72604381D01*
X194508286Y-73604381D02*
X194317810Y-73604381D01*
X194222571Y-73556762D01*
X194174952Y-73509143D01*
X194079714Y-73366286D01*
X194032095Y-73175810D01*
X194032095Y-72794857D01*
X194079714Y-72699619D01*
X194127333Y-72652000D01*
X194222571Y-72604381D01*
X194413048Y-72604381D01*
X194508286Y-72652000D01*
X194555905Y-72699619D01*
X194603524Y-72794857D01*
X194603524Y-73032952D01*
X194555905Y-73128190D01*
X194508286Y-73175810D01*
X194413048Y-73223429D01*
X194222571Y-73223429D01*
X194127333Y-73175810D01*
X194079714Y-73128190D01*
X194032095Y-73032952D01*
X193079714Y-73604381D02*
X193651143Y-73604381D01*
X193365429Y-73604381D02*
X193365429Y-72604381D01*
X193460667Y-72747238D01*
X193555905Y-72842476D01*
X193651143Y-72890095D01*
X192127333Y-73604381D02*
X192698762Y-73604381D01*
X192413048Y-73604381D02*
X192413048Y-72604381D01*
X192508286Y-72747238D01*
X192603524Y-72842476D01*
X192698762Y-72890095D01*
X191508286Y-72604381D02*
X191413047Y-72604381D01*
X191317809Y-72652000D01*
X191270190Y-72699619D01*
X191222571Y-72794857D01*
X191174952Y-72985333D01*
X191174952Y-73223429D01*
X191222571Y-73413905D01*
X191270190Y-73509143D01*
X191317809Y-73556762D01*
X191413047Y-73604381D01*
X191508286Y-73604381D01*
X191603524Y-73556762D01*
X191651143Y-73509143D01*
X191698762Y-73413905D01*
X191746381Y-73223429D01*
X191746381Y-72985333D01*
X191698762Y-72794857D01*
X191651143Y-72699619D01*
X191603524Y-72652000D01*
X191508286Y-72604381D01*
X193000381Y-76835095D02*
X193809905Y-76835095D01*
X193905143Y-76882714D01*
X193952762Y-76930333D01*
X194000381Y-77025571D01*
X194000381Y-77216048D01*
X193952762Y-77311286D01*
X193905143Y-77358905D01*
X193809905Y-77406524D01*
X193000381Y-77406524D01*
X193095619Y-77835095D02*
X193048000Y-77882714D01*
X193000381Y-77977952D01*
X193000381Y-78216048D01*
X193048000Y-78311286D01*
X193095619Y-78358905D01*
X193190857Y-78406524D01*
X193286095Y-78406524D01*
X193428952Y-78358905D01*
X194000381Y-77787476D01*
X194000381Y-78406524D01*
X195143238Y-61412381D02*
X195619429Y-61412381D01*
X195619429Y-60412381D01*
X194762286Y-61412381D02*
X194571810Y-61412381D01*
X194476571Y-61364762D01*
X194428952Y-61317143D01*
X194333714Y-61174286D01*
X194286095Y-60983810D01*
X194286095Y-60602857D01*
X194333714Y-60507619D01*
X194381333Y-60460000D01*
X194476571Y-60412381D01*
X194667048Y-60412381D01*
X194762286Y-60460000D01*
X194809905Y-60507619D01*
X194857524Y-60602857D01*
X194857524Y-60840952D01*
X194809905Y-60936190D01*
X194762286Y-60983810D01*
X194667048Y-61031429D01*
X194476571Y-61031429D01*
X194381333Y-60983810D01*
X194333714Y-60936190D01*
X194286095Y-60840952D01*
X193333714Y-61412381D02*
X193905143Y-61412381D01*
X193619429Y-61412381D02*
X193619429Y-60412381D01*
X193714667Y-60555238D01*
X193809905Y-60650476D01*
X193905143Y-60698095D01*
X192381333Y-61412381D02*
X192952762Y-61412381D01*
X192667048Y-61412381D02*
X192667048Y-60412381D01*
X192762286Y-60555238D01*
X192857524Y-60650476D01*
X192952762Y-60698095D01*
X191762286Y-60412381D02*
X191667047Y-60412381D01*
X191571809Y-60460000D01*
X191524190Y-60507619D01*
X191476571Y-60602857D01*
X191428952Y-60793333D01*
X191428952Y-61031429D01*
X191476571Y-61221905D01*
X191524190Y-61317143D01*
X191571809Y-61364762D01*
X191667047Y-61412381D01*
X191762286Y-61412381D01*
X191857524Y-61364762D01*
X191905143Y-61317143D01*
X191952762Y-61221905D01*
X192000381Y-61031429D01*
X192000381Y-60793333D01*
X191952762Y-60602857D01*
X191905143Y-60507619D01*
X191857524Y-60460000D01*
X191762286Y-60412381D01*
X193063881Y-55435595D02*
X193873405Y-55435595D01*
X193968643Y-55483214D01*
X194016262Y-55530833D01*
X194063881Y-55626071D01*
X194063881Y-55816548D01*
X194016262Y-55911786D01*
X193968643Y-55959405D01*
X193873405Y-56007024D01*
X193063881Y-56007024D01*
X193063881Y-56387976D02*
X193063881Y-57007024D01*
X193444833Y-56673690D01*
X193444833Y-56816548D01*
X193492452Y-56911786D01*
X193540071Y-56959405D01*
X193635310Y-57007024D01*
X193873405Y-57007024D01*
X193968643Y-56959405D01*
X194016262Y-56911786D01*
X194063881Y-56816548D01*
X194063881Y-56530833D01*
X194016262Y-56435595D01*
X193968643Y-56387976D01*
X141196381Y-74954571D02*
X140196381Y-74954571D01*
X140196381Y-75192666D01*
X140244000Y-75335524D01*
X140339238Y-75430762D01*
X140434476Y-75478381D01*
X140624952Y-75526000D01*
X140767810Y-75526000D01*
X140958286Y-75478381D01*
X141053524Y-75430762D01*
X141148762Y-75335524D01*
X141196381Y-75192666D01*
X141196381Y-74954571D01*
X141196381Y-75954571D02*
X140196381Y-75954571D01*
X140196381Y-76621237D02*
X140196381Y-76811714D01*
X140244000Y-76906952D01*
X140339238Y-77002190D01*
X140529714Y-77049809D01*
X140863048Y-77049809D01*
X141053524Y-77002190D01*
X141148762Y-76906952D01*
X141196381Y-76811714D01*
X141196381Y-76621237D01*
X141148762Y-76525999D01*
X141053524Y-76430761D01*
X140863048Y-76383142D01*
X140529714Y-76383142D01*
X140339238Y-76430761D01*
X140244000Y-76525999D01*
X140196381Y-76621237D01*
X141196381Y-77478380D02*
X140196381Y-77478380D01*
X140196381Y-77716475D01*
X140244000Y-77859333D01*
X140339238Y-77954571D01*
X140434476Y-78002190D01*
X140624952Y-78049809D01*
X140767810Y-78049809D01*
X140958286Y-78002190D01*
X141053524Y-77954571D01*
X141148762Y-77859333D01*
X141196381Y-77716475D01*
X141196381Y-77478380D01*
X140672571Y-78478380D02*
X140672571Y-78811714D01*
X141196381Y-78954571D02*
X141196381Y-78478380D01*
X140196381Y-78478380D01*
X140196381Y-78954571D01*
X141291619Y-79145047D02*
X141291619Y-79906952D01*
X141148762Y-80097428D02*
X141196381Y-80240285D01*
X141196381Y-80478381D01*
X141148762Y-80573619D01*
X141101143Y-80621238D01*
X141005905Y-80668857D01*
X140910667Y-80668857D01*
X140815429Y-80621238D01*
X140767810Y-80573619D01*
X140720190Y-80478381D01*
X140672571Y-80287904D01*
X140624952Y-80192666D01*
X140577333Y-80145047D01*
X140482095Y-80097428D01*
X140386857Y-80097428D01*
X140291619Y-80145047D01*
X140244000Y-80192666D01*
X140196381Y-80287904D01*
X140196381Y-80526000D01*
X140244000Y-80668857D01*
X141101143Y-81668857D02*
X141148762Y-81621238D01*
X141196381Y-81478381D01*
X141196381Y-81383143D01*
X141148762Y-81240285D01*
X141053524Y-81145047D01*
X140958286Y-81097428D01*
X140767810Y-81049809D01*
X140624952Y-81049809D01*
X140434476Y-81097428D01*
X140339238Y-81145047D01*
X140244000Y-81240285D01*
X140196381Y-81383143D01*
X140196381Y-81478381D01*
X140244000Y-81621238D01*
X140291619Y-81668857D01*
X141196381Y-82097428D02*
X140196381Y-82097428D01*
X140672571Y-82097428D02*
X140672571Y-82668857D01*
X141196381Y-82668857D02*
X140196381Y-82668857D01*
X140196381Y-83335523D02*
X140196381Y-83526000D01*
X140244000Y-83621238D01*
X140339238Y-83716476D01*
X140529714Y-83764095D01*
X140863048Y-83764095D01*
X141053524Y-83716476D01*
X141148762Y-83621238D01*
X141196381Y-83526000D01*
X141196381Y-83335523D01*
X141148762Y-83240285D01*
X141053524Y-83145047D01*
X140863048Y-83097428D01*
X140529714Y-83097428D01*
X140339238Y-83145047D01*
X140244000Y-83240285D01*
X140196381Y-83335523D01*
X140196381Y-84049809D02*
X140196381Y-84621238D01*
X141196381Y-84335523D02*
X140196381Y-84335523D01*
X140196381Y-84811714D02*
X140196381Y-85383143D01*
X141196381Y-85097428D02*
X140196381Y-85097428D01*
X141196381Y-85716476D02*
X140196381Y-85716476D01*
X141196381Y-86287905D02*
X140624952Y-85859333D01*
X140196381Y-86287905D02*
X140767810Y-85716476D01*
X140720190Y-86906952D02*
X141196381Y-86906952D01*
X140196381Y-86573619D02*
X140720190Y-86906952D01*
X140196381Y-87240286D01*
X144696381Y-80287905D02*
X143696381Y-80287905D01*
X143696381Y-80526000D01*
X143744000Y-80668858D01*
X143839238Y-80764096D01*
X143934476Y-80811715D01*
X144124952Y-80859334D01*
X144267810Y-80859334D01*
X144458286Y-80811715D01*
X144553524Y-80764096D01*
X144648762Y-80668858D01*
X144696381Y-80526000D01*
X144696381Y-80287905D01*
X144696381Y-81811715D02*
X144696381Y-81240286D01*
X144696381Y-81526000D02*
X143696381Y-81526000D01*
X143839238Y-81430762D01*
X143934476Y-81335524D01*
X143982095Y-81240286D01*
X214463238Y-38044381D02*
X215034667Y-38044381D01*
X214748953Y-38044381D02*
X214748953Y-37044381D01*
X214844191Y-37187238D01*
X214939429Y-37282476D01*
X215034667Y-37330095D01*
X213844191Y-37044381D02*
X213748952Y-37044381D01*
X213653714Y-37092000D01*
X213606095Y-37139619D01*
X213558476Y-37234857D01*
X213510857Y-37425333D01*
X213510857Y-37663429D01*
X213558476Y-37853905D01*
X213606095Y-37949143D01*
X213653714Y-37996762D01*
X213748952Y-38044381D01*
X213844191Y-38044381D01*
X213939429Y-37996762D01*
X213987048Y-37949143D01*
X214034667Y-37853905D01*
X214082286Y-37663429D01*
X214082286Y-37425333D01*
X214034667Y-37234857D01*
X213987048Y-37139619D01*
X213939429Y-37092000D01*
X213844191Y-37044381D01*
X213082286Y-38044381D02*
X213082286Y-37044381D01*
X212987048Y-37663429D02*
X212701333Y-38044381D01*
X212701333Y-37377714D02*
X213082286Y-37758667D01*
D12*
X214189428Y-37818190D02*
X214356095Y-37580095D01*
X214475142Y-37818190D02*
X214475142Y-37318190D01*
X214284666Y-37318190D01*
X214237047Y-37342000D01*
X214213238Y-37365810D01*
X214189428Y-37413429D01*
X214189428Y-37484857D01*
X214213238Y-37532476D01*
X214237047Y-37556286D01*
X214284666Y-37580095D01*
X214475142Y-37580095D01*
X213737047Y-37318190D02*
X213975142Y-37318190D01*
X213998952Y-37556286D01*
X213975142Y-37532476D01*
X213927523Y-37508667D01*
X213808476Y-37508667D01*
X213760857Y-37532476D01*
X213737047Y-37556286D01*
X213713238Y-37603905D01*
X213713238Y-37722952D01*
X213737047Y-37770571D01*
X213760857Y-37794381D01*
X213808476Y-37818190D01*
X213927523Y-37818190D01*
X213975142Y-37794381D01*
X213998952Y-37770571D01*
X213522762Y-37365810D02*
X213498952Y-37342000D01*
X213451333Y-37318190D01*
X213332286Y-37318190D01*
X213284667Y-37342000D01*
X213260857Y-37365810D01*
X213237048Y-37413429D01*
X213237048Y-37461048D01*
X213260857Y-37532476D01*
X213546571Y-37818190D01*
X213237048Y-37818190D01*
D11*
X214463238Y-35504381D02*
X215034667Y-35504381D01*
X214748953Y-35504381D02*
X214748953Y-34504381D01*
X214844191Y-34647238D01*
X214939429Y-34742476D01*
X215034667Y-34790095D01*
X213844191Y-34504381D02*
X213748952Y-34504381D01*
X213653714Y-34552000D01*
X213606095Y-34599619D01*
X213558476Y-34694857D01*
X213510857Y-34885333D01*
X213510857Y-35123429D01*
X213558476Y-35313905D01*
X213606095Y-35409143D01*
X213653714Y-35456762D01*
X213748952Y-35504381D01*
X213844191Y-35504381D01*
X213939429Y-35456762D01*
X213987048Y-35409143D01*
X214034667Y-35313905D01*
X214082286Y-35123429D01*
X214082286Y-34885333D01*
X214034667Y-34694857D01*
X213987048Y-34599619D01*
X213939429Y-34552000D01*
X213844191Y-34504381D01*
X213082286Y-35504381D02*
X213082286Y-34504381D01*
X212987048Y-35123429D02*
X212701333Y-35504381D01*
X212701333Y-34837714D02*
X213082286Y-35218667D01*
D12*
X214189428Y-35278190D02*
X214356095Y-35040095D01*
X214475142Y-35278190D02*
X214475142Y-34778190D01*
X214284666Y-34778190D01*
X214237047Y-34802000D01*
X214213238Y-34825810D01*
X214189428Y-34873429D01*
X214189428Y-34944857D01*
X214213238Y-34992476D01*
X214237047Y-35016286D01*
X214284666Y-35040095D01*
X214475142Y-35040095D01*
X213737047Y-34778190D02*
X213975142Y-34778190D01*
X213998952Y-35016286D01*
X213975142Y-34992476D01*
X213927523Y-34968667D01*
X213808476Y-34968667D01*
X213760857Y-34992476D01*
X213737047Y-35016286D01*
X213713238Y-35063905D01*
X213713238Y-35182952D01*
X213737047Y-35230571D01*
X213760857Y-35254381D01*
X213808476Y-35278190D01*
X213927523Y-35278190D01*
X213975142Y-35254381D01*
X213998952Y-35230571D01*
X213546571Y-34778190D02*
X213237048Y-34778190D01*
X213403714Y-34968667D01*
X213332286Y-34968667D01*
X213284667Y-34992476D01*
X213260857Y-35016286D01*
X213237048Y-35063905D01*
X213237048Y-35182952D01*
X213260857Y-35230571D01*
X213284667Y-35254381D01*
X213332286Y-35278190D01*
X213475143Y-35278190D01*
X213522762Y-35254381D01*
X213546571Y-35230571D01*
D11*
X214463238Y-40584381D02*
X215034667Y-40584381D01*
X214748953Y-40584381D02*
X214748953Y-39584381D01*
X214844191Y-39727238D01*
X214939429Y-39822476D01*
X215034667Y-39870095D01*
X213844191Y-39584381D02*
X213748952Y-39584381D01*
X213653714Y-39632000D01*
X213606095Y-39679619D01*
X213558476Y-39774857D01*
X213510857Y-39965333D01*
X213510857Y-40203429D01*
X213558476Y-40393905D01*
X213606095Y-40489143D01*
X213653714Y-40536762D01*
X213748952Y-40584381D01*
X213844191Y-40584381D01*
X213939429Y-40536762D01*
X213987048Y-40489143D01*
X214034667Y-40393905D01*
X214082286Y-40203429D01*
X214082286Y-39965333D01*
X214034667Y-39774857D01*
X213987048Y-39679619D01*
X213939429Y-39632000D01*
X213844191Y-39584381D01*
X213082286Y-40584381D02*
X213082286Y-39584381D01*
X212987048Y-40203429D02*
X212701333Y-40584381D01*
X212701333Y-39917714D02*
X213082286Y-40298667D01*
D12*
X214189428Y-40231190D02*
X214356095Y-39993095D01*
X214475142Y-40231190D02*
X214475142Y-39731190D01*
X214284666Y-39731190D01*
X214237047Y-39755000D01*
X214213238Y-39778810D01*
X214189428Y-39826429D01*
X214189428Y-39897857D01*
X214213238Y-39945476D01*
X214237047Y-39969286D01*
X214284666Y-39993095D01*
X214475142Y-39993095D01*
X213737047Y-39731190D02*
X213975142Y-39731190D01*
X213998952Y-39969286D01*
X213975142Y-39945476D01*
X213927523Y-39921667D01*
X213808476Y-39921667D01*
X213760857Y-39945476D01*
X213737047Y-39969286D01*
X213713238Y-40016905D01*
X213713238Y-40135952D01*
X213737047Y-40183571D01*
X213760857Y-40207381D01*
X213808476Y-40231190D01*
X213927523Y-40231190D01*
X213975142Y-40207381D01*
X213998952Y-40183571D01*
X213284667Y-39897857D02*
X213284667Y-40231190D01*
X213403714Y-39707381D02*
X213522762Y-40064524D01*
X213213238Y-40064524D01*
D11*
X142184381Y-48934762D02*
X142184381Y-48363333D01*
X142184381Y-48649047D02*
X141184381Y-48649047D01*
X141327238Y-48553809D01*
X141422476Y-48458571D01*
X141470095Y-48363333D01*
X141184381Y-49553809D02*
X141184381Y-49649048D01*
X141232000Y-49744286D01*
X141279619Y-49791905D01*
X141374857Y-49839524D01*
X141565333Y-49887143D01*
X141803429Y-49887143D01*
X141993905Y-49839524D01*
X142089143Y-49791905D01*
X142136762Y-49744286D01*
X142184381Y-49649048D01*
X142184381Y-49553809D01*
X142136762Y-49458571D01*
X142089143Y-49410952D01*
X141993905Y-49363333D01*
X141803429Y-49315714D01*
X141565333Y-49315714D01*
X141374857Y-49363333D01*
X141279619Y-49410952D01*
X141232000Y-49458571D01*
X141184381Y-49553809D01*
X142184381Y-50315714D02*
X141184381Y-50315714D01*
X141803429Y-50410952D02*
X142184381Y-50696667D01*
X141517714Y-50696667D02*
X141898667Y-50315714D01*
D12*
X141958190Y-52510572D02*
X141720095Y-52343905D01*
X141958190Y-52224858D02*
X141458190Y-52224858D01*
X141458190Y-52415334D01*
X141482000Y-52462953D01*
X141505810Y-52486762D01*
X141553429Y-52510572D01*
X141624857Y-52510572D01*
X141672476Y-52486762D01*
X141696286Y-52462953D01*
X141720095Y-52415334D01*
X141720095Y-52224858D01*
X141458190Y-52962953D02*
X141458190Y-52724858D01*
X141696286Y-52701048D01*
X141672476Y-52724858D01*
X141648667Y-52772477D01*
X141648667Y-52891524D01*
X141672476Y-52939143D01*
X141696286Y-52962953D01*
X141743905Y-52986762D01*
X141862952Y-52986762D01*
X141910571Y-52962953D01*
X141934381Y-52939143D01*
X141958190Y-52891524D01*
X141958190Y-52772477D01*
X141934381Y-52724858D01*
X141910571Y-52701048D01*
X141458190Y-53439143D02*
X141458190Y-53201048D01*
X141696286Y-53177238D01*
X141672476Y-53201048D01*
X141648667Y-53248667D01*
X141648667Y-53367714D01*
X141672476Y-53415333D01*
X141696286Y-53439143D01*
X141743905Y-53462952D01*
X141862952Y-53462952D01*
X141910571Y-53439143D01*
X141934381Y-53415333D01*
X141958190Y-53367714D01*
X141958190Y-53248667D01*
X141934381Y-53201048D01*
X141910571Y-53177238D01*
D11*
X139390381Y-48680762D02*
X139390381Y-48109333D01*
X139390381Y-48395047D02*
X138390381Y-48395047D01*
X138533238Y-48299809D01*
X138628476Y-48204571D01*
X138676095Y-48109333D01*
X138390381Y-49299809D02*
X138390381Y-49395048D01*
X138438000Y-49490286D01*
X138485619Y-49537905D01*
X138580857Y-49585524D01*
X138771333Y-49633143D01*
X139009429Y-49633143D01*
X139199905Y-49585524D01*
X139295143Y-49537905D01*
X139342762Y-49490286D01*
X139390381Y-49395048D01*
X139390381Y-49299809D01*
X139342762Y-49204571D01*
X139295143Y-49156952D01*
X139199905Y-49109333D01*
X139009429Y-49061714D01*
X138771333Y-49061714D01*
X138580857Y-49109333D01*
X138485619Y-49156952D01*
X138438000Y-49204571D01*
X138390381Y-49299809D01*
X139390381Y-50061714D02*
X138390381Y-50061714D01*
X139009429Y-50156952D02*
X139390381Y-50442667D01*
X138723714Y-50442667D02*
X139104667Y-50061714D01*
D12*
X138990691Y-52447072D02*
X138752596Y-52280405D01*
X138990691Y-52161358D02*
X138490691Y-52161358D01*
X138490691Y-52351834D01*
X138514501Y-52399453D01*
X138538311Y-52423262D01*
X138585930Y-52447072D01*
X138657358Y-52447072D01*
X138704977Y-52423262D01*
X138728787Y-52399453D01*
X138752596Y-52351834D01*
X138752596Y-52161358D01*
X138490691Y-52899453D02*
X138490691Y-52661358D01*
X138728787Y-52637548D01*
X138704977Y-52661358D01*
X138681168Y-52708977D01*
X138681168Y-52828024D01*
X138704977Y-52875643D01*
X138728787Y-52899453D01*
X138776406Y-52923262D01*
X138895453Y-52923262D01*
X138943072Y-52899453D01*
X138966882Y-52875643D01*
X138990691Y-52828024D01*
X138990691Y-52708977D01*
X138966882Y-52661358D01*
X138943072Y-52637548D01*
X138490691Y-53351833D02*
X138490691Y-53256595D01*
X138514501Y-53208976D01*
X138538311Y-53185167D01*
X138609739Y-53137548D01*
X138704977Y-53113738D01*
X138895453Y-53113738D01*
X138943072Y-53137548D01*
X138966882Y-53161357D01*
X138990691Y-53208976D01*
X138990691Y-53304214D01*
X138966882Y-53351833D01*
X138943072Y-53375643D01*
X138895453Y-53399452D01*
X138776406Y-53399452D01*
X138728787Y-53375643D01*
X138704977Y-53351833D01*
X138681168Y-53304214D01*
X138681168Y-53208976D01*
X138704977Y-53161357D01*
X138728787Y-53137548D01*
X138776406Y-53113738D01*
M02*
