G04 #@! TF.FileFunction,Soldermask,Top*
%FSLAX46Y46*%
G04 Gerber Fmt 4.6, Leading zero omitted, Abs format (unit mm)*
G04 Created by KiCad (PCBNEW 4.0.6-e0-6349~53~ubuntu16.04.1) date Thu Jun 29 18:49:34 2017*
%MOMM*%
%LPD*%
G01*
G04 APERTURE LIST*
%ADD10C,0.100000*%
%ADD11R,1.800000X1.800000*%
%ADD12C,1.800000*%
%ADD13R,1.600000X1.000000*%
%ADD14O,1.998980X1.501140*%
%ADD15C,3.500120*%
%ADD16R,1.905000X1.905000*%
%ADD17C,1.905000*%
%ADD18R,1.700000X1.700000*%
%ADD19O,1.700000X1.700000*%
%ADD20R,1.500000X1.500000*%
%ADD21C,1.500000*%
%ADD22R,1.600000X1.600000*%
%ADD23O,1.600000X1.600000*%
%ADD24O,1.524000X1.524000*%
%ADD25O,1.524000X2.540000*%
%ADD26C,3.175000*%
%ADD27C,1.524000*%
%ADD28C,3.200000*%
G04 APERTURE END LIST*
D10*
D11*
X132588000Y-107696000D03*
D12*
X130048000Y-107696000D03*
D11*
X142240000Y-107696000D03*
D12*
X139700000Y-107696000D03*
D11*
X152146000Y-107696000D03*
D12*
X149606000Y-107696000D03*
D11*
X161798000Y-107696000D03*
D12*
X159258000Y-107696000D03*
D11*
X171450000Y-107696000D03*
D12*
X168910000Y-107696000D03*
D11*
X181102000Y-107696000D03*
D12*
X178562000Y-107696000D03*
D11*
X190754000Y-107696000D03*
D12*
X188214000Y-107696000D03*
D11*
X132334000Y-33528000D03*
D12*
X129794000Y-33528000D03*
D11*
X142240000Y-33528000D03*
D12*
X139700000Y-33528000D03*
D11*
X152400000Y-33528000D03*
D12*
X149860000Y-33528000D03*
D11*
X162306000Y-33528000D03*
D12*
X159766000Y-33528000D03*
D11*
X172212000Y-33528000D03*
D12*
X169672000Y-33528000D03*
D11*
X182118000Y-33528000D03*
D12*
X179578000Y-33528000D03*
D11*
X192024000Y-33528000D03*
D12*
X189484000Y-33528000D03*
D11*
X203009500Y-107696000D03*
D12*
X200469500Y-107696000D03*
D11*
X203073000Y-100711000D03*
D12*
X200533000Y-100711000D03*
D11*
X203200000Y-33464500D03*
D12*
X200660000Y-33464500D03*
D11*
X203200000Y-42100500D03*
D12*
X200660000Y-42100500D03*
D13*
X215178000Y-102921000D03*
X215178000Y-106121000D03*
X220178000Y-102921000D03*
X220178000Y-106121000D03*
X215178000Y-23800000D03*
X215178000Y-27000000D03*
X220178000Y-23800000D03*
X220178000Y-27000000D03*
D14*
X206367380Y-35092640D03*
X206367380Y-37592000D03*
X206367380Y-40091360D03*
D15*
X213868000Y-31391860D03*
X213868000Y-43792140D03*
D14*
X220868240Y-35092640D03*
X220868240Y-40091360D03*
D16*
X152273000Y-83693000D03*
D17*
X147193000Y-83693000D03*
D18*
X126365000Y-81153000D03*
D19*
X126365000Y-83693000D03*
D18*
X126365000Y-86233000D03*
D19*
X126365000Y-88773000D03*
D20*
X126746000Y-106680000D03*
D21*
X126746000Y-104680000D03*
X126746000Y-102680000D03*
X126746000Y-100680000D03*
D20*
X136398000Y-106680000D03*
D21*
X136398000Y-104680000D03*
X136398000Y-102680000D03*
X136398000Y-100680000D03*
D20*
X146304000Y-106934000D03*
D21*
X146304000Y-104934000D03*
X146304000Y-102934000D03*
X146304000Y-100934000D03*
D20*
X155956000Y-106934000D03*
D21*
X155956000Y-104934000D03*
X155956000Y-102934000D03*
X155956000Y-100934000D03*
D20*
X165608000Y-106934000D03*
D21*
X165608000Y-104934000D03*
X165608000Y-102934000D03*
X165608000Y-100934000D03*
D20*
X175260000Y-106934000D03*
D21*
X175260000Y-104934000D03*
X175260000Y-102934000D03*
X175260000Y-100934000D03*
D20*
X184912000Y-106934000D03*
D21*
X184912000Y-104934000D03*
X184912000Y-102934000D03*
X184912000Y-100934000D03*
D20*
X127000000Y-34544000D03*
D21*
X127000000Y-36544000D03*
X127000000Y-38544000D03*
X127000000Y-40544000D03*
D20*
X136906000Y-34544000D03*
D21*
X136906000Y-36544000D03*
X136906000Y-38544000D03*
X136906000Y-40544000D03*
D20*
X147066000Y-34544000D03*
D21*
X147066000Y-36544000D03*
X147066000Y-38544000D03*
X147066000Y-40544000D03*
D20*
X156972000Y-34544000D03*
D21*
X156972000Y-36544000D03*
X156972000Y-38544000D03*
X156972000Y-40544000D03*
D20*
X166878000Y-34544000D03*
D21*
X166878000Y-36544000D03*
X166878000Y-38544000D03*
X166878000Y-40544000D03*
D20*
X176784000Y-34544000D03*
D21*
X176784000Y-36544000D03*
X176784000Y-38544000D03*
X176784000Y-40544000D03*
D20*
X186690000Y-34544000D03*
D21*
X186690000Y-36544000D03*
X186690000Y-38544000D03*
X186690000Y-40544000D03*
D20*
X196850000Y-107188000D03*
D21*
X196850000Y-105188000D03*
X196850000Y-103188000D03*
X196850000Y-101188000D03*
D20*
X197612000Y-34798000D03*
D21*
X197612000Y-36798000D03*
X197612000Y-38798000D03*
X197612000Y-40798000D03*
D18*
X126365000Y-57912000D03*
D19*
X126365000Y-55372000D03*
X126365000Y-52832000D03*
D18*
X126238000Y-70358000D03*
D19*
X126238000Y-67818000D03*
X126238000Y-65278000D03*
D18*
X207264000Y-23368000D03*
D19*
X207264000Y-25908000D03*
X207264000Y-28448000D03*
D22*
X162433000Y-85979000D03*
D23*
X164973000Y-85979000D03*
X167513000Y-85979000D03*
X170053000Y-85979000D03*
X172593000Y-85979000D03*
X175133000Y-85979000D03*
X177673000Y-85979000D03*
X180213000Y-85979000D03*
X182753000Y-85979000D03*
D24*
X213179000Y-89525500D03*
X213179000Y-86985500D03*
X213179000Y-84445500D03*
X213179000Y-81905500D03*
X213179000Y-79365500D03*
X213179000Y-76825500D03*
X213179000Y-74285500D03*
X213179000Y-71745500D03*
X213179000Y-69205500D03*
X213179000Y-66665500D03*
X213179000Y-64125500D03*
X213179000Y-61585500D03*
X213179000Y-59045500D03*
X213179000Y-56505500D03*
D18*
X131572000Y-62611000D03*
D19*
X131572000Y-65151000D03*
X131572000Y-67691000D03*
X131572000Y-70231000D03*
X131572000Y-72771000D03*
X131572000Y-75311000D03*
D20*
X219710000Y-64643000D03*
D21*
X219710000Y-62643000D03*
X219710000Y-60643000D03*
X219710000Y-58643000D03*
D20*
X219710000Y-75946000D03*
D21*
X219710000Y-73946000D03*
X219710000Y-71946000D03*
X219710000Y-69946000D03*
D20*
X219710000Y-86995000D03*
D21*
X219710000Y-84995000D03*
X219710000Y-82995000D03*
X219710000Y-80995000D03*
D20*
X209804000Y-116332000D03*
D21*
X211804000Y-116332000D03*
X213804000Y-116332000D03*
X215804000Y-116332000D03*
D12*
X128778000Y-111664000D03*
X128778000Y-117664000D03*
X138684000Y-111664000D03*
X138684000Y-117664000D03*
X148336000Y-111664000D03*
X148336000Y-117664000D03*
X157988000Y-111664000D03*
X157988000Y-117664000D03*
X167640000Y-111664000D03*
X167640000Y-117664000D03*
X177292000Y-111664000D03*
X177292000Y-117664000D03*
X186918600Y-111587800D03*
X186918600Y-117587800D03*
X128524000Y-29560000D03*
X128524000Y-23560000D03*
X138684000Y-29560000D03*
X138684000Y-23560000D03*
X148336000Y-29560000D03*
X148336000Y-23560000D03*
X157988000Y-29560000D03*
X157988000Y-23560000D03*
X167640000Y-29560000D03*
X167640000Y-23560000D03*
X177292000Y-29560000D03*
X177292000Y-23560000D03*
X186944000Y-29560000D03*
X186944000Y-23560000D03*
X199390000Y-111562400D03*
X199390000Y-117562400D03*
X199390000Y-29560000D03*
X199390000Y-23560000D03*
D25*
X180340000Y-46736000D03*
X182880000Y-46736000D03*
X185420000Y-46736000D03*
X187960000Y-46736000D03*
X190500000Y-46736000D03*
X193040000Y-46736000D03*
X195580000Y-46736000D03*
X198120000Y-46736000D03*
X203200000Y-94996000D03*
X200660000Y-94996000D03*
X198120000Y-94996000D03*
X195580000Y-94996000D03*
X185420000Y-94996000D03*
X180340000Y-94996000D03*
X177800000Y-94996000D03*
X187960000Y-94996000D03*
X190500000Y-94996000D03*
X193040000Y-94996000D03*
X175260000Y-94996000D03*
X172720000Y-94996000D03*
X170180000Y-94996000D03*
X162560000Y-94996000D03*
X165100000Y-94996000D03*
X167640000Y-94996000D03*
X157480000Y-94996000D03*
X154940000Y-94996000D03*
X152400000Y-94996000D03*
X147320000Y-94996000D03*
X144780000Y-94996000D03*
X175260000Y-46736000D03*
X172720000Y-46736000D03*
X170180000Y-46736000D03*
X167640000Y-46736000D03*
X165100000Y-46736000D03*
X162560000Y-46736000D03*
X160020000Y-46736000D03*
X157480000Y-46736000D03*
X153416000Y-46736000D03*
X150876000Y-46736000D03*
X148336000Y-46736000D03*
X145796000Y-46736000D03*
X143256000Y-46736000D03*
X140716000Y-46736000D03*
X138176000Y-46736000D03*
X135636000Y-46736000D03*
X149860000Y-94996000D03*
D26*
X208280000Y-94996000D03*
X201930000Y-46736000D03*
X127000000Y-46736000D03*
X125730000Y-94996000D03*
D27*
X205740000Y-49276000D03*
X208280000Y-49276000D03*
X205740000Y-51816000D03*
X208280000Y-51816000D03*
X205740000Y-54356000D03*
X208280000Y-54356000D03*
X205740000Y-56896000D03*
X208280000Y-56896000D03*
X205740000Y-46736000D03*
X208280000Y-46736000D03*
X208280000Y-59436000D03*
X205740000Y-59436000D03*
X205740000Y-61976000D03*
X208280000Y-61976000D03*
X205740000Y-64516000D03*
X208280000Y-64516000D03*
X205740000Y-67056000D03*
X208280000Y-67056000D03*
X205740000Y-69596000D03*
X208280000Y-69596000D03*
X205740000Y-72136000D03*
X208280000Y-72136000D03*
X205740000Y-74676000D03*
X208280000Y-74676000D03*
X205740000Y-77216000D03*
X208280000Y-77216000D03*
X205740000Y-79756000D03*
X208280000Y-79756000D03*
X205740000Y-82296000D03*
X208280000Y-82296000D03*
X205740000Y-84836000D03*
X208280000Y-84836000D03*
X205740000Y-87376000D03*
X208280000Y-87376000D03*
X205740000Y-89916000D03*
X208280000Y-89916000D03*
X175260000Y-67056000D03*
X177800000Y-67056000D03*
X175260000Y-69596000D03*
X177800000Y-69596000D03*
X175260000Y-72136000D03*
X177800000Y-72136000D03*
D26*
X177546000Y-61976000D03*
X177800000Y-89916000D03*
D25*
X142240000Y-94996000D03*
X139700000Y-94996000D03*
X133096000Y-46736000D03*
X130556000Y-46736000D03*
D20*
X219710000Y-53467000D03*
D21*
X219710000Y-51467000D03*
X219710000Y-49467000D03*
X219710000Y-47467000D03*
D20*
X219710000Y-98044000D03*
D21*
X219710000Y-96044000D03*
X219710000Y-94044000D03*
X219710000Y-92044000D03*
D20*
X209804000Y-109347000D03*
D21*
X211804000Y-109347000D03*
X213804000Y-109347000D03*
X215804000Y-109347000D03*
D28*
X132334000Y-51054000D03*
X132207000Y-95123000D03*
M02*
